<svg width="50" height="50" viewBox="0 0 50 50" fill="none" xmlns="http://www.w3.org/2000/svg">
<path d="M8.22873 18.1512L6.04297 14.9528L9.80939 13.4092L12.9707 16.2544L8.22873 18.1512Z" fill="#DCC3FF"/>
<path d="M1.29688 30.764L5.24853 27.6026L43.9747 22.0703L48.7167 26.8123L34.4908 36.2963H32.1198L31.3294 37.8769L17.8938 48.1512L1.29688 30.764Z" fill="#91E2F4"/>
<path d="M9.66404 19.7318L5.0625 14.6737L9.94493 13.4092L14.5465 18.4673" stroke="#171717" stroke-width="1.4" stroke-linecap="round" stroke-linejoin="round"/>
<path d="M17.8938 44.1968L1.29688 26.8095L2.87754 24.4385L1.29688 21.2772L8.40985 17.3256H16.3132L18.6842 3.09961L26.5875 9.42226L30.5391 7.84159L47.1361 24.4385C46.8726 24.702 45.3973 25.545 41.6037 26.8095C37.8102 28.0741 33.437 33.1322 32.9101 35.5032L31.3294 36.2935C25.6391 35.6612 20.0014 41.5624 17.8938 44.1968Z" fill="white"/>
<path d="M30.6153 33.8145C23.7179 25.5376 18.3282 19.3379 16.3164 17.3261L18.6874 1.51953L29.7532 12.6657L33.2019 15.7087L30.6153 33.8145ZM30.6153 33.8145C32.9134 29.1811 35.0987 24.5029 42.6858 25.1927C43.548 25.1927 45.6172 25.0203 46.9967 24.3305L32.123 7.84218C31.2608 8.12957 27.8564 8.98372 27.1666 9.67347" stroke="#171717" stroke-width="1.4" stroke-linecap="round" stroke-linejoin="round"/>
<path d="M46.9924 25.1953L48.7167 26.9197L34.0597 36.4036C33.1975 35.8289 31.4731 35.369 31.4731 38.128L17.6783 48.4741L1.29688 30.3684L3.02123 28.644L17.6783 44.1633C19.1152 41.8641 26.5875 34.7132 31.3294 37.0842" stroke="#171717" stroke-width="1.4" stroke-linecap="round" stroke-linejoin="round"/>
<path d="M30.611 33.8149C27.1622 33.2401 19.7475 33.6424 17.6783 39.8501L1.29688 21.7441C3.30863 19.445 9.05649 16.0536 15.9539 17.4331" stroke="#171717" stroke-width="1.4" stroke-linecap="round" stroke-linejoin="round"/>
<path d="M3.02123 28.6449L1.29688 26.9205C1.29688 26.0583 2.33149 24.334 3.02123 24.334" stroke="#171717" stroke-width="1.4" stroke-linecap="round" stroke-linejoin="round"/>
<path d="M33.6981 35.5065C34.4925 29.9719 41.3319 25.5615 44.8334 25.5412" stroke="#171717" stroke-width="1.4" stroke-linecap="round" stroke-linejoin="round"/>
</svg>
