<svg width="52" height="52" viewBox="0 0 52 52" fill="none" xmlns="http://www.w3.org/2000/svg">
<path d="M9.00781 29.1067C9.00781 20.4222 15.8401 13.2812 24.576 12.4375C26.6744 12.4522 31.2502 12.7012 32.7665 13.5796C39.1152 16.0594 43.6015 22.0686 43.6015 29.1067C43.6015 38.357 35.8637 45.8581 26.3046 45.8581C16.7456 45.8581 9.00781 38.357 9.00781 29.1067Z" fill="white" stroke="white" stroke-width="6" stroke-linecap="round"/>
<path d="M28.9994 10.3205C30.4103 8.19763 29.6204 6.68145 27.4165 7.02627C25.96 7.25266 24.0478 9.60921 26.8791 13.8579" stroke="white" stroke-width="6" stroke-linecap="round"/>
<path d="M28.9955 10.3244C30.4064 8.20154 29.6165 6.68536 27.4126 7.03018C25.9561 7.25657 24.0439 9.61311 26.8752 13.8618" stroke="#464646" stroke-width="1.41601" stroke-linecap="round"/>
<path d="M9.01172 29.1067C9.01172 20.4222 15.844 13.2812 24.5799 12.4375C26.6783 12.4522 31.2541 12.7012 32.7704 13.5796C39.1191 16.0594 43.6054 22.0686 43.6054 29.1067C43.6054 38.357 35.8676 45.8581 26.3085 45.8581C16.7495 45.8581 9.01172 38.357 9.01172 29.1067Z" fill="white" stroke="#464646" stroke-width="1.41601" stroke-linecap="round"/>
<path d="M19.3676 27.4729C20.077 27.437 20.6231 26.8328 20.5872 26.1234C20.5513 25.414 19.9471 24.8679 19.2377 24.9038C18.5282 24.9397 17.9822 25.5439 18.0181 26.2533C18.0539 26.9627 18.6581 27.5088 19.3676 27.4729Z" fill="#464646"/>
<path d="M33.3871 27.4729C34.0966 27.437 34.6426 26.8328 34.6067 26.1234C34.5709 25.414 33.9667 24.8679 33.2572 24.9038C32.5478 24.9397 32.0017 25.5439 32.0376 26.2533C32.0735 26.9627 32.6777 27.5088 33.3871 27.4729Z" fill="#464646"/>
<path d="M21.0534 31.7675L18.8903 32.7491L18.7052 35.4759L19.6664 37.958L23.6845 40.4868L29.4918 40.3975L33.9018 37.1517L34.174 33.1415L32.6462 31.9106L29.7148 32.3551L21.0534 31.7675Z" fill="#464646"/>
<path d="M20.3961 38.1359C20.3961 38.1359 24.7423 32.5715 33.0505 37.5699L31.4928 39.4103L28.3471 40.6471L24.7964 40.7284L21.3328 39.5265L20.3969 38.1256L20.3961 38.1359Z" fill="#FF9D7B"/>
<path d="M33.227 37.59C33.227 37.59 31.4053 40.6902 26.4108 40.673C20.2823 40.6519 18.8718 36.2381 18.8718 36.2381C18.8718 36.2381 17.2938 32.0073 21.5518 31.9597C21.5518 31.9597 27.1761 32.6145 30.4907 31.9925C33.8054 31.3706 35.5954 33.5619 33.227 37.59Z" stroke="#464646" stroke-width="1.41601" stroke-miterlimit="10" stroke-linecap="round"/>
</svg>
