<svg width="52" height="52" viewBox="0 0 52 52" fill="none" xmlns="http://www.w3.org/2000/svg">
<rect x="36.3164" y="12.1133" width="2.75" height="2.82364" fill="white"/>
<mask id="path-2-outside-1_3486_33623" maskUnits="userSpaceOnUse" x="4.08203" y="4.07422" width="44" height="44" fill="black">
<rect fill="white" x="4.08203" y="4.07422" width="44" height="44"/>
<path fill-rule="evenodd" clip-rule="evenodd" d="M26.9707 11.4121C32.4202 11.4121 37.2756 13.9562 40.4268 17.9229C40.9728 17.9405 41.5771 18.0519 42.2432 18.2812H42.2422C45.0503 19.2424 46.0871 22.163 45.9453 24.9238C45.8737 26.3165 45.5044 27.7109 44.8848 28.8721C44.663 29.2876 44.4059 29.6766 44.1172 30.0264C43.4273 38.9213 36.0157 45.9258 26.9707 45.9258C17.9838 45.9257 10.6088 39.0109 9.8379 30.1973C9.42648 29.9592 8.89647 29.6129 8.36622 29.1484C7.24107 28.1627 6.07783 26.6185 6.08204 24.4609C6.08237 22.2196 7.37613 20.1257 9.3379 19.1357H9.33888C10.3023 18.6519 11.5034 18.4025 12.7442 18.9678C15.8394 14.4075 21.0561 11.4122 26.9707 11.4121ZM41.2295 10.4307C41.7233 10.3972 42.2365 10.5467 42.7256 10.9561H42.7266C43.4738 11.5766 43.392 12.737 42.7373 13.4287C42.108 14.0934 40.9368 14.5779 39.6856 14.0938C39.4845 14.0158 39.3843 13.7901 39.4619 13.5889C39.504 13.4801 39.59 13.4019 39.6914 13.3643L39.3897 12.5518C39.259 12.6458 39.0793 12.6545 38.9395 12.5576C38.7622 12.4345 38.7177 12.19 38.8408 12.0127L38.8438 12.0098C38.845 12.008 38.8467 12.0057 38.8486 12.0029C38.8527 11.9972 38.8581 11.9892 38.8652 11.9795C38.8798 11.9596 38.9011 11.9317 38.9277 11.8975C38.9809 11.829 39.0578 11.7344 39.1553 11.626C39.3486 11.4109 39.6304 11.1328 39.9756 10.8994C40.3192 10.6672 40.7482 10.4634 41.2295 10.4307ZM37.2422 6.07422C38.3856 6.07422 39.1686 7.20337 39.0781 8.35742C38.9899 9.4809 38.244 10.8553 36.7022 11.3711C36.4974 11.4395 36.2755 11.3287 36.207 11.124C36.1699 11.0125 36.1868 10.8966 36.2422 10.8027L35.1709 10.1729C35.1389 10.3449 34.9941 10.4798 34.8115 10.4912C34.5963 10.5045 34.4111 10.3412 34.3975 10.126L34.7871 10.1016L34.3975 10.125V10.124C34.3974 10.1233 34.3966 10.1221 34.3965 10.1211C34.3964 10.1186 34.3967 10.1145 34.3965 10.1104C34.3961 10.1019 34.3951 10.0901 34.3945 10.0752C34.3934 10.0452 34.3921 10.0026 34.3916 9.94922C34.3906 9.84216 34.3924 9.69048 34.4033 9.50977C34.4251 9.15026 34.4845 8.66264 34.6358 8.16895C34.7864 7.67733 35.0363 7.15414 35.457 6.75098C35.8872 6.33882 36.4734 6.07427 37.2422 6.07422Z"/>
</mask>
<path fill-rule="evenodd" clip-rule="evenodd" d="M26.9707 11.4121C32.4202 11.4121 37.2756 13.9562 40.4268 17.9229C40.9728 17.9405 41.5771 18.0519 42.2432 18.2812H42.2422C45.0503 19.2424 46.0871 22.163 45.9453 24.9238C45.8737 26.3165 45.5044 27.7109 44.8848 28.8721C44.663 29.2876 44.4059 29.6766 44.1172 30.0264C43.4273 38.9213 36.0157 45.9258 26.9707 45.9258C17.9838 45.9257 10.6088 39.0109 9.8379 30.1973C9.42648 29.9592 8.89647 29.6129 8.36622 29.1484C7.24107 28.1627 6.07783 26.6185 6.08204 24.4609C6.08237 22.2196 7.37613 20.1257 9.3379 19.1357H9.33888C10.3023 18.6519 11.5034 18.4025 12.7442 18.9678C15.8394 14.4075 21.0561 11.4122 26.9707 11.4121ZM41.2295 10.4307C41.7233 10.3972 42.2365 10.5467 42.7256 10.9561H42.7266C43.4738 11.5766 43.392 12.737 42.7373 13.4287C42.108 14.0934 40.9368 14.5779 39.6856 14.0938C39.4845 14.0158 39.3843 13.7901 39.4619 13.5889C39.504 13.4801 39.59 13.4019 39.6914 13.3643L39.3897 12.5518C39.259 12.6458 39.0793 12.6545 38.9395 12.5576C38.7622 12.4345 38.7177 12.19 38.8408 12.0127L38.8438 12.0098C38.845 12.008 38.8467 12.0057 38.8486 12.0029C38.8527 11.9972 38.8581 11.9892 38.8652 11.9795C38.8798 11.9596 38.9011 11.9317 38.9277 11.8975C38.9809 11.829 39.0578 11.7344 39.1553 11.626C39.3486 11.4109 39.6304 11.1328 39.9756 10.8994C40.3192 10.6672 40.7482 10.4634 41.2295 10.4307ZM37.2422 6.07422C38.3856 6.07422 39.1686 7.20337 39.0781 8.35742C38.9899 9.4809 38.244 10.8553 36.7022 11.3711C36.4974 11.4395 36.2755 11.3287 36.207 11.124C36.1699 11.0125 36.1868 10.8966 36.2422 10.8027L35.1709 10.1729C35.1389 10.3449 34.9941 10.4798 34.8115 10.4912C34.5963 10.5045 34.4111 10.3412 34.3975 10.126L34.7871 10.1016L34.3975 10.125V10.124C34.3974 10.1233 34.3966 10.1221 34.3965 10.1211C34.3964 10.1186 34.3967 10.1145 34.3965 10.1104C34.3961 10.1019 34.3951 10.0901 34.3945 10.0752C34.3934 10.0452 34.3921 10.0026 34.3916 9.94922C34.3906 9.84216 34.3924 9.69048 34.4033 9.50977C34.4251 9.15026 34.4845 8.66264 34.6358 8.16895C34.7864 7.67733 35.0363 7.15414 35.457 6.75098C35.8872 6.33882 36.4734 6.07427 37.2422 6.07422Z" fill="white"/>
<path d="M26.9707 11.4121L26.9707 9.59841H26.9707L26.9707 11.4121ZM40.4268 17.9229L39.0066 19.051C39.338 19.4681 39.8359 19.7184 40.3683 19.7356L40.4268 17.9229ZM42.2432 18.2812V20.095C43.1294 20.095 43.8858 19.4546 44.032 18.5805C44.1782 17.7065 43.6715 16.8548 42.8335 16.5663L42.2432 18.2812ZM42.2422 18.2812V16.4675C41.3554 16.4675 40.5987 17.1088 40.4531 17.9835C40.3075 18.8583 40.8158 19.71 41.6548 19.9972L42.2422 18.2812ZM45.9453 24.9238L47.7566 25.0169V25.0168L45.9453 24.9238ZM44.8848 28.8721L46.4849 29.726L46.4849 29.7259L44.8848 28.8721ZM44.1172 30.0264L42.7184 28.8718C42.4808 29.1597 42.3378 29.5139 42.3089 29.8861L44.1172 30.0264ZM26.9707 45.9258L26.9707 47.7395H26.9707L26.9707 45.9258ZM9.8379 30.1973L11.6447 30.0392C11.5932 29.4503 11.2579 28.9235 10.7462 28.6274L9.8379 30.1973ZM8.36622 29.1484L7.17102 30.5126L7.17111 30.5127L8.36622 29.1484ZM6.08204 24.4609L7.89574 24.4645L7.89575 24.4612L6.08204 24.4609ZM9.3379 19.1357V17.322C9.05407 17.322 8.7742 17.3887 8.5208 17.5165L9.3379 19.1357ZM9.33888 19.1357V20.9494C9.62155 20.9494 9.90031 20.8834 10.1529 20.7565L9.33888 19.1357ZM12.7442 18.9678L11.9922 20.6183C12.7967 20.9848 13.7483 20.7178 14.2448 19.9863L12.7442 18.9678ZM41.2295 10.4307L41.1069 8.62111L41.1064 8.62114L41.2295 10.4307ZM42.7256 10.9561L41.5615 12.3469C41.8879 12.6201 42.3 12.7698 42.7256 12.7698V10.9561ZM42.7266 10.9561L43.8853 9.56077C43.5597 9.29037 43.1498 9.14235 42.7266 9.14235V10.9561ZM42.7373 13.4287L44.0544 14.6756L44.0546 14.6755L42.7373 13.4287ZM39.6856 14.0938L39.0302 15.7849L39.0311 15.7853L39.6856 14.0938ZM39.4619 13.5889L37.7705 12.9343L37.7698 12.936L39.4619 13.5889ZM39.6914 13.3643L40.3217 15.0649C40.7729 14.8977 41.1392 14.558 41.3399 14.1206C41.5406 13.6832 41.5592 13.1839 41.3916 12.7328L39.6914 13.3643ZM39.3897 12.5518L41.0899 11.9203C40.8929 11.3898 40.4595 10.9817 39.9182 10.8168C39.3769 10.6519 38.7896 10.7491 38.3303 11.0796L39.3897 12.5518ZM38.9395 12.5576L37.9046 14.0471L37.9064 14.0484L38.9395 12.5576ZM38.8408 12.0127L37.5583 10.7302C37.482 10.8066 37.4126 10.8896 37.351 10.9784L38.8408 12.0127ZM38.8438 12.0098L40.1262 13.2922C40.2 13.2185 40.2673 13.1385 40.3273 13.0531L38.8438 12.0098ZM38.8486 12.0029L37.3716 10.9504L37.3709 10.9513L38.8486 12.0029ZM38.8652 11.9795L37.4018 10.9082L37.4015 10.9085L38.8652 11.9795ZM38.9277 11.8975L37.4955 10.7847L37.4954 10.7848L38.9277 11.8975ZM39.1553 11.626L37.8066 10.4133L37.8065 10.4134L39.1553 11.626ZM39.9756 10.8994L38.96 9.39675L38.9597 9.39693L39.9756 10.8994ZM37.2422 6.07422V4.26052H37.2421L37.2422 6.07422ZM39.0781 8.35742L40.8863 8.49943L40.8863 8.49908L39.0781 8.35742ZM36.7022 11.3711L37.277 13.0913L37.2776 13.0911L36.7022 11.3711ZM36.207 11.124L34.4864 11.6976L34.487 11.6993L36.207 11.124ZM36.2422 10.8027L37.8046 11.7239C38.0491 11.3092 38.1187 10.8143 37.998 10.3483C37.8774 9.88222 37.5765 9.48326 37.1615 9.23926L36.2422 10.8027ZM35.1709 10.1729L36.0902 8.60938C35.5805 8.30967 34.9566 8.27727 34.4186 8.52254C33.8806 8.76781 33.4959 9.25996 33.3878 9.8413L35.1709 10.1729ZM34.8115 10.4912L34.923 12.3015L34.9244 12.3014L34.8115 10.4912ZM34.3975 10.126L34.2841 8.31582C33.8038 8.34592 33.3551 8.56566 33.0369 8.92668C32.7187 9.28769 32.557 9.76037 32.5874 10.2407L34.3975 10.126ZM34.7871 10.1016L34.9005 11.9117C35.8994 11.8491 36.6588 10.9893 36.5974 9.9904C36.5361 8.99149 35.6772 8.23104 34.6782 8.29113L34.7871 10.1016ZM34.3975 10.125H32.5838C32.5838 10.6249 32.7901 11.1027 33.1541 11.4454C33.5181 11.7881 34.0073 11.9654 34.5064 11.9354L34.3975 10.125ZM34.3975 10.124H36.2112C36.2112 10.0325 36.2043 9.94114 36.1905 9.85068L34.3975 10.124ZM34.3965 10.1211L32.585 10.2124L32.5858 10.2256L34.3965 10.1211ZM34.3965 10.1104L36.2079 10.019L36.2079 10.0186L34.3965 10.1104ZM34.3945 10.0752L32.5821 10.1435L32.5821 10.1438L34.3945 10.0752ZM34.3916 9.94922L32.578 9.96675L32.578 9.96691L34.3916 9.94922ZM34.4033 9.50977L32.5929 9.40012L32.5929 9.40023L34.4033 9.50977ZM34.6358 8.16895L32.9016 7.63764L32.9016 7.63778L34.6358 8.16895ZM35.457 6.75098L34.2023 5.44131L34.2023 5.44138L35.457 6.75098ZM26.9707 11.4121L26.9707 13.2258C31.8418 13.2258 36.1836 15.4974 39.0066 19.051L40.4268 17.9229L41.8469 16.7947C38.3677 12.4151 32.9986 9.59841 26.9707 9.59841L26.9707 11.4121ZM40.4268 17.9229L40.3683 19.7356C40.7099 19.7466 41.1347 19.8178 41.6528 19.9962L42.2432 18.2812L42.8335 16.5663C42.0195 16.2861 41.2357 16.1343 40.4853 16.1101L40.4268 17.9229ZM42.2432 18.2812V16.4675H42.2422V18.2812V20.095H42.2432V18.2812ZM42.2422 18.2812L41.6548 19.9972C43.3465 20.5762 44.257 22.4361 44.134 24.8308L45.9453 24.9238L47.7566 25.0168C47.9172 21.8899 46.754 17.9086 42.8296 16.5653L42.2422 18.2812ZM45.9453 24.9238L44.134 24.8307C44.0749 25.9807 43.7683 27.1118 43.2846 28.0182L44.8848 28.8721L46.4849 29.7259C47.2405 28.3099 47.6726 26.6522 47.7566 25.0169L45.9453 24.9238ZM44.8848 28.8721L43.2847 28.0181C43.1152 28.3358 42.9241 28.6226 42.7184 28.8718L44.1172 30.0264L45.516 31.1809C45.8877 30.7305 46.2109 30.2395 46.4849 29.726L44.8848 28.8721ZM44.1172 30.0264L42.3089 29.8861C41.6913 37.8494 35.0557 44.1121 26.9707 44.1121L26.9707 45.9258L26.9707 47.7395C36.9757 47.7395 45.1633 39.9933 45.9255 30.1666L44.1172 30.0264ZM26.9707 45.9258L26.9707 44.1121C18.9377 44.112 12.3349 37.9294 11.6447 30.0392L9.8379 30.1973L8.0311 30.3553C8.88282 40.0923 17.03 47.7394 26.9707 47.7395L26.9707 45.9258ZM9.8379 30.1973L10.7462 28.6274C10.407 28.4311 9.98027 28.1512 9.56134 27.7842L8.36622 29.1484L7.17111 30.5127C7.81266 31.0747 8.44593 31.4873 8.92959 31.7671L9.8379 30.1973ZM8.36622 29.1484L9.56143 27.7843C8.6551 26.9902 7.89293 25.9033 7.89574 24.4645L6.08204 24.4609L4.26834 24.4574C4.26273 27.3338 5.82705 29.3351 7.17102 30.5126L8.36622 29.1484ZM6.08204 24.4609L7.89575 24.4612C7.89597 22.8995 8.80863 21.4344 10.155 20.755L9.3379 19.1357L8.5208 17.5165C5.94363 18.817 4.26877 21.5397 4.26834 24.4607L6.08204 24.4609ZM9.3379 19.1357V20.9494H9.33888V19.1357V17.322H9.3379V19.1357ZM9.33888 19.1357L10.1529 20.7565C10.8093 20.4268 11.412 20.3539 11.9922 20.6183L12.7442 18.9678L13.4961 17.3173C11.5947 16.451 9.79521 16.8769 8.52484 17.515L9.33888 19.1357ZM12.7442 18.9678L14.2448 19.9863C17.0179 15.9007 21.6841 13.2258 26.9707 13.2258L26.9707 11.4121L26.9707 9.59841C20.428 9.59845 14.6608 12.9143 11.2435 17.9492L12.7442 18.9678ZM41.2295 10.4307L41.3521 12.2402C41.3704 12.239 41.3837 12.2405 41.4018 12.2466C41.4209 12.253 41.4753 12.2748 41.5615 12.3469L42.7256 10.9561L43.8897 9.5652C43.0608 8.87154 42.0918 8.55439 41.1069 8.62111L41.2295 10.4307ZM42.7256 10.9561V12.7698H42.7266V10.9561V9.14235H42.7256V10.9561ZM42.7266 10.9561L41.5678 12.3513C41.5227 12.3139 41.4858 12.2627 41.4642 12.2113C41.4444 12.1643 41.4442 12.1345 41.4443 12.1302C41.4444 12.1266 41.4444 12.136 41.4377 12.1525C41.4312 12.1684 41.4235 12.1784 41.4201 12.182L42.7373 13.4287L44.0546 14.6755C45.2294 13.4342 45.6466 11.0235 43.8853 9.56077L42.7266 10.9561ZM42.7373 13.4287L41.4202 12.1818C41.2061 12.4079 40.7893 12.5761 40.34 12.4022L39.6856 14.0938L39.0311 15.7853C41.0844 16.5797 43.0099 15.7788 44.0544 14.6756L42.7373 13.4287ZM39.6856 14.0938L40.3409 12.4026C41.0705 12.6853 41.4375 13.507 41.154 14.2417L39.4619 13.5889L37.7698 12.936C37.3311 14.0731 37.8984 15.3463 39.0302 15.7849L39.6856 14.0938ZM39.4619 13.5889L41.1534 14.2435C40.9955 14.6514 40.6743 14.9343 40.3217 15.0649L39.6914 13.3643L39.0612 11.6636C38.5057 11.8694 38.0125 12.3088 37.7705 12.9343L39.4619 13.5889ZM39.6914 13.3643L41.3916 12.7328L41.0899 11.9203L39.3897 12.5518L37.6894 13.1832L37.9912 13.9957L39.6914 13.3643ZM39.3897 12.5518L38.3303 11.0796C38.7882 10.7501 39.4469 10.7026 39.9725 11.0669L38.9395 12.5576L37.9064 14.0484C38.7117 14.6064 39.7297 14.5415 40.449 14.0239L39.3897 12.5518ZM38.9395 12.5576L39.9744 11.0682C40.6167 11.5145 40.7806 12.3989 40.3307 13.047L38.8408 12.0127L37.351 10.9784C36.6548 11.9811 36.9078 13.3545 37.9046 14.0471L38.9395 12.5576ZM38.8408 12.0127L40.1233 13.2952L40.1262 13.2922L38.8438 12.0098L37.5613 10.7273L37.5583 10.7302L38.8408 12.0127ZM38.8438 12.0098L40.3273 13.0531C40.3244 13.0573 40.3221 13.0605 40.3211 13.0619C40.3201 13.0633 40.3194 13.0642 40.3198 13.0637C40.3198 13.0637 40.323 13.0593 40.3263 13.0546L38.8486 12.0029L37.3709 10.9513C37.3723 10.9493 37.3737 10.9475 37.3721 10.9497C37.3716 10.9504 37.3701 10.9524 37.3684 10.9548C37.3667 10.9572 37.3638 10.9613 37.3602 10.9664L38.8438 12.0098ZM38.8486 12.0029L40.3257 13.0554C40.329 13.0508 40.3319 13.0468 40.3339 13.0438C40.336 13.0409 40.3377 13.0384 40.3388 13.0369C40.3397 13.0356 40.341 13.0338 40.3411 13.0336C40.3416 13.0329 40.3416 13.0329 40.3414 13.0331C40.3406 13.0342 40.3358 13.0411 40.329 13.0505L38.8652 11.9795L37.4015 10.9085C37.3875 10.9276 37.3765 10.9433 37.3702 10.9523C37.3687 10.9545 37.3673 10.9564 37.3665 10.9576C37.3654 10.9592 37.3654 10.9591 37.3651 10.9596C37.3645 10.9605 37.3674 10.9563 37.3716 10.9504L38.8486 12.0029ZM38.8652 11.9795L40.3287 13.0508C40.3263 13.0541 40.3274 13.0525 40.3341 13.0437C40.3403 13.0357 40.3488 13.0247 40.3601 13.0101L38.9277 11.8975L37.4954 10.7848C37.4677 10.8205 37.4327 10.8659 37.4018 10.9082L38.8652 11.9795ZM38.9277 11.8975L40.36 13.0102C40.3908 12.9706 40.4398 12.91 40.504 12.8386L39.1553 11.626L37.8065 10.4134C37.6758 10.5588 37.5711 10.6875 37.4955 10.7847L38.9277 11.8975ZM39.1553 11.626L40.504 12.8386C40.639 12.6884 40.8102 12.5245 40.9915 12.4019L39.9756 10.8994L38.9597 9.39693C38.4506 9.74117 38.0583 10.1334 37.8066 10.4133L39.1553 11.626ZM39.9756 10.8994L40.9912 12.4021C41.0792 12.3426 41.1577 12.3009 41.2239 12.2744C41.2888 12.2485 41.3306 12.2417 41.3526 12.2402L41.2295 10.4307L41.1064 8.62114C40.1944 8.68319 39.4578 9.06026 38.96 9.39675L39.9756 10.8994ZM37.2422 6.07422V7.88792C37.2215 7.88792 37.1932 7.88101 37.172 7.86974C37.1555 7.86093 37.1634 7.86037 37.184 7.8873C37.2051 7.9148 37.2312 7.96072 37.2497 8.02371C37.2679 8.08597 37.2749 8.15228 37.27 8.21576L39.0781 8.35742L40.8863 8.49908C41.0328 6.62975 39.7554 4.26052 37.2422 4.26052V6.07422ZM39.0781 8.35742L37.27 8.21541C37.2282 8.74704 36.8593 9.40602 36.1267 9.6511L36.7022 11.3711L37.2776 13.0911C39.6288 12.3045 40.7515 10.2148 40.8863 8.49943L39.0781 8.35742ZM36.7022 11.3711L36.1273 9.65091C36.8728 9.40175 37.678 9.80407 37.9271 10.5488L36.207 11.124L34.487 11.6993C34.873 12.8534 36.122 13.4773 37.277 13.0913L36.7022 11.3711ZM36.207 11.124L37.9277 10.5505C38.0673 10.9694 37.9976 11.3965 37.8046 11.7239L36.2422 10.8027L34.6798 9.88159C34.3761 10.3967 34.2724 11.0556 34.4864 11.6976L36.207 11.124ZM36.2422 10.8027L37.1615 9.23926L36.0902 8.60938L35.1709 10.1729L34.2516 11.7363L35.3229 12.3662L36.2422 10.8027ZM35.1709 10.1729L33.3878 9.8413C33.5034 9.2192 34.0279 8.72284 34.6987 8.68102L34.8115 10.4912L34.9244 12.3014C35.9603 12.2368 36.7744 11.4706 36.9541 10.5044L35.1709 10.1729ZM34.8115 10.4912L34.7001 8.68094C35.4825 8.63275 36.1579 9.2272 36.2075 10.0113L34.3975 10.126L32.5874 10.2407C32.6643 11.4551 33.7101 12.3762 34.923 12.3015L34.8115 10.4912ZM34.3975 10.126L34.5109 11.9361L34.9005 11.9117L34.7871 10.1016L34.6737 8.29141L34.2841 8.31582L34.3975 10.126ZM34.7871 10.1016L34.6782 8.29113L34.2886 8.31457L34.3975 10.125L34.5064 11.9354L34.896 11.912L34.7871 10.1016ZM34.3975 10.125H36.2112V10.124H34.3975H32.5838V10.125H34.3975ZM34.3975 10.124L36.1905 9.85068C36.1722 9.73067 36.1453 9.63564 36.1268 9.5773C36.1078 9.51712 36.0895 9.47006 36.0789 9.44405C36.0683 9.41768 36.0593 9.39726 36.0572 9.39261C36.0562 9.39032 36.0547 9.38694 36.0557 9.38908C36.056 9.38976 36.0577 9.39354 36.0598 9.39839C36.0639 9.40779 36.0727 9.42829 36.0832 9.45468C36.0937 9.48122 36.1081 9.51941 36.1231 9.56613C36.1381 9.61271 36.1557 9.67388 36.1711 9.74668C36.1865 9.8194 36.2011 9.91067 36.2072 10.0166L34.3965 10.1211L32.5858 10.2256C32.5919 10.3318 32.6066 10.4233 32.622 10.4963C32.6374 10.5694 32.6551 10.6308 32.6702 10.6776C32.6853 10.7246 32.6998 10.7631 32.7104 10.7899C32.721 10.8165 32.73 10.8373 32.7342 10.847C32.7363 10.8519 32.7381 10.8558 32.7384 10.8566C32.7394 10.8589 32.738 10.8557 32.737 10.8535C32.7351 10.8491 32.7262 10.8289 32.7156 10.8028C32.7052 10.777 32.6869 10.7301 32.668 10.6702C32.6496 10.612 32.6228 10.5172 32.6045 10.3974L34.3975 10.124ZM34.3965 10.1211L36.2079 10.0297C36.2087 10.0456 36.2092 10.0597 36.2095 10.0717C36.2098 10.0837 36.21 10.0943 36.2101 10.1032C36.2103 10.1206 36.2101 10.1346 36.21 10.1428C36.2099 10.1511 36.2098 10.1574 36.2097 10.1591C36.2097 10.1601 36.2097 10.1608 36.2097 10.1604C36.2097 10.1603 36.2097 10.1592 36.2098 10.1578C36.2098 10.1551 36.2099 10.1494 36.2101 10.1421C36.2102 10.1348 36.2103 10.125 36.2103 10.1135C36.2103 10.091 36.2099 10.0583 36.2079 10.019L34.3965 10.1104L32.5851 10.2017C32.5832 10.1645 32.5829 10.1339 32.5829 10.1133C32.5829 10.1029 32.583 10.0941 32.5831 10.0877C32.5832 10.0815 32.5833 10.0767 32.5833 10.0748C32.5833 10.074 32.5833 10.0733 32.5833 10.0736C32.5833 10.0737 32.5833 10.0749 32.5833 10.0763C32.5832 10.0788 32.583 10.086 32.5829 10.0951C32.5828 10.1041 32.5827 10.1188 32.5828 10.1369C32.5829 10.1462 32.5831 10.1572 32.5834 10.1695C32.5838 10.1818 32.5843 10.1963 32.5851 10.2124L34.3965 10.1211ZM34.3965 10.1104L36.2079 10.0186C36.2075 10.0112 36.2071 10.005 36.2069 10.0004C36.2066 9.99587 36.2064 9.99198 36.2062 9.9895C36.2061 9.98725 36.2059 9.98471 36.2059 9.98405C36.2058 9.98292 36.2058 9.98275 36.2058 9.98288C36.2058 9.98377 36.2064 9.99333 36.2069 10.0066L34.3945 10.0752L32.5821 10.1438C32.5832 10.1719 32.5846 10.1948 32.5853 10.2075C32.5855 10.2105 32.5857 10.2132 32.5858 10.2148C32.5859 10.2159 32.5859 10.216 32.5859 10.2167C32.586 10.2172 32.586 10.2173 32.586 10.2173C32.586 10.2172 32.5859 10.2169 32.5859 10.2163C32.5859 10.2157 32.5858 10.2148 32.5857 10.2136C32.5856 10.2114 32.5854 10.2073 32.5851 10.2021L34.3965 10.1104ZM34.3945 10.0752L36.207 10.0069C36.2063 9.99066 36.2056 9.96515 36.2052 9.93153L34.3916 9.94922L32.578 9.96691C32.5787 10.04 32.5805 10.0998 32.5821 10.1435L34.3945 10.0752ZM34.3916 9.94922L36.2052 9.93168C36.2045 9.86079 36.2057 9.75193 36.2137 9.6193L34.4033 9.50977L32.5929 9.40023C32.5791 9.62904 32.5766 9.82353 32.578 9.96675L34.3916 9.94922ZM34.4033 9.50977L36.2137 9.61942C36.2301 9.3486 36.2741 9.01305 36.3699 8.70011L34.6358 8.16895L32.9016 7.63778C32.695 8.31223 32.6201 8.95193 32.5929 9.40012L34.4033 9.50977ZM34.6358 8.16895L36.3699 8.70025C36.468 8.38012 36.5929 8.17447 36.7118 8.06057L35.457 6.75098L34.2023 5.44138C33.4796 6.1338 33.1048 6.97453 32.9016 7.63764L34.6358 8.16895ZM35.457 6.75098L36.7118 8.06064C36.7667 8.00798 36.8242 7.97063 36.8918 7.9438C36.9597 7.91687 37.0696 7.88793 37.2423 7.88792L37.2422 6.07422L37.2421 4.26052C36.0166 4.26059 34.9779 4.6983 34.2023 5.44131L35.457 6.75098Z" fill="white" mask="url(#path-2-outside-1_3486_33623)"/>
<path d="M26.3203 13.0654C26.024 13.731 26.2966 14.5229 26.959 14.8545C27.6384 15.1944 28.4651 14.9181 28.8047 14.2393L28.8037 14.2383L28.8066 14.2354C28.8101 14.2284 28.8125 14.2213 28.8154 14.2148L28.8379 14.1709L28.8438 14.1592C28.8651 14.1143 28.8947 14.0499 28.9307 13.9697C29.002 13.8105 29.0986 13.5848 29.2031 13.3115C29.4102 12.77 29.661 12.0102 29.8115 11.1748C30.0872 9.64453 30.134 7.10497 27.8457 5.81738L27.8438 5.81641C26.8485 5.25825 25.3656 5.13041 24.2578 6.02637C24.2465 6.03459 24.2345 6.04181 24.2236 6.05078C23.3698 6.75857 23.1257 7.9181 23.3223 8.83203C23.4288 9.32665 23.6815 9.84837 24.1426 10.251C24.618 10.6659 25.2248 10.874 25.8799 10.874L26.0205 10.8672C26.5767 10.8106 27.035 10.4225 27.1943 9.90332C27.1849 10.1393 27.1561 10.3999 27.1045 10.6865C26.9941 11.2992 26.8032 11.8871 26.6338 12.3301C26.5506 12.5474 26.4749 12.7243 26.4209 12.8447C26.3933 12.9064 26.3728 12.9514 26.3604 12.9775L26.3457 13.0068V13.0078C26.3451 13.0091 26.3444 13.0105 26.3438 13.0117M26.3203 13.0654C26.3187 13.0695 26.3173 13.0728 26.3164 13.0752C26.3156 13.0774 26.315 13.0796 26.3145 13.0811C26.3177 13.0718 26.3278 13.0449 26.3438 13.0117M26.3203 13.0654C26.3217 13.0618 26.3233 13.0573 26.3252 13.0527C26.3292 13.043 26.3354 13.0286 26.3438 13.0117M26.3203 13.0654C26.3282 13.0477 26.335 13.0293 26.3438 13.0117M26.1475 8.12402C26.1095 8.1253 26.0789 8.13083 26.0547 8.13672C26.3924 8.17966 26.6909 8.34491 26.9062 8.58691C26.7978 8.42974 26.6612 8.3062 26.4971 8.21387V8.21289C26.3766 8.14582 26.2512 8.12056 26.1475 8.12402Z" fill="#464646" stroke="white" stroke-width="1.375" stroke-linecap="round" stroke-linejoin="round"/>
<path d="M27.575 13.6211C27.575 13.6211 30.0663 8.64091 27.1718 7.01232C26.5265 6.65041 25.6662 6.63468 25.1017 7.10673C24.3359 7.74145 24.4502 9.49609 25.8801 9.49609" stroke="#464646" stroke-width="1.375" stroke-linecap="round" stroke-linejoin="round"/>
<path d="M26.9534 45.532C36.2367 45.532 43.7623 37.981 43.7623 28.6664C43.7623 19.3518 36.2367 11.8008 26.9534 11.8008C17.6701 11.8008 10.1445 19.3518 10.1445 28.6664C10.1445 37.981 17.6701 45.532 26.9534 45.532Z" fill="white" stroke="#464646" stroke-width="1.375" stroke-linecap="round" stroke-linejoin="round"/>
<path d="M13.481 27.7378L13.0901 24.5268L6.55078 23.6406L7.46476 27.01L10.7447 30.5474L13.481 27.7378Z" fill="white"/>
<path d="M6.44531 24.4602C6.44531 22.365 7.65711 20.4063 9.48654 19.4832C10.5733 18.9373 11.9336 18.7286 13.3018 19.7722C15.8739 21.7469 13.3018 25.9934 13.3018 25.9934" fill="white"/>
<path d="M6.44531 24.4602C6.44531 22.365 7.65711 20.4063 9.48654 19.4832C10.5733 18.9373 11.9336 18.7286 13.3018 19.7722C15.8739 21.7469 13.3018 25.9934 13.3018 25.9934" stroke="#464646" stroke-width="1.375" stroke-linecap="round" stroke-linejoin="round"/>
<path d="M10.7531 30.2368C10.7531 30.2368 6.43751 28.4627 6.44532 24.457L10.7531 30.2368Z" fill="white"/>
<path d="M10.7531 30.2368C10.7531 30.2368 6.43751 28.4627 6.44532 24.457" stroke="#464646" stroke-width="1.375" stroke-linecap="round" stroke-linejoin="round"/>
<path d="M40.4783 26.9336C40.4783 26.9336 37.3354 27.5758 36.6005 23.7467C36.3503 22.4543 36.5223 21.0896 37.2338 19.9979C37.9921 18.8259 39.4385 17.7341 42.0966 18.6493C47.2331 20.4073 46.1307 29.4221 42.0966 31.0837" fill="white"/>
<path d="M40.4783 26.9336C40.4783 26.9336 37.3354 27.5758 36.6005 23.7467C36.3503 22.4543 36.5223 21.0896 37.2338 19.9979C37.9921 18.8259 39.4385 17.7341 42.0966 18.6493C47.2331 20.4073 46.1307 29.4221 42.0966 31.0837" stroke="#464646" stroke-width="1.375" stroke-linecap="round" stroke-linejoin="round"/>
<path d="M33.9214 27.8452C34.0604 25.2023 30.0172 22.8294 24.8908 22.5453C19.7644 22.2611 15.496 24.1733 15.3571 26.8162C15.2181 29.4591 19.2612 31.8319 24.3876 32.1161C29.5141 32.4002 33.7825 30.4881 33.9214 27.8452Z" fill="#FF96AD"/>
<path d="M26.0156 24.3937C27.1649 25.5417 29.6588 26.5692 34.7641 23.8398" stroke="#464646" stroke-width="1.375" stroke-linecap="round" stroke-linejoin="round"/>
<path d="M16.4922 22.9609C16.4922 22.9609 19.8618 27.1111 23.5988 24.3336" stroke="#464646" stroke-width="1.375" stroke-linecap="round" stroke-linejoin="round"/>
<path d="M17.7539 26.457C17.7539 26.457 19.4582 26.457 20.3026 28.207" stroke="#464646" stroke-width="1.375" stroke-linecap="round" stroke-linejoin="round"/>
<path d="M27.5469 28.3393C27.5469 28.3393 28.6649 27.1914 30.5256 27.1914" stroke="#464646" stroke-width="1.375" stroke-linecap="round" stroke-linejoin="round"/>
<path d="M17.3359 33.5013C17.3359 33.5013 18.8917 31.9039 19.6735 34.3041C20.4554 36.7043 22.535 34.4887 22.535 34.4887C22.535 34.4887 24.3018 32.7227 25.498 34.3121C26.6942 35.9015 27.4682 35.0988 28.25 34.3041C29.0318 33.5094 29.8058 32.7066 31.3694 34.3041" stroke="#464646" stroke-width="1.375" stroke-linecap="round" stroke-linejoin="round"/>
<path d="M34.7547 10.1013C34.7547 10.1013 34.528 6.46484 37.2096 6.46484C38.0618 6.46484 38.7341 7.33181 38.656 8.32721C38.5778 9.32261 37.9132 10.5428 36.5451 11.0003" fill="white"/>
<path d="M34.7547 10.1013C34.7547 10.1013 34.528 6.46484 37.2096 6.46484C38.0618 6.46484 38.7341 7.33181 38.656 8.32721C38.5778 9.32261 37.9132 10.5428 36.5451 11.0003" stroke="#464646" stroke-width="1.375" stroke-linecap="round" stroke-linejoin="round"/>
<path d="M39.1328 12.2356C39.1328 12.2356 40.7824 9.85952 42.4477 11.2563C42.9793 11.6978 42.9637 12.5888 42.4242 13.1588C41.8848 13.7287 40.8762 14.1462 39.7973 13.7287" fill="white"/>
<path d="M39.1328 12.2356C39.1328 12.2356 40.7824 9.85952 42.4477 11.2563C42.9793 11.6978 42.9637 12.5888 42.4242 13.1588C41.8848 13.7287 40.8762 14.1462 39.7973 13.7287" stroke="#464646" stroke-width="1.375" stroke-linecap="round" stroke-linejoin="round"/>
</svg>
