<svg width="52" height="52" viewBox="0 0 52 52" fill="none" xmlns="http://www.w3.org/2000/svg">
<rect x="37.0039" y="11.0117" width="3" height="3" fill="white"/>
<mask id="path-2-outside-1_3486_33623" maskUnits="userSpaceOnUse" x="3.04297" y="3.04688" width="46" height="46" fill="black">
<rect fill="white" x="3.04297" y="3.04688" width="46" height="46"/>
<path fill-rule="evenodd" clip-rule="evenodd" d="M27.0186 10.668C32.754 10.6681 37.8646 13.3467 41.1787 17.5234C41.7534 17.541 42.39 17.6576 43.0928 17.8994L43.3633 18C46.1039 19.0987 47.122 22.0617 46.9776 24.874C46.9023 26.3379 46.5143 27.8036 45.8633 29.0234C45.6294 29.4616 45.3582 29.8711 45.0537 30.2393C44.3314 39.5984 36.5343 46.9696 27.0186 46.9697C17.5625 46.9695 9.80274 39.6905 8.99708 30.415C8.56342 30.1647 8.00247 29.7991 7.44142 29.3076C6.25918 28.2718 5.03861 26.6513 5.04298 24.3877C5.04324 22.0354 6.40139 19.8378 8.45997 18.7988L8.46095 18.7979C9.47545 18.2884 10.7399 18.0277 12.0449 18.6289C15.2993 13.8245 20.7916 10.6681 27.0186 10.668ZM42.0352 9.63477C42.5493 9.60001 43.0838 9.75513 43.5947 10.1826H43.5957C44.3711 10.8265 44.2887 12.034 43.6055 12.7559C42.9476 13.4507 41.7225 13.9584 40.4141 13.4521C40.2132 13.374 40.1137 13.1474 40.1914 12.9463C40.2334 12.8379 40.319 12.7594 40.4199 12.7217L40.0889 11.8262C39.9578 11.9241 39.7746 11.9344 39.6328 11.8359C39.4559 11.7128 39.4123 11.4692 39.5352 11.292L39.5361 11.291C39.5365 11.2904 39.5366 11.289 39.5371 11.2881C39.5383 11.2864 39.5401 11.2839 39.542 11.2812C39.5462 11.2753 39.5531 11.267 39.5606 11.2568C39.5757 11.2362 39.5973 11.2066 39.625 11.1709C39.6807 11.0992 39.7621 10.9994 39.8643 10.8857C40.0672 10.66 40.3629 10.3685 40.7246 10.124C41.0847 9.88065 41.5332 9.66887 42.0352 9.63477ZM37.834 5.04688C39.0225 5.04688 39.8416 6.2219 39.7471 7.42871C39.6547 8.60496 38.8732 10.0439 37.2588 10.584C37.0543 10.6521 36.8323 10.5423 36.7637 10.3379C36.7264 10.2263 36.7434 10.1098 36.7988 10.0156L35.6338 9.33105C35.6045 9.50646 35.4585 9.64569 35.2734 9.65723C35.0852 9.66866 34.9195 9.54445 34.8721 9.36914L34.8594 9.29102V9.28906C34.8593 9.28827 34.8585 9.28731 34.8584 9.28613C34.8583 9.28353 34.8586 9.2798 34.8584 9.27539C34.858 9.26656 34.857 9.25398 34.8565 9.23828C34.8553 9.20686 34.8541 9.16161 34.8535 9.10547C34.8524 8.99311 34.8547 8.83419 34.8662 8.64453C34.8891 8.26694 34.9508 7.75507 35.1094 7.2373C35.2674 6.72179 35.5294 6.17502 35.9688 5.75391C36.4177 5.32378 37.0299 5.04705 37.834 5.04688Z"/>
</mask>
<path fill-rule="evenodd" clip-rule="evenodd" d="M27.0186 10.668C32.754 10.6681 37.8646 13.3467 41.1787 17.5234C41.7534 17.541 42.39 17.6576 43.0928 17.8994L43.3633 18C46.1039 19.0987 47.122 22.0617 46.9776 24.874C46.9023 26.3379 46.5143 27.8036 45.8633 29.0234C45.6294 29.4616 45.3582 29.8711 45.0537 30.2393C44.3314 39.5984 36.5343 46.9696 27.0186 46.9697C17.5625 46.9695 9.80274 39.6905 8.99708 30.415C8.56342 30.1647 8.00247 29.7991 7.44142 29.3076C6.25918 28.2718 5.03861 26.6513 5.04298 24.3877C5.04324 22.0354 6.40139 19.8378 8.45997 18.7988L8.46095 18.7979C9.47545 18.2884 10.7399 18.0277 12.0449 18.6289C15.2993 13.8245 20.7916 10.6681 27.0186 10.668ZM42.0352 9.63477C42.5493 9.60001 43.0838 9.75513 43.5947 10.1826H43.5957C44.3711 10.8265 44.2887 12.034 43.6055 12.7559C42.9476 13.4507 41.7225 13.9584 40.4141 13.4521C40.2132 13.374 40.1137 13.1474 40.1914 12.9463C40.2334 12.8379 40.319 12.7594 40.4199 12.7217L40.0889 11.8262C39.9578 11.9241 39.7746 11.9344 39.6328 11.8359C39.4559 11.7128 39.4123 11.4692 39.5352 11.292L39.5361 11.291C39.5365 11.2904 39.5366 11.289 39.5371 11.2881C39.5383 11.2864 39.5401 11.2839 39.542 11.2812C39.5462 11.2753 39.5531 11.267 39.5606 11.2568C39.5757 11.2362 39.5973 11.2066 39.625 11.1709C39.6807 11.0992 39.7621 10.9994 39.8643 10.8857C40.0672 10.66 40.3629 10.3685 40.7246 10.124C41.0847 9.88065 41.5332 9.66887 42.0352 9.63477ZM37.834 5.04688C39.0225 5.04688 39.8416 6.2219 39.7471 7.42871C39.6547 8.60496 38.8732 10.0439 37.2588 10.584C37.0543 10.6521 36.8323 10.5423 36.7637 10.3379C36.7264 10.2263 36.7434 10.1098 36.7988 10.0156L35.6338 9.33105C35.6045 9.50646 35.4585 9.64569 35.2734 9.65723C35.0852 9.66866 34.9195 9.54445 34.8721 9.36914L34.8594 9.29102V9.28906C34.8593 9.28827 34.8585 9.28731 34.8584 9.28613C34.8583 9.28353 34.8586 9.2798 34.8584 9.27539C34.858 9.26656 34.857 9.25398 34.8565 9.23828C34.8553 9.20686 34.8541 9.16161 34.8535 9.10547C34.8524 8.99311 34.8547 8.83419 34.8662 8.64453C34.8891 8.26694 34.9508 7.75507 35.1094 7.2373C35.2674 6.72179 35.5294 6.17502 35.9688 5.75391C36.4177 5.32378 37.0299 5.04705 37.834 5.04688Z" fill="white"/>
<path d="M27.0186 10.668L27.0186 8.85427H27.0185L27.0186 10.668ZM41.1787 17.5234L39.7579 18.6508C40.0899 19.0691 40.5894 19.3199 41.1232 19.3363L41.1787 17.5234ZM43.0928 17.8994L43.7249 16.1994C43.711 16.1943 43.697 16.1893 43.683 16.1844L43.0928 17.8994ZM43.3633 18L44.0382 16.3165C44.024 16.3109 44.0097 16.3053 43.9954 16.3L43.3633 18ZM46.9776 24.874L48.7889 24.9671L48.7889 24.9671L46.9776 24.874ZM45.8633 29.0234L47.4633 29.8775L47.4634 29.8774L45.8633 29.0234ZM45.0537 30.2393L43.656 29.0834C43.4176 29.3717 43.2742 29.7267 43.2454 30.0997L45.0537 30.2393ZM27.0186 46.9697L27.0185 48.7834H27.0186L27.0186 46.9697ZM8.99708 30.415L10.804 30.2581C10.7527 29.6681 10.4166 29.1403 9.90372 28.8442L8.99708 30.415ZM7.44142 29.3076L6.2462 30.6718L6.24629 30.6719L7.44142 29.3076ZM5.04298 24.3877L6.85668 24.3912L6.85668 24.3879L5.04298 24.3877ZM8.45997 18.7988L9.27719 20.418C9.44918 20.3312 9.60623 20.2175 9.74245 20.0813L8.45997 18.7988ZM8.46095 18.7979L7.64698 17.1771C7.47373 17.2641 7.31555 17.3783 7.17847 17.5154L8.46095 18.7979ZM12.0449 18.6289L11.286 20.2762C12.0922 20.6476 13.0488 20.381 13.5466 19.6461L12.0449 18.6289ZM42.0352 9.63477L41.9129 7.82519L41.9122 7.82523L42.0352 9.63477ZM43.5947 10.1826L42.4309 11.5736C42.7572 11.8467 43.1692 11.9963 43.5947 11.9963V10.1826ZM43.5957 10.1826L44.7545 8.78734C44.4289 8.51693 44.019 8.36891 43.5957 8.36891V10.1826ZM43.6055 12.7559L44.9225 14.0028L44.9227 14.0026L43.6055 12.7559ZM40.4141 13.4521L39.7566 15.1425L39.7596 15.1437L40.4141 13.4521ZM40.1914 12.9463L38.5001 12.2914L38.4996 12.2927L40.1914 12.9463ZM40.4199 12.7217L41.0546 14.4207C41.9907 14.071 42.4676 13.0301 42.1211 12.0928L40.4199 12.7217ZM40.0889 11.8262L41.7901 11.1973C41.5917 10.6607 41.1518 10.2491 40.6032 10.0869C40.0546 9.92469 39.4616 10.0308 39.0033 10.3732L40.0889 11.8262ZM39.6328 11.8359L38.5966 13.3245L38.5985 13.3258L39.6328 11.8359ZM39.5352 11.292L38.2527 10.0095C38.176 10.0862 38.1064 10.1696 38.0446 10.2587L39.5352 11.292ZM39.5361 11.291L40.8186 12.5735C40.8945 12.4976 40.9635 12.4152 41.0248 12.3271L39.5361 11.291ZM39.5371 11.2881L38.0546 10.2433C38.0162 10.2977 37.9809 10.3542 37.9487 10.4126L39.5371 11.2881ZM39.542 11.2812L38.0649 10.2289L38.0645 10.2293L39.542 11.2812ZM39.5606 11.2568L41.0233 12.3291L41.0241 12.328L39.5606 11.2568ZM39.625 11.1709L38.1928 10.0581L38.1925 10.0585L39.625 11.1709ZM39.8643 10.8857L38.5156 9.67303L38.5155 9.67315L39.8643 10.8857ZM40.7246 10.124L39.709 8.62136L39.7088 8.62147L40.7246 10.124ZM37.834 5.04688V3.23317H37.8336L37.834 5.04688ZM39.7471 7.42871L41.5552 7.57077L41.5552 7.57036L39.7471 7.42871ZM37.2588 10.584L37.8323 12.3046L37.8342 12.304L37.2588 10.584ZM36.7637 10.3379L35.0435 10.9128L35.0442 10.9149L36.7637 10.3379ZM36.7988 10.0156L38.3618 10.9357C38.606 10.521 38.6753 10.0262 38.5545 9.56032C38.4336 9.09446 38.1326 8.69571 37.7177 8.45189L36.7988 10.0156ZM35.6338 9.33105L36.5526 7.76732C36.0378 7.46481 35.4071 7.43509 34.8661 7.68786C34.3251 7.94062 33.9432 8.44347 33.8448 9.03246L35.6338 9.33105ZM35.2734 9.65723L35.3834 11.4676L35.3863 11.4674L35.2734 9.65723ZM34.8721 9.36914L33.0819 9.66005C33.0919 9.72156 33.105 9.7825 33.1213 9.84265L34.8721 9.36914ZM34.8594 9.29102H33.0457C33.0457 9.38846 33.0535 9.48574 33.0692 9.58193L34.8594 9.29102ZM34.8594 9.28906H36.6731C36.6731 9.25356 36.672 9.21807 36.67 9.18263L34.8594 9.28906ZM34.8584 9.28613L33.0476 9.38798C33.0479 9.39414 33.0483 9.4003 33.0487 9.40646L34.8584 9.28613ZM34.8584 9.27539L36.6699 9.18579L36.6698 9.18392L34.8584 9.27539ZM34.8565 9.23828L33.044 9.30669L33.044 9.30672L34.8565 9.23828ZM34.8535 9.10547L33.0399 9.12286L33.0399 9.12301L34.8535 9.10547ZM34.8662 8.64453L33.0558 8.53484L33.0558 8.53492L34.8662 8.64453ZM35.1094 7.2373L33.3753 6.70591L33.3752 6.70608L35.1094 7.2373ZM35.9688 5.75391L34.7141 4.44424L34.7138 4.44452L35.9688 5.75391ZM27.0186 10.668L27.0185 12.4817C32.1754 12.4818 36.772 14.8877 39.7579 18.6508L41.1787 17.5234L42.5995 16.3961C38.9572 11.8057 33.3325 8.85437 27.0186 8.85427L27.0186 10.668ZM41.1787 17.5234L41.1232 19.3363C41.4928 19.3476 41.949 19.4239 42.5026 19.6144L43.0928 17.8994L43.683 16.1844C42.8311 15.8912 42.014 15.7345 41.2342 15.7106L41.1787 17.5234ZM43.0928 17.8994L42.4607 19.5994L42.7312 19.7L43.3633 18L43.9954 16.3L43.7249 16.1994L43.0928 17.8994ZM43.3633 18L42.6884 19.6835C44.3867 20.3643 45.2923 22.3265 45.1662 24.781L46.9776 24.874L48.7889 24.9671C48.9517 21.7969 47.8211 17.8331 44.0382 16.3165L43.3633 18ZM46.9776 24.874L45.1662 24.7809C45.1035 26.0024 44.7781 27.2047 44.2632 28.1695L45.8633 29.0234L47.4634 29.8774C48.2505 28.4024 48.7012 26.6733 48.7889 24.9671L46.9776 24.874ZM45.8633 29.0234L44.2632 28.1694C44.0821 28.5088 43.8773 28.8158 43.656 29.0834L45.0537 30.2393L46.4514 31.3951C46.839 30.9264 47.1767 30.4145 47.4633 29.8775L45.8633 29.0234ZM45.0537 30.2393L43.2454 30.0997C42.595 38.5268 35.574 45.1559 27.0185 45.156L27.0186 46.9697L27.0186 48.7834C37.4946 48.7832 46.0678 40.67 46.862 30.3788L45.0537 30.2393ZM27.0186 46.9697L27.0186 45.156C18.5167 45.1558 11.5294 38.6096 10.804 30.2581L8.99708 30.415L7.19018 30.572C8.0761 40.7714 16.6083 48.7832 27.0185 48.7834L27.0186 46.9697ZM8.99708 30.415L9.90372 28.8442C9.54253 28.6357 9.08553 28.3367 8.63654 27.9434L7.44142 29.3076L6.24629 30.6719C6.9194 31.2615 7.58431 31.6937 8.09045 31.9859L8.99708 30.415ZM7.44142 29.3076L8.63664 27.9434C7.673 27.0992 6.8537 25.9359 6.85668 24.3912L5.04298 24.3877L3.22928 24.3842C3.22352 27.3668 4.84536 29.4444 6.2462 30.6718L7.44142 29.3076ZM5.04298 24.3877L6.85668 24.3879C6.85687 22.7154 7.83376 21.1465 9.27719 20.418L8.45997 18.7988L7.64275 17.1797C4.96902 18.5292 3.22962 21.3554 3.22928 24.3875L5.04298 24.3877ZM8.45997 18.7988L9.74245 20.0813L9.74343 20.0803L8.46095 18.7979L7.17847 17.5154L7.17749 17.5163L8.45997 18.7988ZM8.46095 18.7979L9.27492 20.4186C9.98062 20.0642 10.6433 19.9801 11.286 20.2762L12.0449 18.6289L12.8039 16.9816C10.8365 16.0752 8.97028 16.5125 7.64698 17.1771L8.46095 18.7979ZM12.0449 18.6289L13.5466 19.6461C16.4788 15.3172 21.4201 12.4818 27.0186 12.4817L27.0186 10.668L27.0185 8.85427C20.163 8.85442 14.1197 12.3318 10.5433 17.6118L12.0449 18.6289ZM42.0352 9.63477L42.1575 11.4443C42.1866 11.4424 42.2105 11.4452 42.239 11.4548C42.2684 11.4646 42.3336 11.4922 42.4309 11.5736L43.5947 10.1826L44.7586 8.79162C43.9077 8.07962 42.9175 7.75729 41.9129 7.82519L42.0352 9.63477ZM43.5947 10.1826V11.9963H43.5957V10.1826V8.36891H43.5947V10.1826ZM43.5957 10.1826L42.437 11.5779C42.3988 11.5462 42.3672 11.5022 42.3491 11.4593C42.3329 11.4208 42.3343 11.4002 42.3342 11.4052C42.3341 11.4108 42.3322 11.4295 42.3219 11.4548C42.3118 11.4794 42.2988 11.4979 42.2882 11.5091L43.6055 12.7559L44.9227 14.0026C46.1271 12.7301 46.543 10.2727 44.7545 8.78734L43.5957 10.1826ZM43.6055 12.7559L42.2884 11.5089C42.0449 11.7661 41.574 11.9562 41.0685 11.7606L40.4141 13.4521L39.7596 15.1437C41.871 15.9605 43.8503 15.1353 44.9225 14.0028L43.6055 12.7559ZM40.4141 13.4521L41.0715 11.7618C41.8068 12.0478 42.1644 12.8722 41.8833 13.5999L40.1914 12.9463L38.4996 12.2927C38.0631 13.4226 38.6197 14.7003 39.7566 15.1425L40.4141 13.4521ZM40.1914 12.9463L41.8827 13.6012C41.7265 14.0048 41.4088 14.2884 41.0546 14.4207L40.4199 12.7217L39.7853 11.0227C39.2292 11.2304 38.7403 11.6709 38.5001 12.2914L40.1914 12.9463ZM40.4199 12.7217L42.1211 12.0928L41.7901 11.1973L40.0889 11.8262L38.3877 12.4551L38.7188 13.3506L40.4199 12.7217ZM40.0889 11.8262L39.0033 10.3732C39.4637 10.0292 40.1342 9.97604 40.6672 10.3461L39.6328 11.8359L38.5985 13.3258C39.4151 13.8927 40.4519 13.819 41.1744 13.2791L40.0889 11.8262ZM39.6328 11.8359L40.669 10.3474C41.3154 10.7973 41.4712 11.6827 41.0257 12.3253L39.5352 11.292L38.0446 10.2587C37.3535 11.2556 37.5964 12.6282 38.5966 13.3245L39.6328 11.8359ZM39.5352 11.292L40.8176 12.5745L40.8186 12.5735L39.5361 11.291L38.2537 10.0085L38.2527 10.0095L39.5352 11.292ZM39.5361 11.291L41.0248 12.3271C41.1156 12.1966 41.1715 12.0796 41.2033 12.0053C41.2363 11.9284 41.2575 11.8641 41.2695 11.8252C41.2818 11.7851 41.2902 11.753 41.2941 11.7378C41.2977 11.7235 41.3009 11.7101 41.2999 11.7144C41.2998 11.7146 41.299 11.7181 41.2979 11.7225C41.2968 11.7271 41.295 11.7343 41.2927 11.743C41.2884 11.7599 41.2808 11.788 41.2702 11.8225C41.2597 11.8568 41.244 11.904 41.2221 11.959C41.2004 12.0137 41.1692 12.0844 41.1255 12.1636L39.5371 11.2881L37.9487 10.4126C37.9049 10.492 37.8736 10.5629 37.8518 10.6179C37.8298 10.6732 37.814 10.7206 37.8034 10.7552C37.7927 10.7899 37.7851 10.8183 37.7807 10.8355C37.7784 10.8444 37.7766 10.8517 37.7754 10.8565C37.7743 10.861 37.7734 10.8646 37.7733 10.865C37.7722 10.8696 37.7754 10.8564 37.7789 10.8424C37.7827 10.8274 37.791 10.7955 37.8033 10.7557C37.8153 10.717 37.8364 10.6529 37.8693 10.5762C37.901 10.5021 37.9568 10.3853 38.0475 10.2549L39.5361 11.291ZM39.5371 11.2881L41.0196 12.3329C41.0171 12.3366 41.0151 12.3393 41.0144 12.3403C41.0136 12.3414 41.0131 12.3421 41.0135 12.3416C41.0136 12.3415 41.0165 12.3374 41.0195 12.3332L39.542 11.2812L38.0645 10.2293C38.0656 10.2278 38.0667 10.2263 38.0651 10.2285C38.0646 10.2291 38.0634 10.2309 38.0619 10.233C38.0604 10.2351 38.0578 10.2387 38.0546 10.2433L39.5371 11.2881ZM39.542 11.2812L41.0192 12.3336C41.0106 12.3457 41.0033 12.3555 40.9982 12.3624C40.9931 12.3693 40.9889 12.3748 40.9864 12.3781C40.9839 12.3814 40.982 12.3838 40.9815 12.3844C40.9812 12.3848 40.9809 12.3852 40.9822 12.3835C40.9839 12.3813 40.9896 12.374 40.9963 12.3652C41.0033 12.356 41.0127 12.3437 41.0233 12.3291L39.5606 11.2568L38.0978 10.1846C38.1106 10.167 38.1211 10.1537 38.1179 10.1578C38.1177 10.1581 38.1158 10.1605 38.114 10.1628C38.112 10.1654 38.1088 10.1696 38.1049 10.1747C38.101 10.1797 38.0956 10.1869 38.0892 10.1955C38.0829 10.204 38.0745 10.2153 38.0649 10.2289L39.542 11.2812ZM39.5606 11.2568L41.0241 12.328C41.0389 12.3078 41.0471 12.2967 41.0575 12.2833L39.625 11.1709L38.1925 10.0585C38.1475 10.1165 38.1124 10.1645 38.097 10.1856L39.5606 11.2568ZM39.625 11.1709L41.0572 12.2837C41.0893 12.2424 41.1429 12.1764 41.213 12.0983L39.8643 10.8857L38.5155 9.67315C38.3812 9.82249 38.2722 9.95596 38.1928 10.0581L39.625 11.1709ZM39.8643 10.8857L41.2129 12.0985C41.357 11.9382 41.5422 11.7606 41.7404 11.6266L40.7246 10.124L39.7088 8.62147C39.1837 8.9765 38.7774 9.38188 38.5156 9.67303L39.8643 10.8857ZM40.7246 10.124L41.7403 11.6267C41.9439 11.4891 42.0851 11.4493 42.1581 11.4443L42.0352 9.63477L41.9122 7.82523C40.9813 7.88848 40.2255 8.27222 39.709 8.62136L40.7246 10.124ZM37.834 5.04688V6.86058C37.8243 6.86058 37.8068 6.85641 37.7956 6.85045C37.789 6.84694 37.8056 6.854 37.8334 6.89009C37.8968 6.97268 37.9518 7.12233 37.9389 7.28706L39.7471 7.42871L41.5552 7.57036C41.7059 5.64669 40.3911 3.23317 37.834 3.23317V5.04688ZM39.7471 7.42871L37.939 7.28665C37.8931 7.87063 37.4889 8.59454 36.6834 8.86397L37.2588 10.584L37.8342 12.304C40.2576 11.4933 41.4163 9.3393 41.5552 7.57077L39.7471 7.42871ZM37.2588 10.584L36.6853 8.86334C37.4235 8.61729 38.2315 9.01082 38.4832 9.76089L36.7637 10.3379L35.0442 10.9149C35.4331 12.0737 36.6851 12.687 37.8323 12.3046L37.2588 10.584ZM36.7637 10.3379L38.4839 9.76299C38.6242 10.1828 38.5539 10.6094 38.3618 10.9357L36.7988 10.0156L35.2358 9.09554C34.9329 9.61016 34.8286 10.2697 35.0435 10.9128L36.7637 10.3379ZM36.7988 10.0156L37.7177 8.45189L36.5526 7.76732L35.6338 9.33105L34.715 10.8948L35.88 11.5794L36.7988 10.0156ZM35.6338 9.33105L33.8448 9.03246C33.9497 8.40433 34.4744 7.88982 35.1606 7.84704L35.2734 9.65723L35.3863 11.4674C36.4427 11.4016 37.2594 10.6086 37.4228 9.62965L35.6338 9.33105ZM35.2734 9.65723L35.1635 7.84686C35.8516 7.80508 36.4503 8.25748 36.6229 8.89563L34.8721 9.36914L33.1213 9.84265C33.3887 10.8314 34.3187 11.5322 35.3834 11.4676L35.2734 9.65723ZM34.8721 9.36914L36.6623 9.07823L36.6496 9.0001L34.8594 9.29102L33.0692 9.58193L33.0819 9.66005L34.8721 9.36914ZM34.8594 9.29102H36.6731V9.28906H34.8594H33.0457V9.29102H34.8594ZM34.8594 9.28906L36.67 9.18263C36.6655 9.10703 36.6567 9.0386 36.6463 8.97856C36.6359 8.9186 36.6236 8.86536 36.6114 8.81987C36.5992 8.77439 36.5867 8.73459 36.5753 8.70144C36.564 8.66828 36.5531 8.63971 36.544 8.61674C36.5348 8.59375 36.5265 8.57441 36.5202 8.55984C36.5138 8.54532 36.5084 8.53358 36.505 8.52618C36.5017 8.51903 36.499 8.5134 36.4986 8.5125C36.4985 8.51232 36.4984 8.51217 36.4984 8.51208C36.4984 8.51204 36.4983 8.512 36.4983 8.51198C36.4983 8.51197 36.4983 8.51196 36.4983 8.51195C36.4983 8.51195 36.4983 8.51194 36.4983 8.51194C36.4983 8.5119 36.4984 8.51216 36.4986 8.51247C36.4989 8.51311 36.4996 8.5147 36.5006 8.51675C36.5025 8.52076 36.506 8.52828 36.5103 8.53779C36.5147 8.54742 36.5204 8.56017 36.5268 8.57527C36.5395 8.60505 36.5569 8.64797 36.5749 8.70066C36.593 8.75362 36.6129 8.81987 36.6299 8.89729C36.647 8.97509 36.6614 9.06523 36.6681 9.16581L34.8584 9.28613L33.0487 9.40646C33.0554 9.50733 33.0699 9.59776 33.087 9.67584C33.1041 9.75354 33.1241 9.82006 33.1423 9.87329C33.1604 9.92625 33.1779 9.96943 33.1907 9.99946C33.1972 10.0147 33.2029 10.0276 33.2073 10.0373C33.2117 10.047 33.2153 10.0546 33.2172 10.0587C33.2182 10.0608 33.219 10.0625 33.2193 10.0632C33.2194 10.0634 33.2195 10.0635 33.2196 10.0636C33.2196 10.0637 33.2196 10.0638 33.2196 10.0638C33.2197 10.0639 33.2195 10.0636 33.2194 10.0633C33.219 10.0626 33.2164 10.0571 33.2132 10.05C33.2098 10.0427 33.2045 10.0311 33.1982 10.0167C33.1918 10.0022 33.1836 9.98301 33.1745 9.96014C33.1654 9.93727 33.1546 9.90881 33.1433 9.87576C33.132 9.84272 33.1194 9.80303 33.1073 9.75765C33.0951 9.71226 33.0828 9.65912 33.0724 9.59927C33.062 9.53933 33.0532 9.471 33.0488 9.3955L34.8594 9.28906ZM34.8584 9.28613L36.6693 9.18429C36.6711 9.21638 36.6717 9.24325 36.6719 9.26252C36.6722 9.28189 36.6721 9.29761 36.6719 9.30744C36.6718 9.31721 36.6716 9.32475 36.6716 9.32716C36.6715 9.32851 36.6715 9.32955 36.6715 9.32934C36.6715 9.32933 36.6715 9.32932 36.6715 9.32929C36.6715 9.32927 36.6715 9.32922 36.6715 9.32918C36.6715 9.32908 36.6715 9.32893 36.6715 9.32874C36.6715 9.32838 36.6715 9.32779 36.6716 9.32709C36.6716 9.32443 36.6718 9.3184 36.6719 9.31081C36.672 9.30305 36.6722 9.2928 36.6722 9.28077C36.6722 9.25675 36.6718 9.22422 36.6699 9.18579L34.8584 9.27539L33.0469 9.36499C33.0451 9.32876 33.0448 9.29836 33.0448 9.27635C33.0448 9.26533 33.0449 9.25607 33.045 9.24927C33.0451 9.24264 33.0453 9.23754 33.0453 9.23579C33.0453 9.23502 33.0453 9.23425 33.0453 9.23487C33.0453 9.2351 33.0453 9.23657 33.0452 9.23834C33.0452 9.2416 33.045 9.24995 33.0448 9.26051C33.0447 9.27113 33.0446 9.28759 33.0448 9.30769C33.0451 9.32768 33.0457 9.35523 33.0476 9.38798L34.8584 9.28613ZM34.8584 9.27539L36.6698 9.18392C36.6695 9.1782 36.6692 9.17329 36.669 9.16971C36.6688 9.16613 36.6687 9.16301 36.6685 9.161C36.6685 9.15957 36.6683 9.15662 36.6683 9.15638C36.6682 9.15536 36.6682 9.15501 36.6682 9.15492C36.6682 9.1548 36.6685 9.16093 36.6689 9.16984L34.8565 9.23828L33.044 9.30672C33.045 9.33134 33.0461 9.35161 33.0468 9.36391C33.047 9.36692 33.0471 9.36957 33.0472 9.37144C33.0474 9.37408 33.0474 9.37392 33.0475 9.37515C33.0476 9.37724 33.0473 9.37303 33.047 9.36686L34.8584 9.27539ZM34.8565 9.23828L36.6689 9.16987C36.6684 9.1566 36.6675 9.12835 36.6671 9.08793L34.8535 9.10547L33.0399 9.12301C33.0406 9.19486 33.0422 9.25711 33.044 9.30669L34.8565 9.23828ZM34.8535 9.10547L36.6671 9.08808C36.6664 9.01494 36.6679 8.8985 36.6766 8.75414L34.8662 8.64453L33.0558 8.53492C33.0416 8.76988 33.0385 8.97128 33.0399 9.12286L34.8535 9.10547ZM34.8662 8.64453L36.6766 8.75422C36.6942 8.4631 36.7408 8.10403 36.8435 7.76853L35.1094 7.2373L33.3752 6.70608C33.1608 7.4061 33.084 8.07079 33.0558 8.53484L34.8662 8.64453ZM35.1094 7.2373L36.8435 7.7687C36.9485 7.42588 37.0854 7.19587 37.2238 7.06329L35.9688 5.75391L34.7138 4.44452C33.9733 5.15418 33.5862 6.0177 33.3753 6.70591L35.1094 7.2373ZM35.9688 5.75391L37.2235 7.06357C37.2879 7.00184 37.3567 6.95694 37.4376 6.92483C37.5187 6.89261 37.644 6.86062 37.8344 6.86058L37.834 5.04688L37.8336 3.23317C36.5729 3.23345 35.5082 3.68339 34.7141 4.44424L35.9688 5.75391Z" fill="white" mask="url(#path-2-outside-1_3486_33623)"/>
<path d="M26.3682 12.4053C26.0673 13.0876 26.3478 13.8978 27.0264 14.2373C27.7238 14.5859 28.5714 14.3022 28.9199 13.6055L28.9189 13.6045L28.9219 13.6016L28.9229 13.5986L28.9551 13.5342L28.9609 13.5215C28.9833 13.4744 29.015 13.4073 29.0527 13.3232C29.1277 13.1561 29.2291 12.9189 29.3389 12.6318C29.5564 12.0629 29.8186 11.2654 29.9766 10.3887C30.2665 8.77934 30.3122 6.12848 27.9248 4.78516C27.9167 4.78059 27.9077 4.77766 27.8994 4.77344C26.863 4.2028 25.3373 4.07769 24.1943 4.99707C24.1801 5.00712 24.1649 5.01612 24.1514 5.02734C23.2649 5.76225 23.0111 6.96802 23.2158 7.91992C23.3267 8.43445 23.5889 8.97664 24.0674 9.39453C24.5607 9.82508 25.1911 10.042 25.873 10.042L26.0176 10.0352C26.7289 9.96269 27.2842 9.36171 27.2842 8.63086C27.2842 8.59202 27.2814 8.55367 27.2783 8.51562C27.3204 8.89332 27.2954 9.34837 27.1982 9.8877C27.0815 10.5357 26.8801 11.1573 26.7012 11.625C26.6133 11.8548 26.5326 12.0417 26.4756 12.1689C26.4465 12.2339 26.4244 12.2807 26.4111 12.3086L26.3965 12.3408C26.3791 12.3764 26.3686 12.4057 26.3652 12.415L26.3643 12.417C26.3647 12.4159 26.3658 12.4128 26.3672 12.4092C26.3676 12.4081 26.3676 12.4067 26.3682 12.4053ZM26.3682 12.4053C26.377 12.3852 26.3847 12.3645 26.3945 12.3447C26.386 12.3619 26.38 12.3769 26.376 12.3867C26.3729 12.3943 26.3699 12.4007 26.3682 12.4053ZM26.1543 7.14648C26.0702 7.14929 26.0155 7.16908 25.9854 7.18359C25.9844 7.18632 25.9834 7.18922 25.9824 7.19238C25.9793 7.20265 25.9785 7.21383 25.9766 7.22461C26.5971 7.26974 27.1054 7.71506 27.2451 8.30469C27.1459 7.79711 26.9071 7.45112 26.541 7.24512V7.24414C26.4084 7.17029 26.2701 7.14271 26.1543 7.14648Z" fill="#171717" stroke="white" stroke-width="1.375" stroke-linecap="round" stroke-linejoin="round"/>
<path d="M27.6568 12.9738C27.6568 12.9738 30.2801 7.72964 27.2321 6.01472C26.5527 5.63362 25.6468 5.61705 25.0523 6.11413C24.246 6.7825 24.3663 8.63015 25.872 8.63015" stroke="#171717" stroke-width="1.375" stroke-linecap="round" stroke-linejoin="round"/>
<path d="M27.0046 46.5779C36.78 46.5779 44.7045 38.6267 44.7045 28.8183C44.7045 19.0099 36.78 11.0586 27.0046 11.0586C17.2292 11.0586 9.30469 19.0099 9.30469 28.8183C9.30469 38.6267 17.2292 46.5779 27.0046 46.5779Z" fill="white" stroke="#171717" stroke-width="1.375" stroke-linecap="round" stroke-linejoin="round"/>
<path d="M12.8211 27.8378L12.4094 24.4566L5.52344 23.5234L6.48587 27.0715L9.93967 30.7963L12.8211 27.8378Z" fill="white"/>
<path d="M5.41016 24.3886C5.41016 22.1824 6.6862 20.1198 8.61261 19.1478C9.75693 18.573 11.1894 18.3532 12.6301 19.4521C15.3386 21.5315 12.6301 26.0031 12.6301 26.0031" fill="white"/>
<path d="M5.41016 24.3886C5.41016 22.1824 6.6862 20.1198 8.61261 19.1478C9.75693 18.573 11.1894 18.3532 12.6301 19.4521C15.3386 21.5315 12.6301 26.0031 12.6301 26.0031" stroke="#171717" stroke-width="1.375" stroke-linecap="round" stroke-linejoin="round"/>
<path d="M9.94628 30.4729C9.94628 30.4729 5.40193 28.6047 5.41017 24.3867L9.94628 30.4729Z" fill="white"/>
<path d="M9.94628 30.4729C9.94628 30.4729 5.40193 28.6047 5.41017 24.3867" stroke="#171717" stroke-width="1.375" stroke-linecap="round" stroke-linejoin="round"/>
<path d="M41.2443 26.9923C41.2443 26.9923 37.9348 27.6686 37.1609 23.6365C36.8975 22.2756 37.0786 20.8386 37.8278 19.689C38.6263 18.4549 40.1493 17.3052 42.9484 18.2689C48.3572 20.1201 47.1964 29.6128 42.9484 31.3625" fill="white"/>
<path d="M41.2443 26.9923C41.2443 26.9923 37.9348 27.6686 37.1609 23.6365C36.8975 22.2756 37.0786 20.8386 37.8278 19.689C38.6263 18.4549 40.1493 17.3052 42.9484 18.2689C48.3572 20.1201 47.1964 29.6128 42.9484 31.3625" stroke="#171717" stroke-width="1.375" stroke-linecap="round" stroke-linejoin="round"/>
<path d="M34.3407 27.9507C34.4871 25.1677 30.2296 22.6691 24.8314 22.3699C19.4333 22.0707 14.9386 24.0842 14.7923 26.8672C14.646 29.6502 18.9034 32.1488 24.3016 32.448C29.6997 32.7472 34.1944 30.7337 34.3407 27.9507Z" fill="#FF96AD"/>
<path d="M26.0195 24.3176C27.2297 25.5264 29.8559 26.6084 35.2317 23.7344" stroke="#171717" stroke-width="1.375" stroke-linecap="round" stroke-linejoin="round"/>
<path d="M15.9922 22.8086C15.9922 22.8086 19.5404 27.1788 23.4755 24.2541" stroke="#171717" stroke-width="1.375" stroke-linecap="round" stroke-linejoin="round"/>
<path d="M17.3164 26.4922C17.3164 26.4922 19.1111 26.4922 20.0002 28.3349" stroke="#171717" stroke-width="1.375" stroke-linecap="round" stroke-linejoin="round"/>
<path d="M27.6289 28.4705C27.6289 28.4705 28.8062 27.2617 30.7655 27.2617" stroke="#171717" stroke-width="1.375" stroke-linecap="round" stroke-linejoin="round"/>
<path d="M16.8789 33.9079C16.8789 33.9079 18.5172 32.2257 19.3404 34.7532C20.1637 37.2806 22.3535 34.9476 22.3535 34.9476C22.3535 34.9476 24.2141 33.0879 25.4737 34.7616C26.7332 36.4353 27.5483 35.59 28.3715 34.7532C29.1948 33.9163 30.0098 33.071 31.6563 34.7532" stroke="#171717" stroke-width="1.375" stroke-linecap="round" stroke-linejoin="round"/>
<path d="M35.2198 9.26669C35.2198 9.26669 34.9811 5.4375 37.8048 5.4375C38.7022 5.4375 39.4102 6.35042 39.3279 7.39859C39.2455 8.44675 38.5458 9.7316 37.1051 10.2134" fill="white"/>
<path d="M35.2198 9.26669C35.2198 9.26669 34.9811 5.4375 37.8048 5.4375C38.7022 5.4375 39.4102 6.35042 39.3279 7.39859C39.2455 8.44675 38.5458 9.7316 37.1051 10.2134" stroke="#171717" stroke-width="1.375" stroke-linecap="round" stroke-linejoin="round"/>
<path d="M39.832 11.5179C39.832 11.5179 41.5691 9.01583 43.3226 10.4866C43.8824 10.9516 43.866 11.8898 43.2979 12.49C42.7299 13.0902 41.6679 13.5297 40.5318 13.0902" fill="white"/>
<path d="M39.832 11.5179C39.832 11.5179 41.5691 9.01583 43.3226 10.4866C43.8824 10.9516 43.866 11.8898 43.2979 12.49C42.7299 13.0902 41.6679 13.5297 40.5318 13.0902" stroke="#171717" stroke-width="1.375" stroke-linecap="round" stroke-linejoin="round"/>
</svg>
