<svg width="32" height="32" viewBox="0 0 32 32" fill="none" xmlns="http://www.w3.org/2000/svg">
<path d="M29.9497 20.0879C30.0049 20.3532 30.044 20.626 30.0673 20.8902C30.0665 20.9141 30.0814 20.9466 30.0886 20.9708L30.0732 20.9543C30.3426 24.1967 28.1366 27.2067 24.8083 27.9045C21.1906 28.6647 17.6157 26.4003 16.8376 22.8379C16.0516 19.2752 18.3536 15.7734 21.9793 15.0134C23.121 14.7712 24.2527 14.8321 25.3044 15.1458L23.5418 8.72484C23.4277 8.30594 22.9966 8.06033 22.5782 8.15846L12.8696 10.5963C12.4348 10.7099 12.1727 11.1564 12.2942 11.5915C12.8179 13.4051 14.0914 17.9338 14.7208 21.156C14.7914 21.4378 14.8459 21.727 14.8761 22.0234C14.8756 22.0394 14.8751 22.0553 14.8825 22.0715C14.9433 22.6564 14.9397 23.2551 14.824 23.8661C14.2039 27.4547 10.7392 29.8887 7.09388 29.2907C3.44062 28.6925 0.9804 25.2987 1.60049 21.7101C2.22058 18.1214 5.68532 15.6874 9.3306 16.2854C9.73555 16.3545 10.1315 16.4553 10.5022 16.5951L7.95708 7.68145C7.85097 7.26281 8.08834 6.8394 8.49953 6.71708L24.322 2.67426C24.7494 2.54448 25.2042 2.79885 25.318 3.22573L29.9497 20.0879Z" fill="white" stroke="#464646" stroke-linecap="round" stroke-linejoin="round"/>
<path d="M12.6469 23.564C12.6854 22.9924 12.0749 22.4858 11.2834 22.4325C10.4919 22.3793 9.81902 22.7995 9.78057 23.3712C9.74211 23.9428 10.3526 24.4494 11.1441 24.5027C11.9356 24.5559 12.6084 24.1357 12.6469 23.564Z" fill="#FFD5DE"/>
<path d="M4.9075 24.2992C5.69943 24.2526 6.31411 23.7511 6.28041 23.1792C6.24672 22.6072 5.57742 22.1814 4.78548 22.228C3.99355 22.2747 3.37888 22.7762 3.41257 23.3481C3.44626 23.9201 4.11557 24.3459 4.9075 24.2992Z" fill="#FFD5DE"/>
<path d="M4.09796 20.3143L6.38728 21.7688L3.62381 22.1332" stroke="#464646" stroke-linecap="round" stroke-linejoin="round"/>
<path d="M12.2937 20.5842L9.79182 21.7363L12.5209 22.426" stroke="#464646" stroke-linecap="round" stroke-linejoin="round"/>
<path d="M11.5524 24.2274C9.652 26.2513 6.42257 26.8413 4.22266 23.9883" stroke="#464646" stroke-linecap="round" stroke-linejoin="round"/>
<path d="M28.2155 21.4051C28.1634 20.8597 27.4974 20.4724 26.7279 20.5398C25.9585 20.6073 25.377 21.104 25.4291 21.6493C25.4812 22.1947 26.1472 22.582 26.9167 22.5146C27.6861 22.4471 28.2677 21.9504 28.2155 21.4051Z" fill="#FFD5DE"/>
<path d="M20.7102 23.0515C21.469 22.8867 21.9844 22.3161 21.8614 21.7772C21.7383 21.2383 21.0234 20.935 20.2646 21.0999C19.5058 21.2648 18.9904 21.8353 19.1134 22.3743C19.2365 22.9132 19.9514 23.2164 20.7102 23.0515Z" fill="#FFD5DE"/>
<path d="M19.3669 19.3142L21.8049 20.344L19.1946 21.0999" stroke="#464646" stroke-linecap="round" stroke-linejoin="round"/>
<path d="M27.4904 18.5443L25.2561 20.0039L27.9986 20.2469" stroke="#464646" stroke-linecap="round" stroke-linejoin="round"/>
<path d="M26.1318 21.9513C24.4208 23.2712 23.0315 23.6845 20.7715 22.6749C20.7715 22.6749 20.6571 25.8156 23.8743 25.5093C27.0809 25.16 26.1318 21.9513 26.1318 21.9513Z" fill="#FFA271" stroke="#464646" stroke-linecap="round" stroke-linejoin="round"/>
</svg>
