<svg width="32" height="32" viewBox="0 0 32 32" fill="none" xmlns="http://www.w3.org/2000/svg">
<path d="M29.9497 20.0879C30.0049 20.3532 30.044 20.626 30.0673 20.8902C30.0665 20.9141 30.0814 20.9466 30.0886 20.9708L30.0732 20.9543C30.3426 24.1967 28.1366 27.2067 24.8083 27.9045C21.1906 28.6647 17.6157 26.4003 16.8376 22.8379C16.0516 19.2752 18.3536 15.7734 21.9793 15.0134C23.121 14.7712 24.2528 14.8321 25.3044 15.1458L23.5418 8.72484C23.4277 8.30594 22.9966 8.06033 22.5782 8.15846L12.8696 10.5963C12.4348 10.7099 12.1727 11.1564 12.2942 11.5915C12.8179 13.4051 14.0914 17.9338 14.7208 21.156C14.7914 21.4378 14.8459 21.727 14.8761 22.0234C14.8756 22.0394 14.8751 22.0553 14.8825 22.0715C14.9433 22.6564 14.9397 23.2551 14.824 23.8661C14.2039 27.4547 10.7392 29.8887 7.09388 29.2907C3.44062 28.6925 0.980401 25.2987 1.60049 21.7101C2.22058 18.1214 5.68532 15.6874 9.3306 16.2854C9.73555 16.3545 10.1315 16.4553 10.5022 16.5951L7.95708 7.68145C7.85097 7.26281 8.08834 6.8394 8.49953 6.71708L24.322 2.67426C24.7494 2.54448 25.2042 2.79885 25.318 3.22573L29.9497 20.0879Z" fill="white"/>
<path d="M13 25.4687C14.1046 25.4687 15 24.5733 15 23.4687C15 22.3642 14.1046 21.4688 13 21.4688C11.8954 21.4688 11 22.3642 11 23.4687C11 24.5733 11.8954 25.4687 13 25.4687Z" fill="#FDE0DF"/>
<path d="M3.5 25C4.60457 25 5.5 24.1046 5.5 23C5.5 21.8954 4.60457 21 3.5 21C2.39543 21 1.5 21.8954 1.5 23C1.5 24.1046 2.39543 25 3.5 25Z" fill="#FDE0DF"/>
<path d="M4.09796 20.0135L6.38728 21.4681L3.62381 21.8324" stroke="#171717" stroke-linecap="round" stroke-linejoin="round"/>
<path d="M12.2937 20.5842L9.79182 21.7363L12.5209 22.426" stroke="#171717" stroke-linecap="round" stroke-linejoin="round"/>
<path d="M5.50498 23.5C5.50498 23.5 4.81666 23.9368 5.04725 24.6108C5.31569 25.3972 6.95044 25.4138 7.83493 24.8605C7.83493 24.8605 9.61079 26.1585 10.7224 25.056C10.7224 25.056 11.2903 24.5235 10.8016 23.9576" stroke="#171717" stroke-linecap="round" stroke-linejoin="round"/>
<path d="M28 24C29.1046 24 30 23.1046 30 22C30 20.8954 29.1046 20 28 20C26.8954 20 26 20.8954 26 22C26 23.1046 26.8954 24 28 24Z" fill="#FDE0DF"/>
<path d="M19 25C20.1046 25 21 24.1046 21 23C21 21.8954 20.1046 21 19 21C17.8954 21 17 21.8954 17 23C17 24.1046 17.8954 25 19 25Z" fill="#FDE0DF"/>
<path d="M19.3669 19.3142L21.8049 20.344L19.1946 21.0999" stroke="#171717" stroke-linecap="round" stroke-linejoin="round"/>
<path d="M27.4904 18.5443L25.2561 20.0039L27.9986 20.2469" stroke="#171717" stroke-linecap="round" stroke-linejoin="round"/>
<path d="M22.7039 24.6306L22.4426 23.2797L23.7347 22.5417L24.9889 22.8801L24.9755 24.0189L24.6401 25.135L23.9139 25.4517L23.0718 25.2321L22.7062 24.6328L22.7039 24.6306Z" fill="#F38F7F"/>
<path d="M25.7734 21.5213C25.7734 21.5213 26.1278 21.8363 25.9587 22.3842C25.7606 23.024 24.4042 23.087 23.6533 22.6703C23.6533 22.6703 22.2181 23.7662 21.2615 22.9157C21.2615 22.9157 20.7726 22.5049 21.1616 22.0365" stroke="#181818" stroke-linecap="round" stroke-linejoin="round"/>
<path d="M24.8718 23.0157C24.8718 23.0157 25.3897 25.2416 23.9854 25.4426C22.6954 25.6264 22.36 23.8988 22.4534 23.2171" stroke="#181818" stroke-linecap="round" stroke-linejoin="round"/>
<path d="M29.9497 20.0879C30.0049 20.3532 30.044 20.626 30.0673 20.8902C30.0665 20.9141 30.0814 20.9466 30.0886 20.9708L30.0732 20.9543C30.3426 24.1967 28.1366 27.2067 24.8083 27.9045C21.1906 28.6647 17.6157 26.4003 16.8376 22.8379C16.0516 19.2752 18.3536 15.7734 21.9793 15.0134C23.121 14.7712 24.2528 14.8321 25.3044 15.1458L23.5418 8.72484C23.4277 8.30594 22.9966 8.06033 22.5782 8.15846L12.8696 10.5963C12.4348 10.7099 12.1727 11.1564 12.2942 11.5915C12.8179 13.4051 14.0914 17.9338 14.7208 21.156C14.7914 21.4378 14.8459 21.727 14.8761 22.0234C14.8756 22.0394 14.8751 22.0553 14.8825 22.0715C14.9433 22.6564 14.9397 23.2551 14.824 23.8661C14.2039 27.4547 10.7392 29.8887 7.09388 29.2907C3.44062 28.6925 0.980401 25.2987 1.60049 21.7101C2.22058 18.1214 5.68532 15.6874 9.3306 16.2854C9.73555 16.3545 10.1315 16.4553 10.5022 16.5951L7.95708 7.68145C7.85097 7.26281 8.08834 6.8394 8.49953 6.71708L24.322 2.67426C24.7494 2.54448 25.2042 2.79885 25.318 3.22573L29.9497 20.0879Z" stroke="#171717" stroke-linecap="round" stroke-linejoin="round"/>
</svg>
