<svg width="24" height="24" viewBox="0 0 24 24" fill="none" xmlns="http://www.w3.org/2000/svg">
<path d="M12.3927 3.2887C12.5562 3.03963 12.8705 2.9365 13.15 3.03974C13.4297 3.14342 13.601 3.42725 13.5625 3.72307L12.7521 9.91265H17.9062C18.1375 9.91265 18.3512 10.0372 18.4646 10.2387C18.5777 10.4405 18.5725 10.6881 18.4521 10.8856L12.1167 21.2543C11.9631 21.5056 11.6577 21.6203 11.3771 21.5314C11.0966 21.4424 10.9121 21.173 10.9312 20.8793L11.3396 14.6481H6.13957C5.90458 14.648 5.68884 14.5194 5.57707 14.3127C5.46554 14.1059 5.47548 13.854 5.60415 13.6574L12.3927 3.2887Z" fill="#171717"/>
</svg>
