<svg width="56" height="56" viewBox="0 0 56 56" fill="none" xmlns="http://www.w3.org/2000/svg">
<path d="M29.8723 11.7631C31.1889 9.78238 30.4518 8.36767 28.3954 8.68941C27.0364 8.90065 25.2521 11.0995 27.8939 15.0639" stroke="#464646" stroke-linecap="round"/>
<path d="M46.0105 7.61151C45.3766 5.08156 46.5204 4.5799 47.6305 4.36428C48.5437 4.18294 49.6579 4.63033 50.273 5.02232M46.0105 7.61151C46.1924 8.33721 46.315 10.3059 46.1399 10.9824C44.8158 10.3214 42.3496 9.64889 42.3496 11.6256C42.3496 14.2681 46.7918 13.6237 46.1312 10.9812M46.0105 7.61151C47.0293 6.88391 49.6104 8.32306 49.6104 8.32306" stroke="#464646" stroke-linecap="round" stroke-linejoin="round"/>
<ellipse cx="27.6845" cy="46.034" rx="16.8017" ry="3.60037" fill="#C6C6C6"/>
<path d="M39.2826 35.7578L42.991 28.7811L45.6913 31.4812L46.5901 34.331L44.9406 37.0318L41.9403 37.3318L39.2826 35.7578Z" fill="white"/>
<path d="M43.7211 29.3419C45.2835 30.7206 47.0578 33.3683 45.8001 35.8631C44.2279 38.9815 39.7867 36.465 39.2443 35.2622" stroke="#464646" stroke-linecap="round"/>
<path d="M11.2188 29.2919C11.2188 21.1887 17.5938 14.5256 25.745 13.7383C27.703 13.752 31.9726 13.9844 33.3874 14.804C39.3112 17.1178 43.4973 22.7248 43.4973 29.2919C43.4973 37.9232 36.2773 44.9223 27.358 44.9223C18.4387 44.9223 11.2188 37.9232 11.2188 29.2919Z" fill="white" stroke="#464646" stroke-linecap="round"/>
<path d="M21.6675 28.8483C22.3294 28.8148 22.8389 28.2511 22.8054 27.5891C22.772 26.9271 22.2082 26.4176 21.5462 26.4511C20.8843 26.4846 20.3748 27.0483 20.4083 27.7103C20.4417 28.3723 21.0055 28.8818 21.6675 28.8483Z" fill="#464646"/>
<path d="M36.812 27.2585C37.474 27.225 37.9834 26.6612 37.95 25.9993C37.9165 25.3373 37.3527 24.8278 36.6908 24.8613C36.0288 24.8947 35.5193 25.4585 35.5528 26.1205C35.5863 26.7824 36.15 27.2919 36.812 27.2585Z" fill="#464646"/>
<path d="M24.8412 32.6783L22.8895 33.7287L22.8895 36.279L23.9412 38.5289L27.8415 40.6292L33.2421 40.1791L37.1425 36.8788L37.1425 33.1284L35.6423 32.079L32.9415 32.678L24.8412 32.6783Z" fill="#464646"/>
<path d="M24.6301 38.6486C24.6301 38.6486 28.3246 33.194 36.3747 37.3222L35.0409 39.1339L32.1906 40.4841L28.8903 40.7841L25.5899 39.884L24.6302 38.639L24.6301 38.6486Z" fill="#FF946F"/>
<path d="M36.5435 37.3293C36.5435 37.3293 35.0434 40.3305 30.3929 40.6301C24.6862 40.9977 23.0943 36.9778 23.0943 36.9778C23.0943 36.9778 21.3579 33.139 25.3188 32.8256C25.3188 32.8256 30.5961 33.0798 33.6425 32.2914C36.6889 31.503 38.4938 33.4298 36.5435 37.3293Z" stroke="#464646" stroke-miterlimit="10" stroke-linecap="round"/>
<path d="M17.4851 36.7303L11.9346 31.1797L9.98438 35.2301L10.4344 38.2304L12.9847 39.4305L17.4851 36.7303Z" fill="white"/>
<path d="M11.6328 32.0781C10.3327 33.6783 9.08239 36.4586 10.8826 38.3788C13.1328 40.779 17.1217 37.4787 17.4217 36.2786" stroke="#464646" stroke-linecap="round"/>
</svg>
