<svg width="80" height="80" viewBox="0 0 80 80" fill="none" xmlns="http://www.w3.org/2000/svg">
<path d="M17.2384 53.137C8.77301 53.5266 6.92874 45.6062 11.2861 43.2141C15.0696 41.1376 18.0695 44.379 18.0695 44.379" fill="white"/>
<path d="M17.2384 53.137C8.77301 53.5266 6.92874 45.6062 11.2861 43.2141C15.0696 41.1376 18.0695 44.379 18.0695 44.379" stroke="#171717" stroke-linecap="round" stroke-linejoin="round"/>
<path d="M61.7344 44.379C61.7344 44.379 64.7343 41.1376 68.5178 43.2141C72.8751 45.6062 71.0309 53.5305 62.5655 53.137" fill="white"/>
<path d="M61.7344 44.379C61.7344 44.379 64.7343 41.1376 68.5178 43.2141C72.8751 45.6062 71.0309 53.5305 62.5655 53.137" stroke="#171717" stroke-linecap="round" stroke-linejoin="round"/>
<path d="M45.3594 26.6001C45.3594 26.6001 45.7314 23.0353 48.4899 22.6574C51.2523 22.2795 52.0359 25.7781 49.7484 25.895" stroke="#171717" stroke-linecap="round" stroke-linejoin="round"/>
<path d="M15.7337 45.8952C13.9132 58.2687 22.9248 68.8851 35.8623 70.7357C48.7998 72.5823 60.7677 64.9658 62.5882 52.5923C64.4087 40.2189 56.3352 27.8999 42.4597 25.9286C28.1093 24.3819 17.5543 33.5256 15.7337 45.8991V45.8952Z" fill="white"/>
<path d="M30.2219 42.7852C29.9982 40.1599 27.4186 38.2321 24.4603 38.4793C21.5019 38.7265 19.2851 41.055 19.5089 43.6802C19.7327 46.3054 22.3123 48.2332 25.2706 47.9861C28.2289 47.7389 30.4457 45.4104 30.2219 42.7852Z" fill="#FDE0DF"/>
<path d="M58.6306 44.5227C58.407 41.8572 55.8287 39.8998 52.872 40.1508C49.9152 40.4017 47.6995 42.766 47.9232 45.4315C48.1468 48.097 50.7251 50.0544 53.6819 49.8034C56.6386 49.5525 58.8543 47.1882 58.6306 44.5227Z" fill="#FDE0DF"/>
<path d="M15.7337 45.8952C13.9132 58.2687 22.9248 68.8851 35.8623 70.7357C48.7998 72.5823 60.7677 64.9658 62.5882 52.5923C64.4087 40.2188 56.3352 27.8999 42.4597 25.9286C28.1093 24.3819 17.5543 33.5256 15.7337 45.8991V45.8952Z" stroke="#171717" stroke-width="0.993129" stroke-linecap="round" stroke-linejoin="round"/>
<path d="M28.5798 36.4766C29.1259 36.6869 29.1101 36.7298 29.6562 36.9441C30.2024 37.1584 30.2182 37.1155 30.7565 37.3531C31.2433 37.5674 31.2274 37.5947 31.7023 37.8323C32.1773 38.07 32.2722 37.9258 32.6838 38.257C32.4226 38.331 32.1219 38.4557 31.8171 38.5609C31.5559 38.6505 31.2789 38.7674 30.986 38.8726C30.7209 38.97 30.4438 39.079 30.151 39.1842C29.8818 39.2816 29.5969 39.3751 29.308 39.4725C29.0349 39.5621 28.742 39.6323 28.4531 39.7219" stroke="#171717" stroke-linecap="round" stroke-linejoin="round"/>
<path d="M33.7505 34.907C33.4932 34.6226 33.3112 34.3694 33.1212 34.1863C32.856 33.9291 32.6225 33.7499 32.3969 33.559C32.1714 33.3681 31.9656 33.1733 31.7004 32.9123C31.5104 32.7253 31.2571 32.5383 31.0078 32.25" stroke="#171717" stroke-linecap="round" stroke-linejoin="round"/>
<path d="M50.5625 40.9016C50.2736 40.812 50.0045 40.6795 49.7274 40.5899C49.4385 40.4925 49.1496 40.4107 48.8805 40.3133C48.5876 40.212 48.3106 40.1029 48.0454 40.0055C47.7526 39.9003 47.4518 39.8536 47.1866 39.764C46.8819 39.6588 46.6088 39.5302 46.3516 39.4562C46.7671 39.1289 46.8186 39.2068 47.2935 38.9692C47.7684 38.7315 47.7526 38.7004 48.2394 38.4861C48.7776 38.2484 48.7895 38.2757 49.3356 38.0614C49.8818 37.8472 49.8936 37.8705 50.4398 37.6602" stroke="#171717" stroke-linecap="round" stroke-linejoin="round"/>
<path d="M47.9883 33.4141C47.7389 33.7024 47.4936 33.8933 47.3036 34.0842C47.0384 34.3491 46.8326 34.5517 46.611 34.7387C46.3894 34.9257 46.1598 35.1166 45.8986 35.3698C45.7047 35.5568 45.5345 35.8179 45.2812 36.0984" stroke="#171717" stroke-linecap="round" stroke-linejoin="round"/>
<path d="M32.9799 43.8633C32.9799 43.8633 31.3059 44.7282 31.8639 46.0606C32.5169 47.6151 36.4904 47.6501 38.6433 46.5515C38.6433 46.5515 42.9651 49.1189 45.6681 46.9372C45.6681 46.9372 47.0533 45.8814 45.866 44.7593" stroke="#171717" stroke-linecap="round" stroke-linejoin="round"/>
<path d="M70.75 29.5263V22.0184C70.75 22.0184 73.4768 22.2887 76.9859 20.5547V28.0625" stroke="#171717" stroke-linecap="round" stroke-linejoin="round"/>
<path d="M68.6339 31.5133C69.8052 31.5133 70.7568 30.7341 70.7568 29.7703C70.7568 28.8065 69.8052 28.0273 68.6339 28.0273C67.4627 28.0273 66.5156 28.8065 66.5156 29.7703C66.5156 30.7341 67.4673 31.5133 68.6339 31.5133Z" fill="#BEF0A3"/>
<path d="M68.6339 31.5133C69.8052 31.5133 70.7568 30.7341 70.7568 29.7703C70.7568 28.8065 69.8052 28.0273 68.6339 28.0273C67.4627 28.0273 66.5156 28.8065 66.5156 29.7703C66.5156 30.7341 67.4673 31.5133 68.6339 31.5133Z" stroke="#171717" stroke-linecap="round" stroke-linejoin="round"/>
<path d="M74.8761 30.111C76.0474 30.111 76.9944 29.3318 76.9944 28.368C76.9944 27.4042 76.0474 26.625 74.8761 26.625C73.7049 26.625 72.7578 27.4042 72.7578 28.368C72.7578 29.3318 73.7049 30.111 74.8761 30.111Z" fill="#BEF0A3"/>
<path d="M74.8761 30.111C76.0474 30.111 76.9944 29.3318 76.9944 28.368C76.9944 27.4042 76.0474 26.625 74.8761 26.625C73.7049 26.625 72.7578 27.4042 72.7578 28.368C72.7578 29.3318 73.7049 30.111 74.8761 30.111Z" stroke="#171717" stroke-linecap="round" stroke-linejoin="round"/>
<path d="M70.8281 24.4335C70.8281 24.4335 74.1909 24.5687 76.9543 23.168" stroke="#171717" stroke-linecap="round" stroke-linejoin="round"/>
<path d="M61.5234 16.5079V9C61.5234 9 65.4626 9.08557 65.1881 14.909" stroke="#171717" stroke-linecap="round" stroke-linejoin="round"/>
<path d="M59.4074 18.4938C60.5786 18.4938 61.5257 17.7146 61.5257 16.7508C61.5257 15.787 60.5786 15.0078 59.4074 15.0078C58.2361 15.0078 57.2891 15.787 57.2891 16.7508C57.2891 17.7146 58.2361 18.4938 59.4074 18.4938Z" fill="#91E2F4"/>
<path d="M59.4074 18.4938C60.5786 18.4938 61.5257 17.7146 61.5257 16.7508C61.5257 15.787 60.5786 15.0078 59.4074 15.0078C58.2361 15.0078 57.2891 15.787 57.2891 16.7508C57.2891 17.7146 58.2361 18.4938 59.4074 18.4938Z" stroke="#171717" stroke-linecap="round" stroke-linejoin="round"/>
</svg>
