<svg width="86" height="64" viewBox="0 0 86 64" fill="none" xmlns="http://www.w3.org/2000/svg">
<path d="M23.9261 17.9779C23.9261 17.9779 27.1836 11.7427 24.0425 9.42536C23.3405 8.91026 22.3654 8.82246 21.685 9.39115C21.2831 9.72421 20.24 11.2197 21.6581 12.1905" stroke="#171717" stroke-width="1.2" stroke-linecap="round" stroke-linejoin="round"/>
<path d="M49.4983 35.7249C49.1381 47.8033 38.5829 57.3827 25.9266 57.1233C13.2764 56.864 3.31609 46.8663 3.67626 34.7879C4.04251 22.7098 14.5917 13.1301 27.248 13.3896C39.9042 13.649 49.8646 23.6468 49.5044 35.7251L49.4983 35.7249Z" fill="white" stroke="#171717" stroke-width="1.2" stroke-linecap="round" stroke-linejoin="round"/>
<path d="M41.4902 30.3462C41.6496 28.5336 40.1631 26.9235 38.1701 26.75C36.1771 26.5765 34.4323 27.9053 34.2729 29.718C34.1136 31.5306 35.6 33.1406 37.593 33.3141C39.586 33.4876 41.3308 32.1588 41.4902 30.3462Z" fill="#FFD5DE"/>
<path d="M21.7746 33.1605C24.2624 33.0318 26.2031 31.4543 26.1091 29.637C26.0151 27.8197 23.9222 26.4508 21.4343 26.5795C18.9465 26.7082 17.0059 28.2857 17.0998 30.103C17.1938 31.9203 19.2867 33.2892 21.7746 33.1605Z" fill="#FFD5DE"/>
<path d="M20.6831 23.7413L24.8136 26.0689L19.8217 26.5473" stroke="#171717" stroke-width="1.2" stroke-linecap="round" stroke-linejoin="round"/>
<path d="M39.5008 24.2883L36.0863 26.1498L39.8488 27.1722" stroke="#171717" stroke-width="1.2" stroke-linecap="round" stroke-linejoin="round"/>
<path d="M37.5308 31.7379C33.6059 34.7728 28.3964 34.759 24.0585 31.8254" stroke="#171717" stroke-width="1.2" stroke-linecap="round" stroke-linejoin="round"/>
<path d="M62.0201 19.5597C62.0201 19.5597 59.2994 12.9137 63.2544 11.0831C64.141 10.6772 65.2673 10.7343 65.9501 11.3923C66.3585 11.7834 67.3115 13.414 65.5336 14.1658" stroke="#171717" stroke-width="1.2" stroke-linecap="round" stroke-linejoin="round"/>
<path d="M39.5093 34.8532C38.1701 46.5833 46.7534 57.2765 58.6883 58.7392C70.6231 60.2019 81.3795 51.8815 82.7245 40.1577C84.0637 28.4276 75.4804 17.7344 63.5455 16.2717C51.6106 14.809 40.8543 23.1294 39.5093 34.8532Z" fill="white" stroke="#171717" stroke-width="1.2" stroke-linecap="round" stroke-linejoin="round"/>
<path d="M50.8665 30.5637C50.9836 28.7479 49.4333 27.171 47.4037 27.0415C45.3741 26.9121 43.6339 28.2792 43.5168 30.095C43.3996 31.9108 44.95 33.4877 46.9795 33.6172C49.0091 33.7466 50.7494 32.3795 50.8665 30.5637Z" fill="#FFD5DE"/>
<path d="M68.1366 33.378C68.4817 31.5909 66.7442 29.7557 64.2557 29.2788C61.7672 28.8019 59.4701 29.864 59.1249 31.651C58.7798 33.4381 60.5173 35.2733 63.0058 35.7502C65.4943 36.2271 67.7914 35.165 68.1366 33.378Z" fill="#FFD5DE"/>
<path d="M47.3125 32.0625C50.8237 35.6316 56.0798 36.3651 60.8663 34.0842" stroke="#171717" stroke-width="1.2" stroke-linecap="round" stroke-linejoin="round"/>
<path d="M46.0859 25.3477C47.1391 27.2989 48.8708 27.5446 50.556 26.0477" stroke="#171717" stroke-width="1.2" stroke-linecap="round" stroke-linejoin="round"/>
<path d="M60.4297 27.6406C61.4829 29.5918 63.2145 29.8376 64.8998 28.3407" stroke="#171717" stroke-width="1.2" stroke-linecap="round" stroke-linejoin="round"/>
<g clip-path="url(#clip0_3578_44588)">
<path fill-rule="evenodd" clip-rule="evenodd" d="M43.6328 4.4706C43.6328 4.09685 43.9138 3.78539 44.2783 3.7498L50.702 3.13577C51.0928 3.10018 51.444 3.38939 51.4792 3.78984C51.4792 3.81209 51.4792 3.83433 51.4792 3.85658L51.4792 5.43168C51.4792 5.80543 51.2025 6.11244 50.8381 6.15249L44.4144 6.79765C44.0236 6.8377 43.6723 6.54849 43.6328 6.14804C43.6328 6.12579 43.6328 6.09909 43.6328 6.07685L43.6328 4.46615L43.6328 4.4706Z" fill="#171717"/>
<path d="M49.338 12.2223C50.5214 12.2223 51.4807 11.4135 51.4807 10.4158C51.4807 9.41816 50.5214 8.60937 49.338 8.60937C48.1546 8.60937 47.1953 9.41816 47.1953 10.4158C47.1953 11.4135 48.1546 12.2223 49.338 12.2223Z" fill="#171717"/>
<path d="M42.9161 12.9411C44.0995 12.9411 45.0589 12.1323 45.0589 11.1346C45.0589 10.1369 44.0995 9.32812 42.9161 9.32812C41.7328 9.32812 40.7734 10.1369 40.7734 11.1346C40.7734 12.1323 41.7328 12.9411 42.9161 12.9411Z" fill="#171717"/>
<path fill-rule="evenodd" clip-rule="evenodd" d="M50.0565 4.8125L51.4836 4.8125L51.4836 10.4089L50.0565 10.4089L50.0565 4.8125ZM43.6328 5.53776L45.0598 5.53776L45.0598 11.1341L43.6328 11.1341L43.6328 5.53776Z" fill="#171717"/>
</g>
<path d="M26.3513 51.5198C26.3513 51.5198 29.8922 57.1196 35.8515 56.7799C43.2745 56.3589 44.1714 45.1329 32.4333 42.5975" fill="white"/>
<path d="M26.3513 51.5198C26.3513 51.5198 29.8922 57.1196 35.8515 56.7799C43.2745 56.3589 44.1714 45.1329 32.4333 42.5975" stroke="#171717" stroke-width="1.2" stroke-linecap="round" stroke-linejoin="round"/>
<path d="M49.3594 39.8492C49.3594 39.8492 44.1165 36.2809 39.187 39.1078C33.0459 42.627 36.7609 53.1609 47.7486 50.4915" fill="white"/>
<path d="M49.3594 39.8492C49.3594 39.8492 44.1165 36.2809 39.187 39.1078C33.0459 42.627 36.7609 53.1609 47.7486 50.4915" stroke="#171717" stroke-width="1.2" stroke-linecap="round" stroke-linejoin="round"/>
<defs>
<clipPath id="clip0_3578_44588">
<rect width="10.706" height="10.622" fill="white" transform="translate(40.7734 2.32031)"/>
</clipPath>
</defs>
</svg>
