<svg width="86" height="64" viewBox="0 0 86 64" fill="none" xmlns="http://www.w3.org/2000/svg">
<path d="M23.9164 17.9776C23.9164 17.9776 27.1738 11.7424 24.0328 9.42511C23.3308 8.91002 22.3556 8.82222 21.6753 9.39091C21.2734 9.72396 20.2302 11.2194 21.6483 12.1903" stroke="#171717" stroke-width="1.2" stroke-linecap="round" stroke-linejoin="round"/>
<path d="M49.4866 35.7225C49.1264 47.8008 38.5712 57.3803 25.9149 57.1208C13.2647 56.8616 3.30437 46.8639 3.66454 34.7855C4.03079 22.7073 14.5799 13.1277 27.2362 13.3871C39.8925 13.6466 49.8528 23.6443 49.4927 35.7227L49.4866 35.7225Z" fill="white" stroke="#171717" stroke-width="1.2" stroke-linecap="round" stroke-linejoin="round"/>
<path d="M43.0379 31.8638C43.2371 29.7903 41.565 27.9324 39.3031 27.7139C37.0413 27.4955 35.0462 28.9992 34.847 31.0726C34.6478 33.1461 36.3199 35.004 38.5818 35.2225C40.8436 35.4409 42.8387 33.9372 43.0379 31.8638Z" fill="#FDE0DF"/>
<path d="M16.6763 34.3276C19.0679 34.224 20.9291 32.3178 20.8336 30.07C20.7381 27.8223 18.7219 26.0842 16.3303 26.1878C13.9387 26.2915 12.0775 28.1976 12.173 30.4454C12.2685 32.6931 14.2847 34.4313 16.6763 34.3276Z" fill="#FDE0DF"/>
<path d="M18.0335 24.2846L22.086 26.6336L17.1597 27.0658" stroke="#171717" stroke-width="1.11797" stroke-linecap="round" stroke-linejoin="round"/>
<path d="M39.1459 24.3409L35.072 26.5332L39.529 27.7961" stroke="#171717" stroke-width="1.11797" stroke-linecap="round" stroke-linejoin="round"/>
<path d="M22.9127 30.8869C22.9127 30.8869 21.4755 31.7388 22.0319 32.8971C22.6805 34.2505 26.1902 34.0852 28.0415 33.0056C28.0415 33.0056 31.9802 35.0811 34.2598 33.0085C34.2598 33.0085 35.4305 32.001 34.3285 31.0594" stroke="#171717" stroke-width="1.11751" stroke-linecap="round" stroke-linejoin="round"/>
<path d="M22.5731 22.7028C22.4022 22.4871 22.2746 22.2787 22.1404 22.1244C21.9592 21.9168 21.7968 21.763 21.6491 21.6139C21.4816 21.4442 21.327 21.286 21.1559 21.1102C21.011 20.9607 20.829 20.8295 20.6534 20.6211C20.5187 20.4635 20.3865 20.2624 20.2207 20.0427" stroke="#171717" stroke-width="1.11751" stroke-linecap="round" stroke-linejoin="round"/>
<path d="M37.0849 19.982C36.8891 20.2075 36.688 20.3697 36.5323 20.5324C36.3248 20.7494 36.1543 20.931 35.9836 21.0856C35.7819 21.2681 35.5936 21.4219 35.3943 21.5973C35.2237 21.752 35.0769 21.9539 34.8655 22.168C34.706 22.3279 34.5126 22.4957 34.3133 22.7217" stroke="#171717" stroke-width="1.11751" stroke-linecap="round" stroke-linejoin="round"/>
<path d="M62.0104 19.5597C62.0104 19.5597 59.2896 12.9137 63.2447 11.0831C64.1312 10.6772 65.2575 10.7343 65.9403 11.3923C66.3488 11.7834 67.3017 13.414 65.5238 14.1658" stroke="#171717" stroke-width="1.2" stroke-linecap="round" stroke-linejoin="round"/>
<path d="M39.4956 34.854C38.1564 46.584 46.7397 57.2772 58.6746 58.74C70.6095 60.2027 81.3658 51.8823 82.7108 40.1584C84.05 28.4283 75.4667 17.7351 63.5318 16.2724C51.597 14.8097 40.8407 23.1301 39.4956 34.854Z" fill="white" stroke="#171717" stroke-width="1.2" stroke-linecap="round" stroke-linejoin="round"/>
<path d="M49.8305 29.9478C50.0642 28.004 48.665 26.2368 46.7052 26.0006C44.7455 25.7645 42.9674 27.1488 42.7337 29.0926C42.5 31.0364 43.8992 32.8036 45.859 33.0398C47.8187 33.2759 49.5968 31.8916 49.8305 29.9478Z" fill="#FDE0DF"/>
<path d="M68.7074 36.6547C69.2401 34.5244 67.8631 32.3422 65.6317 31.7807C63.4003 31.2191 61.1596 32.4909 60.6268 34.6212C60.094 36.7515 61.471 38.9337 63.7024 39.4953C65.9338 40.0568 68.1746 38.7851 68.7074 36.6547Z" fill="#FDE0DF"/>
<path d="M53.3927 24.7508C53.2898 24.4956 53.2264 24.2597 53.1412 24.0737C53.0262 23.8233 52.9139 23.6298 52.8144 23.445C52.7018 23.2349 52.5982 23.0395 52.4838 22.8224C52.3871 22.638 52.2496 22.4608 52.1401 22.2112C52.0555 22.022 51.9856 21.7917 51.8887 21.5341" stroke="#171717" stroke-width="1.11751" stroke-linecap="round" stroke-linejoin="round"/>
<path d="M65.8851 25.6855C65.6334 25.8464 65.3947 25.9451 65.1994 26.0571C64.939 26.2065 64.7241 26.3325 64.5166 26.4326C64.2715 26.5506 64.0474 26.6448 63.8067 26.7567C63.5992 26.8568 63.4014 27.0089 63.138 27.1545C62.9398 27.2627 62.7069 27.3691 62.4518 27.5294" stroke="#171717" stroke-width="1.11751" stroke-linecap="round" stroke-linejoin="round"/>
<path d="M49.6033 31.6814C49.6033 31.6814 47.969 32.0279 48.125 33.3035C48.3057 34.7933 51.6834 35.7612 53.783 35.3316C53.783 35.3316 56.8491 38.5596 59.6725 37.3266C59.6725 37.3266 61.1044 36.7473 60.3621 35.5023" stroke="#171717" stroke-width="1.11751" stroke-linecap="round" stroke-linejoin="round"/>
<path d="M48.8754 24.7231C49.1281 24.9371 49.1102 24.9646 49.3633 25.1756C49.6165 25.3866 49.6259 25.379 49.8786 25.593C50.1313 25.8069 50.1384 25.7959 50.3835 26.0239C50.605 26.227 50.6247 26.2058 50.8358 26.4225C51.047 26.6393 51.0336 26.6554 51.2447 26.8722C51.4559 27.0889 51.5314 27.0247 51.6791 27.2984C51.4892 27.3029 51.2742 27.346 51.0553 27.3612C50.8614 27.3741 50.6585 27.3918 50.4414 27.4133C50.2466 27.4322 50.0406 27.4342 49.8266 27.4532C49.6291 27.4717 49.4226 27.4767 49.2117 27.4931C49.012 27.5082 48.806 27.5103 48.5987 27.5212C48.3914 27.5321 48.1939 27.5688 47.9843 27.5763" stroke="#171717" stroke-width="1.11751" stroke-linecap="round" stroke-linejoin="round"/>
<path d="M66.7539 33.3061C66.5204 33.1688 66.3201 33.0048 66.1008 32.8697C65.8815 32.7345 65.6405 32.5993 65.4253 32.4616C65.1967 32.3156 64.9794 32.168 64.7677 32.0309C64.5397 31.8817 64.2868 31.7765 64.0786 31.6399C63.8471 31.4902 63.6427 31.3287 63.4341 31.1953C63.1954 31.0445 62.9648 30.8885 62.7538 30.7706C63.092 30.6247 63.1309 30.7037 63.5101 30.6468C63.8893 30.5898 63.8857 30.5892 64.2645 30.5353C64.6432 30.4815 64.6432 30.4815 65.0236 30.4405C65.4445 30.3962 65.4473 30.4253 65.8694 30.3971C66.2915 30.3689 66.2927 30.385 66.7183 30.3573C67.1439 30.3296 67.137 30.3031 67.5591 30.2749" stroke="#171717" stroke-width="1.11751" stroke-linecap="round" stroke-linejoin="round"/>
<path d="M45.1133 11.1228L45.1133 3.61498C45.1133 3.61498 47.8401 3.88521 51.3492 2.15125L51.3492 9.65911" stroke="#171717" stroke-linecap="round" stroke-linejoin="round"/>
<path d="M42.9992 13.1108C44.1704 13.1108 45.122 12.3317 45.122 11.3679C45.122 10.404 44.1704 9.62488 42.9992 9.62488C41.8279 9.62488 40.8809 10.404 40.8809 11.3679C40.8809 12.3317 41.8325 13.1108 42.9992 13.1108Z" fill="#BEF0A3"/>
<path d="M42.9992 13.1108C44.1704 13.1108 45.122 12.3317 45.122 11.3679C45.122 10.404 44.1704 9.62488 42.9992 9.62488C41.8279 9.62488 40.8809 10.404 40.8809 11.3679C40.8809 12.3317 41.8325 13.1108 42.9992 13.1108Z" stroke="#171717" stroke-linecap="round" stroke-linejoin="round"/>
<path d="M49.2374 11.7092C50.4087 11.7092 51.3557 10.9301 51.3557 9.96624C51.3557 9.00243 50.4087 8.22327 49.2374 8.22327C48.0662 8.22327 47.1191 9.00243 47.1191 9.96624C47.1191 10.9301 48.0662 11.7092 49.2374 11.7092Z" fill="#BEF0A3"/>
<path d="M49.2374 11.7092C50.4087 11.7092 51.3557 10.9301 51.3557 9.96624C51.3557 9.00243 50.4087 8.22327 49.2374 8.22327C48.0662 8.22327 47.1191 9.00243 47.1191 9.96624C47.1191 10.9301 48.0662 11.7092 49.2374 11.7092Z" stroke="#171717" stroke-linecap="round" stroke-linejoin="round"/>
<path d="M45.1914 6.03034C45.1914 6.03034 48.5541 6.16546 51.3175 4.76477" stroke="#171717" stroke-linecap="round" stroke-linejoin="round"/>
<path d="M26.3435 51.5192C26.3435 51.5192 29.8844 57.119 35.8437 56.7793C43.2667 56.3583 44.1636 45.1323 32.4254 42.5969" fill="white"/>
<path d="M26.3435 51.5192C26.3435 51.5192 29.8844 57.119 35.8437 56.7793C43.2667 56.3583 44.1636 45.1323 32.4254 42.5969" stroke="#171717" stroke-width="1.2" stroke-linecap="round" stroke-linejoin="round"/>
<path d="M49.3516 39.8488C49.3516 39.8488 44.1087 36.2804 39.1792 39.1073C33.0381 42.6266 36.7531 53.1604 47.7408 50.491" fill="white"/>
<path d="M49.3516 39.8488C49.3516 39.8488 44.1087 36.2804 39.1792 39.1073C33.0381 42.6266 36.7531 53.1604 47.7408 50.491" stroke="#171717" stroke-width="1.2" stroke-linecap="round" stroke-linejoin="round"/>
</svg>
