<svg width="50" height="51" viewBox="0 0 50 51" fill="none" xmlns="http://www.w3.org/2000/svg">
<path d="M32.8145 21.8783L38.2771 14.847L24.9967 3.12701L19.924 9.56974L32.8145 21.8783Z" fill="#91E2F4"/>
<path d="M36.7134 17.1909L23.4324 5.46472L27.3438 0.783228L34.3696 6.24731L39.8384 11.7222L36.7134 17.1909Z" fill="#FFEB78"/>
<path d="M18.7979 38.244L34.3758 19.5322L21.0957 7.81363L5.47055 26.5632L18.7979 38.244Z" fill="#BEF0A3"/>
<path d="M14.2044 34.6013L29.8354 16.4914L25.1826 11.4537L9.21799 29.9154L14.2044 34.6013Z" fill="#BEF0A3"/>
<path d="M5.4668 26.5645L3.12151 41.4039L5.46741 42.1911L18.7491 37.5019L5.9078 26.1639L5.4668 26.5645Z" fill="white"/>
<path d="M26.5048 2.31188C27.2076 1.48056 28.4335 1.39671 29.243 2.12459L38.7395 10.6639C39.549 11.3918 39.6354 12.6558 38.9326 13.4871L18.3563 37.8255L5.92847 26.6503L26.5048 2.31188Z" stroke="#171717" stroke-width="1.4" stroke-linejoin="round"/>
<path d="M5.92188 26.6553L3.70039 40.6626C3.56073 41.5432 4.37011 42.271 5.19699 42.0083L18.3497 37.8305" stroke="#171717" stroke-width="1.4" stroke-linecap="round" stroke-linejoin="round"/>
<path d="M8.55257 40.378L4.82422 37.0254L3.95728 41.9321L8.55257 40.378Z" fill="#171717"/>
<path d="M24.5938 5.88477L35.7788 15.9425" stroke="#171717" stroke-width="1.4" stroke-linecap="round" stroke-linejoin="round"/>
<path d="M21.8633 9.11328L33.0483 19.171" stroke="#171717" stroke-width="1.4" stroke-linecap="round" stroke-linejoin="round"/>
<path d="M24.9648 11.9092L9.67063 29.9997" stroke="#171717" stroke-width="1.4" stroke-linecap="round" stroke-linejoin="round"/>
<path d="M29.9258 16.3828L14.6316 34.4734" stroke="#171717" stroke-width="1.4" stroke-linecap="round" stroke-linejoin="round"/>
<path d="M47.9688 43.4385C39.3201 40.964 29.8544 40.9698 31.4747 46.3652C33.0947 51.7599 15.7629 49.6883 11.6445 45.5447" stroke="#171717" stroke-width="1.4" stroke-linecap="round" stroke-linejoin="round"/>
</svg>
