<svg width="52" height="52" viewBox="0 0 52 52" fill="none" xmlns="http://www.w3.org/2000/svg">
<path d="M9.00781 29.8993C9.00781 21.3677 15.7199 14.3523 24.3021 13.5234C26.3635 13.5379 30.8589 13.7825 32.3485 14.6455C38.5854 17.0817 42.9928 22.9851 42.9928 29.8993C42.9928 38.9869 35.3911 46.356 26.0003 46.356C16.6094 46.356 9.00781 38.9869 9.00781 29.8993Z" fill="white" stroke="white" stroke-width="6" stroke-linecap="round"/>
<path d="M27.9405 16.4131C26.2372 14.2824 27.1807 11.0967 27.4628 10.4746C28.415 8.64448 29.3127 8.45255 30.2794 8.46519C31.245 8.47687 32.2435 9.03114 32.4103 9.87798" stroke="white" stroke-width="6" stroke-linecap="round"/>
<path d="M30.4724 11.8728C30.0533 11.291 29.0824 10.5431 27.3255 11.0576" stroke="white" stroke-width="6" stroke-linecap="round"/>
<path d="M27.9405 16.4131C26.2372 14.2824 27.1807 11.0967 27.4628 10.4746C28.415 8.64448 29.3127 8.45255 30.2794 8.46519C31.245 8.47687 32.2435 9.03114 32.4103 9.87798" stroke="#464646" stroke-width="1.41601" stroke-linecap="round"/>
<path d="M30.4724 11.8728C30.0533 11.291 29.0824 10.5431 27.3255 11.0576" stroke="#464646" stroke-width="1.41601" stroke-linecap="round"/>
<path d="M9.00781 29.8993C9.00781 21.3677 15.7199 14.3523 24.3021 13.5234C26.3635 13.5379 30.8589 13.7825 32.3485 14.6455C38.5854 17.0817 42.9928 22.9851 42.9928 29.8993C42.9928 38.9869 35.3911 46.356 26.0003 46.356C16.6094 46.356 9.00781 38.9869 9.00781 29.8993Z" fill="white" stroke="#464646" stroke-width="1.41601" stroke-linecap="round"/>
<path d="M33.3997 28.0754C33.3997 30.4288 30.0599 32.3367 25.9401 32.3367C21.8203 32.3367 18.4805 30.4288 18.4805 28.0754C18.4805 25.7219 21.798 24.1289 25.9178 24.1289C30.0376 24.1289 33.3997 25.7219 33.3997 28.0754Z" fill="#C6C6C6"/>
<path d="M18.4667 29.4959C19.1645 29.4959 19.7303 28.9302 19.7303 28.2323C19.7303 27.5345 19.1645 26.9688 18.4667 26.9688C17.7688 26.9688 17.2031 27.5345 17.2031 28.2323C17.2031 28.9302 17.7688 29.4959 18.4667 29.4959Z" fill="#464646"/>
<path d="M33.5448 29.4959C34.2427 29.4959 34.8084 28.9302 34.8084 28.2323C34.8084 27.5345 34.2427 26.9688 33.5448 26.9688C32.847 26.9688 32.2812 27.5345 32.2812 28.2323C32.2812 28.9302 32.847 29.4959 33.5448 29.4959Z" fill="#464646"/>
<path d="M18.9115 36.4529C18.9115 36.4529 26.0963 33.1351 33.2162 36.4551" stroke="#464646" stroke-width="1.41601" stroke-miterlimit="10" stroke-linecap="round"/>
</svg>
