<svg width="75" height="60" viewBox="0 0 75 60" fill="none" xmlns="http://www.w3.org/2000/svg">
<path d="M26.5967 19.6711L66.8291 4.63982L56.535 38.6354L46.8714 29.1381L41.0643 34.4569L41.3766 22.8253L26.5967 19.6711Z" fill="white"/>
<path d="M66.8291 4.63982L26.5967 19.6711L41.3766 22.8253M66.8291 4.63982L56.535 38.6354L46.8714 29.1381M66.8291 4.63982L41.3766 22.8253M41.3766 22.8253L41.0643 34.4569L46.8714 29.1381M41.3766 22.8253L46.8714 29.1381" stroke="#171717" stroke-width="1.2" stroke-linejoin="round"/>
<path d="M29.41 41.3379C27.7926 41.2775 26.3404 42.141 25.4567 43.5117C24.6816 42.0846 23.3007 41.1043 21.6908 41.046C21.5241 41.0377 21.353 41.0443 21.1872 41.0606C18.0272 41.3183 16.3492 45.6019 18.5632 48.3344L23.6691 53.6575C24.391 54.4122 25.5771 54.4598 26.3674 53.7672L31.9264 48.8533C34.3753 46.2874 33.0439 41.884 29.9088 41.3949C29.7464 41.3717 29.5819 41.3559 29.4226 41.3498L29.41 41.3379Z" fill="#FF96AD" stroke="#171717" stroke-width="1.2" stroke-linecap="round" stroke-linejoin="round"/>
<path d="M14.1139 32.1565C13.0138 32.1866 12.0661 32.8365 11.5266 33.8055C10.9381 32.8712 9.95806 32.2667 8.86306 32.298C8.74957 32.2997 8.63378 32.3117 8.52196 32.33C6.38896 32.6439 5.43808 35.6245 7.06033 37.3813L10.7585 40.7688C11.2814 41.2492 12.0884 41.2293 12.5943 40.7245L16.1511 37.1456C17.7003 35.2967 16.6038 32.3672 14.4549 32.1732C14.3437 32.1646 14.2314 32.1611 14.123 32.164L14.1139 32.1565Z" fill="#FF96AD" stroke="#171717" stroke-width="1.2" stroke-linecap="round" stroke-linejoin="round"/>
</svg>
