<svg width="321" height="320" viewBox="0 0 321 320" fill="none" xmlns="http://www.w3.org/2000/svg">
<path d="M185.303 149.408C164.165 150.396 159.56 130.306 170.44 124.238C179.887 118.971 187.378 127.193 187.378 127.193" stroke="#171717" stroke-width="2" stroke-linecap="round" stroke-linejoin="round"/>
<path d="M296.407 127.193C296.407 127.193 303.898 118.971 313.345 124.238C324.225 130.306 319.62 150.406 298.483 149.408" stroke="#171717" stroke-width="2" stroke-linecap="round" stroke-linejoin="round"/>
<path d="M181.53 131.037C176.984 162.422 199.486 189.35 231.79 194.044C264.095 198.728 293.978 179.409 298.524 148.024C303.069 116.639 282.91 85.3924 248.264 80.3921C212.431 76.469 186.076 99.6619 181.53 131.047V131.037Z" stroke="#171717" stroke-width="2" stroke-linecap="round" stroke-linejoin="round"/>
<path d="M185.307 149.417C164.175 150.399 159.577 130.312 170.446 124.251C179.894 118.984 187.376 127.198 187.376 127.198" fill="white"/>
<path d="M185.307 149.417C164.175 150.399 159.577 130.312 170.446 124.251C179.894 118.984 187.376 127.198 187.376 127.198" stroke="#181818" stroke-width="2" stroke-linecap="round" stroke-linejoin="round"/>
<path d="M296.4 127.199C296.4 127.199 303.883 118.963 313.33 124.251C324.22 130.313 319.601 150.42 298.469 149.417" fill="white"/>
<path d="M296.4 127.199C296.4 127.199 303.883 118.963 313.33 124.251C324.22 130.313 319.601 150.42 298.469 149.417" stroke="#181818" stroke-width="2" stroke-linecap="round" stroke-linejoin="round"/>
<path d="M255.495 82.0938C255.495 82.0938 256.415 73.0642 263.312 72.1028C270.21 71.1413 272.175 80.0245 266.448 80.3171" stroke="#181818" stroke-width="2" stroke-linecap="round" stroke-linejoin="round"/>
<path d="M181.524 131.046C176.988 162.419 199.479 189.361 231.793 194.043C264.107 198.725 293.975 179.412 298.532 148.018C303.067 116.644 282.918 85.3755 248.263 80.38C212.438 76.4505 186.081 99.6514 181.524 131.025V131.046Z" fill="white"/>
<path d="M181.524 131.046C176.988 162.419 199.479 189.361 231.793 194.043C264.107 198.725 293.975 179.412 298.532 148.018C303.067 116.644 282.918 85.3755 248.263 80.38C212.438 76.4505 186.081 99.6514 181.524 131.025V131.046Z" stroke="#181818" stroke-width="2" stroke-linecap="round" stroke-linejoin="round"/>
<path d="M226.567 103.139C225.919 102.429 225.417 101.843 224.936 101.363C224.268 100.715 223.703 100.234 223.16 99.7532C222.616 99.2724 222.01 98.8335 221.362 98.1855C220.882 97.7048 220.317 97.1822 219.69 96.4507" stroke="#181818" stroke-width="2" stroke-linecap="round" stroke-linejoin="round"/>
<path d="M261.975 99.3165C261.347 100.048 260.888 100.675 260.407 101.156C259.738 101.825 259.132 102.243 258.588 102.724C258.045 103.204 257.481 103.706 256.833 104.354C256.352 104.814 255.934 105.503 255.307 106.214" stroke="#181818" stroke-width="2" stroke-linecap="round" stroke-linejoin="round"/>
<path d="M224.602 125.88C224.602 125.88 220.422 128.075 221.822 131.461C223.453 135.412 233.381 135.495 238.753 132.715C238.753 132.715 249.538 139.237 256.289 133.698C256.289 133.698 259.738 131.022 256.77 128.18" stroke="#181818" stroke-width="2" stroke-linecap="round" stroke-linejoin="round"/>
<path d="M276.104 137.501C282.718 137.501 288.08 132.139 288.08 125.524C288.08 118.91 282.718 113.548 276.104 113.548C269.489 113.548 264.127 118.91 264.127 125.524C264.127 132.139 269.489 137.501 276.104 137.501Z" fill="#FDE0DF"/>
<path d="M205.227 133.762C211.841 133.762 217.203 128.399 217.203 121.785C217.203 115.17 211.841 109.808 205.227 109.808C198.612 109.808 193.25 115.17 193.25 121.785C193.25 128.399 198.612 133.762 205.227 133.762Z" fill="#FDE0DF"/>
<path d="M213.567 107.195C214.925 107.739 214.967 107.655 216.346 108.178C217.726 108.7 217.705 108.763 219.043 109.369C220.255 109.913 220.255 109.913 221.446 110.519C222.638 111.125 222.826 110.853 223.85 111.689C223.202 111.877 222.471 112.212 221.718 112.484C221.07 112.713 220.38 112.985 219.628 113.257C218.959 113.508 218.228 113.654 217.517 113.926C216.848 114.177 216.179 114.511 215.448 114.762C214.758 114.992 214.005 115.096 213.274 115.305" stroke="#181818" stroke-width="2" stroke-linecap="round" stroke-linejoin="round"/>
<path d="M268.517 118.355C267.785 118.125 267.095 117.832 266.406 117.602C265.674 117.352 264.943 117.205 264.274 116.954C263.542 116.704 262.832 116.495 262.163 116.265C261.431 115.993 260.741 115.7 260.093 115.47C259.341 115.199 258.714 114.99 258.066 114.802C259.111 113.966 259.174 114.112 260.365 113.506C261.557 112.9 261.494 112.795 262.727 112.252C264.065 111.645 264.127 111.771 265.486 111.227C266.845 110.684 266.886 110.768 268.245 110.245" stroke="#181818" stroke-width="2" stroke-linecap="round" stroke-linejoin="round"/>
<path d="M241.9 297.012C263.966 297.012 281.853 293.84 281.853 289.927C281.853 286.014 263.966 282.842 241.9 282.842C219.833 282.842 201.947 286.014 201.947 289.927C201.947 293.84 219.833 297.012 241.9 297.012Z" fill="#E5E5E5"/>
<path d="M58.0324 297.012C80.099 297.012 97.9855 293.84 97.9855 289.927C97.9855 286.014 80.099 282.842 58.0324 282.842C35.9658 282.842 18.0793 286.014 18.0793 289.927C18.0793 293.84 35.9658 297.012 58.0324 297.012Z" fill="#E5E5E5"/>
<path d="M112.634 198.135C112.634 198.135 127.615 186.158 137.468 195.072C146.5 203.926 139.948 224.876 113.425 223.64" fill="white"/>
<path d="M63.1294 150.307C27.5343 149.151 1.92008 176.464 1.0307 208.255C0.141319 240.045 26.7438 264.384 59.9375 265.441C93.1214 266.499 120.346 243.859 121.226 212.069C122.115 180.279 99.7226 152.738 63.1294 150.317V150.307Z" stroke="#171717" stroke-width="2" stroke-linecap="round" stroke-linejoin="round"/>
<path d="M31.9541 201.179C31.9541 201.179 42.5377 213.324 36.4109 222.939C29.3551 234.016 8.37553 227.949 10.6583 205.784" fill="white"/>
<path d="M128.27 160.04C128.27 160.04 128.211 170.94 138.943 167.817C148.558 165.021 143.152 156.75 143.152 156.75C143.152 156.75 150.267 148.686 139.832 150.168C139.832 150.168 133.547 138.962 131.63 152.145C131.63 152.145 117.252 154.091 128.26 160.05L128.27 160.04Z" fill="#F18478"/>
<path d="M134.626 182.749C134.626 182.749 148.095 185.812 149.677 172.106C149.677 172.106 138.708 169.586 134.626 182.749Z" fill="#BEF0A3"/>
<path d="M298.673 69.6106V53.1374C298.673 53.1374 304.563 53.7303 312.142 49.9258V66.399" stroke="#171717" stroke-width="2" stroke-linecap="round" stroke-linejoin="round"/>
<path d="M294.108 73.9689C296.638 73.9689 298.693 72.2594 298.693 70.1446C298.693 68.0299 296.638 66.3203 294.108 66.3203C291.578 66.3203 289.532 68.0299 289.532 70.1446C289.532 72.2594 291.588 73.9689 294.108 73.9689Z" fill="#BEF0A3"/>
<path d="M294.108 73.9689C296.638 73.9689 298.693 72.2594 298.693 70.1446C298.693 68.0299 296.638 66.3203 294.108 66.3203C291.578 66.3203 289.532 68.0299 289.532 70.1446C289.532 72.2594 291.588 73.9689 294.108 73.9689Z" stroke="#171717" stroke-width="2" stroke-linecap="round" stroke-linejoin="round"/>
<path d="M307.584 70.8957C310.114 70.8957 312.16 69.1861 312.16 67.0714C312.16 64.9566 310.114 63.2471 307.584 63.2471C305.055 63.2471 303.009 64.9566 303.009 67.0714C303.009 69.1861 305.055 70.8957 307.584 70.8957Z" fill="#BEF0A3"/>
<path d="M307.584 70.8957C310.114 70.8957 312.16 69.1861 312.16 67.0714C312.16 64.9566 310.114 63.2471 307.584 63.2471C305.055 63.2471 303.009 64.9566 303.009 67.0714C303.009 69.1861 305.055 70.8957 307.584 70.8957Z" stroke="#171717" stroke-width="2" stroke-linecap="round" stroke-linejoin="round"/>
<path d="M298.829 58.435C298.829 58.435 306.093 58.7315 312.061 55.6582" stroke="#171717" stroke-width="2" stroke-linecap="round" stroke-linejoin="round"/>
<path d="M283.853 38.4732V22C283.853 22 292.361 22.1878 291.768 34.9651" stroke="#171717" stroke-width="2" stroke-linecap="round" stroke-linejoin="round"/>
<path d="M279.288 42.8312C281.817 42.8312 283.863 41.1217 283.863 39.0069C283.863 36.8922 281.817 35.1826 279.288 35.1826C276.758 35.1826 274.712 36.8922 274.712 39.0069C274.712 41.1217 276.758 42.8312 279.288 42.8312Z" fill="#91E2F4"/>
<path d="M279.288 42.8312C281.817 42.8312 283.863 41.1217 283.863 39.0069C283.863 36.8922 281.817 35.1826 279.288 35.1826C276.758 35.1826 274.712 36.8922 274.712 39.0069C274.712 41.1217 276.758 42.8312 279.288 42.8312Z" stroke="#171717" stroke-width="2" stroke-linecap="round" stroke-linejoin="round"/>
<path d="M96.7166 196.17L101.002 210.196" stroke="#F37A75" stroke-width="1.01" stroke-linecap="round" stroke-linejoin="round"/>
<path d="M112.645 198.135C112.645 198.135 127.632 186.157 137.478 195.062C146.508 203.925 139.965 224.87 113.439 223.637" fill="white"/>
<path d="M112.645 198.135C112.645 198.135 127.632 186.157 137.478 195.062C146.508 203.925 139.965 224.87 113.439 223.637" stroke="#181818" stroke-width="2" stroke-linecap="round" stroke-linejoin="round"/>
<path d="M54.011 146.419C47.6146 144.955 51.5862 135.319 59.1741 137.785C66.762 140.231 66.0095 150.62 66.0095 150.62" stroke="#181818" stroke-width="2" stroke-linecap="round" stroke-linejoin="round"/>
<path d="M63.125 150.308C27.5266 149.158 1.91998 176.458 1.02113 208.252C0.143192 240.046 26.7322 264.377 59.9267 265.443C93.1212 266.489 120.337 243.85 121.215 212.077C122.093 180.283 99.7058 152.753 63.1041 150.308H63.125Z" fill="white"/>
<path d="M63.125 150.308C27.5266 149.158 1.91998 176.458 1.02113 208.252C0.143192 240.046 26.7322 264.377 59.9267 265.443C93.1212 266.489 120.337 243.85 121.215 212.077C122.093 180.283 99.7058 152.753 63.1041 150.308H63.125Z" stroke="#181818" stroke-width="0.95" stroke-linecap="round" stroke-linejoin="round"/>
<path d="M99.3084 177.48C95.7757 180.406 95.0232 180.134 91.5115 182.915" stroke="#181818" stroke-width="2" stroke-linecap="round" stroke-linejoin="round"/>
<path d="M67.2848 180.887C64.9436 177.083 62.6024 175.849 60.2612 171.899" stroke="#181818" stroke-width="2" stroke-linecap="round" stroke-linejoin="round"/>
<path d="M127.925 206.076C127.925 206.076 135.179 188.768 136.37 168.743" stroke="#181818" stroke-width="2" stroke-linecap="round" stroke-linejoin="round"/>
<path d="M128.281 160.028C128.281 160.028 128.218 170.919 138.962 167.804C148.578 165.003 143.185 156.725 143.185 156.725C143.185 156.725 150.292 148.657 139.861 150.141C139.861 150.141 133.569 138.937 131.667 152.106C131.667 152.106 117.286 154.05 128.302 160.007L128.281 160.028Z" fill="#F37A75"/>
<path d="M128.281 160.028C128.281 160.028 128.218 170.919 138.962 167.804C148.578 165.003 143.185 156.725 143.185 156.725C143.185 156.725 150.292 148.657 139.861 150.141C139.861 150.141 133.569 138.937 131.667 152.106C131.667 152.106 117.286 154.05 128.302 160.007L128.281 160.028Z" stroke="#181818" stroke-width="2" stroke-linecap="round" stroke-linejoin="round"/>
<path d="M132.44 159.715C132.44 159.715 134.301 161.492 136.349 161.429C137.583 161.387 139.15 160.656 140.007 158.879" stroke="#181818" stroke-width="2" stroke-linecap="round" stroke-linejoin="round"/>
<path d="M134.635 182.75C134.635 182.75 148.097 185.802 149.685 172.11C149.685 172.11 138.711 169.581 134.635 182.75Z" fill="#B6DA99"/>
<path d="M134.635 182.75C134.635 182.75 148.097 185.802 149.685 172.11C149.685 172.11 138.711 169.581 134.635 182.75Z" stroke="#181818" stroke-width="2" stroke-linecap="round" stroke-linejoin="round"/>
<path d="M116.93 141.005L123.619 144.705" stroke="#181818" stroke-width="2" stroke-linecap="round" stroke-linejoin="round"/>
<path d="M128.97 131.578L131.353 138.832" stroke="#181818" stroke-width="2" stroke-linecap="round" stroke-linejoin="round"/>
<path d="M144.71 132.309L141.554 139.249" stroke="#181818" stroke-width="2" stroke-linecap="round" stroke-linejoin="round"/>
<path d="M110.408 224.199C116.838 224.199 122.051 218.921 122.051 212.41C122.051 205.899 116.838 200.62 110.408 200.62C103.978 200.62 98.7649 205.899 98.7649 212.41C98.7649 218.921 103.978 224.199 110.408 224.199Z" fill="#FDE0DF"/>
<path d="M43.8728 216.026C51.1112 216.026 56.9791 210.158 56.9791 202.92C56.9791 195.681 51.1112 189.813 43.8728 189.813C36.6343 189.813 30.7664 195.681 30.7664 202.92C30.7664 210.158 36.6343 216.026 43.8728 216.026Z" fill="#FDE0DF"/>
<path d="M106.123 197.714C100.521 200.097 95.1071 198.048 92.7241 191.945" stroke="#181818" stroke-width="2" stroke-linecap="round" stroke-linejoin="round"/>
<path d="M30.6827 200.163C30.6827 200.163 41.2598 212.308 35.1351 221.923C28.0907 233.002 7.10374 226.94 9.38221 204.762" fill="white"/>
<path d="M30.6827 200.163C30.6827 200.163 41.2598 212.308 35.1351 221.923C28.0907 233.002 7.10374 226.94 9.38221 204.762" stroke="#181818" stroke-width="2" stroke-linecap="round" stroke-linejoin="round"/>
<path d="M63.2713 186.972C60.1776 190.651 53.6767 191.696 48.7644 187.097" stroke="#181818" stroke-width="2" stroke-linecap="round" stroke-linejoin="round"/>
<path d="M54.4919 208.963C67.7656 204.657 94.271 225.059 95.4416 210.719" stroke="#181818" stroke-width="2" stroke-linecap="round" stroke-linejoin="round"/>
<path d="M63.125 149.973C27.5266 148.823 1.91998 176.123 1.02113 207.917C0.143192 239.711 26.7322 264.043 59.9267 265.109C93.1212 266.154 120.337 243.515 121.215 211.742C122.093 179.948 99.7058 152.419 63.1041 149.973H63.125Z" stroke="#181818" stroke-width="2" stroke-linecap="round" stroke-linejoin="round"/>
<path d="M47.1653 100.749L53.0945 109.623L54.7843 101.836L61.1582 108.052L62.2354 96.4805" stroke="#171717" stroke-width="2" stroke-linecap="round" stroke-linejoin="round"/>
<path d="M66.6342 106.786C66.6144 106.539 68.8774 94.4141 68.8774 94.4141L74.609 104.049" stroke="#171717" stroke-width="2" stroke-linecap="round" stroke-linejoin="round"/>
<path d="M67.7903 101.619L72.2965 100.463" stroke="#171717" stroke-width="2" stroke-linecap="round" stroke-linejoin="round"/>
<path d="M77.598 103.407L76.0168 92.3098L84.9897 100.383L81.8571 90.5508" stroke="#171717" stroke-width="2" stroke-linecap="round" stroke-linejoin="round"/>
<path d="M88.2144 99.8889C88.1947 99.6419 85.3684 89.4635 85.3684 89.4635L95.3591 96.8848L91.8016 86.7559" stroke="#171717" stroke-width="2" stroke-linecap="round" stroke-linejoin="round"/>
<path d="M98.4086 96.0845C98.379 95.7584 98.9422 83.7617 98.9422 83.7617L106.957 92.1614" stroke="#171717" stroke-width="2" stroke-linecap="round" stroke-linejoin="round"/>
<path d="M98.8372 89.9079C99.0743 89.809 103.057 88.2773 103.057 88.2773" stroke="#171717" stroke-width="2" stroke-linecap="round" stroke-linejoin="round"/>
<path d="M79.504 110.879C79.504 110.879 73.0906 110.474 74.395 117.895C75.6995 125.316 82.5181 121.808 82.2117 118.498" stroke="#171717" stroke-width="2" stroke-linecap="round" stroke-linejoin="round"/>
<path d="M128.629 93.2389C128.629 93.2389 121.909 92.1321 123.115 99.6523C124.32 107.172 133.244 103.862 131.633 99.6523" stroke="#171717" stroke-width="2" stroke-linecap="round" stroke-linejoin="round"/>
<path d="M84.3266 113.951C84.3266 113.951 84.4847 119.495 89.0798 118.339C93.675 117.182 90.9179 108.961 88.0817 108.872C85.4729 108.793 83.7139 110.561 84.3266 113.951Z" stroke="#171717" stroke-width="2" stroke-linecap="round" stroke-linejoin="round"/>
<path d="M96.1845 116.619L93.8918 107.261L103.171 113.991L99.9891 104.326" stroke="#171717" stroke-width="2" stroke-linecap="round" stroke-linejoin="round"/>
<path d="M106.281 113.289L103.9 103.24L112.892 110.977L109.779 99.9785" stroke="#171717" stroke-width="2" stroke-linecap="round" stroke-linejoin="round"/>
<path d="M118.906 96.3418L113.095 98.8913L116.603 108.872L122.513 106.609" stroke="#171717" stroke-width="2" stroke-linecap="round" stroke-linejoin="round"/>
<path d="M120.719 101.154L115.204 103.259" stroke="#171717" stroke-width="2" stroke-linecap="round" stroke-linejoin="round"/>
<path d="M129.736 90.9256L136.455 88.1191" stroke="#171717" stroke-width="2" stroke-linecap="round" stroke-linejoin="round"/>
<path d="M132.939 89.6211L136.753 100.155" stroke="#171717" stroke-width="2" stroke-linecap="round" stroke-linejoin="round"/>
<path d="M139.396 87.7542C139.425 87.527 138.536 85.096 141.174 84.2659C143.813 83.4358 146.036 85.9854 144.475 89.1278C142.914 92.2703 143.754 92.8533 143.754 92.8533" stroke="#171717" stroke-width="2" stroke-linecap="round" stroke-linejoin="round"/>
<path d="M145.121 96.7163C145.705 96.7163 146.178 96.2429 146.178 95.6589C146.178 95.075 145.705 94.6016 145.121 94.6016C144.537 94.6016 144.064 95.075 144.064 95.6589C144.064 96.2429 144.537 96.7163 145.121 96.7163Z" fill="#171717"/>
</svg>
