<svg width="124" height="26" viewBox="0 0 124 26" fill="none" xmlns="http://www.w3.org/2000/svg">
<path d="M116.318 25.4864H111.321L104.586 2.68359H110.01L113.819 15.1966L117.629 2.68359H123.053L116.318 25.4864Z" fill="#171717"/>
<path d="M99.6069 24.4381C98.4285 25.1367 97.1323 25.4861 95.7182 25.4861C94.3255 25.4861 93.0293 25.1367 91.8294 24.4381C90.6296 23.7605 89.6762 22.8289 88.9691 21.6433C88.2835 20.4576 87.9407 19.1767 87.9407 17.8005L87.8516 2.6875H93.3151L93.4042 17.8005C93.4042 18.3933 93.6292 18.9332 94.0791 19.4202C94.5719 19.8648 95.1183 20.0871 95.7182 20.0871C96.3181 20.0871 96.8645 19.8648 97.3572 19.4202C97.8072 18.9756 98.0322 18.4357 98.0322 17.8005L97.943 2.6875H103.407L103.496 17.8005C103.496 19.1767 103.142 20.4576 102.435 21.6433C101.75 22.8289 100.807 23.7605 99.6069 24.4381Z" fill="#171717"/>
<path d="M79.3073 20.0879H87.0318V25.4869H73.8438L75.1293 2.65234H80.5928L79.3073 20.0879Z" fill="#171717"/>
<path d="M65.0812 23.0111C65.0812 23.8253 65.3704 24.5216 65.9489 25.1001C66.5488 25.7 67.2666 26 68.1022 26C68.9163 26 69.6127 25.7 70.1912 25.1001C70.7911 24.5216 71.091 23.8253 71.091 23.0111C71.091 22.1755 70.7911 21.4685 70.1912 20.89C69.6127 20.2901 68.9163 19.9901 68.1022 19.9901C67.2666 19.9901 66.5488 20.2901 65.9489 20.89C65.3704 21.4685 65.0812 22.1755 65.0812 23.0111ZM71.4889 0L70.6211 18.1261H65.274L64.4062 0H71.4889Z" fill="#171717"/>
<path d="M57.0562 10.3064C57.0562 9.69237 56.8868 9.17363 56.5481 8.75017C56.2305 8.30554 55.8811 8.08322 55.5 8.08322H53.6897V12.5613H55.5C55.8811 12.5613 56.2305 12.3496 56.5481 11.9261C56.8868 11.4815 57.0562 10.9522 57.0562 10.3381V10.3064ZM48.1953 2.65234H53.6897V2.6841H55.5C56.7492 2.6841 57.9031 3.03346 58.9618 3.73217C60.0416 4.4097 60.8885 5.33073 61.5025 6.49524C62.1377 7.65976 62.4553 8.93014 62.4553 10.3064V10.3381C62.4553 11.7144 62.1377 12.9848 61.5025 14.1493C60.8885 15.3138 60.0416 16.2454 58.9618 16.9441C57.9031 17.6217 56.7492 17.9604 55.5 17.9604H53.6897V25.4874H48.1953V2.65234Z" fill="#171717"/>
<path d="M31.5081 8.08285H24.1588V11.3859H30.7689V16.7852H24.1588V20.0883H31.5081V25.4875H18.6953V2.68359H31.5081V8.08285Z" fill="#171717"/>
<path d="M46.1488 8.08285H38.7995V11.3859H45.4096V16.7852H38.7995V20.0883H46.1488V25.4875H33.3359V2.68359H46.1488V8.08285Z" fill="#171717"/>
<path d="M5.39912 2.77734V10.3996L11.0205 2.77734H16.7055L10.036 14.1472L16.7055 25.4854H11.0205L5.39912 17.8631V25.4854H0V2.77734H5.39912Z" fill="#171717"/>
</svg>
