<svg width="32" height="32" viewBox="0 0 32 32" fill="none" xmlns="http://www.w3.org/2000/svg">
<path d="M10.9396 11.9326C10.4687 11.0777 9.27573 10.9941 8.70278 11.7765C5.04305 16.7763 5.6677 23.8105 10.0964 27.4569C14.0602 30.7203 20.3157 30.5575 24.1044 27.091C28.3377 23.2172 28.5937 16.1583 24.6751 11.3559C24.0876 10.6375 22.9023 10.6964 22.4345 11.6605C22.2518 12.0293 21.6902 11.9252 21.6391 11.5125C21.1787 7.73936 19.9589 5.29881 18.2308 3.33441C17.4528 2.45197 15.9697 2.9341 15.9018 4.12632C15.8027 5.88966 14.8647 6.63187 14.3609 7.07515L14.3587 7.07703C14.0441 7.35352 13.6885 7.66612 13.3455 8.09922C12.5377 9.11899 12.0244 10.4088 11.8198 11.9345C11.7683 12.3196 11.2602 12.4358 11.047 12.1116C11.0094 12.0539 10.9728 11.9933 10.9396 11.9326Z" fill="#ECECEC"/>
<path d="M6.92197 10.5664C7.59573 9.69497 8.94781 9.82522 9.45716 10.8099C9.49305 10.8798 9.53279 10.9497 9.57382 11.0163C9.80618 11.3908 10.3866 11.2739 10.4565 10.8381C10.734 9.11191 11.3552 7.66259 12.3026 6.52865C12.7058 6.04597 13.1199 5.70111 13.4859 5.39599C14.0711 4.9076 15.1582 4.09269 15.323 2.09345C15.4355 0.741759 17.1337 0.238311 17.9909 1.26335C19.8949 3.54508 21.2075 6.35237 21.6184 10.6503C21.6641 11.1203 22.2987 11.2552 22.517 10.8419C23.0768 9.76106 24.4244 9.72939 25.0702 10.5624C29.3771 16.1315 28.8771 24.139 23.9555 28.4119C19.5509 32.2356 12.4432 32.2349 8.03925 28.4119C3.11887 24.1403 2.61824 16.1348 6.92197 10.5664ZM15.8171 26.5955C17.496 26.5955 19.1168 25.8661 20.0689 24.7972C21.4828 23.2097 21.2805 21.1062 21.1943 20.2079C21.0195 18.3904 20.238 16.6836 18.8714 15.1349C17.9624 14.1047 16.2756 14.9462 16.5445 16.2949C16.7777 17.4648 16.6318 18.4086 16.1335 18.9522C16.0451 19.0488 15.571 19.5282 14.9654 19.5112C14.461 19.4962 13.947 19.1473 13.5551 18.5543C12.9905 17.6999 11.7296 17.7508 11.2463 18.6458C9.36889 22.1224 11.599 26.5953 15.8171 26.5955Z" fill="white" stroke="#171717"/>
</svg>
