<svg width="390" height="420" viewBox="0 0 390 420" fill="none" xmlns="http://www.w3.org/2000/svg">
<g clip-path="url(#clip0_7189_31472)">
<path d="M-84.893 5.98528C-32.084 -6.84222 59.3739 11.7761 130.821 143.215C257.433 376.139 396.776 264.138 434.311 230.407" stroke="#ECECEC" stroke-width="1.4"/>
<path d="M-98.365 -2.9986C-50.2078 -13.5383 40.4982 -12.1035 126.087 114.008C275.246 333.79 401.238 204.413 437.137 169.032" stroke="#ECECEC" stroke-width="1.4"/>
<path d="M-86.719 15.7399C-25.6394 -0.342206 66.0666 29.6946 131.218 167.128C241.764 400.316 420.431 306.388 434.979 270.791" stroke="#ECECEC" stroke-width="1.4"/>
<path d="M-83.0492 23.3206C-21.3301 9.52578 68.9957 42.9585 128.153 182.722C228.526 419.865 412.724 361.526 428.796 326.497" stroke="#ECECEC" stroke-width="1.4"/>
<path d="M-72.8284 29.7249C-11.1094 15.9301 79.3137 67.1929 128.745 218.543C208.652 463.209 415.686 405.447 431.759 370.418" stroke="#ECECEC" stroke-width="1.4"/>
<path d="M41.1152 25.3445L26.651 58.0864" stroke="#ECECEC" stroke-width="1.4"/>
<path d="M106.641 87.2766L82.6619 119.175" stroke="#ECECEC" stroke-width="1.4"/>
<path d="M296.695 241.176L236.846 372.677" stroke="#ECECEC" stroke-width="1.4"/>
<path d="M198.729 117.926V100.877C198.729 100.877 207.3 101.078 206.696 114.294" stroke="#171717" stroke-width="2" stroke-linecap="round" stroke-linejoin="round"/>
<path d="M194.139 122.445C196.688 122.445 198.749 120.675 198.749 118.493C198.749 116.312 196.688 114.541 194.139 114.541C191.59 114.541 189.53 116.312 189.53 118.493C189.53 120.675 191.59 122.445 194.139 122.445Z" fill="#91E2F4" stroke="#171717" stroke-width="2" stroke-linecap="round" stroke-linejoin="round"/>
<path d="M164.455 76.3715V59.3222C164.455 59.3222 170.388 59.9337 178.017 55.9999V73.0493" stroke="#171717" stroke-width="2" stroke-linecap="round" stroke-linejoin="round"/>
<path d="M159.857 80.879C162.406 80.879 164.475 79.1084 164.475 76.927C164.475 74.7456 162.406 72.975 159.857 72.975C157.308 72.975 155.247 74.7456 155.247 76.927C155.247 79.1084 157.316 80.879 159.857 80.879Z" fill="#BEF0A3" stroke="#171717" stroke-width="2" stroke-linecap="round" stroke-linejoin="round"/>
<path d="M173.426 77.6947C175.975 77.6947 178.036 75.924 178.036 73.7427C178.036 71.5613 175.975 69.7907 173.426 69.7907C170.877 69.7907 168.817 71.5613 168.817 73.7427C168.817 75.924 170.877 77.6947 173.426 77.6947Z" fill="#BEF0A3" stroke="#171717" stroke-width="2" stroke-linecap="round" stroke-linejoin="round"/>
<path d="M164.617 64.805C164.617 64.805 171.935 65.1153 177.939 61.93" stroke="#171717" stroke-width="2" stroke-linecap="round" stroke-linejoin="round"/>
<path d="M256.523 97.0436V79.9943C256.523 79.9943 262.465 80.6058 270.094 76.672V93.7213" stroke="#171717" stroke-width="2" stroke-linecap="round" stroke-linejoin="round"/>
<path d="M251.933 101.551C254.482 101.551 256.542 99.7804 256.542 97.5991C256.542 95.4177 254.482 93.6471 251.933 93.6471C249.384 93.6471 247.323 95.4177 247.323 97.5991C247.323 99.7804 249.384 101.551 251.933 101.551Z" fill="#FFEB78" stroke="#171717" stroke-width="2" stroke-linecap="round" stroke-linejoin="round"/>
<path d="M265.495 98.3647C268.044 98.3647 270.104 96.5941 270.104 94.4127C270.104 92.2314 268.044 90.4607 265.495 90.4607C262.946 90.4607 260.885 92.2314 260.885 94.4127C260.885 96.5941 262.946 98.3647 265.495 98.3647Z" fill="#FFEB78" stroke="#171717" stroke-width="2" stroke-linecap="round" stroke-linejoin="round"/>
<path d="M256.685 85.4611C256.685 85.4611 264.004 85.7714 270.008 82.586" stroke="#171717" stroke-width="2" stroke-linecap="round" stroke-linejoin="round"/>
<path d="M213.509 211.083C186.355 208.855 183.54 180.802 198.358 174.41C211.241 168.858 219.549 181.291 219.549 181.291" fill="white"/>
<path d="M213.509 211.083C186.355 208.855 183.54 180.802 198.358 174.41C211.241 168.858 219.549 181.291 219.549 181.291" stroke="#181818" stroke-width="2" stroke-linecap="round" stroke-linejoin="round"/>
<path d="M325.64 200.308C325.64 200.308 336.236 191.433 347.242 199.233C359.91 208.226 351.093 231.939 324.878 227.599" fill="white"/>
<path d="M325.64 200.308C325.64 200.308 336.236 191.433 347.242 199.233C359.91 208.226 351.093 231.939 324.878 227.599" stroke="#181818" stroke-width="2" stroke-linecap="round" stroke-linejoin="round"/>
<path d="M291.763 146.886C291.763 146.886 293.796 137.991 300.853 137.854C307.91 137.737 308.79 146.827 303.003 146.436" stroke="#181818" stroke-width="2" stroke-linecap="round" stroke-linejoin="round"/>
<path d="M209.54 188.992C200.86 221.013 220.78 251.822 253.662 260.776C286.543 269.729 319.952 253.445 328.612 221.424C337.292 189.403 320.343 154.41 285.077 144.812C248.442 136.191 218.2 156.952 209.54 188.973V188.992Z" fill="white"/>
<path d="M209.54 188.992C200.86 221.013 220.78 251.822 253.662 260.776C286.543 269.729 319.952 253.445 328.612 221.424C337.292 189.403 320.343 154.41 285.077 144.812C248.442 136.191 218.2 156.952 209.54 188.973V188.992Z" stroke="#181818" stroke-width="2" stroke-linecap="round" stroke-linejoin="round"/>
<path d="M259.664 166.943C259.234 166.22 258.94 165.536 258.588 165.008C258.119 164.304 257.689 163.776 257.318 163.268C256.888 162.682 256.477 162.134 256.028 161.548C255.656 161.039 255.148 160.57 254.718 159.867C254.366 159.339 254.053 158.674 253.643 157.931" stroke="#181818" stroke-width="2" stroke-linecap="round" stroke-linejoin="round"/>
<path d="M255.519 189.009C255.519 189.009 250.749 190.808 251.805 194.581C253.036 198.999 263.671 200.367 269.829 198.119C269.829 198.119 280.561 206.466 288.537 201.442C288.537 201.442 292.603 199.038 289.788 195.617" stroke="#181818" stroke-width="2" stroke-linecap="round" stroke-linejoin="round"/>
<path d="M175.427 182.735C175.427 182.735 184.693 171.26 195.934 178.2C208.875 186.176 202.756 213.818 177.303 213.075" fill="white"/>
<path d="M175.427 182.735C175.427 182.735 184.693 171.26 195.934 178.2C208.875 186.176 202.756 213.818 177.303 213.075" stroke="#181818" stroke-width="2" stroke-linecap="round" stroke-linejoin="round"/>
<path d="M106.888 128.939C102.001 125.362 108.921 118.676 114.473 123.524C120.025 128.372 115.568 136.856 115.568 136.856" stroke="#181818" stroke-width="2" stroke-linecap="round" stroke-linejoin="round"/>
<path d="M113.496 136.348C76.4508 141.763 52.4643 176.404 57.3125 210.399C62.1606 244.395 96.5667 264.549 131.09 259.467C165.613 254.384 189.678 225.217 184.81 191.202C179.962 157.207 151.792 132.067 113.476 136.328L113.496 136.348Z" fill="white"/>
<path d="M112.362 136.348C74.7303 141.763 52.8551 175.622 57.7815 209.617C62.7078 243.613 95.159 264.549 130.249 259.467C165.32 254.384 189.756 225.217 184.83 191.202C179.903 157.207 151.284 132.067 112.362 136.328V136.348Z" stroke="#181818" stroke-width="2" stroke-linecap="round" stroke-linejoin="round"/>
<path d="M61.222 206.487C33.2084 206.233 28.5753 180.839 43.4129 173.508C56.2957 167.135 65.1318 177.164 65.1318 177.164" fill="white"/>
<path d="M61.2415 207.287C33.2279 207.033 28.6339 179.684 43.4715 172.354C56.3543 165.981 65.64 177.593 65.64 177.593" stroke="#181818" stroke-width="2" stroke-linecap="round" stroke-linejoin="round"/>
<path d="M42.6311 167.876C42.2401 166.469 26.5619 162.344 28.1063 143.323C29.7288 123.07 55.377 119.063 62.395 138.435C69.0417 156.753 54.0672 166.136 54.0672 166.136C54.0672 166.136 60.5379 179.723 50.3334 180.935C40.5003 182.127 42.6311 167.876 42.6311 167.876Z" fill="#F8F4E2"/>
<path d="M27.9888 149.797C27.9888 149.797 28.3211 155.701 30.0023 157.323C30.0023 157.323 54.0866 159.806 63.7437 154.743C63.7437 154.743 64.7016 148.057 63.4505 146.884C63.4505 146.884 45.7978 151.557 27.9888 149.797Z" fill="#F8A273"/>
<path d="M27.2268 142.836C27.2268 142.836 26.3471 148.955 28.0675 150.617C28.0675 150.617 54.3216 152.278 64.0961 147.802C64.0961 147.802 64.3502 141.077 63.0991 139.884C63.0991 139.884 45.2314 144.654 27.2268 142.856V142.836Z" fill="#BEF0A3"/>
<path d="M28.888 135.507C28.888 135.507 49.258 137.227 60.6159 133.865C60.6159 133.865 63.8024 138.068 62.9227 141.547C62.9227 141.547 50.47 145.164 27.9692 143.424L28.8685 135.507H28.888Z" fill="#91E2F4"/>
<path d="M42.0447 167.899C41.6538 166.492 25.5259 162.367 27.1094 143.346C28.7906 123.093 55.1229 119.066 62.356 138.439C69.1786 156.756 53.8132 166.14 53.8132 166.14C53.8132 166.14 59.7365 180.176 50.2162 180.958C41.3605 181.681 42.0643 167.899 42.0643 167.899H42.0447Z" stroke="#181818" stroke-width="2" stroke-linecap="round" stroke-linejoin="round"/>
<path d="M340.927 196.01C341.318 194.7 331.505 183.342 342.081 169.209C353.321 154.156 374.708 164.282 370.446 183.127C366.419 200.956 350.467 200.565 350.467 200.565C350.467 200.565 348.649 214.582 340.321 210.261C332.287 206.097 340.947 196.01 340.947 196.01H340.927Z" fill="#F8F4E2"/>
<path d="M338.308 173.978C338.308 173.978 335.493 178.865 335.923 180.996C335.923 180.996 353.068 195.169 363.077 196.029C363.077 196.029 367.28 191.181 366.928 189.617C366.928 189.617 350.995 184.398 338.289 173.978H338.308Z" fill="#F8A273"/>
<path d="M341.26 168.97C341.26 168.97 337.487 173.271 337.917 175.382C337.917 175.382 356.958 189.633 366.674 191.021C366.674 191.021 370.31 185.958 369.958 184.414C369.958 184.414 353.987 179.273 341.26 168.97Z" fill="#BEF0A3"/>
<path d="M346.46 163.951C346.46 163.951 360.848 175.152 370.975 178.182C370.975 178.182 371.287 182.855 368.941 185.005C368.941 185.005 357.857 181.623 341.905 169.366L346.46 163.931V163.951Z" fill="#91E2F4"/>
<path d="M340.693 195.95C341.104 194.641 331.192 183.322 341.847 169.188C353.185 154.175 374.728 164.262 370.427 183.087C366.361 200.877 350.292 200.486 350.292 200.486C350.292 200.486 347.692 214.463 340.244 210.299C333.304 206.409 340.693 195.95 340.693 195.95Z" stroke="#181818" stroke-width="2" stroke-linecap="round" stroke-linejoin="round"/>
<path d="M111.346 194.075L110.231 197.183L111.893 206.078L116.077 201.269L122.625 200.838L127.259 199.079L133.299 202.129L132.517 192.608L125.792 192.12L120.475 191.044L115.49 194.309L111.346 194.094V194.075Z" fill="#BC6159"/>
<path d="M112.245 207.544L114.864 202.11L121.843 201.093L127.512 199.041L133.318 202.853L129.819 212.529L123.036 215.09L115.392 212.92L112.264 207.564L112.245 207.544Z" fill="#F38F7F"/>
<path d="M137.033 184.009C137.033 184.009 141.509 186.199 140.024 189.581C138.284 193.53 127.63 193.608 121.863 190.832C121.863 190.832 110.29 197.342 103.037 191.809C103.037 191.809 99.3228 189.131 102.509 186.297" stroke="#181818" stroke-width="2" stroke-linecap="round" stroke-linejoin="round"/>
<path d="M132.751 194.033C132.751 194.033 136.661 213.679 123.7 215.028C111.795 216.26 109.371 201.031 110.485 195.088" stroke="#181818" stroke-width="2" stroke-linecap="round" stroke-linejoin="round"/>
<path d="M112.245 207.076C112.245 207.076 113.613 199.061 121.413 201.134C121.413 201.134 126.418 196.09 132.302 201.72" stroke="#181818" stroke-width="2" stroke-linecap="round" stroke-linejoin="round"/>
<path d="M143.328 152.904C142.839 153.49 142.331 153.901 141.92 154.311C141.392 154.878 140.962 155.328 140.532 155.738C140.024 156.208 139.555 156.599 139.046 157.048C138.616 157.439 138.245 157.967 137.717 158.514C137.307 158.925 136.818 159.355 136.31 159.941" stroke="#181818" stroke-width="2" stroke-linecap="round" stroke-linejoin="round"/>
<path d="M102.216 162.931C101.708 162.286 101.337 161.66 100.926 161.191C100.398 160.565 99.89 160.096 99.4599 159.646C98.9516 159.138 98.502 158.669 97.9937 158.122C97.5637 157.672 97.0163 157.281 96.4885 156.636C96.0975 156.167 95.687 155.561 95.1982 154.896" stroke="#181818" stroke-width="2" stroke-linecap="round" stroke-linejoin="round"/>
<path d="M97.1921 176.837C99.4054 176.837 101.2 175.043 101.2 172.829C101.2 170.616 99.4054 168.822 97.1921 168.822C94.9788 168.822 93.1846 170.616 93.1846 172.829C93.1846 175.043 94.9788 176.837 97.1921 176.837Z" fill="#181818"/>
<path d="M142.331 175.833C144.544 175.833 146.338 174.039 146.338 171.825C146.338 169.612 144.544 167.818 142.331 167.818C140.117 167.818 138.323 169.612 138.323 171.825C138.323 174.039 140.117 175.833 142.331 175.833Z" fill="#181818"/>
<path d="M159.025 200.488C166.702 200.488 172.925 194.238 172.925 186.53C172.925 178.821 166.702 172.572 159.025 172.572C151.349 172.572 145.126 178.821 145.126 186.53C145.126 194.238 151.349 200.488 159.025 200.488Z" fill="#FDE0DF"/>
<path d="M82.5306 203.652C90.207 203.652 96.4299 197.403 96.4299 189.694C96.4299 181.985 90.207 175.736 82.5306 175.736C74.8543 175.736 68.6313 181.985 68.6313 189.694C68.6313 197.403 74.8543 203.652 82.5306 203.652Z" fill="#FDE0DF"/>
<path d="M233.624 198.531C241.333 198.531 247.582 192.281 247.582 184.573C247.582 176.864 241.333 170.615 233.624 170.615C225.915 170.615 219.666 176.864 219.666 184.573C219.666 192.281 225.915 198.531 233.624 198.531Z" fill="#FDE0DF"/>
<path d="M309.337 211.824C317.046 211.824 323.295 205.574 323.295 197.866C323.295 190.157 317.046 183.908 309.337 183.908C301.628 183.908 295.379 190.157 295.379 197.866C295.379 205.574 301.628 211.824 309.337 211.824Z" fill="#FDE0DF"/>
<path d="M296.767 167.959C296.181 168.467 295.614 168.799 295.164 169.171C294.558 169.659 294.069 170.05 293.581 170.383C292.994 170.774 292.466 171.106 291.899 171.477C291.411 171.81 290.961 172.279 290.355 172.748C289.886 173.1 289.338 173.452 288.752 173.96" stroke="#181818" stroke-width="2" stroke-linecap="round" stroke-linejoin="round"/>
<path d="M246.018 168.951C246.878 169.479 246.839 169.576 247.699 170.085C248.559 170.612 248.579 170.573 249.439 171.101C250.299 171.629 250.319 171.59 251.159 172.176C251.922 172.685 251.98 172.606 252.704 173.173C253.446 173.74 253.407 173.779 254.15 174.346C254.893 174.913 255.089 174.679 255.655 175.441C255.089 175.539 254.463 175.773 253.798 175.91C253.212 176.047 252.606 176.184 251.961 176.34C251.374 176.477 250.768 176.594 250.123 176.751C249.537 176.888 248.911 177.005 248.286 177.161C247.699 177.298 247.073 177.396 246.448 177.533C245.822 177.67 245.255 177.865 244.61 177.982" stroke="#181818" stroke-width="2" stroke-linecap="round" stroke-linejoin="round"/>
<path d="M301.909 187.017C301.263 186.762 300.696 186.411 300.071 186.156C299.465 185.902 298.8 185.648 298.194 185.374C297.549 185.081 296.943 184.808 296.357 184.534C295.712 184.241 295.027 184.065 294.46 183.811C293.815 183.517 293.229 183.185 292.642 182.931C291.978 182.638 291.333 182.325 290.746 182.11C291.548 181.602 291.684 181.797 292.623 181.504C293.561 181.211 293.561 181.211 294.499 180.937C295.125 180.741 295.757 180.565 296.396 180.409C297.451 180.135 297.471 180.214 298.527 179.979C299.582 179.744 299.602 179.784 300.677 179.549C301.752 179.314 301.713 179.256 302.788 179.021" stroke="#181818" stroke-width="2" stroke-linecap="round" stroke-linejoin="round"/>
</g>
<defs>
<clipPath id="clip0_7189_31472">
<rect width="390" height="420" fill="white"/>
</clipPath>
</defs>
</svg>
