<svg width="52" height="52" viewBox="0 0 52 52" fill="none" xmlns="http://www.w3.org/2000/svg">
<mask id="path-1-outside-1_3486_33479" maskUnits="userSpaceOnUse" x="5.03125" y="6" width="42" height="43" fill="black">
<rect fill="white" x="5.03125" y="6" width="42" height="43"/>
<path fill-rule="evenodd" clip-rule="evenodd" d="M23.2591 8.00093C23.6536 7.98103 23.9896 8.28247 24.0101 8.67476L24.1068 10.5537C24.5427 10.5152 24.9539 10.4904 25.3353 10.4794C26.2035 10.4545 26.9207 10.4881 27.4241 10.5293C27.6759 10.5498 27.8751 10.5733 28.013 10.5908C28.0819 10.5995 28.1366 10.6077 28.1741 10.6132C28.1923 10.6159 28.2067 10.6175 28.2171 10.6191C28.2221 10.6199 28.2266 10.6205 28.2298 10.621H28.2337C28.5509 10.6723 28.8627 10.7284 29.1683 10.788C29.7145 10.873 30.2513 10.9777 30.7776 11.1025L30.803 9.78609C30.8102 9.3932 31.1365 9.08009 31.5316 9.08687C31.9265 9.09411 32.2414 9.41788 32.2347 9.8105L32.2034 11.497C33.8345 12.0141 35.3514 12.7301 36.7269 13.6269L36.6966 11.9238C36.6899 11.5312 37.0048 11.2075 37.3997 11.2001C37.7948 11.1932 38.1209 11.5065 38.1282 11.8994L38.179 14.6835C38.2088 14.7076 38.2373 14.7335 38.2669 14.7578C41.0298 16.9485 42.6914 19.6588 43.6712 22.2705C44.0209 23.2028 44.2822 24.1209 44.4778 24.9941L44.4818 24.996L44.4837 25.0195C44.793 26.4077 44.9351 27.6839 44.9915 28.7314C45.0376 29.5886 44.8319 28.6772 44.9915 29.2373C44.9804 29.4855 44.7443 31.7918 44.7327 31.9277C44.727 31.9956 44.6232 31.7434 44.6194 31.7802C44.6211 31.7861 44.7125 32.1125 44.7132 32.1289C44.6203 31.9276 44.5864 31.9278 44.7112 32.1416L44.5423 31.8525V32.125L44.7112 32.2558C44.1599 36.9613 41.8958 40.6834 38.4847 43.1699C34.8864 45.7927 30.063 47.007 24.7366 46.6298C19.4103 46.2525 14.8124 44.369 11.6292 41.2636C8.61158 38.3197 6.90636 34.314 7.03839 29.5791V28.7246C7.09403 28.3632 7.06797 27.8818 7.13214 27.5341V27.4414C7.214 27.0191 7.30267 26.607 7.39679 26.205C8.23429 21.5062 10.398 17.6662 13.4896 14.9589C13.6908 14.7827 13.8961 14.6116 14.1048 14.4453L14.7278 10.6494C14.7915 10.2614 15.16 9.99832 15.5501 10.0615C15.94 10.1247 16.205 10.4893 16.1419 10.8769L15.7464 13.2871C16.2266 12.9881 16.7217 12.7121 17.2308 12.4599L17.3763 12.3867C17.8455 12.1559 18.3165 11.9524 18.7835 11.7714C20.1453 11.2437 21.4743 10.9238 22.6829 10.7314L22.5804 8.74702C22.5605 8.35474 22.8645 8.02111 23.2591 8.00093Z"/>
</mask>
<path fill-rule="evenodd" clip-rule="evenodd" d="M23.2591 8.00093C23.6536 7.98103 23.9896 8.28247 24.0101 8.67476L24.1068 10.5537C24.5427 10.5152 24.9539 10.4904 25.3353 10.4794C26.2035 10.4545 26.9207 10.4881 27.4241 10.5293C27.6759 10.5498 27.8751 10.5733 28.013 10.5908C28.0819 10.5995 28.1366 10.6077 28.1741 10.6132C28.1923 10.6159 28.2067 10.6175 28.2171 10.6191C28.2221 10.6199 28.2266 10.6205 28.2298 10.621H28.2337C28.5509 10.6723 28.8627 10.7284 29.1683 10.788C29.7145 10.873 30.2513 10.9777 30.7776 11.1025L30.803 9.78609C30.8102 9.3932 31.1365 9.08009 31.5316 9.08687C31.9265 9.09411 32.2414 9.41788 32.2347 9.8105L32.2034 11.497C33.8345 12.0141 35.3514 12.7301 36.7269 13.6269L36.6966 11.9238C36.6899 11.5312 37.0048 11.2075 37.3997 11.2001C37.7948 11.1932 38.1209 11.5065 38.1282 11.8994L38.179 14.6835C38.2088 14.7076 38.2373 14.7335 38.2669 14.7578C41.0298 16.9485 42.6914 19.6588 43.6712 22.2705C44.0209 23.2028 44.2822 24.1209 44.4778 24.9941L44.4818 24.996L44.4837 25.0195C44.793 26.4077 44.9351 27.6839 44.9915 28.7314C45.0376 29.5886 44.8319 28.6772 44.9915 29.2373C44.9804 29.4855 44.7443 31.7918 44.7327 31.9277C44.727 31.9956 44.6232 31.7434 44.6194 31.7802C44.6211 31.7861 44.7125 32.1125 44.7132 32.1289C44.6203 31.9276 44.5864 31.9278 44.7112 32.1416L44.5423 31.8525V32.125L44.7112 32.2558C44.1599 36.9613 41.8958 40.6834 38.4847 43.1699C34.8864 45.7927 30.063 47.007 24.7366 46.6298C19.4103 46.2525 14.8124 44.369 11.6292 41.2636C8.61158 38.3197 6.90636 34.314 7.03839 29.5791V28.7246C7.09403 28.3632 7.06797 27.8818 7.13214 27.5341V27.4414C7.214 27.0191 7.30267 26.607 7.39679 26.205C8.23429 21.5062 10.398 17.6662 13.4896 14.9589C13.6908 14.7827 13.8961 14.6116 14.1048 14.4453L14.7278 10.6494C14.7915 10.2614 15.16 9.99832 15.5501 10.0615C15.94 10.1247 16.205 10.4893 16.1419 10.8769L15.7464 13.2871C16.2266 12.9881 16.7217 12.7121 17.2308 12.4599L17.3763 12.3867C17.8455 12.1559 18.3165 11.9524 18.7835 11.7714C20.1453 11.2437 21.4743 10.9238 22.6829 10.7314L22.5804 8.74702C22.5605 8.35474 22.8645 8.02111 23.2591 8.00093Z" fill="#171717"/>
<path d="M23.2591 8.00093L23.1896 6.62268L23.1886 6.62273L23.2591 8.00093ZM24.0101 8.67476L25.3882 8.60384L25.3882 8.60288L24.0101 8.67476ZM24.1068 10.5537L22.7286 10.6246C22.7478 10.9988 22.9185 11.3492 23.2013 11.5951C23.4841 11.841 23.8547 11.9613 24.228 11.9283L24.1068 10.5537ZM25.3353 10.4794L25.2957 9.10002L25.2956 9.10002L25.3353 10.4794ZM27.4241 10.5293L27.5365 9.15384L27.5365 9.15383L27.4241 10.5293ZM28.013 10.5908L28.1868 9.22176L28.1868 9.22176L28.013 10.5908ZM28.1741 10.6132L27.9727 11.9784L27.973 11.9785L28.1741 10.6132ZM28.2171 10.6191L28.4317 9.25589L28.4305 9.25569L28.2171 10.6191ZM28.2298 10.621L27.9988 11.9816C28.0751 11.9945 28.1524 12.001 28.2298 12.001V10.621ZM28.2337 10.621L28.454 9.25874C28.3811 9.24696 28.3075 9.24105 28.2337 9.24105V10.621ZM29.1683 10.788L28.9038 12.1425C28.9212 12.1459 28.9387 12.1489 28.9562 12.1516L29.1683 10.788ZM30.7776 11.1025L30.4592 12.4452C30.8652 12.5416 31.2931 12.4489 31.623 12.1933C31.9529 11.9376 32.1493 11.5464 32.1574 11.1291L30.7776 11.1025ZM30.803 9.78609L32.1828 9.8127L32.1828 9.81108L30.803 9.78609ZM31.5316 9.08687L31.5569 7.7071L31.5552 7.70707L31.5316 9.08687ZM32.2347 9.8105L33.6144 9.83607L33.6145 9.83406L32.2347 9.8105ZM32.2034 11.497L30.8237 11.4715C30.8123 12.0823 31.204 12.6279 31.7864 12.8125L32.2034 11.497ZM36.7269 13.6269L35.9731 14.7829C36.401 15.0619 36.948 15.0817 37.395 14.8344C37.8419 14.5871 38.1157 14.1131 38.1066 13.6024L36.7269 13.6269ZM36.6966 11.9238L35.3168 11.9474L35.3168 11.9483L36.6966 11.9238ZM37.3997 11.2001L37.3756 9.82036L37.3741 9.82039L37.3997 11.2001ZM38.1282 11.8994L39.508 11.8742L39.508 11.8737L38.1282 11.8994ZM38.179 14.6835L36.7992 14.7087C36.8067 15.1163 36.994 15.4998 37.3109 15.7563L38.179 14.6835ZM38.2669 14.7578L37.3917 15.8247C37.3976 15.8296 37.4035 15.8343 37.4095 15.8391L38.2669 14.7578ZM43.6712 22.2705L44.9633 21.7858L44.9633 21.7857L43.6712 22.2705ZM44.4778 24.9941L43.1312 25.2958C43.2219 25.7005 43.4898 26.0429 43.8607 26.2284L44.4778 24.9941ZM44.4818 24.996L45.857 24.8814C45.817 24.4015 45.5297 23.9771 45.0989 23.7617L44.4818 24.996ZM44.4837 25.0195L43.1085 25.1341C43.1137 25.1965 43.1231 25.2585 43.1367 25.3196L44.4837 25.0195ZM44.9915 28.7314L46.3695 28.6573V28.6572L44.9915 28.7314ZM44.9915 29.2373L46.3701 29.2988C46.3768 29.1504 46.3594 29.0018 46.3186 28.8589L44.9915 29.2373ZM44.7327 31.9277L46.1078 32.0444V32.0444L44.7327 31.9277ZM44.6194 31.7802L43.2467 31.6385C43.229 31.8101 43.2436 31.9834 43.2898 32.1496L44.6194 31.7802ZM44.7132 32.1289L43.4603 32.7074C43.7368 33.3061 44.3982 33.6255 45.039 33.4698C45.6798 33.3141 46.1209 32.7268 46.0919 32.068L44.7132 32.1289ZM44.7112 32.1416L43.5198 32.8379C43.9044 33.4959 44.7495 33.7176 45.4075 33.333C46.0655 32.9485 46.2872 32.1034 45.9027 31.4453L44.7112 32.1416ZM44.5423 31.8525L45.7337 31.1562C45.4192 30.6181 44.7831 30.3576 44.1816 30.5205C43.58 30.6834 43.1623 31.2293 43.1623 31.8525H44.5423ZM44.5423 32.125H43.1623C43.1623 32.5518 43.3598 32.9546 43.6972 33.216L44.5423 32.125ZM44.7112 32.2558L46.0819 32.4164C46.1382 31.9359 45.9388 31.4611 45.5563 31.1648L44.7112 32.2558ZM38.4847 43.1699L39.2975 44.2851L39.2976 44.285L38.4847 43.1699ZM24.7366 46.6298L24.6391 48.0064L24.6392 48.0064L24.7366 46.6298ZM11.6292 41.2636L10.6655 42.2514L10.6655 42.2514L11.6292 41.2636ZM7.03839 29.5791L8.41785 29.6175C8.41821 29.6047 8.41839 29.5919 8.41839 29.5791H7.03839ZM7.03839 28.7246L5.67446 28.5146C5.66376 28.5841 5.65839 28.6543 5.65839 28.7246H7.03839ZM7.13214 27.5341L8.48921 27.7847C8.50447 27.702 8.51214 27.6182 8.51214 27.5341H7.13214ZM7.13214 27.4414L5.77736 27.1787C5.76059 27.2653 5.75214 27.3532 5.75214 27.4414H7.13214ZM7.39679 26.205L8.74044 26.5197C8.74607 26.4956 8.75105 26.4715 8.75538 26.4472L7.39679 26.205ZM13.4896 14.9589L12.5805 13.9207L12.5804 13.9207L13.4896 14.9589ZM14.1048 14.4453L14.9649 15.5245C15.2324 15.3113 15.4112 15.0063 15.4666 14.6688L14.1048 14.4453ZM14.7278 10.6494L16.0896 10.8729L16.0896 10.8728L14.7278 10.6494ZM15.5501 10.0615L15.7711 8.69928L15.7706 8.69921L15.5501 10.0615ZM16.1419 10.8769L17.5037 11.1004L17.504 11.0984L16.1419 10.8769ZM15.7464 13.2871L14.3846 13.0636C14.2969 13.5981 14.53 14.1345 14.9806 14.4351C15.4312 14.7357 16.0159 14.7448 16.4758 14.4586L15.7464 13.2871ZM17.2308 12.4599L17.8433 13.6966L17.8512 13.6926L17.2308 12.4599ZM17.3763 12.3867L16.7672 11.1483L16.7558 11.154L17.3763 12.3867ZM18.7835 11.7714L18.2848 10.4847L18.2848 10.4847L18.7835 11.7714ZM22.6829 10.7314L22.8998 12.0942C23.5966 11.9834 24.0975 11.3648 24.0611 10.6602L22.6829 10.7314ZM22.5804 8.74702L21.2022 8.81686L21.2022 8.81824L22.5804 8.74702ZM23.2591 8.00093L23.3286 9.37918C22.9703 9.39725 22.6515 9.12194 22.6319 8.74664L24.0101 8.67476L25.3882 8.60288C25.3277 7.44299 24.337 6.56482 23.1896 6.62268L23.2591 8.00093ZM24.0101 8.67476L22.6319 8.74567L22.7286 10.6246L24.1068 10.5537L25.4849 10.4828L25.3882 8.60384L24.0101 8.67476ZM24.1068 10.5537L24.228 11.9283C24.6405 11.8919 25.0243 11.8689 25.3749 11.8589L25.3353 10.4794L25.2956 9.10002C24.8836 9.11185 24.4448 9.13847 23.9855 9.17901L24.1068 10.5537ZM25.3353 10.4794L25.3749 11.8589C26.1864 11.8356 26.8526 11.8672 27.3118 11.9047L27.4241 10.5293L27.5365 9.15383C26.9888 9.1091 26.2205 9.07346 25.2957 9.10002L25.3353 10.4794ZM27.4241 10.5293L27.3117 11.9047C27.5371 11.9231 27.7149 11.944 27.8392 11.9598L28.013 10.5908L28.1868 9.22176C28.0354 9.20255 27.8147 9.17657 27.5365 9.15384L27.4241 10.5293ZM28.013 10.5908L27.8392 11.9598C27.8923 11.9665 27.934 11.9728 27.9727 11.9784L28.1741 10.6132L28.3756 9.24802C28.3391 9.24263 28.2714 9.2325 28.1868 9.22176L28.013 10.5908ZM28.1741 10.6132L27.973 11.9785C27.9953 11.9818 28.0142 11.9842 28.0216 11.9852C28.0267 11.9858 28.0259 11.9857 28.0246 11.9856C28.0231 11.9854 28.015 11.9843 28.0037 11.9825L28.2171 10.6191L28.4305 9.25569C28.414 9.25311 28.4002 9.25122 28.3925 9.25019C28.385 9.24918 28.3775 9.24822 28.3754 9.24794C28.3685 9.24704 28.3711 9.24735 28.3753 9.24798L28.1741 10.6132ZM28.2171 10.6191L28.0025 11.9823C28.0074 11.9831 28.0115 11.9837 28.0144 11.9841C28.0159 11.9844 28.0171 11.9845 28.018 11.9847C28.0184 11.9847 28.0188 11.9848 28.019 11.9848C28.0193 11.9849 28.0195 11.9849 28.0196 11.9849C28.0205 11.9851 28.0187 11.9848 28.016 11.9844C28.0135 11.984 28.0071 11.983 27.9988 11.9816L28.2298 10.621L28.4608 9.26052C28.4509 9.25883 28.4428 9.25756 28.4384 9.25688C28.4338 9.25618 28.43 9.2556 28.4287 9.25541C28.4242 9.25474 28.428 9.25529 28.4317 9.25589L28.2171 10.6191ZM28.2298 10.621V12.001H28.2337V10.621V9.24105H28.2298V10.621ZM28.2337 10.621L28.0134 11.9834C28.315 12.0321 28.612 12.0855 28.9038 12.1425L29.1683 10.788L29.4327 9.43362C29.1134 9.37128 28.7869 9.31257 28.454 9.25874L28.2337 10.621ZM29.1683 10.788L28.9562 12.1516C29.468 12.2312 29.9693 12.3291 30.4592 12.4452L30.7776 11.1025L31.0961 9.75975C30.5333 9.62626 29.9609 9.51472 29.3803 9.42443L29.1683 10.788ZM30.7776 11.1025L32.1574 11.1291L32.1828 9.8127L30.803 9.78609L29.4233 9.75948L29.3979 11.0759L30.7776 11.1025ZM30.803 9.78609L32.1828 9.81108C32.176 10.1873 31.8667 10.4728 31.5079 10.4667L31.5316 9.08687L31.5552 7.70707C30.4062 7.68737 29.4443 8.59909 29.4233 9.7611L30.803 9.78609ZM31.5316 9.08687L31.5063 10.4666C31.1489 10.4601 30.8484 10.1647 30.8549 9.78694L32.2347 9.8105L33.6145 9.83406C33.6343 8.67103 32.7041 7.72814 31.5569 7.7071L31.5316 9.08687ZM32.2347 9.8105L30.8549 9.78494L30.8237 11.4715L32.2034 11.497L33.5832 11.5226L33.6144 9.83607L32.2347 9.8105ZM32.2034 11.497L31.7864 12.8125C33.3023 13.2931 34.7054 13.9563 35.9731 14.7829L36.7269 13.6269L37.4806 12.4709C35.9974 11.5038 34.3667 10.7351 32.6205 10.1815L32.2034 11.497ZM36.7269 13.6269L38.1066 13.6024L38.0764 11.8993L36.6966 11.9238L35.3168 11.9483L35.3471 13.6514L36.7269 13.6269ZM36.6966 11.9238L38.0764 11.9001C38.0829 12.2784 37.7821 12.5733 37.4254 12.5799L37.3997 11.2001L37.3741 9.82039C36.2275 9.84169 35.2969 10.7841 35.3168 11.9474L36.6966 11.9238ZM37.3997 11.2001L37.4239 12.5799C37.0636 12.5862 36.7554 12.2998 36.7485 11.925L38.1282 11.8994L39.508 11.8737C39.4864 10.7133 38.5259 9.80023 37.3756 9.82036L37.3997 11.2001ZM38.1282 11.8994L36.7485 11.9245L36.7992 14.7087L38.179 14.6835L39.5588 14.6584L39.508 11.8742L38.1282 11.8994ZM38.179 14.6835L37.3109 15.7563C37.3078 15.7538 37.308 15.7538 37.3235 15.7671C37.3342 15.7764 37.362 15.8004 37.3917 15.8247L38.2669 14.7578L39.1421 13.6908C39.1422 13.6909 39.1409 13.6898 39.1226 13.6741C39.1089 13.6623 39.08 13.6374 39.0472 13.6108L38.179 14.6835ZM38.2669 14.7578L37.4095 15.8391C39.9405 17.8459 41.4699 20.3317 42.3791 22.7552L43.6712 22.2705L44.9633 21.7857C43.9129 18.9858 42.1191 16.0511 39.1243 13.6764L38.2669 14.7578ZM43.6712 22.2705L42.3791 22.7551C42.7037 23.6205 42.9477 24.4767 43.1312 25.2958L44.4778 24.9941L45.8245 24.6924C45.6167 23.7652 45.3382 22.7851 44.9633 21.7858L43.6712 22.2705ZM44.4778 24.9941L43.8607 26.2284L43.8646 26.2304L44.4818 24.996L45.0989 23.7617L45.095 23.7598L44.4778 24.9941ZM44.4818 24.996L43.1065 25.1107L43.1085 25.1341L44.4837 25.0195L45.8589 24.9049L45.857 24.8814L44.4818 24.996ZM44.4837 25.0195L43.1367 25.3196C43.4268 26.6215 43.5605 27.8208 43.6135 28.8056L44.9915 28.7314L46.3695 28.6572C46.3098 27.547 46.1592 26.1939 45.8307 24.7194L44.4837 25.0195ZM44.9915 28.7314L43.6135 28.8055C43.6183 28.8953 43.6186 28.9403 43.6184 28.9549C43.6183 28.9618 43.6182 28.9516 43.6201 28.9294C43.6216 28.9123 43.6269 28.8551 43.6452 28.7774C43.6546 28.7373 43.6713 28.6752 43.7004 28.6013C43.7279 28.5316 43.7802 28.4155 43.8747 28.2893C43.9693 28.1627 44.14 27.9814 44.4126 27.8598C44.707 27.7285 45.0193 27.7123 45.2959 27.7796C45.5473 27.8408 45.724 27.9586 45.8233 28.0376C45.9259 28.1191 45.9959 28.1992 46.0367 28.2502C46.1161 28.3494 46.1618 28.4362 46.1796 28.4714C46.2185 28.5481 46.2394 28.6096 46.2501 28.6437C46.2536 28.6547 46.2703 28.7072 46.2844 28.7795C46.2883 28.7993 46.2965 28.8435 46.3024 28.9005C46.3054 28.9289 46.3097 28.9785 46.3098 29.0405C46.3098 29.0861 46.3088 29.2211 46.2659 29.3872C46.2439 29.4723 46.1967 29.6226 46.0915 29.7867C45.9818 29.9577 45.779 30.1875 45.4451 30.3219C45.1008 30.4604 44.774 30.4345 44.5388 30.3651C44.3226 30.3012 44.1715 30.1989 44.0918 30.1379C43.9375 30.0199 43.8462 29.8971 43.8184 29.8593C43.7787 29.8053 43.7511 29.7594 43.7363 29.7338C43.6868 29.6484 43.6581 29.5759 43.6564 29.5718C43.6474 29.55 43.6414 29.5335 43.6389 29.5268C43.6337 29.5123 43.6317 29.5056 43.6336 29.5117C43.6371 29.5224 43.6468 29.5538 43.6644 29.6156L44.9915 29.2373L46.3186 28.8589C46.2964 28.7807 46.2776 28.718 46.2615 28.6681C46.2537 28.6438 46.2442 28.6151 46.2334 28.5854C46.2282 28.5709 46.2199 28.5486 46.2091 28.5223C46.2037 28.5091 46.1954 28.4895 46.1846 28.4662C46.1758 28.4471 46.1554 28.4037 46.125 28.3512C46.1099 28.3252 46.0821 28.2789 46.0422 28.2246C46.0217 28.1968 45.9919 28.1583 45.9527 28.1151C45.9156 28.0742 45.8541 28.0111 45.7684 27.9455C45.7306 27.9176 45.6445 27.861 45.5959 27.833C45.5356 27.8017 45.3983 27.7435 45.3211 27.7182C45.2271 27.694 45.0205 27.6646 44.9088 27.6618C44.7846 27.6693 44.5364 27.7189 44.4146 27.7614C44.0808 27.8958 43.8779 28.1257 43.7682 28.2967C43.7315 28.3573 43.6727 28.4724 43.6497 28.5262C43.6323 28.5718 43.6045 28.6571 43.5937 28.6964C43.57 28.7883 43.5602 28.8654 43.5556 28.9153C43.5508 28.9677 43.5497 29.0119 43.5498 29.0439C43.5498 29.1062 43.5542 29.1562 43.5571 29.185C43.5631 29.2429 43.5716 29.2882 43.5757 29.3093C43.5848 29.3555 43.5944 29.3922 43.5994 29.4108C43.6055 29.4332 43.6115 29.4533 43.6169 29.4705C43.6276 29.5045 43.6402 29.5407 43.6548 29.5781C43.6689 29.6142 43.6897 29.6639 43.7183 29.7202C43.7329 29.7489 43.7522 29.7848 43.7766 29.8247C43.8003 29.8634 43.8349 29.916 43.8815 29.9743C43.9258 30.0297 43.9994 30.1134 44.1055 30.1978C44.1602 30.2414 44.2308 30.2908 44.3175 30.337C44.4045 30.3835 44.5137 30.4298 44.6435 30.4614C44.7751 30.4934 44.9239 30.5092 45.0837 30.4962C45.2444 30.4832 45.3974 30.4427 45.5371 30.3803C45.8131 30.2572 45.9871 30.0731 46.0849 29.9423C46.1355 29.8746 46.1736 29.811 46.2018 29.7575C46.2303 29.7038 46.2519 29.6545 46.2684 29.6129C46.3004 29.5315 46.3199 29.4603 46.3319 29.4092C46.3443 29.3564 46.3524 29.3095 46.3578 29.2718C46.3634 29.2335 46.3672 29.1982 46.3698 29.1674C46.3751 29.1068 46.3772 29.049 46.378 28.9977C46.3796 28.8958 46.3762 28.7818 46.3695 28.6573L44.9915 28.7314ZM44.9915 29.2373L43.6129 29.1757C43.613 29.1727 43.6109 29.2062 43.6028 29.2995C43.5957 29.3815 43.5859 29.4885 43.5741 29.6137C43.5506 29.8636 43.5199 30.1768 43.489 30.4886C43.4288 31.0965 43.3645 31.7303 43.3577 31.811L44.7327 31.9277L46.1078 32.0444C46.1077 32.0456 46.1085 32.037 46.111 32.0109C46.1132 31.988 46.1162 31.9572 46.12 31.9193C46.1275 31.8435 46.1376 31.742 46.1496 31.6223C46.1735 31.3834 46.2045 31.0738 46.2356 30.7606C46.2942 30.1691 46.3624 29.4719 46.3701 29.2988L44.9915 29.2373ZM44.7327 31.9277L43.3577 31.811C43.3616 31.7643 43.3701 31.6938 43.3903 31.6097C43.4007 31.5666 43.4155 31.5145 43.437 31.4565C43.4583 31.3989 43.4884 31.3294 43.5312 31.2542C43.6156 31.106 43.7681 30.9037 44.0261 30.7511C44.1552 30.6747 44.297 30.6194 44.446 30.5883C44.5938 30.5575 44.7335 30.5537 44.8579 30.5656C44.9807 30.5774 45.0867 30.6042 45.1724 30.6336C45.258 30.6629 45.3295 30.6969 45.3859 30.7277C45.4952 30.7875 45.5748 30.8505 45.6229 30.8921C45.6734 30.9358 45.7118 30.9755 45.7373 31.0036C45.7637 31.0326 45.7845 31.058 45.7994 31.077C45.8282 31.1138 45.8484 31.1438 45.8587 31.1594C45.8699 31.1765 45.8778 31.1896 45.8818 31.1963C45.889 31.2085 45.8922 31.2147 45.8881 31.2072C45.8866 31.2043 45.8846 31.2007 45.8814 31.1946C45.8787 31.1896 45.8741 31.181 45.8697 31.1729C45.8627 31.1599 45.8451 31.1272 45.8241 31.092C45.8135 31.0742 45.7946 31.043 45.7696 31.0066C45.7568 30.9878 45.7383 30.9617 45.7149 30.9317C45.693 30.9037 45.6558 30.8582 45.605 30.807C45.5788 30.7806 45.5433 30.7469 45.499 30.7106C45.4558 30.6751 45.3933 30.6282 45.3126 30.5816C45.2337 30.5361 45.1144 30.4776 44.9601 30.4386C44.8019 30.3987 44.5907 30.3755 44.3514 30.4232C44.2325 30.4469 44.1158 30.4865 44.0049 30.5418C43.8943 30.597 43.7975 30.6638 43.7145 30.7361C43.5504 30.8789 43.4501 31.034 43.39 31.152C43.3301 31.2698 43.2978 31.3752 43.2796 31.4491C43.261 31.5251 43.2517 31.5904 43.2467 31.6385L44.6194 31.7802L45.9921 31.9219C45.9873 31.9689 45.9782 32.0332 45.9598 32.1083C45.9418 32.1814 45.9097 32.286 45.8501 32.4032C45.7904 32.5206 45.6904 32.6752 45.5268 32.8177C45.4439 32.8898 45.3474 32.9565 45.237 33.0115C45.1263 33.0668 45.0099 33.1062 44.8912 33.1299C44.6524 33.1775 44.4416 33.1544 44.284 33.1146C44.1303 33.0757 44.0117 33.0175 43.9334 32.9723C43.8534 32.9262 43.7915 32.8797 43.749 32.8449C43.7055 32.8091 43.6708 32.7762 43.6454 32.7506C43.5961 32.7009 43.5607 32.6575 43.5407 32.6319C43.5191 32.6043 43.5027 32.581 43.492 32.5654C43.4713 32.5352 43.4572 32.5117 43.4518 32.5026C43.4412 32.4847 43.4355 32.4738 43.4412 32.4843C43.4431 32.4879 43.4451 32.4917 43.4491 32.4991C43.4525 32.5055 43.4573 32.5144 43.4626 32.524C43.472 32.5415 43.4888 32.5722 43.5089 32.606C43.5193 32.6235 43.5335 32.6467 43.5507 32.6729C43.5669 32.6976 43.5927 32.7357 43.6269 32.7792C43.6444 32.8016 43.6677 32.8301 43.6966 32.8618C43.7246 32.8926 43.7653 32.9346 43.818 32.9802C43.8683 33.0237 43.95 33.0882 44.0613 33.1491C44.1187 33.1805 44.1911 33.2149 44.2776 33.2445C44.3643 33.2742 44.4712 33.3012 44.5949 33.3131C44.7201 33.325 44.8605 33.3212 45.0091 33.2903C45.1589 33.259 45.3014 33.2034 45.4313 33.1266C45.6906 32.9732 45.8444 32.7696 45.9299 32.6195C45.9732 32.5433 46.0038 32.4727 46.0256 32.4139C46.0475 32.3547 46.0627 32.3012 46.0735 32.2566C46.0945 32.1694 46.1035 32.0954 46.1078 32.0444L44.7327 31.9277ZM44.6194 31.7802L43.2898 32.1496C43.2917 32.1563 43.3135 32.2341 43.3358 32.3156C43.347 32.3566 43.3571 32.3938 43.364 32.42C43.3677 32.434 43.3689 32.4389 43.3686 32.4376C43.3684 32.4368 43.3679 32.4345 43.3671 32.4311C43.3663 32.428 43.3649 32.4216 43.363 32.4132C43.3621 32.4088 43.3608 32.4029 43.3594 32.3958C43.358 32.3889 43.3561 32.3789 43.354 32.3668C43.352 32.3555 43.3488 32.3368 43.3456 32.3133C43.344 32.3013 43.342 32.2853 43.3401 32.2665C43.3383 32.2483 43.336 32.2218 43.3345 32.1897L44.7132 32.1289L46.0919 32.068C46.0892 32.0086 46.0833 31.9622 46.0806 31.9424C46.0773 31.9182 46.074 31.8984 46.0718 31.886C46.0674 31.8615 46.0633 31.8417 46.061 31.8315C46.0564 31.8099 46.0519 31.7914 46.0494 31.7812C46.044 31.7589 46.0379 31.7356 46.0329 31.7166C46.0224 31.6768 46.0094 31.629 45.9975 31.5856C45.9736 31.4983 45.9489 31.41 45.9491 31.4109L44.6194 31.7802ZM44.7132 32.1289L45.9661 31.5503C45.931 31.4743 45.893 31.3988 45.8534 31.3296C45.8361 31.2995 45.8042 31.2454 45.7615 31.1856C45.7451 31.1627 45.695 31.093 45.6195 31.0159C45.5873 30.983 45.4969 30.8927 45.3593 30.8073C45.3065 30.7745 44.8059 30.4494 44.1624 30.6814C43.3968 30.9575 43.2781 31.6717 43.261 31.8067C43.2352 32.0099 43.262 32.1697 43.2702 32.2173C43.2912 32.3387 43.3243 32.4309 43.3334 32.4563C43.3594 32.5288 43.3872 32.5881 43.4018 32.6184C43.4361 32.6899 43.4769 32.7645 43.5197 32.8378L44.7112 32.1416L45.9027 31.4453C45.8831 31.4117 45.8814 31.4062 45.8898 31.4238C45.8914 31.4271 45.9105 31.4662 45.9315 31.5248C45.9381 31.5433 45.9697 31.6302 45.9901 31.748C45.998 31.7937 46.0247 31.9521 45.999 32.1543C45.982 32.2883 45.8637 33.0019 45.0986 33.2778C44.4557 33.5096 43.9559 33.1846 43.9041 33.1525C43.7674 33.0677 43.6783 32.9784 43.6475 32.9469C43.5747 32.8726 43.5282 32.8074 43.5161 32.7905C43.482 32.7429 43.4618 32.7074 43.4589 32.7022C43.4478 32.6828 43.4489 32.6827 43.4603 32.7074L44.7132 32.1289ZM44.7112 32.1416L45.9027 31.4452L45.7337 31.1562L44.5423 31.8525L43.3509 32.5488L43.5198 32.8379L44.7112 32.1416ZM44.5423 31.8525H43.1623V32.125H44.5423H45.9223V31.8525H44.5423ZM44.5423 32.125L43.6972 33.216L43.8662 33.3468L44.7112 32.2558L45.5563 31.1648L45.3874 31.034L44.5423 32.125ZM44.7112 32.2558L43.3406 32.0952C42.8333 36.4249 40.7671 39.7984 37.6718 42.0547L38.4847 43.1699L39.2976 44.285C43.0245 41.5683 45.4865 37.4976 46.0819 32.4164L44.7112 32.2558ZM38.4847 43.1699L37.6718 42.0547C34.3865 44.4493 29.9031 45.6123 24.8341 45.2533L24.7366 46.6298L24.6392 48.0064C30.2229 48.4018 35.3862 47.136 39.2975 44.2851L38.4847 43.1699ZM24.7366 46.6298L24.8342 45.2533C19.7655 44.8942 15.4979 43.1099 12.5929 40.2758L11.6292 41.2636L10.6655 42.2514C14.1269 45.6282 19.0551 47.6107 24.6391 48.0064L24.7366 46.6298ZM11.6292 41.2636L12.5929 40.2758C9.85581 37.6056 8.29637 33.9741 8.41785 29.6175L7.03839 29.5791L5.65893 29.5406C5.51634 34.654 7.36734 39.0338 10.6655 42.2514L11.6292 41.2636ZM7.03839 29.5791H8.41839V28.7246H7.03839H5.65839V29.5791H7.03839ZM7.03839 28.7246L8.40232 28.9345C8.44462 28.6598 8.45365 28.3599 8.46093 28.18C8.47022 27.9508 8.47814 27.8446 8.48921 27.7847L7.13214 27.5341L5.77507 27.2836C5.72197 27.5713 5.71083 27.8796 5.70319 28.0684C5.69355 28.3064 5.6878 28.4279 5.67446 28.5146L7.03839 28.7246ZM7.13214 27.5341H8.51214V27.4414H7.13214H5.75214V27.5341H7.13214ZM7.13214 27.4414L8.48692 27.704C8.56527 27.2998 8.65021 26.905 8.74044 26.5197L7.39679 26.205L6.05313 25.8904C5.95514 26.3089 5.86273 26.7384 5.77736 27.1787L7.13214 27.4414ZM7.39679 26.205L8.75538 26.4472C9.54247 22.0312 11.5621 18.4812 14.3987 15.9971L13.4896 14.9589L12.5804 13.9207C9.23392 16.8513 6.92612 20.9812 6.0382 25.9629L7.39679 26.205ZM13.4896 14.9589L14.3987 15.9972C14.5832 15.8356 14.772 15.6781 14.9649 15.5245L14.1048 14.4453L13.2447 13.3661C13.0202 13.545 12.7985 13.7298 12.5805 13.9207L13.4896 14.9589ZM14.1048 14.4453L15.4666 14.6688L16.0896 10.8729L14.7278 10.6494L13.3661 10.4259L12.743 14.2217L14.1048 14.4453ZM14.7278 10.6494L16.0896 10.8728C16.0287 11.2443 15.6821 11.4808 15.3296 11.4237L15.5501 10.0615L15.7706 8.69921C14.6378 8.51583 13.5543 9.27856 13.3661 10.4259L14.7278 10.6494ZM15.5501 10.0615L15.3291 11.4237C14.9758 11.3664 14.7189 11.0295 14.7798 10.6554L16.1419 10.8769L17.504 11.0984C17.691 9.94902 16.9042 8.88309 15.7711 8.69928L15.5501 10.0615ZM16.1419 10.8769L14.7801 10.6534L14.3846 13.0636L15.7464 13.2871L17.1082 13.5105L17.5037 11.1004L16.1419 10.8769ZM15.7464 13.2871L16.4758 14.4586C16.9182 14.1831 17.3743 13.9288 17.8432 13.6966L17.2308 12.4599L16.6183 11.2233C16.069 11.4953 15.535 11.7931 15.017 12.1156L15.7464 13.2871ZM17.2308 12.4599L17.8512 13.6926L17.9967 13.6193L17.3763 12.3867L16.7558 11.154L16.6103 11.2273L17.2308 12.4599ZM17.3763 12.3867L17.9854 13.625C18.4146 13.4139 18.8485 13.2263 19.2822 13.0582L18.7835 11.7714L18.2848 10.4847C17.7846 10.6786 17.2763 10.898 16.7672 11.1484L17.3763 12.3867ZM18.7835 11.7714L19.2822 13.0582C20.5377 12.5716 21.7698 12.2741 22.8998 12.0942L22.6829 10.7314L22.466 9.36855C21.1788 9.57342 19.753 9.91571 18.2848 10.4847L18.7835 11.7714ZM22.6829 10.7314L24.0611 10.6602L23.9585 8.67581L22.5804 8.74702L21.2022 8.81824L21.3048 10.8026L22.6829 10.7314ZM22.5804 8.74702L23.9586 8.67719C23.9778 9.05579 23.6859 9.36091 23.3296 9.37913L23.2591 8.00093L23.1886 6.62273C22.0431 6.68131 21.1432 7.65369 21.2022 8.81686L22.5804 8.74702Z" fill="white" mask="url(#path-1-outside-1_3486_33479)"/>
<path d="M26.5977 11.6328C26.2947 12.3062 26.5703 13.1096 27.2412 13.4453C27.9274 13.7885 28.7614 13.5097 29.1045 12.8242C29.1052 12.8227 29.1057 12.8208 29.1064 12.8193L29.1074 12.8174L29.1387 12.7539L29.1445 12.7422C29.1663 12.6965 29.1968 12.6314 29.2334 12.5498C29.3061 12.3876 29.4051 12.1576 29.5117 11.8789C29.7228 11.327 29.9775 10.5523 30.1309 9.70117C30.4119 8.14086 30.4586 5.55879 28.1328 4.25C28.1217 4.24374 28.1091 4.23999 28.0977 4.23438C27.0887 3.68311 25.6083 3.56298 24.4961 4.45605C24.4815 4.46631 24.466 4.47582 24.4521 4.4873C23.5861 5.20543 23.3384 6.38224 23.5381 7.31055L23.5859 7.5C23.7139 7.94333 23.9609 8.39362 24.3701 8.75098H24.3711C24.8532 9.17167 25.4686 9.38379 26.1338 9.38379L26.2754 9.37598C26.8813 9.31448 27.3718 8.86371 27.4932 8.27734C27.4908 8.5524 27.4588 8.86182 27.3965 9.20801C27.2837 9.83416 27.0891 10.4353 26.916 10.8877C26.8311 11.1097 26.7534 11.2901 26.6982 11.4131C26.67 11.476 26.6485 11.522 26.6357 11.5488C26.6291 11.5628 26.6239 11.5734 26.6211 11.5791C26.618 11.5855 26.615 11.5917 26.6123 11.5977M26.5977 11.6328C26.5951 11.6391 26.593 11.6442 26.5918 11.6475C26.5909 11.6498 26.5904 11.6519 26.5898 11.6533C26.5922 11.6467 26.5987 11.6297 26.6084 11.6074M26.5977 11.6328C26.6014 11.6244 26.6045 11.6157 26.6084 11.6074M26.5977 11.6328C26.5986 11.6304 26.5995 11.6277 26.6006 11.625C26.6035 11.618 26.6072 11.6086 26.6123 11.5977M26.6084 11.6074C26.6123 11.5993 26.6161 11.5911 26.6201 11.583C26.6176 11.5881 26.6144 11.5931 26.6123 11.5977M26.6084 11.6074C26.6098 11.6043 26.6108 11.6009 26.6123 11.5977M29.1406 12.7354C29.1419 12.7318 29.1444 12.7288 29.1455 12.7256L29.1504 12.709C29.1483 12.7159 29.1443 12.7246 29.1406 12.7354ZM29.1562 12.6875L29.1533 12.6982C29.1552 12.6917 29.1568 12.6861 29.1572 12.6846V12.6836C29.1571 12.6839 29.1567 12.6857 29.1562 12.6875ZM26.4062 6.57812C26.3339 6.58057 26.2863 6.59632 26.2588 6.6084C26.2584 6.6096 26.2591 6.6111 26.2588 6.6123C26.7002 6.65181 27.0814 6.89754 27.3066 7.25293C27.1845 6.99366 27.0039 6.80228 26.7705 6.6709V6.66992C26.6453 6.60014 26.5147 6.5745 26.4062 6.57812Z" fill="#171717" stroke="white" stroke-width="1.375" stroke-linecap="round" stroke-linejoin="round"/>
<path d="M27.8883 12.205C27.8883 12.205 30.4298 7.12443 27.4769 5.463C26.8186 5.0938 25.941 5.07774 25.365 5.55932C24.5838 6.20683 24.7004 7.99686 26.1591 7.99686" stroke="#171717" stroke-width="1.375" stroke-linecap="round" stroke-linejoin="round"/>
<path d="M8.10532 26.9149C8.10532 26.9149 4.52277 43.2781 25.3795 45.6889C25.3795 45.6889 42.5045 47.596 44.0221 29.6146L43.6987 25.5692L8.89315 23.918L8.09703 26.9149H8.10532Z" fill="white"/>
<path d="M8 28.4391L43.9295 31C43.9295 31 45.9679 14.0332 28.1218 11.139C28.1218 11.139 11.0944 8.28542 8 28.4391Z" fill="#DABFFF"/>
<path d="M10.7125 30.6605C10.7125 30.6605 16.2632 32.026 12.4998 23.5C12.4998 23.5 7.91639 28.1347 10.7125 30.6605Z" fill="white"/>
<path d="M18.6988 23.5162C18.6988 23.5162 22.2694 24.9858 18.6925 17.0234C18.6925 17.0234 15.0296 22.4047 18.6988 23.5162Z" fill="white"/>
<path d="M43.9446 31.278C43.2427 41.1485 35.1333 46.6746 24.8603 45.9339C14.5873 45.1932 7.34502 38.5519 8.04695 28.6814C8.86449 17.2046 17.073 10.3136 27.3377 11.0543C37.6107 11.795 44.7539 19.8012 43.9364 31.278H43.9446Z" stroke="#171717" stroke-width="1.375" stroke-linecap="round" stroke-linejoin="round"/>
<path d="M15.5045 10.6641L14.0781 19.4071" stroke="#171717" stroke-width="1.375" stroke-linecap="round" stroke-linejoin="round"/>
<path d="M37.3398 11.8164L37.5389 22.5904" stroke="#171717" stroke-width="1.375" stroke-linecap="round" stroke-linejoin="round"/>
<path d="M31.4778 9.69922L31.2539 22.1326" stroke="#171717" stroke-width="1.375" stroke-linecap="round" stroke-linejoin="round"/>
<path d="M23.3047 8.61719L23.9726 21.6038" stroke="#171717" stroke-width="1.375" stroke-linecap="round" stroke-linejoin="round"/>
<path d="M33.3571 30.7906C34.1066 30.8393 34.7536 30.274 34.8022 29.5278C34.8508 28.7816 34.2825 28.1371 33.533 28.0883C32.7834 28.0395 32.1364 28.6049 32.0879 29.3511C32.0393 30.0973 32.6075 30.7418 33.3571 30.7906Z" fill="#171717"/>
<path d="M18.3571 29.7906C19.1066 29.8393 19.7536 29.274 19.8022 28.5278C19.8508 27.7816 19.2825 27.1371 18.533 27.0883C17.7834 27.0395 17.1364 27.6049 17.0879 28.3511C17.0393 29.0973 17.6075 29.7418 18.3571 29.7906Z" fill="#171717"/>
<path d="M23.0035 34.6604L22.5593 35.6174L22.6292 38.5388L23.9963 37.1507L25.8255 37.2592L27.1833 36.8682L28.7197 38.0759L28.9204 34.9865L27.0828 34.5762L25.6599 34.0303L24.1389 34.8919L23.0026 34.6667L23.0035 34.6604Z" fill="#BC6159"/>
<path d="M22.6628 39.0222L23.6249 37.3742L25.5987 37.3103L27.2558 36.8641L28.6939 38.308L27.3029 41.2863L25.3155 41.8539L23.2975 40.8686L22.6673 39.0292L22.6628 39.0222Z" fill="#F38F7F"/>
<path d="M31.0984 32.0413C31.0984 32.0413 31.7386 32.8969 31.1583 34.0861C30.4792 35.4745 27.53 35.102 26.075 33.8628C26.075 33.8628 22.5492 35.8237 20.8218 33.5136C20.8218 33.5136 19.9293 32.3877 20.9524 31.464" stroke="#181818" stroke-width="1.38" stroke-linecap="round" stroke-linejoin="round"/>
<path d="M28.9258 35.4533C28.9258 35.4533 29.1464 41.915 25.5043 41.8604C22.1593 41.8079 22.156 36.822 22.7243 34.9539" stroke="#181818" stroke-width="1.38" stroke-linecap="round" stroke-linejoin="round"/>
<path d="M22.684 38.8746C22.684 38.8746 23.4132 36.3501 25.4788 37.3099C25.4788 37.3099 27.0831 35.8773 28.4632 37.9085" stroke="#181818" stroke-width="1.38" stroke-linecap="round" stroke-linejoin="round"/>
<path d="M13.4183 25.7862C13.4183 25.7862 15.1358 30.9298 11.869 30.7601C7.73091 30.0539 12.569 23.6523 12.569 23.6523" stroke="#171717" stroke-width="1.375" stroke-linecap="round" stroke-linejoin="round"/>
<path d="M37.8433 32.187C37.8433 32.187 44.9521 32.8983 39.0331 25.0742C39.0331 25.0742 35.4963 28.5462 37.8433 32.187Z" fill="white"/>
<path d="M37.7186 27.1261C37.7186 27.1261 35.4698 31.4757 38.8856 32.1869C43.2937 32.187 39.4026 25.0742 39.4026 25.0742" stroke="#171717" stroke-width="1.375" stroke-linecap="round" stroke-linejoin="round"/>
<path d="M38.2938 37.6661C38.2938 37.6661 41.2543 38.888 39.9523 33.9922C39.9523 33.9922 36.6932 34.4463 38.2938 37.6661Z" fill="white"/>
<path d="M19.8041 18.9838C19.8041 18.9838 21.9891 23.5243 18.9242 23.6491C14.3342 23.8362 18.2057 17.1875 18.2057 17.1875" stroke="#171717" stroke-width="1.375" stroke-linecap="round" stroke-linejoin="round"/>
<path d="M44.5 33.5C44.9 32.7 45 30.1667 45 29H44L44.5 33.5Z" fill="#171717"/>
</svg>
