<svg width="52" height="52" viewBox="0 0 52 52" fill="none" xmlns="http://www.w3.org/2000/svg">
<g clip-path="url(#clip0_3486_33479)">
<mask id="path-1-outside-1_3486_33479" maskUnits="userSpaceOnUse" x="5.57812" y="6.33594" width="41" height="42" fill="black">
<rect fill="white" x="5.57812" y="6.33594" width="41" height="42"/>
<path fill-rule="evenodd" clip-rule="evenodd" d="M23.339 8.33685C23.7222 8.31735 24.0485 8.61186 24.0685 8.99506L24.1622 10.83C24.5856 10.7924 24.9851 10.7685 25.3556 10.7578C26.199 10.7334 26.8959 10.7674 27.3849 10.8076C27.6292 10.8276 27.8223 10.85 27.9562 10.8671C28.0229 10.8757 28.0759 10.8832 28.1124 10.8886C28.1301 10.8912 28.1443 10.8929 28.1544 10.8945C28.1594 10.8953 28.164 10.8959 28.1671 10.8964H28.171C28.4791 10.9465 28.7815 11.0012 29.0782 11.0595C29.6087 11.1425 30.1305 11.2442 30.6417 11.3661L30.6661 10.081C30.673 9.69726 30.9895 9.39085 31.3731 9.3974C31.757 9.40431 32.0635 9.72158 32.0567 10.1054L32.0265 11.7519C33.6108 12.257 35.084 12.9568 36.42 13.8329L36.3897 12.1689C36.3832 11.7854 36.6897 11.4689 37.0733 11.4619C37.4568 11.4553 37.7731 11.761 37.7804 12.1445L37.8292 14.8652C37.8581 14.8887 37.8864 14.9137 37.9151 14.9374C40.5985 17.0774 42.2126 19.7251 43.1642 22.2763C43.5038 23.187 43.7574 24.0836 43.9474 24.9365L43.9513 24.9374L43.9532 24.9609C44.2536 26.3169 44.3916 27.5636 44.4464 28.5869C44.4912 29.4242 44.2913 28.5338 44.4464 29.081C44.4356 29.3234 44.2057 31.5757 44.1944 31.7089C44.1889 31.775 44.0894 31.5304 44.0851 31.5644C44.0832 31.5821 44.177 31.8962 44.1759 31.9062C44.0855 31.7094 44.0526 31.7091 44.1739 31.9179L44.0099 31.6357V31.9023L44.1739 32.0292C43.6384 36.6256 41.44 40.2615 38.1271 42.6904C34.6322 45.2525 29.9478 46.4387 24.7745 46.0703C19.6013 45.7017 15.1357 43.8616 12.044 40.8281C9.11331 37.9524 7.45683 34.0401 7.58506 29.415V28.58C7.63909 28.2269 7.61444 27.7565 7.67686 27.4169V27.3261C7.75633 26.9138 7.84134 26.5115 7.93272 26.1191C8.74611 21.5291 10.848 17.7783 13.8507 15.1337C14.046 14.9617 14.2448 14.7941 14.4474 14.6318L15.0538 10.9238C15.1157 10.545 15.4729 10.288 15.8517 10.3495C16.2304 10.4113 16.4882 10.7677 16.4269 11.1464L16.0421 13.4999C16.5086 13.2078 16.9899 12.9387 17.4845 12.6923L17.6261 12.621C18.0816 12.3957 18.5389 12.1962 18.9923 12.0195C20.3148 11.504 21.6056 11.1917 22.7794 11.0038L22.6808 9.06634C22.6613 8.68301 22.9556 8.35659 23.339 8.33685Z"/>
</mask>
<path fill-rule="evenodd" clip-rule="evenodd" d="M23.339 8.33685C23.7222 8.31735 24.0485 8.61186 24.0685 8.99506L24.1622 10.83C24.5856 10.7924 24.9851 10.7685 25.3556 10.7578C26.199 10.7334 26.8959 10.7674 27.3849 10.8076C27.6292 10.8276 27.8223 10.85 27.9562 10.8671C28.0229 10.8757 28.0759 10.8832 28.1124 10.8886C28.1301 10.8912 28.1443 10.8929 28.1544 10.8945C28.1594 10.8953 28.164 10.8959 28.1671 10.8964H28.171C28.4791 10.9465 28.7815 11.0012 29.0782 11.0595C29.6087 11.1425 30.1305 11.2442 30.6417 11.3661L30.6661 10.081C30.673 9.69726 30.9895 9.39085 31.3731 9.3974C31.757 9.40431 32.0635 9.72158 32.0567 10.1054L32.0265 11.7519C33.6108 12.257 35.084 12.9568 36.42 13.8329L36.3897 12.1689C36.3832 11.7854 36.6897 11.4689 37.0733 11.4619C37.4568 11.4553 37.7731 11.761 37.7804 12.1445L37.8292 14.8652C37.8581 14.8887 37.8864 14.9137 37.9151 14.9374C40.5985 17.0774 42.2126 19.7251 43.1642 22.2763C43.5038 23.187 43.7574 24.0836 43.9474 24.9365L43.9513 24.9374L43.9532 24.9609C44.2536 26.3169 44.3916 27.5636 44.4464 28.5869C44.4912 29.4242 44.2913 28.5338 44.4464 29.081C44.4356 29.3234 44.2057 31.5757 44.1944 31.7089C44.1889 31.775 44.0894 31.5304 44.0851 31.5644C44.0832 31.5821 44.177 31.8962 44.1759 31.9062C44.0855 31.7094 44.0526 31.7091 44.1739 31.9179L44.0099 31.6357V31.9023L44.1739 32.0292C43.6384 36.6256 41.44 40.2615 38.1271 42.6904C34.6322 45.2525 29.9478 46.4387 24.7745 46.0703C19.6013 45.7017 15.1357 43.8616 12.044 40.8281C9.11331 37.9524 7.45683 34.0401 7.58506 29.415V28.58C7.63909 28.2269 7.61444 27.7565 7.67686 27.4169V27.3261C7.75633 26.9138 7.84134 26.5115 7.93272 26.1191C8.74611 21.5291 10.848 17.7783 13.8507 15.1337C14.046 14.9617 14.2448 14.7941 14.4474 14.6318L15.0538 10.9238C15.1157 10.545 15.4729 10.288 15.8517 10.3495C16.2304 10.4113 16.4882 10.7677 16.4269 11.1464L16.0421 13.4999C16.5086 13.2078 16.9899 12.9387 17.4845 12.6923L17.6261 12.621C18.0816 12.3957 18.5389 12.1962 18.9923 12.0195C20.3148 11.504 21.6056 11.1917 22.7794 11.0038L22.6808 9.06634C22.6613 8.68301 22.9556 8.35659 23.339 8.33685Z" fill="#171717"/>
<path d="M23.339 8.33685L23.2691 6.96363L23.2683 6.96367L23.339 8.33685ZM24.0685 8.99506L25.4417 8.9249L25.4416 8.92367L24.0685 8.99506ZM24.1622 10.83L22.789 10.9002C22.8081 11.2733 22.9781 11.6226 23.2601 11.8677C23.5421 12.1128 23.9116 12.2327 24.2838 12.1996L24.1622 10.83ZM25.3556 10.7578L25.3159 9.38332L25.3159 9.38332L25.3556 10.7578ZM27.3849 10.8076L27.4975 9.43718L27.4975 9.43717L27.3849 10.8076ZM27.9562 10.8671L28.1303 9.5032L28.1303 9.50319L27.9562 10.8671ZM28.1124 10.8886L28.3144 9.52854L28.3143 9.52851L28.1124 10.8886ZM28.1544 10.8945L28.3694 9.53639L28.3675 9.53609L28.1544 10.8945ZM28.1671 10.8964L27.9458 12.2535C28.019 12.2654 28.093 12.2714 28.1671 12.2714V10.8964ZM28.171 10.8964L28.3917 9.53925C28.3187 9.52738 28.2449 9.52142 28.171 9.52142V10.8964ZM29.0782 11.0595L28.8133 12.4087C28.8307 12.4122 28.8482 12.4152 28.8657 12.418L29.0782 11.0595ZM30.6417 11.3661L30.3226 12.7036C30.7275 12.8002 31.1543 12.7082 31.4834 12.4534C31.8126 12.1986 32.0085 11.8084 32.0165 11.3923L30.6417 11.3661ZM30.6661 10.081L32.0409 10.1071L32.0409 10.1058L30.6661 10.081ZM31.3731 9.3974L31.3979 8.02262L31.3966 8.0226L31.3731 9.3974ZM32.0567 10.1054L33.4315 10.1307L33.4315 10.1296L32.0567 10.1054ZM32.0265 11.7519L30.6517 11.7266C30.6405 12.3343 31.0297 12.8773 31.6088 13.0619L32.0265 11.7519ZM36.42 13.8329L35.666 14.9827C36.0922 15.2623 36.6381 15.2831 37.0844 15.0368C37.5306 14.7905 37.8041 14.3176 37.7948 13.8079L36.42 13.8329ZM36.3897 12.1689L35.0149 12.1924L35.015 12.1939L36.3897 12.1689ZM37.0733 11.4619L37.0497 10.0871L37.0479 10.0871L37.0733 11.4619ZM37.7804 12.1445L39.1552 12.1198L39.1551 12.1184L37.7804 12.1445ZM37.8292 14.8652L36.4544 14.8898C36.4617 15.2948 36.6471 15.6759 36.9612 15.9316L37.8292 14.8652ZM37.9151 14.9374L37.0401 15.9981C37.046 16.0029 37.0519 16.0077 37.0578 16.0124L37.9151 14.9374ZM43.1642 22.2763L44.4525 21.7958L44.4525 21.7958L43.1642 22.2763ZM43.9474 24.9365L42.6053 25.2354C42.7184 25.7435 43.1089 26.1442 43.6139 26.2704L43.9474 24.9365ZM43.9513 24.9374L45.3215 24.8233C45.2726 24.2367 44.8558 23.7463 44.2848 23.6035L43.9513 24.9374ZM43.9532 24.9609L42.583 25.0751C42.5881 25.1367 42.5974 25.1979 42.6108 25.2582L43.9532 24.9609ZM44.4464 28.5869L45.8194 28.5134V28.5134L44.4464 28.5869ZM44.4464 29.081L45.82 29.142C45.8266 28.9949 45.8094 28.8477 45.7693 28.706L44.4464 29.081ZM44.1944 31.7089L42.8243 31.5932L42.8243 31.5933L44.1944 31.7089ZM44.0851 31.5644L42.7211 31.3907C42.7197 31.4018 42.7184 31.4128 42.7173 31.4239L44.0851 31.5644ZM44.1759 31.9062L42.9262 32.4798C43.184 33.0413 43.7846 33.3619 44.3945 33.2637C45.0045 33.1654 45.474 32.6724 45.5424 32.0584L44.1759 31.9062ZM44.1739 31.9179L42.9852 32.6089C43.3668 33.2654 44.2083 33.4883 44.8648 33.1067C45.5213 32.7252 45.7443 31.8838 45.3629 31.2272L44.1739 31.9179ZM44.0099 31.6357L45.1986 30.9446C44.8862 30.4073 44.2522 30.1463 43.652 30.3081C43.0519 30.4698 42.6349 31.0141 42.6349 31.6357H44.0099ZM44.0099 31.9023H42.6349C42.6349 32.3278 42.8319 32.7293 43.1684 32.9897L44.0099 31.9023ZM44.1739 32.0292L45.5397 32.1884C45.5955 31.7097 45.3965 31.2367 45.0154 30.9418L44.1739 32.0292ZM38.1271 42.6904L38.94 43.7993L38.94 43.7993L38.1271 42.6904ZM24.7745 46.0703L24.6768 47.4418H24.6768L24.7745 46.0703ZM12.044 40.8281L11.081 41.8095L11.0811 41.8095L12.044 40.8281ZM7.58506 29.415L8.95953 29.4531C8.95988 29.4404 8.96006 29.4277 8.96006 29.415H7.58506ZM7.58506 28.58L6.22588 28.3721C6.21535 28.4409 6.21006 28.5104 6.21006 28.58H7.58506ZM7.67686 27.4169L9.0292 27.6655C9.04427 27.5835 9.05186 27.5003 9.05186 27.4169H7.67686ZM7.67686 27.3261L6.32671 27.0658C6.31018 27.1516 6.30186 27.2388 6.30186 27.3261H7.67686ZM7.93272 26.1191L9.2719 26.4309C9.27744 26.407 9.28235 26.3831 9.28662 26.359L7.93272 26.1191ZM13.8507 15.1337L12.9419 14.1018L12.9419 14.1019L13.8507 15.1337ZM14.4474 14.6318L15.3074 15.7046C15.5725 15.4921 15.7495 15.189 15.8043 14.8537L14.4474 14.6318ZM15.0538 10.9238L16.4108 11.1457L16.4108 11.1455L15.0538 10.9238ZM15.8517 10.3495L16.0731 8.99249L16.0721 8.99233L15.8517 10.3495ZM16.4269 11.1464L17.7838 11.3683L17.7842 11.3662L16.4269 11.1464ZM16.0421 13.4999L14.6851 13.2781C14.5979 13.8112 14.831 14.3459 15.2809 14.645C15.7307 14.9441 16.314 14.952 16.7718 14.6653L16.0421 13.4999ZM17.4845 12.6923L18.0975 13.9231L18.1028 13.9205L17.4845 12.6923ZM17.6261 12.621L17.0164 11.3885L17.0078 11.3929L17.6261 12.621ZM18.9923 12.0195L18.4929 10.7383L18.4929 10.7384L18.9923 12.0195ZM22.7794 11.0038L22.9967 12.3616C23.69 12.2506 24.1883 11.6351 24.1526 10.9339L22.7794 11.0038ZM22.6808 9.06634L21.3075 9.13623L21.3075 9.13625L22.6808 9.06634ZM23.339 8.33685L23.4089 9.71008C23.034 9.72915 22.7148 9.44079 22.6953 9.06645L24.0685 8.99506L25.4416 8.92367C25.3823 7.78294 24.4104 6.90555 23.2691 6.96363L23.339 8.33685ZM24.0685 8.99506L22.6952 9.06521L22.789 10.9002L24.1622 10.83L25.5354 10.7599L25.4417 8.9249L24.0685 8.99506ZM24.1622 10.83L24.2838 12.1996C24.6831 12.1642 25.0551 12.142 25.3953 12.1322L25.3556 10.7578L25.3159 9.38332C24.9152 9.3949 24.4882 9.42068 24.0407 9.4604L24.1622 10.83ZM25.3556 10.7578L25.3953 12.1322C26.1805 12.1095 26.8261 12.1413 27.2723 12.1779L27.3849 10.8076L27.4975 9.43717C26.9658 9.39349 26.2175 9.35729 25.3159 9.38332L25.3556 10.7578ZM27.3849 10.8076L27.2722 12.1779C27.492 12.196 27.6642 12.216 27.782 12.2311L27.9562 10.8671L28.1303 9.50319C27.9805 9.48407 27.7665 9.45929 27.4975 9.43718L27.3849 10.8076ZM27.9562 10.8671L27.782 12.2311C27.8383 12.2382 27.882 12.2445 27.9105 12.2487L28.1124 10.8886L28.3143 9.52851C28.2698 9.52191 28.2075 9.51306 28.1303 9.5032L27.9562 10.8671ZM28.1124 10.8886L27.9104 12.2487C27.9302 12.2516 27.9472 12.2539 27.9542 12.2548C27.9588 12.2554 27.9586 12.2554 27.9579 12.2553C27.957 12.2552 27.9505 12.2543 27.9413 12.2529L28.1544 10.8945L28.3675 9.53609C28.3532 9.53384 28.3411 9.53214 28.3342 9.53119C28.3274 9.53025 28.3207 9.52935 28.3183 9.52903C28.3112 9.52809 28.3122 9.52821 28.3144 9.52854L28.1124 10.8886ZM28.1544 10.8945L27.9393 12.2525C27.9475 12.2538 27.9547 12.2549 27.9563 12.2552C27.9577 12.2554 27.957 12.2553 27.956 12.2551C27.9551 12.255 27.9512 12.2544 27.9458 12.2535L28.1671 10.8964L28.3884 9.53934C28.3815 9.53822 28.3758 9.53735 28.373 9.53691C28.3701 9.53647 28.3673 9.53606 28.3666 9.53595C28.3639 9.53553 28.3663 9.53589 28.3694 9.53639L28.1544 10.8945ZM28.1671 10.8964V12.2714H28.171V10.8964V9.52142H28.1671V10.8964ZM28.171 10.8964L27.9503 12.2536C28.2426 12.3011 28.5301 12.3531 28.8133 12.4087L29.0782 11.0595L29.3432 9.71028C29.0328 9.64933 28.7156 9.59193 28.3917 9.53925L28.171 10.8964ZM29.0782 11.0595L28.8657 12.418C29.3628 12.4957 29.8489 12.5906 30.3226 12.7036L30.6417 11.3661L30.9608 10.0287C30.4121 9.89779 29.8546 9.78923 29.2907 9.70102L29.0782 11.0595ZM30.6417 11.3661L32.0165 11.3923L32.0409 10.1071L30.6661 10.081L29.2914 10.0549L29.2669 11.34L30.6417 11.3661ZM30.6661 10.081L32.0409 10.1058C32.0342 10.4784 31.7271 10.7786 31.3497 10.7722L31.3731 9.3974L31.3966 8.0226C30.2518 8.00306 29.3119 8.91608 29.2913 10.0562L30.6661 10.081ZM31.3731 9.3974L31.3484 10.7722C30.9741 10.7654 30.6753 10.4573 30.682 10.0812L32.0567 10.1054L33.4315 10.1296C33.4516 8.98585 32.5399 8.04319 31.3979 8.02262L31.3731 9.3974ZM32.0567 10.1054L30.682 10.0801L30.6517 11.7266L32.0265 11.7519L33.4012 11.7772L33.4315 10.1307L32.0567 10.1054ZM32.0265 11.7519L31.6088 13.0619C33.0776 13.5303 34.4373 14.1769 35.666 14.9827L36.42 13.8329L37.1741 12.6832C35.7308 11.7366 34.1439 10.9838 32.4442 10.4419L32.0265 11.7519ZM36.42 13.8329L37.7948 13.8079L37.7645 12.1439L36.3897 12.1689L35.015 12.1939L35.0452 13.858L36.42 13.8329ZM36.3897 12.1689L37.7645 12.1454C37.771 12.5236 37.4705 12.8298 37.0987 12.8366L37.0733 11.4619L37.0479 10.0871C35.9089 10.1081 34.9954 11.0472 35.0149 12.1924L36.3897 12.1689ZM37.0733 11.4619L37.097 12.8366C36.7204 12.8431 36.4127 12.5436 36.4056 12.1705L37.7804 12.1445L39.1551 12.1184C39.1335 10.9783 38.1932 10.0674 37.0497 10.0871L37.0733 11.4619ZM37.7804 12.1445L36.4056 12.1691L36.4544 14.8898L37.8292 14.8652L39.204 14.8405L39.1551 12.1198L37.7804 12.1445ZM37.8292 14.8652L36.9612 15.9316C36.9612 15.9315 36.9625 15.9326 36.9659 15.9355C36.9695 15.9385 36.9738 15.9422 36.9807 15.948C36.9917 15.9574 37.0155 15.9778 37.0401 15.9981L37.9151 14.9374L38.7902 13.8768C38.786 13.8734 38.7813 13.8693 38.7638 13.8545C38.7498 13.8426 38.7249 13.8213 38.6972 13.7988L37.8292 14.8652ZM37.9151 14.9374L37.0578 16.0124C39.5105 17.9685 40.9939 20.3923 41.8759 22.7568L43.1642 22.2763L44.4525 21.7958C43.4313 19.058 41.6865 16.1864 38.7725 13.8624L37.9151 14.9374ZM43.1642 22.2763L41.8758 22.7568C42.1906 23.6009 42.4272 24.436 42.6053 25.2354L43.9474 24.9365L45.2895 24.6375C45.0876 23.7312 44.8169 22.7731 44.4525 21.7958L43.1642 22.2763ZM43.9474 24.9365L43.6139 26.2704L43.6178 26.2714L43.9513 24.9374L44.2848 23.6035L44.2808 23.6025L43.9474 24.9365ZM43.9513 24.9374L42.581 25.0516L42.583 25.0751L43.9532 24.9609L45.3235 24.8467L45.3215 24.8233L43.9513 24.9374ZM43.9532 24.9609L42.6108 25.2582C42.8922 26.5287 43.0219 27.6992 43.0734 28.6603L44.4464 28.5869L45.8194 28.5134C45.7613 27.428 45.615 26.1051 45.2957 24.6635L43.9532 24.9609ZM44.4464 28.5869L43.0733 28.6603C43.078 28.7478 43.0783 28.7912 43.078 28.8049C43.0779 28.8113 43.0779 28.8008 43.0798 28.7786C43.0813 28.7613 43.0866 28.7044 43.1046 28.6272C43.1139 28.5874 43.1304 28.5256 43.1592 28.4521C43.1864 28.3829 43.2382 28.2673 43.3319 28.1415C43.4256 28.0155 43.5956 27.8337 43.868 27.7117C44.1626 27.5797 44.4756 27.5635 44.7526 27.6315C45.0041 27.6931 45.1804 27.8116 45.2791 27.8905C45.3811 27.9722 45.4507 28.0522 45.4911 28.103C45.5698 28.202 45.615 28.2885 45.6327 28.3235C45.6712 28.3999 45.6919 28.4612 45.7026 28.4952C45.706 28.5062 45.7224 28.5584 45.7364 28.6301C45.7402 28.6497 45.7484 28.6936 45.7542 28.7501C45.7571 28.7782 45.7613 28.8274 45.7614 28.889C45.7614 28.9342 45.7604 29.0683 45.7178 29.2335C45.696 29.318 45.6492 29.4679 45.5443 29.6316C45.4351 29.8021 45.2322 30.0324 44.8975 30.1664C44.5522 30.3046 44.2251 30.2771 43.991 30.2067C43.7757 30.142 43.6255 30.0394 43.5467 29.9785C43.394 29.8607 43.3037 29.7384 43.2764 29.7009C43.2372 29.6472 43.2099 29.6016 43.1953 29.5762C43.1465 29.4913 43.1182 29.4194 43.1165 29.4153C43.1076 29.3937 43.1017 29.3773 43.0992 29.3705C43.094 29.3561 43.0919 29.3493 43.0938 29.3551C43.0971 29.3653 43.1064 29.3957 43.1235 29.456L44.4464 29.081L45.7693 28.706C45.7476 28.6295 45.7293 28.568 45.7136 28.5189C45.706 28.4951 45.6966 28.4668 45.6861 28.4374C45.6809 28.4231 45.6727 28.401 45.6621 28.375C45.6568 28.3619 45.6486 28.3425 45.638 28.3193C45.6293 28.3004 45.6092 28.2574 45.5792 28.2052C45.5643 28.1794 45.5369 28.1334 45.4975 28.0795C45.4773 28.0518 45.4478 28.0135 45.4091 27.9705C45.3725 27.9298 45.3116 27.8669 45.2267 27.8013C45.1892 27.7734 45.1038 27.7167 45.0556 27.6886C44.9957 27.6571 44.8591 27.5986 44.7822 27.573C44.6885 27.5484 44.4822 27.5182 44.3705 27.515C44.2462 27.522 43.9976 27.571 43.8755 27.6133C43.5408 27.7474 43.3379 27.9777 43.2286 28.1483C43.1921 28.2087 43.1335 28.3235 43.1107 28.3771C43.0933 28.4226 43.0657 28.5074 43.055 28.5466C43.0314 28.6379 43.0218 28.7146 43.0172 28.7641C43.0124 28.8161 43.0114 28.86 43.0114 28.8918C43.0115 28.9536 43.0157 29.0032 43.0187 29.0318C43.0246 29.0892 43.0329 29.1341 43.037 29.1551C43.0459 29.2009 43.0553 29.2372 43.0603 29.2556C43.0663 29.2778 43.0722 29.2977 43.0775 29.3148C43.088 29.3484 43.1004 29.3842 43.1148 29.4212C43.1287 29.4569 43.1492 29.5062 43.1774 29.562C43.1918 29.5905 43.2108 29.6261 43.2349 29.6658C43.2583 29.7043 43.2925 29.7566 43.3387 29.8146C43.3825 29.8698 43.4555 29.9534 43.561 30.0378C43.6154 30.0813 43.6856 30.1308 43.7721 30.1773C43.8588 30.2239 43.9679 30.2705 44.0977 30.3023C44.2294 30.3346 44.3784 30.3506 44.5385 30.3376C44.6995 30.3246 44.8527 30.2839 44.9924 30.2213C45.2681 30.0978 45.4413 29.9133 45.5381 29.7831C45.5883 29.7157 45.626 29.6523 45.6539 29.5992C45.6821 29.5458 45.7035 29.4968 45.7197 29.4555C45.7513 29.3747 45.7705 29.3041 45.7823 29.2535C45.7946 29.2013 45.8025 29.1548 45.8079 29.1176C45.8133 29.0797 45.817 29.0448 45.8197 29.0144C45.8248 28.9546 45.8269 28.8977 45.8277 28.8472C45.8293 28.7472 45.8259 28.6353 45.8194 28.5134L44.4464 28.5869ZM44.4464 29.081L43.0727 29.02C43.0729 29.0164 43.0709 29.0486 43.063 29.1398C43.0561 29.2198 43.0466 29.3242 43.0351 29.4465C43.0122 29.6905 42.9823 29.9963 42.9523 30.3008C42.8937 30.8941 42.831 31.5138 42.8243 31.5932L44.1944 31.7089L45.5646 31.8246C45.5644 31.826 45.5652 31.8177 45.5676 31.7922C45.5698 31.7698 45.5727 31.7398 45.5764 31.7028C45.5837 31.6288 45.5936 31.5296 45.6052 31.4127C45.6285 31.1793 45.6587 30.8769 45.6889 30.571C45.7459 29.9939 45.8125 29.3119 45.82 29.142L44.4464 29.081ZM44.1944 31.7089L42.8243 31.5933C42.8282 31.5474 42.8364 31.4782 42.8561 31.3955C42.8747 31.3172 42.9125 31.189 42.9929 31.0456C43.0745 30.8999 43.2236 30.6979 43.4783 30.5437C43.6062 30.4662 43.7475 30.4093 43.897 30.3767C44.0455 30.3444 44.1863 30.3395 44.3121 30.3509C44.5558 30.3729 44.7394 30.4549 44.8463 30.5135C44.9566 30.5739 45.0368 30.6378 45.085 30.6797C45.1356 30.7238 45.174 30.7639 45.1996 30.7921C45.226 30.8213 45.2467 30.847 45.2616 30.8661C45.2904 30.9031 45.3105 30.9334 45.3207 30.9491C45.3319 30.9664 45.3399 30.9797 45.3439 30.9865C45.3513 30.9991 45.3546 31.0056 45.3508 30.9985C45.3494 30.9959 45.3476 30.9924 45.3445 30.9867C45.342 30.9819 45.3376 30.9735 45.3334 30.9658C45.3267 30.9531 45.3099 30.9215 45.2899 30.8874C45.2798 30.8701 45.2619 30.8403 45.2385 30.8053C45.2265 30.7873 45.2093 30.7625 45.1876 30.734C45.1672 30.7072 45.1333 30.6646 45.0873 30.6161C45.0636 30.5912 45.0318 30.5596 44.9924 30.5253C44.9539 30.4918 44.8988 30.4475 44.828 30.4024C44.759 30.3584 44.6546 30.3004 44.5186 30.2555C44.381 30.2101 44.1875 30.1706 43.9579 30.1922C43.8425 30.2031 43.7242 30.229 43.607 30.2726C43.4897 30.3162 43.3827 30.3742 43.2874 30.4422C43.0975 30.5778 42.9758 30.737 42.9007 30.8647C42.8266 30.9906 42.786 31.1054 42.7631 31.1857C42.7396 31.268 42.7276 31.3391 42.7211 31.3907L44.0851 31.5644L45.449 31.7381C45.4426 31.7886 45.4308 31.8588 45.4076 31.9403C45.3849 32.0198 45.3446 32.1339 45.2708 32.2593C45.196 32.3864 45.0747 32.5452 44.8851 32.6805C44.79 32.7484 44.6832 32.8063 44.5662 32.8499C44.4492 32.8934 44.3311 32.9192 44.216 32.9301C43.9869 32.9517 43.7939 32.9122 43.6568 32.867C43.5214 32.8223 43.4177 32.7646 43.3493 32.721C43.2791 32.6763 43.2247 32.6325 43.1869 32.5996C43.1482 32.5659 43.1172 32.5351 43.0943 32.511C43.0498 32.4642 43.0176 32.4236 42.9991 32.3992C42.9792 32.3732 42.964 32.3511 42.9541 32.3363C42.9348 32.3075 42.9216 32.2852 42.9165 32.2765C42.9065 32.2595 42.9012 32.2491 42.9068 32.2595C42.9087 32.2632 42.9107 32.2668 42.9146 32.2742C42.9179 32.2805 42.9226 32.2894 42.9277 32.2989C42.937 32.3161 42.9534 32.3465 42.9731 32.3801C42.9833 32.3974 42.9973 32.4205 43.0142 32.4466C43.0301 32.4712 43.0558 32.5092 43.0896 32.5528C43.107 32.5752 43.1302 32.6038 43.159 32.6356C43.1869 32.6665 43.2275 32.7088 43.2803 32.7547C43.3073 32.7782 43.3404 32.8052 43.3795 32.8334C43.4183 32.8614 43.4669 32.8935 43.525 32.9253C43.5829 32.957 43.6561 32.9917 43.7436 33.0215C43.8313 33.0514 43.9394 33.0784 44.0645 33.0897C44.1911 33.1012 44.3327 33.0963 44.4819 33.0638C44.6322 33.0311 44.7742 32.9738 44.9028 32.896C45.1588 32.7409 45.3091 32.5376 45.3918 32.3901C45.4339 32.3149 45.4636 32.2454 45.4848 32.1875C45.506 32.1293 45.5208 32.0768 45.5312 32.0329C45.5516 31.9473 45.5603 31.8746 45.5646 31.8245L44.1944 31.7089ZM44.0851 31.5644L42.7173 31.4239C42.7079 31.5146 42.7097 31.587 42.7112 31.6227C42.7129 31.6636 42.7162 31.6971 42.7186 31.7188C42.7233 31.7616 42.7291 31.7956 42.7323 31.8132C42.7388 31.8497 42.7456 31.8797 42.7489 31.894C42.7563 31.9258 42.7643 31.9563 42.7696 31.9765C42.7811 32.0198 42.7952 32.0702 42.8066 32.1107C42.8195 32.1563 42.8291 32.1904 42.8366 32.2175C42.8405 32.2315 42.8412 32.2343 42.8402 32.2307C42.8402 32.2305 42.8365 32.2161 42.8319 32.1954C42.83 32.1865 42.8243 32.1603 42.8187 32.1259C42.8159 32.1092 42.8108 32.076 42.8069 32.0337C42.8048 32.012 42.8023 31.9795 42.8013 31.9397C42.8004 31.904 42.8001 31.8372 42.8093 31.754L44.1759 31.9062L45.5424 32.0584C45.5517 31.975 45.5514 31.908 45.5505 31.8721C45.5495 31.8321 45.5469 31.7993 45.5449 31.7773C45.5409 31.7344 45.5356 31.7004 45.5327 31.6828C45.5268 31.6467 45.5207 31.6181 45.5181 31.6064C45.5123 31.58 45.5067 31.5579 45.5042 31.5481C45.4983 31.5253 45.4919 31.5017 45.4872 31.4847C45.4775 31.4495 45.464 31.4021 45.4538 31.3657C45.4421 31.3242 45.4332 31.2922 45.4277 31.2713C45.4245 31.2594 45.4254 31.2623 45.428 31.2735C45.429 31.2775 45.4339 31.299 45.4393 31.3289C45.4419 31.3432 45.4472 31.3745 45.4517 31.415C45.454 31.4356 45.4572 31.4681 45.4589 31.5082C45.4603 31.543 45.4621 31.6147 45.4529 31.7049L44.0851 31.5644ZM44.1759 31.9062L45.4255 31.3326C45.3913 31.2581 45.3543 31.184 45.3157 31.1161C45.2989 31.0864 45.268 31.0335 45.2266 30.9749C45.2106 30.9524 45.1623 30.8845 45.0897 30.8089C45.0587 30.7767 44.9722 30.6885 44.8404 30.6038C44.7969 30.5758 44.3085 30.2424 43.6659 30.4538C42.8741 30.7143 42.7489 31.4491 42.7313 31.5849C42.7049 31.7898 42.7323 31.9509 42.7403 31.9973C42.7612 32.1178 42.7941 32.2094 42.8029 32.2341C42.8285 32.3055 42.8557 32.3639 42.8699 32.3936C42.9035 32.4637 42.9433 32.5369 42.985 32.6086L44.1739 31.9179L45.3629 31.2272C45.3439 31.1946 45.3424 31.1895 45.3508 31.2071C45.3524 31.2105 45.3712 31.2491 45.3919 31.307C45.3984 31.325 45.4298 31.4115 45.45 31.5285C45.4578 31.5731 45.4851 31.7328 45.4587 31.9368C45.4413 32.0715 45.3164 32.8058 44.5252 33.0661C43.8831 33.2773 43.3955 32.9441 43.353 32.9168C43.2221 32.8327 43.1367 32.7455 43.1071 32.7146C43.0372 32.6419 42.9923 32.5784 42.9806 32.5618C42.9476 32.5151 42.9281 32.4804 42.9251 32.4752C42.9143 32.4562 42.9153 32.4559 42.9262 32.4798L44.1759 31.9062ZM44.1739 31.9179L45.3627 31.2269L45.1986 30.9446L44.0099 31.6357L42.8211 32.3267L42.9852 32.6089L44.1739 31.9179ZM44.0099 31.6357H42.6349V31.9023H44.0099H45.3849V31.6357H44.0099ZM44.0099 31.9023L43.1684 32.9897L43.3325 33.1167L44.1739 32.0292L45.0154 30.9418L44.8513 30.8148L44.0099 31.9023ZM44.1739 32.0292L42.8082 31.8701C42.316 36.0947 40.3124 39.3833 37.3141 41.5815L38.1271 42.6904L38.94 43.7993C42.5676 41.1398 44.9609 37.1565 45.5397 32.1884L44.1739 32.0292ZM38.1271 42.6904L37.3141 41.5815C34.1315 43.9147 29.7871 45.0488 24.8722 44.6987L24.7745 46.0703L24.6768 47.4418C30.1084 47.8286 35.133 46.5903 38.94 43.7993L38.1271 42.6904ZM24.7745 46.0703L24.8722 44.6987C19.9578 44.3486 15.822 42.6086 13.007 39.8466L12.044 40.8281L11.0811 41.8095C14.4494 45.1145 19.2448 47.0548 24.6768 47.4418L24.7745 46.0703ZM12.044 40.8281L13.007 39.8466C10.3548 37.2442 8.84168 33.7038 8.95953 29.4531L7.58506 29.415L6.21059 29.3769C6.07197 34.3765 7.87178 38.6606 11.081 41.8095L12.044 40.8281ZM7.58506 29.415H8.96006V28.58H7.58506H6.21006V29.415H7.58506ZM7.58506 28.58L8.94424 28.788C8.98541 28.5189 8.99444 28.2253 9.00165 28.0498C9.01086 27.8258 9.01864 27.723 9.0292 27.6655L7.67686 27.4169L6.32452 27.1683C6.27266 27.4504 6.26155 27.7526 6.25397 27.9369C6.2444 28.1699 6.23874 28.288 6.22588 28.3721L7.58506 28.58ZM7.67686 27.4169H9.05186V27.3261H7.67686H6.30186V27.4169H7.67686ZM7.67686 27.3261L9.027 27.5864C9.10346 27.1897 9.18486 26.8047 9.2719 26.4309L7.93272 26.1191L6.59353 25.8073C6.49783 26.2184 6.40921 26.6379 6.32671 27.0658L7.67686 27.3261ZM7.93272 26.1191L9.28662 26.359C10.0504 22.0492 12.0101 18.587 14.7595 16.1656L13.8507 15.1337L12.9419 14.1019C9.68592 16.9695 7.44185 21.009 6.57881 25.8792L7.93272 26.1191ZM13.8507 15.1337L14.7594 16.1656C14.9399 16.0067 15.1224 15.8529 15.3074 15.7046L14.4474 14.6318L13.5874 13.5589C13.3672 13.7354 13.1521 13.9167 12.9419 14.1018L13.8507 15.1337ZM14.4474 14.6318L15.8043 14.8537L16.4108 11.1457L15.0538 10.9238L13.6968 10.7018L13.0904 14.4098L14.4474 14.6318ZM15.0538 10.9238L16.4108 11.1455C16.3503 11.516 16.0012 11.7668 15.6313 11.7068L15.8517 10.3495L16.0721 8.99233C14.9446 8.80923 13.8812 9.57403 13.6968 10.702L15.0538 10.9238ZM15.8517 10.3495L15.6303 11.7066C15.2634 11.6467 15.0091 11.3001 15.0695 10.9266L16.4269 11.1464L17.7842 11.3662C17.9673 10.2353 17.1974 9.17593 16.0731 8.99249L15.8517 10.3495ZM16.4269 11.1464L15.0699 10.9246L14.6851 13.2781L16.0421 13.4999L17.3991 13.7218L17.7838 11.3683L16.4269 11.1464ZM16.0421 13.4999L16.7718 14.6653C17.1997 14.3974 17.642 14.15 18.0975 13.9231L17.4845 12.6923L16.8714 11.4615C16.3377 11.7274 15.8174 12.0183 15.3124 12.3346L16.0421 13.4999ZM17.4845 12.6923L18.1028 13.9205L18.2444 13.8492L17.6261 12.621L17.0078 11.3929L16.8662 11.4642L17.4845 12.6923ZM17.6261 12.621L18.2357 13.8535C18.6526 13.6473 19.0729 13.4638 19.4917 13.3006L18.9923 12.0195L18.4929 10.7384C18.0049 10.9286 17.5106 11.1441 17.0164 11.3886L17.6261 12.621ZM18.9923 12.0195L19.4916 13.3006C20.7077 12.8266 21.9015 12.5369 22.9967 12.3616L22.7794 11.0038L22.5621 9.64613C21.3097 9.84659 19.922 10.1814 18.4929 10.7383L18.9923 12.0195ZM22.7794 11.0038L24.1526 10.9339L24.054 8.99644L22.6808 9.06634L21.3075 9.13625L21.4062 11.0738L22.7794 11.0038ZM22.6808 9.06634L24.054 8.99646C24.073 9.37049 23.7851 9.69071 23.4096 9.71003L23.339 8.33685L23.2683 6.96367C22.1261 7.02246 21.2495 7.99553 21.3075 9.13623L22.6808 9.06634Z" fill="white" mask="url(#path-1-outside-1_3486_33479)"/>
<path d="M26.6016 11.6328C26.2986 12.3062 26.5742 13.1096 27.2451 13.4453C27.9313 13.7885 28.7653 13.5097 29.1084 12.8242C29.1091 12.8227 29.1096 12.8208 29.1104 12.8193L29.1113 12.8174L29.1426 12.7539L29.1484 12.7422C29.1702 12.6965 29.2007 12.6314 29.2373 12.5498C29.31 12.3876 29.409 12.1576 29.5156 11.8789C29.7267 11.327 29.9814 10.5523 30.1348 9.70117C30.4159 8.14086 30.4625 5.55879 28.1367 4.25C28.1256 4.24374 28.113 4.23999 28.1016 4.23438C27.0927 3.68311 25.6122 3.56298 24.5 4.45605C24.4855 4.46631 24.4699 4.47582 24.4561 4.4873C23.59 5.20543 23.3423 6.38224 23.542 7.31055L23.5898 7.5C23.7178 7.94333 23.9648 8.39362 24.374 8.75098H24.375C24.8571 9.17167 25.4725 9.38379 26.1377 9.38379L26.2793 9.37598C26.8852 9.31448 27.3757 8.86371 27.4971 8.27734C27.4947 8.5524 27.4627 8.86182 27.4004 9.20801C27.2876 9.83416 27.093 10.4353 26.9199 10.8877C26.835 11.1097 26.7573 11.2901 26.7021 11.4131C26.6739 11.476 26.6524 11.522 26.6396 11.5488C26.633 11.5628 26.6278 11.5734 26.625 11.5791C26.6219 11.5855 26.6189 11.5917 26.6162 11.5977M26.6016 11.6328C26.599 11.6391 26.5969 11.6442 26.5957 11.6475C26.5949 11.6498 26.5943 11.6519 26.5938 11.6533C26.5961 11.6467 26.6026 11.6297 26.6123 11.6074M26.6016 11.6328C26.6053 11.6244 26.6084 11.6157 26.6123 11.6074M26.6016 11.6328C26.6025 11.6304 26.6034 11.6277 26.6045 11.625C26.6074 11.618 26.6111 11.6086 26.6162 11.5977M26.6123 11.6074C26.6162 11.5993 26.62 11.5911 26.624 11.583C26.6215 11.5881 26.6183 11.5931 26.6162 11.5977M26.6123 11.6074C26.6137 11.6043 26.6147 11.6009 26.6162 11.5977M29.1445 12.7354C29.1458 12.7318 29.1483 12.7288 29.1494 12.7256L29.1543 12.709C29.1522 12.7159 29.1482 12.7246 29.1445 12.7354ZM29.1602 12.6875L29.1572 12.6982C29.1591 12.6917 29.1607 12.6861 29.1611 12.6846V12.6836C29.161 12.6839 29.1606 12.6857 29.1602 12.6875ZM26.4102 6.57812C26.3378 6.58057 26.2902 6.59632 26.2627 6.6084C26.2623 6.6096 26.263 6.6111 26.2627 6.6123C26.7041 6.65181 27.0853 6.89754 27.3105 7.25293C27.1884 6.99366 27.0078 6.80228 26.7744 6.6709V6.66992C26.6492 6.60014 26.5186 6.5745 26.4102 6.57812Z" fill="#171717" stroke="white" stroke-width="1.375" stroke-linecap="round" stroke-linejoin="round"/>
<path d="M27.8922 12.205C27.8922 12.205 30.4337 7.12443 27.4808 5.463C26.8225 5.0938 25.9449 5.07774 25.3689 5.55932C24.5877 6.20683 24.7043 7.99686 26.163 7.99686" stroke="#171717" stroke-width="1.375" stroke-linecap="round" stroke-linejoin="round"/>
<path d="M8.10142 26.9149C8.10142 26.9149 4.51886 43.2781 25.3756 45.6889C25.3756 45.6889 42.5006 47.596 44.0182 29.6146L43.6948 25.5692L8.88925 23.918L8.09313 26.9149H8.10142Z" fill="white"/>
<path d="M7.71094 28.7957L44.1087 31.3963C44.1087 31.3963 46.1736 14.1662 28.095 11.2271C28.095 11.2271 10.8457 8.32924 7.71094 28.7957Z" fill="#DCC3FF"/>
<path d="M10.7104 30.6605C10.7104 30.6605 16.6352 32.1783 12.8718 23.6523C12.8718 23.6523 7.91432 28.1347 10.7104 30.6605Z" fill="white"/>
<path d="M18.6949 23.5162C18.6949 23.5162 22.2655 24.9858 18.6886 17.0234C18.6886 17.0234 15.0257 22.4047 18.6949 23.5162Z" fill="white"/>
<path d="M43.956 31.2603C43.2511 41.0518 35.1074 46.5337 24.791 45.799C14.4745 45.0642 7.20162 38.476 7.90652 28.6844C8.72752 17.2995 16.9707 10.4636 27.2789 11.1984C37.5953 11.9331 44.7687 19.8753 43.9477 31.2603H43.956Z" stroke="#171717" stroke-width="1.375" stroke-linecap="round" stroke-linejoin="round"/>
<path d="M15.5006 10.6641L14.0742 19.4071" stroke="#171717" stroke-width="1.375" stroke-linecap="round" stroke-linejoin="round"/>
<path d="M37.3359 11.8164L37.535 22.5904" stroke="#171717" stroke-width="1.375" stroke-linecap="round" stroke-linejoin="round"/>
<path d="M31.4739 9.69922L31.25 22.1326" stroke="#171717" stroke-width="1.375" stroke-linecap="round" stroke-linejoin="round"/>
<path d="M23.3008 8.61719L23.9687 21.6038" stroke="#171717" stroke-width="1.375" stroke-linecap="round" stroke-linejoin="round"/>
<path d="M33.0983 32.0829C33.8495 32.0829 34.4584 31.4767 34.4584 30.729C34.4584 29.9812 33.8495 29.375 33.0983 29.375C32.3472 29.375 31.7383 29.9812 31.7383 30.729C31.7383 31.4767 32.3472 32.0829 33.0983 32.0829Z" fill="#171717"/>
<path d="M18.7975 31.0556C19.5487 31.0556 20.1576 30.4494 20.1576 29.7016C20.1576 28.9538 19.5487 28.3477 18.7975 28.3477C18.0464 28.3477 17.4375 28.9538 17.4375 29.7016C17.4375 30.4494 18.0464 31.0556 18.7975 31.0556Z" fill="#171717"/>
<path d="M21.1452 38.6138C21.1452 38.6138 22.5384 38.1267 25.4326 38.3331C28.3268 38.5395 28.783 39.1587 29.9606 39.0183C32.5231 38.7046 30.9391 34.4693 25.7312 34.2299C21.0125 34.0152 19.3788 35.6829 19.0719 36.2196C18.0933 37.9203 19.4119 39.0844 21.1534 38.6138H21.1452Z" fill="#FF96AD" stroke="#171717" stroke-width="1.375" stroke-linecap="round" stroke-linejoin="round"/>
<path d="M13.4183 25.7862C13.4183 25.7862 15.1358 30.9298 11.869 30.7601C7.73091 30.0539 12.569 23.6523 12.569 23.6523" stroke="#171717" stroke-width="1.375" stroke-linecap="round" stroke-linejoin="round"/>
<path d="M37.8393 32.187C37.8393 32.187 44.9481 32.8983 39.0292 25.0742C39.0292 25.0742 35.4924 28.5462 37.8393 32.187Z" fill="white"/>
<path d="M37.7186 27.1261C37.7186 27.1261 35.4698 31.4757 38.8856 32.1869C43.2937 32.187 39.4026 25.0742 39.4026 25.0742" stroke="#171717" stroke-width="1.375" stroke-linecap="round" stroke-linejoin="round"/>
<path d="M38.2898 37.6661C38.2898 37.6661 41.2504 38.888 39.9484 33.9922C39.9484 33.9922 36.6893 34.4463 38.2898 37.6661Z" fill="white"/>
<path d="M19.8002 18.9838C19.8002 18.9838 21.9852 23.5243 18.9203 23.6491C14.3303 23.8362 18.2018 17.1875 18.2018 17.1875" stroke="#171717" stroke-width="1.375" stroke-linecap="round" stroke-linejoin="round"/>
</g>
<defs>
<clipPath id="clip0_3486_33479">
<rect width="44" height="44" fill="white" transform="translate(4 4)"/>
</clipPath>
</defs>
</svg>
