<svg width="52" height="52" viewBox="0 0 52 52" fill="none" xmlns="http://www.w3.org/2000/svg">
<mask id="path-2-outside-1_1700_15352" maskUnits="userSpaceOnUse" x="3.63281" y="3.41406" width="44" height="45" fill="black">
<rect fill="white" x="3.63281" y="3.41406" width="44" height="45"/>
<path d="M22.9004 5.41504C23.3138 5.394 23.6661 5.71164 23.6875 6.125L23.7881 8.10449C24.2449 8.06394 24.6765 8.03791 25.0762 8.02637C25.9858 8.00012 26.7373 8.03577 27.2646 8.0791C27.5282 8.10077 27.7365 8.12513 27.8809 8.14355C27.953 8.15277 28.0105 8.16115 28.0498 8.16699C28.0687 8.1698 28.0838 8.17114 28.0947 8.17285C28.1001 8.1737 28.1051 8.17524 28.1084 8.17578H28.1123C28.4446 8.22981 28.7708 8.28872 29.0908 8.35156C29.6631 8.44106 30.2259 8.55108 30.7773 8.68262L30.8037 7.2959C30.8112 6.88201 31.1526 6.55155 31.5664 6.55859C31.9804 6.56605 32.311 6.90826 32.3037 7.32227L32.2715 9.09863C33.9802 9.64347 35.5688 10.3978 37.0098 11.3428L36.9775 9.54883C36.9703 9.13499 37.3009 8.7928 37.7148 8.78516C38.1285 8.77805 38.4699 9.10865 38.4775 9.52246L38.5303 12.4561C38.5615 12.4814 38.592 12.5086 38.623 12.5342C41.5174 14.8424 43.2578 17.6984 44.2842 20.4502C44.6505 21.4325 44.9249 22.3994 45.1299 23.3193L45.1338 23.3213L45.1357 23.3457C45.4597 24.8083 45.6079 26.1532 45.667 27.2568C45.7153 28.1599 45.7049 28.907 45.6816 29.4307C45.67 29.6922 45.6556 29.899 45.6436 30.042C45.6375 30.1135 45.6319 30.1702 45.6279 30.209C45.626 30.2279 45.6242 30.2432 45.623 30.2539C45.6225 30.2591 45.6224 30.2644 45.6221 30.2676V30.2715L45.5352 30.9824L45.374 30.9707C44.7964 35.9284 42.4249 39.8499 38.8516 42.4697C35.082 45.2333 30.0292 46.5126 24.4492 46.1152C18.8693 45.7177 14.0526 43.733 10.7178 40.4609C7.55651 37.3592 5.76988 33.1393 5.9082 28.1504L5.63281 28.1318L5.75586 27.3271C5.81419 26.9464 5.87897 26.5733 5.94629 26.207H5.9248L6.00684 25.8975C6.09256 25.4528 6.18465 25.019 6.2832 24.5957C7.16054 19.6448 9.42725 15.5986 12.666 12.7461C12.8769 12.5604 13.0919 12.3794 13.3105 12.2041L13.9639 8.20508C14.0307 7.79656 14.4166 7.51939 14.8252 7.58594C15.2335 7.65273 15.5104 8.03696 15.4443 8.44531L15.0303 10.9844C15.5334 10.6693 16.0525 10.378 16.5859 10.1123L16.7383 10.0361C17.2297 9.79304 17.7228 9.57836 18.2119 9.3877C19.6385 8.83161 21.0307 8.49467 22.2969 8.29199L22.1904 6.20117C22.1696 5.78789 22.4871 5.43639 22.9004 5.41504Z"/>
</mask>
<path d="M22.9004 5.41504C23.3138 5.394 23.6661 5.71164 23.6875 6.125L23.7881 8.10449C24.2449 8.06394 24.6765 8.03791 25.0762 8.02637C25.9858 8.00012 26.7373 8.03577 27.2646 8.0791C27.5282 8.10077 27.7365 8.12513 27.8809 8.14355C27.953 8.15277 28.0105 8.16115 28.0498 8.16699C28.0687 8.1698 28.0838 8.17114 28.0947 8.17285C28.1001 8.1737 28.1051 8.17524 28.1084 8.17578H28.1123C28.4446 8.22981 28.7708 8.28872 29.0908 8.35156C29.6631 8.44106 30.2259 8.55108 30.7773 8.68262L30.8037 7.2959C30.8112 6.88201 31.1526 6.55155 31.5664 6.55859C31.9804 6.56605 32.311 6.90826 32.3037 7.32227L32.2715 9.09863C33.9802 9.64347 35.5688 10.3978 37.0098 11.3428L36.9775 9.54883C36.9703 9.13499 37.3009 8.7928 37.7148 8.78516C38.1285 8.77805 38.4699 9.10865 38.4775 9.52246L38.5303 12.4561C38.5615 12.4814 38.592 12.5086 38.623 12.5342C41.5174 14.8424 43.2578 17.6984 44.2842 20.4502C44.6505 21.4325 44.9249 22.3994 45.1299 23.3193L45.1338 23.3213L45.1357 23.3457C45.4597 24.8083 45.6079 26.1532 45.667 27.2568C45.7153 28.1599 45.7049 28.907 45.6816 29.4307C45.67 29.6922 45.6556 29.899 45.6436 30.042C45.6375 30.1135 45.6319 30.1702 45.6279 30.209C45.626 30.2279 45.6242 30.2432 45.623 30.2539C45.6225 30.2591 45.6224 30.2644 45.6221 30.2676V30.2715L45.5352 30.9824L45.374 30.9707C44.7964 35.9284 42.4249 39.8499 38.8516 42.4697C35.082 45.2333 30.0292 46.5126 24.4492 46.1152C18.8693 45.7177 14.0526 43.733 10.7178 40.4609C7.55651 37.3592 5.76988 33.1393 5.9082 28.1504L5.63281 28.1318L5.75586 27.3271C5.81419 26.9464 5.87897 26.5733 5.94629 26.207H5.9248L6.00684 25.8975C6.09256 25.4528 6.18465 25.019 6.2832 24.5957C7.16054 19.6448 9.42725 15.5986 12.666 12.7461C12.8769 12.5604 13.0919 12.3794 13.3105 12.2041L13.9639 8.20508C14.0307 7.79656 14.4166 7.51939 14.8252 7.58594C15.2335 7.65273 15.5104 8.03696 15.4443 8.44531L15.0303 10.9844C15.5334 10.6693 16.0525 10.378 16.5859 10.1123L16.7383 10.0361C17.2297 9.79304 17.7228 9.57836 18.2119 9.3877C19.6385 8.83161 21.0307 8.49467 22.2969 8.29199L22.1904 6.20117C22.1696 5.78789 22.4871 5.43639 22.9004 5.41504Z" fill="#171717"/>
<path d="M22.9004 5.41504L22.8305 4.04182L22.8294 4.04187L22.9004 5.41504ZM23.6875 6.125L25.0607 6.05522L25.0607 6.05376L23.6875 6.125ZM23.7881 8.10449L22.4149 8.17427C22.4338 8.54747 22.6039 8.89687 22.8858 9.14207C23.1678 9.38727 23.5374 9.50715 23.9097 9.47411L23.7881 8.10449ZM25.0762 8.02637L25.0365 6.65194L25.0365 6.65194L25.0762 8.02637ZM27.2646 8.0791L27.3773 6.70872L27.3773 6.70872L27.2646 8.0791ZM27.8809 8.14355L28.055 6.77963L28.055 6.77962L27.8809 8.14355ZM28.0498 8.16699L27.8479 9.52709L27.8484 9.52716L28.0498 8.16699ZM28.0947 8.17285L28.3098 6.81477L28.3078 6.81446L28.0947 8.17285ZM28.1084 8.17578L27.8871 9.53286C27.9603 9.54479 28.0343 9.55078 28.1084 9.55078V8.17578ZM28.1123 8.17578L28.333 6.81861C28.26 6.80674 28.1862 6.80078 28.1123 6.80078V8.17578ZM29.0908 8.35156L28.8259 9.7008C28.8433 9.70422 28.8608 9.7073 28.8783 9.71005L29.0908 8.35156ZM30.7773 8.68262L30.4583 10.0201C30.8631 10.1167 31.29 10.0247 31.6191 9.76987C31.9482 9.51507 32.1442 9.1249 32.1521 8.70876L30.7773 8.68262ZM30.8037 7.2959L32.1785 7.32204L32.1785 7.32066L30.8037 7.2959ZM31.5664 6.55859L31.5912 5.18382L31.5898 5.18379L31.5664 6.55859ZM32.3037 7.32227L33.6785 7.34721L33.6785 7.34645L32.3037 7.32227ZM32.2715 9.09863L30.8967 9.07369C30.8857 9.68127 31.2748 10.224 31.8538 10.4086L32.2715 9.09863ZM37.0098 11.3428L36.2557 12.4926C36.6819 12.7721 37.2277 12.7929 37.674 12.5467C38.1202 12.3005 38.3937 11.8277 38.3845 11.3181L37.0098 11.3428ZM36.9775 9.54883L35.6028 9.57302L35.6028 9.57352L36.9775 9.54883ZM37.7148 8.78516L37.6912 7.41036L37.6894 7.41039L37.7148 8.78516ZM38.4775 9.52246L39.8523 9.49775L39.8523 9.49706L38.4775 9.52246ZM38.5303 12.4561L37.1555 12.4808C37.1628 12.8857 37.3482 13.2668 37.6623 13.5224L38.5303 12.4561ZM38.623 12.5342L37.748 13.5948C37.7539 13.5996 37.7598 13.6044 37.7657 13.6092L38.623 12.5342ZM44.2842 20.4502L45.5725 19.9697L45.5725 19.9697L44.2842 20.4502ZM45.1299 23.3193L43.7878 23.6183C43.8778 24.0222 44.1448 24.3641 44.515 24.5492L45.1299 23.3193ZM45.1338 23.3213L46.5044 23.2116C46.466 22.7317 46.1794 22.3068 45.7487 22.0915L45.1338 23.3213ZM45.1357 23.3457L43.7651 23.4554C43.7702 23.5185 43.7796 23.5812 43.7933 23.6431L45.1357 23.3457ZM45.667 27.2568L47.04 27.1834V27.1833L45.667 27.2568ZM45.6816 29.4307L47.0553 29.4916L47.0553 29.4916L45.6816 29.4307ZM45.6436 30.042L47.0137 30.1576L47.0137 30.1576L45.6436 30.042ZM45.6279 30.209L46.9957 30.3494L46.9957 30.3494L45.6279 30.209ZM45.623 30.2539L46.9896 30.4063L46.9897 30.4048L45.623 30.2539ZM45.6221 30.2676L44.2562 30.1096C44.2501 30.1621 44.2471 30.2148 44.2471 30.2676H45.6221ZM45.6221 30.2715L46.9869 30.4383C46.9937 30.383 46.9971 30.3273 46.9971 30.2715H45.6221ZM45.5352 30.9824L45.4354 32.3538C46.1667 32.407 46.811 31.877 46.9 31.1493L45.5352 30.9824ZM45.374 30.9707L45.4738 29.5993C44.7395 29.5459 44.0935 30.0803 44.0083 30.8116L45.374 30.9707ZM38.8516 42.4697L39.6645 43.5786L39.6646 43.5786L38.8516 42.4697ZM24.4492 46.1152L24.3515 47.4868H24.3515L24.4492 46.1152ZM10.7178 40.4609L9.75478 41.4424L9.75478 41.4424L10.7178 40.4609ZM5.9082 28.1504L7.28267 28.1885C7.30313 27.4505 6.7372 26.8281 6.00064 26.7785L5.9082 28.1504ZM5.63281 28.1318L4.27361 27.924C4.21544 28.3044 4.31936 28.6918 4.56011 28.992C4.80086 29.2923 5.15641 29.4779 5.54038 29.5037L5.63281 28.1318ZM5.75586 27.3271L4.39672 27.1189L4.39666 27.1193L5.75586 27.3271ZM5.94629 26.207L7.29863 26.4556C7.37243 26.0542 7.26404 25.6407 7.0028 25.327C6.74156 25.0134 6.35448 24.832 5.94629 24.832V26.207ZM5.9248 26.207L4.59568 25.8548C4.48635 26.2674 4.57481 26.7073 4.8351 27.0456C5.09539 27.3838 5.498 27.582 5.9248 27.582V26.207ZM6.00684 25.8975L7.33596 26.2497C7.34402 26.2193 7.35103 26.1886 7.35698 26.1577L6.00684 25.8975ZM6.2832 24.5957L7.62239 24.9075C7.62793 24.8837 7.63284 24.8597 7.63711 24.8356L6.2832 24.5957ZM12.666 12.7461L11.7573 11.7142L11.7572 11.7142L12.666 12.7461ZM13.3105 12.2041L14.1705 13.277C14.4357 13.0644 14.6128 12.7612 14.6676 12.4258L13.3105 12.2041ZM13.9639 8.20508L12.6069 7.98296L12.6069 7.98338L13.9639 8.20508ZM14.8252 7.58594L15.0472 6.22897L15.0462 6.22882L14.8252 7.58594ZM15.4443 8.44531L16.8014 8.66662L16.8017 8.66503L15.4443 8.44531ZM15.0303 10.9844L13.6732 10.7631C13.5863 11.2961 13.8195 11.8307 14.2693 12.1296C14.7191 12.4285 15.3023 12.4364 15.76 12.1498L15.0303 10.9844ZM16.5859 10.1123L17.199 11.3431L17.2009 11.3421L16.5859 10.1123ZM16.7383 10.0361L16.1286 8.80367L16.1234 8.8063L16.7383 10.0361ZM18.2119 9.3877L17.7125 8.10658L17.7125 8.1066L18.2119 9.3877ZM22.2969 8.29199L22.5142 9.64971C23.2075 9.53873 23.7058 8.92327 23.6701 8.22208L22.2969 8.29199ZM22.1904 6.20117L20.8172 6.27044L20.8172 6.27108L22.1904 6.20117ZM22.9004 5.41504L22.9703 6.78826C22.6263 6.80577 22.3322 6.54125 22.3143 6.19624L23.6875 6.125L25.0607 6.05376C24.9999 4.88203 24.0012 3.98224 22.8305 4.04182L22.9004 5.41504ZM23.6875 6.125L22.3143 6.19478L22.4149 8.17427L23.7881 8.10449L25.1613 8.03471L25.0607 6.05522L23.6875 6.125ZM23.7881 8.10449L23.9097 9.47411C24.3427 9.43567 24.7467 9.41145 25.1159 9.40079L25.0762 8.02637L25.0365 6.65194C24.6063 6.66436 24.1472 6.69221 23.6665 6.73488L23.7881 8.10449ZM25.0762 8.02637L25.1158 9.40079C25.9684 9.37619 26.6688 9.40977 27.152 9.44948L27.2646 8.0791L27.3773 6.70872C26.8059 6.66177 26.0031 6.62404 25.0365 6.65194L25.0762 8.02637ZM27.2646 8.0791L27.152 9.44948C27.3902 9.46906 27.5774 9.49097 27.7067 9.50749L27.8809 8.14355L28.055 6.77962C27.8956 6.75928 27.6662 6.73247 27.3773 6.70872L27.2646 8.0791ZM27.8809 8.14355L27.7067 9.50748C27.7656 9.51501 27.8128 9.52187 27.8479 9.52709L28.0498 8.16699L28.2517 6.80689C28.2081 6.80043 28.1404 6.79053 28.055 6.77963L27.8809 8.14355ZM28.0498 8.16699L27.8484 9.52716C27.8779 9.53153 27.9024 9.53445 27.9114 9.53553C27.9143 9.53588 27.9146 9.53592 27.9156 9.53603C27.9161 9.5361 27.915 9.53597 27.9132 9.53573C27.9113 9.53549 27.9075 9.53501 27.9026 9.53433C27.8977 9.53365 27.8905 9.53263 27.8817 9.53124L28.0947 8.17285L28.3078 6.81446C28.2858 6.81101 28.2676 6.80866 28.2584 6.80749C28.2496 6.80637 28.2402 6.80526 28.2392 6.80514C28.2331 6.80441 28.2406 6.80526 28.2512 6.80683L28.0498 8.16699ZM28.0947 8.17285L27.8797 9.53093C27.8507 9.52635 27.8271 9.52162 27.8113 9.51824C27.8033 9.51652 27.7966 9.515 27.7917 9.51388C27.787 9.51279 27.7834 9.51193 27.7821 9.51161C27.7814 9.51146 27.781 9.51135 27.7813 9.51142C27.7813 9.51143 27.7823 9.51168 27.7834 9.51194C27.7855 9.51243 27.7911 9.51377 27.7981 9.51538C27.8051 9.51699 27.8163 9.51951 27.8301 9.52235C27.8437 9.52515 27.8634 9.52899 27.8871 9.53286L28.1084 8.17578L28.3297 6.8187C28.3526 6.82244 28.3714 6.82611 28.3841 6.82872C28.3969 6.83137 28.4072 6.83368 28.4132 6.83505C28.4192 6.83643 28.4237 6.83751 28.4246 6.83774C28.4252 6.83787 28.4256 6.83798 28.4251 6.83786C28.4249 6.8378 28.4238 6.83754 28.4226 6.83725C28.4201 6.83666 28.4153 6.83551 28.4093 6.83413C28.4033 6.83274 28.3953 6.83094 28.386 6.82895C28.3676 6.82502 28.3414 6.81978 28.3098 6.81477L28.0947 8.17285ZM28.1084 8.17578V9.55078H28.1123V8.17578V6.80078H28.1084V8.17578ZM28.1123 8.17578L27.8916 9.53296C28.2083 9.58445 28.5198 9.64069 28.8259 9.7008L29.0908 8.35156L29.3558 7.00233C29.0218 6.93676 28.6808 6.87516 28.333 6.81861L28.1123 8.17578ZM29.0908 8.35156L28.8783 9.71005C29.4167 9.79425 29.944 9.89739 30.4583 10.0201L30.7773 8.68262L31.0964 7.34515C30.5079 7.20476 29.9094 7.08788 29.3033 6.99308L29.0908 8.35156ZM30.7773 8.68262L32.1521 8.70876L32.1785 7.32204L30.8037 7.2959L29.429 7.26976L29.4026 8.65648L30.7773 8.68262ZM30.8037 7.2959L32.1785 7.32066C32.1723 7.66353 31.8899 7.9393 31.543 7.93339L31.5664 6.55859L31.5898 5.18379C30.4153 5.16381 29.45 6.10049 29.4289 7.27114L30.8037 7.2959ZM31.5664 6.55859L31.5416 7.93337C31.1974 7.92717 30.9228 7.64392 30.9289 7.29808L32.3037 7.32227L33.6785 7.34645C33.6992 6.17261 32.7635 5.20493 31.5912 5.18382L31.5664 6.55859ZM32.3037 7.32227L30.9289 7.29732L30.8967 9.07369L32.2715 9.09863L33.6463 9.12357L33.6785 7.34721L32.3037 7.32227ZM32.2715 9.09863L31.8538 10.4086C33.4471 10.9167 34.9222 11.618 36.2557 12.4926L37.0098 11.3428L37.7638 10.193C36.2155 9.17759 34.5132 8.37023 32.6892 7.78862L32.2715 9.09863ZM37.0098 11.3428L38.3845 11.3181L38.3523 9.52413L36.9775 9.54883L35.6028 9.57352L35.635 11.3675L37.0098 11.3428ZM36.9775 9.54883L38.3523 9.52464C38.3584 9.87117 38.0835 10.1536 37.7402 10.1599L37.7148 8.78516L37.6894 7.41039C36.5183 7.43203 35.5821 8.3988 35.6028 9.57302L36.9775 9.54883ZM37.7148 8.78516L37.7385 10.16C37.3905 10.1659 37.1091 9.88954 37.1028 9.54786L38.4775 9.52246L39.8523 9.49706C39.8307 8.32775 38.8666 7.39017 37.6912 7.41036L37.7148 8.78516ZM38.4775 9.52246L37.1028 9.54717L37.1555 12.4808L38.5303 12.4561L39.9051 12.4313L39.8523 9.49775L38.4775 9.52246ZM38.5303 12.4561L37.6623 13.5224C37.6639 13.5238 37.6682 13.5274 37.6841 13.5409C37.6962 13.5512 37.7216 13.573 37.748 13.5948L38.623 12.5342L39.4981 11.4736C39.4935 11.4697 39.4881 11.4652 39.4694 11.4492C39.4544 11.4364 39.4278 11.4137 39.3983 11.3897L38.5303 12.4561ZM38.623 12.5342L37.7657 13.6092C40.4293 15.7334 42.039 18.3654 42.9959 20.9307L44.2842 20.4502L45.5725 19.9697C44.4765 17.0314 42.6055 13.9515 39.4804 11.4592L38.623 12.5342ZM44.2842 20.4502L42.9959 20.9307C43.3377 21.8471 43.5949 22.7527 43.7878 23.6183L45.1299 23.3193L46.472 23.0204C46.255 22.0461 45.9634 21.0179 45.5725 19.9697L44.2842 20.4502ZM45.1299 23.3193L44.515 24.5492L44.5189 24.5511L45.1338 23.3213L45.7487 22.0915L45.7448 22.0895L45.1299 23.3193ZM45.1338 23.3213L43.7632 23.4309L43.7651 23.4554L45.1357 23.3457L46.5064 23.2361L46.5044 23.2116L45.1338 23.3213ZM45.1357 23.3457L43.7933 23.6431C44.0982 25.0196 44.2382 26.2883 44.294 27.3303L45.667 27.2568L47.04 27.1833C46.9777 26.0181 46.8212 24.5969 46.4782 23.0483L45.1357 23.3457ZM45.667 27.2568L44.294 27.3303C44.3396 28.1831 44.3295 28.8849 44.308 29.3698L45.6816 29.4307L47.0553 29.4916C47.0802 28.929 47.091 28.1368 47.04 27.1834L45.667 27.2568ZM45.6816 29.4307L44.308 29.3697C44.2972 29.6133 44.2839 29.8019 44.2734 29.9264L45.6436 30.042L47.0137 30.1576C47.0273 29.9961 47.0429 29.7711 47.0553 29.4916L45.6816 29.4307ZM45.6436 30.042L44.2734 29.9263C44.2683 29.9872 44.2635 30.0353 44.2601 30.0686L45.6279 30.209L46.9957 30.3494C47.0003 30.3051 47.0068 30.2397 47.0137 30.1576L45.6436 30.042ZM45.6279 30.209L44.2601 30.0686C44.2596 30.0735 44.2591 30.0785 44.2585 30.0838C44.2582 30.0865 44.2579 30.0892 44.2575 30.0924C44.2572 30.0951 44.2568 30.0992 44.2564 30.103L45.623 30.2539L46.9897 30.4048C46.9902 30.4006 46.9931 30.3753 46.9957 30.3494L45.6279 30.209ZM45.623 30.2539L44.2565 30.1015C44.2537 30.1265 44.2521 30.1472 44.2511 30.161C44.2502 30.1746 44.2496 30.1855 44.2494 30.1885C44.2494 30.1893 44.2493 30.1901 44.2493 30.1902C44.2493 30.1905 44.2493 30.1901 44.2494 30.1896C44.2494 30.1886 44.2496 30.1849 44.2499 30.1799C44.2502 30.175 44.2508 30.1665 44.2516 30.1558C44.2525 30.1454 44.2539 30.1293 44.2562 30.1096L45.6221 30.2676L46.988 30.4255C46.9903 30.4051 46.9918 30.3882 46.9927 30.3768C46.9937 30.3652 46.9943 30.3557 46.9947 30.3498C46.995 30.3438 46.9953 30.339 46.9954 30.3369C46.9955 30.3358 46.9955 30.3349 46.9955 30.3346C46.9956 30.3341 46.9956 30.3343 46.9955 30.3345C46.9955 30.3352 46.9951 30.3436 46.9943 30.3546C46.9935 30.3659 46.9921 30.3839 46.9896 30.4063L45.623 30.2539ZM45.6221 30.2676H44.2471V30.2715H45.6221H46.9971V30.2676H45.6221ZM45.6221 30.2715L44.2572 30.1046L44.1703 30.8156L45.5352 30.9824L46.9 31.1493L46.9869 30.4383L45.6221 30.2715ZM45.5352 30.9824L45.6349 29.611L45.4738 29.5993L45.374 30.9707L45.2743 32.3421L45.4354 32.3538L45.5352 30.9824ZM45.374 30.9707L44.0083 30.8116C43.474 35.3974 41.2974 38.9716 38.0386 41.3608L38.8516 42.4697L39.6646 43.5786C43.5525 40.7282 46.1188 36.4593 46.7398 31.1298L45.374 30.9707ZM38.8516 42.4697L38.0386 41.3608C34.5813 43.8955 29.8685 45.1227 24.5469 44.7437L24.4492 46.1152L24.3515 47.4868C30.1898 47.9025 35.5828 46.5711 39.6645 43.5786L38.8516 42.4697ZM24.4492 46.1152L24.5469 44.7437C19.2257 44.3646 14.7388 42.48 11.6808 39.4795L10.7178 40.4609L9.75478 41.4424C13.3663 44.9859 18.5128 47.0708 24.3515 47.4868L24.4492 46.1152ZM10.7178 40.4609L11.6808 39.4795C8.79805 36.651 7.15474 32.803 7.28267 28.1885L5.9082 28.1504L4.53373 28.1123C4.38503 33.4756 6.31497 38.0673 9.75478 41.4424L10.7178 40.4609ZM5.9082 28.1504L6.00064 26.7785L5.72524 26.7599L5.63281 28.1318L5.54038 29.5037L5.81577 29.5223L5.9082 28.1504ZM5.63281 28.1318L6.99201 28.3397L7.11506 27.535L5.75586 27.3271L4.39666 27.1193L4.27361 27.924L5.63281 28.1318ZM5.75586 27.3271L7.115 27.5354C7.17067 27.172 7.23293 26.813 7.29863 26.4556L5.94629 26.207L4.59395 25.9584C4.52501 26.3335 4.45772 26.7207 4.39672 27.1189L5.75586 27.3271ZM5.94629 26.207V24.832H5.9248V26.207V27.582H5.94629V26.207ZM5.9248 26.207L7.25393 26.5592L7.33596 26.2497L6.00684 25.8975L4.67771 25.5453L4.59568 25.8548L5.9248 26.207ZM6.00684 25.8975L7.35698 26.1577C7.43951 25.7296 7.52798 25.313 7.62239 24.9075L6.2832 24.5957L4.94402 24.2839C4.84133 24.725 4.7456 25.176 4.65669 25.6372L6.00684 25.8975ZM6.2832 24.5957L7.63711 24.8356C8.46482 20.1647 10.5895 16.4072 13.5748 13.7779L12.666 12.7461L11.7572 11.7142C8.26504 14.7899 5.85625 19.1248 4.9293 24.3558L6.2832 24.5957ZM12.666 12.7461L13.5748 13.778C13.7704 13.6057 13.9691 13.4384 14.1705 13.277L13.3105 12.2041L12.4506 11.1312C12.2146 11.3203 11.9834 11.5151 11.7573 11.7142L12.666 12.7461ZM13.3105 12.2041L14.6676 12.4258L15.3209 8.42677L13.9639 8.20508L12.6069 7.98338L11.9535 11.9824L13.3105 12.2041ZM13.9639 8.20508L15.3208 8.4272C15.2649 8.7687 14.9436 8.99834 14.6042 8.94306L14.8252 7.58594L15.0462 6.22882C13.8896 6.04044 12.7966 6.82442 12.6069 7.98296L13.9639 8.20508ZM14.8252 7.58594L14.6032 8.9429C14.2637 8.88737 14.0318 8.56675 14.087 8.2256L15.4443 8.44531L16.8017 8.66503C16.9891 7.50717 16.2033 6.4181 15.0472 6.22897L14.8252 7.58594ZM15.4443 8.44531L14.0873 8.22401L13.6732 10.7631L15.0303 10.9844L16.3873 11.2057L16.8014 8.66662L15.4443 8.44531ZM15.0303 10.9844L15.76 12.1498C16.2257 11.8581 16.7059 11.5887 17.199 11.3431L16.5859 10.1123L15.9729 8.88153C15.3991 9.16735 14.8411 9.48053 14.3005 9.81899L15.0303 10.9844ZM16.5859 10.1123L17.2009 11.3421L17.3532 11.266L16.7383 10.0361L16.1234 8.8063L15.971 8.88247L16.5859 10.1123ZM16.7383 10.0361L17.3479 11.2686C17.8001 11.0449 18.2562 10.8462 18.7113 10.6688L18.2119 9.3877L17.7125 8.1066C17.1895 8.3105 16.6593 8.54118 16.1286 8.80368L16.7383 10.0361ZM18.2119 9.3877L18.7113 10.6688C20.0315 10.1542 21.3267 9.8398 22.5142 9.64971L22.2969 8.29199L22.0795 6.93428C20.7347 7.14955 19.2456 7.50902 17.7125 8.10658L18.2119 9.3877ZM22.2969 8.29199L23.6701 8.22208L23.5637 6.13126L22.1904 6.20117L20.8172 6.27108L20.9237 8.3619L22.2969 8.29199ZM22.1904 6.20117L23.5637 6.13191C23.5811 6.47681 23.3153 6.77043 22.9713 6.78821L22.9004 5.41504L22.8294 4.04187C21.6588 4.10236 20.7581 5.09898 20.8172 6.27044L22.1904 6.20117Z" fill="white" mask="url(#path-2-outside-1_1700_15352)"/>
<path d="M6.91104 25.4569C6.91104 25.4569 3.13347 42.7109 25.1256 45.2529C25.1256 45.2529 43.1828 47.2638 44.783 28.3036L44.442 24.0379L7.74176 22.2969L6.9023 25.4569H6.91104Z" fill="white"/>
<path d="M6.5 27.4473L44.8791 30.1894C44.8791 30.1894 47.0565 12.0214 27.9937 8.92225C27.9937 8.92225 9.80538 5.86667 6.5 27.4473Z" fill="#DCC3FF"/>
<path d="M9.66323 29.417C9.66323 29.417 15.9105 31.0175 11.9422 22.0273C11.9422 22.0273 6.7149 26.7537 9.66323 29.417Z" fill="white"/>
<path d="M18.065 21.8774C18.065 21.8774 21.83 23.427 18.0584 15.0312C18.0584 15.0312 14.1961 20.7055 18.065 21.8774Z" fill="white"/>
<path d="M44.7139 30.0428C43.9707 40.3674 35.3837 46.1477 24.5056 45.373C13.6276 44.5982 5.95878 37.6513 6.70206 27.3267C7.56775 15.3221 16.2597 8.11402 27.129 8.8888C38.007 9.66357 45.5709 18.0381 44.7052 30.0428H44.7139Z" stroke="#171717" stroke-width="1.375" stroke-linecap="round" stroke-linejoin="round"/>
<path d="M14.7072 8.32812L13.2031 17.5471" stroke="#171717" stroke-width="1.375" stroke-linecap="round" stroke-linejoin="round"/>
<path d="M37.7305 9.53516L37.9403 20.8956" stroke="#171717" stroke-width="1.375" stroke-linecap="round" stroke-linejoin="round"/>
<path d="M31.5564 7.30859L31.3203 20.4189" stroke="#171717" stroke-width="1.375" stroke-linecap="round" stroke-linejoin="round"/>
<path d="M22.9414 6.16406L23.6457 19.8576" stroke="#171717" stroke-width="1.375" stroke-linecap="round" stroke-linejoin="round"/>
<path d="M33.27 30.9061C34.062 30.9061 34.7041 30.2669 34.7041 29.4785C34.7041 28.69 34.062 28.0508 33.27 28.0508C32.478 28.0508 31.8359 28.69 31.8359 29.4785C31.8359 30.2669 32.478 30.9061 33.27 30.9061Z" fill="#171717"/>
<path d="M18.1763 29.828C18.9683 29.828 19.6103 29.1888 19.6103 28.4003C19.6103 27.6118 18.9683 26.9727 18.1763 26.9727C17.3842 26.9727 16.7422 27.6118 16.7422 28.4003C16.7422 29.1888 17.3842 29.828 18.1763 29.828Z" fill="#171717"/>
<path d="M20.6746 37.7949C20.6746 37.7949 22.1437 37.2813 25.1955 37.4989C28.2473 37.7165 28.7282 38.3694 29.9699 38.2214C32.6719 37.8906 31.0017 33.4248 25.5103 33.1723C20.5347 32.946 18.8121 34.7045 18.4885 35.2703C17.4567 37.0636 18.847 38.2911 20.6834 37.7949H20.6746Z" fill="#FF96AD" stroke="#171717" stroke-width="1.375" stroke-linecap="round" stroke-linejoin="round"/>
<path d="M12.5117 24.2773C12.5117 24.2773 14.3228 29.701 10.8781 29.522C6.51472 28.7773 11.6162 22.0273 11.6162 22.0273" stroke="#171717" stroke-width="1.375" stroke-linecap="round" stroke-linejoin="round"/>
<path d="M38.262 31.0273C38.262 31.0273 45.7578 31.7773 39.5167 23.5273C39.5167 23.5273 35.7874 27.1883 38.262 31.0273Z" fill="white"/>
<path d="M38.1332 25.691C38.1332 25.691 35.7619 30.2773 39.3637 31.0272C44.0117 31.0273 39.9088 23.5273 39.9088 23.5273" stroke="#171717" stroke-width="1.375" stroke-linecap="round" stroke-linejoin="round"/>
<path d="M38.7592 36.7997C38.7592 36.7997 41.881 38.0881 40.5081 32.9258C40.5081 32.9258 37.0716 33.4046 38.7592 36.7997Z" fill="white"/>
<path d="M19.2515 17.1011C19.2515 17.1011 21.5555 21.8888 18.3237 22.0203C13.4839 22.2176 17.5661 15.207 17.5661 15.207" stroke="#171717" stroke-width="1.375" stroke-linecap="round" stroke-linejoin="round"/>
</svg>
