<svg width="32" height="32" viewBox="0 0 32 32" fill="none" xmlns="http://www.w3.org/2000/svg">
<g clip-path="url(#clip0_3486_28296)">
<path d="M21.0033 14.0019L24.4994 9.50194L15.9999 2.00113L12.7534 6.12448L21.0033 14.0019Z" fill="#91E2F4"/>
<path d="M23.5 11.0039L15.0001 3.49914L17.5034 0.502985L22 4L25.5 7.50391L23.5 11.0039Z" fill="#FFEB78"/>
<path d="M12.0294 24.4751L21.9992 12.4995L13.5 4.99963L3.4999 16.9994L12.0294 24.4751Z" fill="#BEF0A3"/>
<path d="M9.09408 22.144L19.0979 10.5537L16.1201 7.32958L5.90279 19.1451L9.09408 22.144Z" fill="#BEF0A3"/>
<path d="M3.5 17L1.99902 26.4972L3.50039 27.001L12.0007 23.9999L3.78224 16.7436L3.5 17Z" fill="white"/>
<path d="M17.1824 1.22397C17.5131 0.832763 18.0901 0.793304 18.471 1.13584L25.0453 7.04756C25.4263 7.3901 25.4669 7.98492 25.1362 8.37613L11.7518 24.2077L3.79797 17.0555L17.1824 1.22397Z" stroke="#171717" stroke-linejoin="round"/>
<path d="M3.79297 17.0586L2.31969 26.3482C2.25397 26.7626 2.63485 27.1051 3.02397 26.9815L11.7468 24.2107" stroke="#171717" stroke-linecap="round" stroke-linejoin="round"/>
<path d="M5.47599 25.841L3.08984 23.6953L2.53501 26.8356L5.47599 25.841Z" fill="#171717"/>
<path d="M15.7422 3.76562L22.9006 10.2026" stroke="#171717" stroke-linecap="round" stroke-linejoin="round"/>
<path d="M13.9961 5.83203L21.1545 12.269" stroke="#171717" stroke-linecap="round" stroke-linejoin="round"/>
<path d="M15.9805 7.62109L6.19217 19.199" stroke="#171717" stroke-linecap="round" stroke-linejoin="round"/>
<path d="M19.1562 10.4844L9.36795 22.0623" stroke="#171717" stroke-linecap="round" stroke-linejoin="round"/>
<path d="M30.6992 27.8007C25.1641 26.2169 19.106 26.2207 20.143 29.6737C21.1798 33.1263 10.0875 31.8005 7.45172 29.1486" stroke="#171717" stroke-linecap="round" stroke-linejoin="round"/>
</g>
<defs>
<clipPath id="clip0_3486_28296">
<rect width="32" height="32" fill="white"/>
</clipPath>
</defs>
</svg>
