<svg width="52" height="52" viewBox="0 0 52 52" fill="none" xmlns="http://www.w3.org/2000/svg">
<g opacity="0.4">
<path d="M9.00781 29.9013C9.00781 21.3696 15.7199 14.3543 24.3021 13.5254C26.3635 13.5398 30.8589 13.7845 32.3485 14.6474C38.5854 17.0836 42.9928 22.987 42.9928 29.9013C42.9928 38.9888 35.3911 46.358 26.0003 46.358C16.6094 46.358 9.00781 38.9888 9.00781 29.9013Z" fill="white" stroke="white" stroke-width="6" stroke-linecap="round"/>
<path d="M27.9405 16.415C26.2372 14.2844 27.1807 11.0986 27.4628 10.4766C28.415 8.64644 29.3127 8.45451 30.2794 8.46714C31.245 8.47882 32.2435 9.03309 32.4103 9.87993" stroke="white" stroke-width="6" stroke-linecap="round"/>
<path d="M30.4724 11.8747C30.0533 11.293 29.0824 10.5451 27.3255 11.0595" stroke="white" stroke-width="6" stroke-linecap="round"/>
<path d="M27.9366 16.417C26.2333 14.2863 27.1768 11.1006 27.4589 10.4785C28.4111 8.64839 29.3088 8.45646 30.2755 8.4691C31.2411 8.48078 32.2396 9.03505 32.4064 9.88188" stroke="#464646" stroke-width="1.41601" stroke-linecap="round"/>
<path d="M30.4685 11.8747C30.0494 11.293 29.0785 10.5451 27.3216 11.0595" stroke="#464646" stroke-width="1.41601" stroke-linecap="round"/>
<path d="M9.00781 29.9013C9.00781 21.3696 15.7199 14.3543 24.3021 13.5254C26.3635 13.5398 30.8589 13.7845 32.3485 14.6474C38.5854 17.0836 42.9928 22.987 42.9928 29.9013C42.9928 38.9888 35.3911 46.358 26.0003 46.358C16.6094 46.358 9.00781 38.9888 9.00781 29.9013Z" fill="white" stroke="#464646" stroke-width="1.41601" stroke-linecap="round"/>
<path d="M33.3997 28.0773C33.3997 30.4308 30.0599 32.3386 25.9401 32.3386C21.8203 32.3386 18.4805 30.4308 18.4805 28.0773C18.4805 25.7239 21.798 24.1309 25.9178 24.1309C30.0376 24.1309 33.3997 25.7239 33.3997 28.0773Z" fill="#C6C6C6"/>
<path d="M18.4667 29.4978C19.1645 29.4978 19.7303 28.9321 19.7303 28.2343C19.7303 27.5364 19.1645 26.9707 18.4667 26.9707C17.7688 26.9707 17.2031 27.5364 17.2031 28.2343C17.2031 28.9321 17.7688 29.4978 18.4667 29.4978Z" fill="#464646"/>
<path d="M33.5448 29.4978C34.2427 29.4978 34.8084 28.9321 34.8084 28.2343C34.8084 27.5364 34.2427 26.9707 33.5448 26.9707C32.847 26.9707 32.2812 27.5364 32.2812 28.2343C32.2812 28.9321 32.847 29.4978 33.5448 29.4978Z" fill="#464646"/>
<path d="M18.9115 36.4549C18.9115 36.4549 26.0963 33.137 33.2162 36.457" stroke="#464646" stroke-width="1.41601" stroke-miterlimit="10" stroke-linecap="round"/>
</g>
</svg>
