<svg width="200" height="120" viewBox="0 0 200 120" fill="none" xmlns="http://www.w3.org/2000/svg">
<path d="M149.969 18.7227C147.226 15.2935 153.269 11.5652 156.236 16.0064C159.195 20.4592 153.469 26.2225 153.469 26.2225" stroke="#171717" stroke-width="1.6" stroke-linecap="round" stroke-linejoin="round"/>
<path d="M169.602 97.954C169.602 97.954 170.731 106.267 178.913 106.527C188.341 106.817 194.134 91.8428 180.506 84.2109" fill="white"/>
<path d="M169.602 97.954C169.602 97.954 170.731 106.267 178.913 106.527C188.341 106.817 194.134 91.8428 180.506 84.2109" stroke="#171717" stroke-width="1.39024" stroke-linecap="round" stroke-linejoin="round"/>
<path d="M190.655 76.7691C184.732 100.128 160.649 114.508 136.884 108.904C113.12 103.299 98.6525 79.8102 104.59 56.4513C110.513 33.0924 134.596 18.7121 158.36 24.3165C182.125 29.9209 196.592 53.4101 190.669 76.7691H190.655Z" fill="white" stroke="#171717" stroke-width="1.6" stroke-linecap="round" stroke-linejoin="round"/>
<path d="M136.148 89.7187C136.148 89.7187 137.626 98.2774 146.271 98.8132C156.22 99.4359 161.824 84.346 147.155 76.0625" fill="white"/>
<path d="M136.148 89.7187C136.148 89.7187 137.626 98.2774 146.271 98.8132C156.22 99.4359 161.824 84.346 147.155 76.0625" stroke="#171717" stroke-width="1.6" stroke-linecap="round" stroke-linejoin="round"/>
<path d="M122.062 53.6289C122.062 53.6289 134.879 56.5687 136.573 70.5869C137.297 76.5389 136.312 85.0831 127.261 90.1372" fill="white"/>
<path d="M96.3979 67.6159C96.3979 67.6159 106.245 63.619 111.111 67.8477C114.123 71.6419 109.287 73.2638 109.431 75.5374C109.88 82.3728 106.709 88.7447 94.3125 85.4863" fill="white"/>
<path d="M96.3979 67.6159C96.3979 67.6159 106.245 63.619 111.111 67.8477C114.123 71.6419 109.287 73.2638 109.431 75.5374C109.88 82.3728 106.709 88.7447 94.3125 85.4863" stroke="#171717" stroke-width="1.39024" stroke-linecap="round" stroke-linejoin="round"/>
<path d="M42.9826 24.1865C38.7395 23.0569 41.6214 16.6995 46.6465 18.5097C51.6716 20.3344 50.9331 27.2711 50.9331 27.2711" stroke="#171717" stroke-width="1.6" stroke-linecap="round" stroke-linejoin="round"/>
<path d="M56.6631 27.1404C29.8286 25.3591 9.6846 45.6334 8.09162 69.9482C6.49864 94.2629 25.8751 113.552 50.8994 115.189C75.9237 116.825 97.1394 100.171 98.7324 75.8712C100.325 51.5564 84.2217 29.9208 56.6631 27.1548V27.1404Z" fill="white"/>
<path d="M56.6631 27.1404C29.8286 25.3591 9.6846 45.6334 8.09162 69.9482C6.49863 94.2629 25.8751 113.552 50.8994 115.189C75.9237 116.825 97.1394 100.171 98.7324 75.8712C100.325 51.5564 84.2217 29.9208 56.6631 27.1548V27.1404Z" stroke="#171717" stroke-width="1.6" stroke-linecap="round" stroke-linejoin="round"/>
<path d="M75.5419 43.7227C75.093 44.0702 74.6875 44.3454 74.3399 44.5916C73.8765 44.9102 73.4421 45.1274 73.08 45.3446C72.6456 45.6053 72.2256 45.808 71.7911 46.0542C71.4146 46.2714 71.0236 46.5466 70.5457 46.8507C70.1837 47.0824 69.8072 47.3865 69.3438 47.7196" stroke="#171717" stroke-width="1.6" stroke-linecap="round" stroke-linejoin="round"/>
<path d="M47.2736 45.4036C46.9985 44.9112 46.7668 44.4767 46.5351 44.1147C46.2309 43.6368 45.9848 43.2313 45.7241 42.8693C45.4344 42.4638 45.1448 42.1017 44.8407 41.6963C44.5945 41.3487 44.2614 41.0011 43.9573 40.5088C43.7401 40.1467 43.4939 39.7268 43.2188 39.2344" stroke="#171717" stroke-width="1.6" stroke-linecap="round" stroke-linejoin="round"/>
<path d="M147.486 61.6094C147.486 61.6094 145.125 63.0141 145.603 65.6063C146.153 68.6185 151.352 69.2123 154.379 67.431C154.379 67.431 159.549 72.8472 163.502 69.0964C163.502 69.0964 165.515 67.2862 164.168 65.027" stroke="#171717" stroke-width="1.6" stroke-linecap="round" stroke-linejoin="round"/>
<path d="M30.0851 74.2226C30.0851 74.2226 39.2086 72.1952 43.1476 80.3773C47.6949 89.8049 34.8207 101.39 20.7734 90.4855" fill="white"/>
<path d="M30.0851 74.2226C30.0851 74.2226 39.2086 72.1952 43.1476 80.3773C47.6949 89.8049 34.8207 101.39 20.7734 90.4855" stroke="#171717" stroke-width="1.6" stroke-linecap="round" stroke-linejoin="round"/>
<path d="M81.6172 19.2202V6.47636C81.6172 6.47636 86.1789 6.9253 92.0295 4V16.7439" stroke="#171717" stroke-width="1.6" stroke-linecap="round" stroke-linejoin="round"/>
<path d="M78.0804 22.596C80.0354 22.596 81.6284 21.2782 81.6284 19.6418C81.6284 18.0053 80.0354 16.6875 78.0804 16.6875C76.1254 16.6875 74.5469 18.0053 74.5469 19.6418C74.5469 21.2782 76.1399 22.596 78.0804 22.596Z" fill="#BEF0A3" stroke="#171717" stroke-width="1.6" stroke-linecap="round" stroke-linejoin="round"/>
<path d="M88.4867 20.221C90.4417 20.221 92.0202 18.9032 92.0202 17.2668C92.0202 15.6303 90.4417 14.3125 88.4867 14.3125C86.5316 14.3125 84.9531 15.6303 84.9531 17.2668C84.9531 18.9032 86.5316 20.221 88.4867 20.221Z" fill="#BEF0A3" stroke="#171717" stroke-width="1.6" stroke-linecap="round" stroke-linejoin="round"/>
<path d="M81.7266 10.573C81.7266 10.573 87.3455 10.8047 91.9506 8.42969" stroke="#171717" stroke-width="1.6" stroke-linecap="round" stroke-linejoin="round"/>
<path d="M29.9215 69.2267C35.608 69.2267 40.2179 64.5974 40.2179 58.8868C40.2179 53.1762 35.608 48.5469 29.9215 48.5469C24.2349 48.5469 19.625 53.1762 19.625 58.8868C19.625 64.5974 24.2349 69.2267 29.9215 69.2267Z" fill="#FDE0DF"/>
<path d="M82.6558 75.7579C88.3424 75.7579 92.9523 71.1286 92.9523 65.418C92.9523 59.7075 88.3424 55.0781 82.6558 55.0781C76.9693 55.0781 72.3594 59.7075 72.3594 65.418C72.3594 71.1286 76.9693 75.7579 82.6558 75.7579Z" fill="#FDE0DF"/>
<path d="M176.744 80.8996C182.031 80.8996 186.317 76.5945 186.317 71.2838C186.317 65.9731 182.031 61.668 176.744 61.668C171.458 61.668 167.172 65.9731 167.172 71.2838C167.172 76.5945 171.458 80.8996 176.744 80.8996Z" fill="#FDE0DF"/>
<path d="M139.851 67.5168C144.441 65.2676 146.266 59.5785 143.929 54.8097C141.592 50.041 135.977 47.9986 131.388 50.2478C126.798 52.497 124.973 58.1861 127.31 62.9548C129.647 67.7236 135.262 69.766 139.851 67.5168Z" fill="#FDE0DF"/>
<path d="M178.968 46.3603C177.501 44.4804 175.912 44.9504 175.301 45.4204C172.856 48.2401 174.078 52 177.135 52C180.191 52 180.802 48.7102 178.968 46.3603Z" fill="#DEEAED"/>
<path d="M77.3245 59.0587C76.8176 58.769 76.3687 58.407 75.8908 58.1174C75.3839 57.8133 74.906 57.5091 74.4426 57.2195C73.9358 56.9009 73.4289 56.6402 72.9655 56.3506C72.4586 56.032 71.9952 55.6989 71.5318 55.4238C71.0105 55.1052 70.5036 54.8735 70.0547 54.6273C70.6195 54.2363 70.6919 54.4245 71.358 54.2508C72.0242 54.077 72.0387 54.1349 72.6903 53.9611C73.342 53.7873 73.342 53.7729 74.0082 53.6281C74.7467 53.4688 74.7323 53.4687 75.4853 53.3384C76.2384 53.2081 76.2239 53.237 76.9769 53.1067C77.73 52.9764 77.73 53.0053 78.4685 52.875" stroke="#171717" stroke-width="1.6" stroke-linecap="round" stroke-linejoin="round"/>
<path d="M36.3407 45.9219C37.0213 46.3708 36.9924 46.3998 37.673 46.8487C38.3536 47.2976 38.3681 47.2832 39.0488 47.7321C39.7294 48.181 39.7873 48.0941 40.4535 48.572C41.0472 49.0065 41.0038 49.0644 41.5831 49.5278C42.1623 49.9912 42.1189 50.0347 42.6981 50.4981C43.2774 50.9615 43.5091 50.7443 43.9001 51.3815C43.3353 51.4249 42.6981 51.4684 42.032 51.5552C41.4527 51.6277 40.8445 51.7001 40.2073 51.7869C39.628 51.8738 39.0198 52.0331 38.3971 52.1055C37.8033 52.1924 37.1951 52.2938 36.5579 52.3662C35.9642 52.4386 35.3415 52.5255 34.7188 52.5834" stroke="#171717" stroke-width="1.6" stroke-linecap="round" stroke-linejoin="round"/>
<path d="M43.7948 61.4609C43.7948 61.4609 40.435 62.8077 41.2315 65.5013C42.1728 68.6438 49.7467 69.4693 54.0767 67.7605C54.0767 67.7605 61.8244 73.5676 67.3999 69.8603C67.3999 69.8603 70.2528 68.0791 68.1964 65.6751" stroke="#171717" stroke-width="1.6" stroke-linecap="round" stroke-linejoin="round"/>
<path d="M171.624 63.8985C172.841 63.8985 173.811 62.9138 173.811 61.6973C173.811 60.4809 172.826 59.4961 171.624 59.4961C170.422 59.4961 169.438 60.4809 169.438 61.6973C169.438 62.9138 170.422 63.8985 171.624 63.8985Z" fill="#171717"/>
<path d="M175.058 45.8828C175.058 45.8828 173.089 51.4727 177.129 51.4148C177.129 51.4148 180.764 51.5017 179.345 46.8241" stroke="#171717" stroke-width="1.6" stroke-linecap="round" stroke-linejoin="round"/>
<path d="M185.968 59.3603C184.501 57.4804 182.912 57.9504 182.301 58.4204C179.856 61.2401 181.078 65 184.135 65C187.191 65 187.802 61.7102 185.968 59.3603Z" fill="#DEEAED"/>
<path d="M181.727 58.8125C181.727 58.8125 179.468 64.5617 183.537 64.8514C183.537 64.8514 188.446 65.0541 185.695 58.9718" stroke="#171717" stroke-width="1.6" stroke-linecap="round" stroke-linejoin="round"/>
<path d="M142.277 53.7618C143.233 53.7618 144.015 52.7771 144.015 51.5606C144.015 50.3441 143.233 49.3594 142.277 49.3594C141.321 49.3594 140.539 50.3441 140.539 51.5606C140.539 52.7771 141.321 53.7618 142.277 53.7618Z" fill="#171717"/>
<path d="M122.062 53.6289C122.062 53.6289 134.879 56.5687 136.573 70.5869C137.297 76.5389 136.312 85.0831 127.261 90.1372" fill="white"/>
<path d="M122.062 53.6289C122.062 53.6289 134.879 56.5687 136.573 70.5869C137.297 76.5389 136.312 85.0831 127.261 90.1372" stroke="#171717" stroke-width="1.6" stroke-linecap="round" stroke-linejoin="round"/>
</svg>
