<svg width="182" height="116" viewBox="0 0 182 116" fill="none" xmlns="http://www.w3.org/2000/svg">
<g clip-path="url(#clip0_4675_37875)">
<path d="M159.27 95.6546C159.27 95.6546 160.388 103.933 168.531 104.184C177.908 104.471 183.68 89.5762 170.115 81.9805" fill="white"/>
<path d="M159.27 95.6546C159.27 95.6546 160.388 103.933 168.531 104.184C177.908 104.471 183.68 89.5762 170.115 81.9805" stroke="#858585" stroke-width="1.4" stroke-linecap="round" stroke-linejoin="round"/>
<path d="M142.995 29.4015C142.995 29.4015 152.175 18.3581 146.941 12.3695C145.769 11.0317 143.872 10.4391 142.279 11.2741C141.339 11.7679 138.619 14.2998 141.008 16.8587" stroke="#858585" stroke-width="1.4" stroke-linecap="round" stroke-linejoin="round"/>
<path d="M180.245 74.5731C174.393 97.8182 150.627 112.13 127.174 106.545C103.713 100.961 89.4406 77.5899 95.2925 54.3538C101.145 31.1087 124.91 16.7971 148.363 22.3817C171.825 27.9662 186.097 51.337 180.245 74.5731Z" fill="white" stroke="#858585" stroke-width="1.4" stroke-linecap="round" stroke-linejoin="round"/>
<path d="M168.775 68.9671C170.026 65.4664 167.68 61.4195 163.536 59.9279C159.391 58.4364 155.017 60.0652 153.766 63.5658C152.514 67.0665 154.86 71.1134 159.005 72.6049C163.149 74.0964 167.524 72.4677 168.775 68.9671Z" fill="#ECECEC"/>
<path d="M129.957 61.8845C133.261 59.9705 134.103 55.2266 131.837 51.2887C129.571 47.3508 125.056 45.7102 121.752 47.6242C118.448 49.5382 117.606 54.2821 119.872 58.22C122.138 62.1579 126.653 63.7985 129.957 61.8845Z" fill="#ECECEC"/>
<path d="M80.0391 66.312C80.0391 66.312 95.1697 60.6651 104.171 65.0837C107.752 66.8415 106.82 71.4994 101.899 71.2962C107.12 80.5486 96.0699 89.2001 84.8054 82.9523" fill="white"/>
<path d="M80.0391 66.312C80.0391 66.312 95.1697 60.6651 104.171 65.0837C107.752 66.8415 106.82 71.4994 101.899 71.2962C107.12 80.5486 96.0699 89.2001 84.8054 82.9523" stroke="#858585" stroke-width="1.4" stroke-linecap="round" stroke-linejoin="round"/>
<path d="M42.3389 33.2531C42.3389 33.2531 48.2803 20.1626 41.6499 15.7722C40.1735 14.7935 38.187 14.7217 36.8627 15.9517C36.0842 16.679 34.1246 19.8394 37.1043 21.671" stroke="#858585" stroke-width="1.4" stroke-linecap="round" stroke-linejoin="round"/>
<path d="M90.1827 67.2552C90.6749 91.4071 71.204 111.671 46.7044 112.533C22.2048 113.386 1.94658 94.5047 1.45444 70.3528C0.9623 46.2098 20.4331 25.9366 44.9327 25.0747C69.4323 24.2217 89.6906 43.0943 90.1827 67.2462V67.2552Z" fill="white" stroke="#858585" stroke-width="1.4" stroke-linecap="round" stroke-linejoin="round"/>
<path d="M76.8157 65.1941C77.0988 61.4859 73.2379 58.1656 68.1923 57.7778C63.1466 57.39 58.8268 60.0817 58.5438 63.7898C58.2607 67.4979 62.1216 70.8183 67.1672 71.2061C72.2129 71.5938 76.5327 68.9022 76.8157 65.1941Z" fill="#ECECEC"/>
<path d="M30.7053 69.0959C35.7678 68.8128 39.7047 65.5771 39.4987 61.8689C39.2928 58.1606 35.0219 55.384 29.9594 55.6671C24.8969 55.9502 20.9599 59.1858 21.1659 62.8941C21.3719 66.6024 25.6428 69.379 30.7053 69.0959Z" fill="#ECECEC"/>
<path d="M58.1167 67.4259C52.7032 71.9241 46.2338 71.2597 41.375 65.8906" stroke="#858585" stroke-width="1.4" stroke-linecap="round" stroke-linejoin="round"/>
<path d="M23.6016 98.0697C23.6016 98.0697 36.7014 103.295 43.9404 94.7298C51.1793 86.1644 42.7592 72.4723 24.4785 76.755" fill="white"/>
<path d="M23.6016 98.0697C23.6016 98.0697 36.7014 103.295 43.9404 94.7298C51.1793 86.1644 42.7592 72.4723 24.4785 76.755" stroke="#858585" stroke-width="1.4" stroke-linecap="round" stroke-linejoin="round"/>
<path d="M132.08 51.6686C133.038 51.6686 133.816 50.6877 133.816 49.4778C133.816 48.2679 133.038 47.2871 132.08 47.2871C131.121 47.2871 130.344 48.2679 130.344 49.4778C130.344 50.6877 131.121 51.6686 132.08 51.6686Z" fill="#858585"/>
<path d="M161.285 61.7506C162.491 61.7506 163.468 60.7698 163.468 59.5599C163.468 58.35 162.491 57.3691 161.285 57.3691C160.079 57.3691 159.102 58.35 159.102 59.5599C159.102 60.7698 160.079 61.7506 161.285 61.7506Z" fill="#858585"/>
<path d="M164.437 45.582C164.437 45.582 162.262 51.7412 166.718 51.6694C166.718 51.6694 170.002 51.6155 167.917 46.6325" stroke="#858585" stroke-width="1.4" stroke-linecap="round" stroke-linejoin="round"/>
<path d="M171.056 55.1435C171.056 55.1435 168.309 61.1321 172.765 61.0693C172.765 61.0693 176.506 60.9526 173.374 54.8203" stroke="#858585" stroke-width="1.4" stroke-linecap="round" stroke-linejoin="round"/>
<path d="M125.992 87.4488C125.992 87.4488 127.469 95.9603 136.068 96.499C145.973 97.1185 151.539 82.0976 136.953 73.8555" fill="white"/>
<path d="M125.992 87.4488C125.992 87.4488 127.469 95.9603 136.068 96.499C145.973 97.1185 151.539 82.0976 136.953 73.8555" stroke="#858585" stroke-width="1.4" stroke-linecap="round" stroke-linejoin="round"/>
<path d="M111.961 51.543C111.961 51.543 124.721 54.4699 126.403 68.4134C127.119 74.3391 126.143 82.8417 117.133 87.8606" fill="white"/>
<path d="M111.961 51.543C111.961 51.543 124.721 54.4699 126.403 68.4134C127.119 74.3391 126.143 82.8417 117.133 87.8606" stroke="#858585" stroke-width="1.4" stroke-linecap="round" stroke-linejoin="round"/>
<path d="M75.6016 17.1558V4.84645C75.6016 4.84645 79.9771 5.28639 85.6054 2.44922V14.7586" stroke="#858585" stroke-width="1.4" stroke-linecap="round" stroke-linejoin="round"/>
<path d="M72.1971 20.4153C74.075 20.4153 75.5974 19.1371 75.5974 17.5602C75.5974 15.9834 74.075 14.7051 72.1971 14.7051C70.3192 14.7051 68.7969 15.9834 68.7969 17.5602C68.7969 19.1371 70.3192 20.4153 72.1971 20.4153Z" fill="#ECECEC" stroke="#858585" stroke-width="1.4" stroke-linecap="round" stroke-linejoin="round"/>
<path d="M82.201 18.1165C84.0789 18.1165 85.6013 16.8382 85.6013 15.2614C85.6013 13.6845 84.0789 12.4062 82.201 12.4062C80.3231 12.4062 78.8008 13.6845 78.8008 15.2614C78.8008 16.8382 80.3231 18.1165 82.201 18.1165Z" fill="#ECECEC" stroke="#858585" stroke-width="1.4" stroke-linecap="round" stroke-linejoin="round"/>
<path d="M75.707 8.80643C75.707 8.80643 81.1027 9.03089 85.5319 6.73242" stroke="#858585" stroke-width="1.4" stroke-linecap="round" stroke-linejoin="round"/>
<path d="M71.5011 53.8242L62.75 56.2663L71.358 59.741" stroke="#858585" stroke-width="1.4" stroke-linecap="round" stroke-linejoin="round"/>
<path d="M29.367 51.6055L37.6439 55.8433L28.168 57.4235" stroke="#858585" stroke-width="1.4" stroke-linecap="round" stroke-linejoin="round"/>
<path d="M140.086 58.7793C140.184 62.9273 143.638 64.3818 147.414 61.5357C147.414 61.5357 148.9 68.862 154.761 64.1214" stroke="#858585" stroke-width="1.4" stroke-linecap="round" stroke-linejoin="round"/>
</g>
<defs>
<clipPath id="clip0_4675_37875">
<rect width="182" height="116" fill="white"/>
</clipPath>
</defs>
</svg>
