<svg width="24" height="24" viewBox="0 0 24 24" fill="none" xmlns="http://www.w3.org/2000/svg">
<path d="M9.09214 3.72266H5.81668C5.60222 3.72266 5.38986 3.76738 5.19172 3.85428C4.99359 3.94118 4.81356 4.06855 4.66191 4.22911C4.51027 4.38968 4.38997 4.5803 4.3079 4.79009C4.22583 4.99988 4.18359 5.22473 4.18359 5.4518V8.91994C4.18359 9.37937 4.35537 9.82011 4.6614 10.1458C4.96742 10.4715 5.38278 10.6557 5.81668 10.658H9.09214C9.5275 10.658 9.94503 10.4749 10.2529 10.149C10.5607 9.823 10.7337 9.38091 10.7337 8.91994V5.4518C10.7314 4.99238 10.5575 4.55259 10.2499 4.22856C9.9423 3.90454 9.52604 3.72265 9.09214 3.72266ZM18.1882 3.72266H14.9127C14.4788 3.72265 14.0626 3.90454 13.755 4.22856C13.4474 4.55259 13.2734 4.99238 13.2712 5.4518V8.91994C13.2714 9.38084 13.4445 9.82279 13.7523 10.1487C14.0601 10.4746 14.4775 10.6578 14.9127 10.658H18.1882C18.6221 10.6557 19.0375 10.4715 19.3435 10.1458C19.6495 9.82011 19.8213 9.37937 19.8213 8.91994V5.4518C19.8213 4.9932 19.6492 4.55339 19.343 4.22911C19.0367 3.90483 18.6213 3.72266 18.1882 3.72266ZM9.09214 13.3439H5.81668C5.3827 13.3465 4.96734 13.5309 4.66134 13.8567C4.35535 14.1826 4.18359 14.6234 4.18359 15.0829V18.5511C4.18359 19.0097 4.35565 19.4495 4.66191 19.7738C4.96818 20.098 5.38356 20.2802 5.81668 20.2802H9.09214C9.52604 20.2802 9.9423 20.0983 10.2499 19.7743C10.5575 19.4503 10.7314 19.0105 10.7337 18.5511V15.0829C10.7337 14.622 10.5607 14.1799 10.2529 13.8539C9.94503 13.528 9.5275 13.3448 9.09214 13.3448M16.5458 13.3439C15.6771 13.3439 14.844 13.7093 14.2297 14.3597C13.6155 15.0101 13.2704 15.8923 13.2704 16.8121C13.2704 17.7319 13.6155 18.614 14.2297 19.2644C14.844 19.9148 15.6771 20.2802 16.5458 20.2802C17.4145 20.2802 18.2477 19.9148 18.8619 19.2644C19.4762 18.614 19.8213 17.7319 19.8213 16.8121C19.8213 15.8923 19.4762 15.0101 18.8619 14.3597C18.2477 13.7093 17.4145 13.3439 16.5458 13.3439Z" fill="#171717"/>
<path d="M9.09214 13.3439H5.81668C5.3827 13.3465 4.96734 13.5309 4.66134 13.8567C4.35535 14.1826 4.18359 14.6234 4.18359 15.0829V18.5511C4.18359 19.0097 4.35565 19.4495 4.66191 19.7738C4.96818 20.098 5.38356 20.2802 5.81668 20.2802H9.09214C9.52604 20.2802 9.9423 20.0983 10.2499 19.7743C10.5575 19.4503 10.7314 19.0105 10.7337 18.5511V15.0829C10.7337 14.622 10.5607 14.1799 10.2529 13.8539C9.94503 13.528 9.5275 13.3448 9.09214 13.3448M9.09214 3.72266H5.81668C5.60222 3.72266 5.38986 3.76738 5.19172 3.85428C4.99359 3.94118 4.81356 4.06855 4.66191 4.22911C4.51027 4.38968 4.38997 4.5803 4.3079 4.79009C4.22583 4.99988 4.18359 5.22473 4.18359 5.4518V8.91994C4.18359 9.37937 4.35537 9.82011 4.6614 10.1458C4.96742 10.4715 5.38278 10.6557 5.81668 10.658H9.09214C9.5275 10.658 9.94503 10.4749 10.2529 10.149C10.5607 9.823 10.7337 9.38091 10.7337 8.91994V5.4518C10.7314 4.99238 10.5575 4.55259 10.2499 4.22856C9.9423 3.90454 9.52604 3.72265 9.09214 3.72266ZM18.1882 3.72266H14.9127C14.4788 3.72265 14.0626 3.90454 13.755 4.22856C13.4474 4.55259 13.2734 4.99238 13.2712 5.4518V8.91994C13.2714 9.38084 13.4445 9.82279 13.7523 10.1487C14.06 10.4746 14.4775 10.6578 14.9127 10.658H18.1882C18.6221 10.6557 19.0375 10.4715 19.3435 10.1458C19.6495 9.82011 19.8213 9.37937 19.8213 8.91994V5.4518C19.8213 4.9932 19.6492 4.55339 19.343 4.22911C19.0367 3.90483 18.6213 3.72266 18.1882 3.72266ZM16.5458 13.3439C15.6771 13.3439 14.844 13.7093 14.2297 14.3597C13.6155 15.0101 13.2704 15.8923 13.2704 16.8121C13.2704 17.7319 13.6155 18.614 14.2297 19.2644C14.844 19.9148 15.6771 20.2802 16.5458 20.2802C17.4145 20.2802 18.2477 19.9148 18.8619 19.2644C19.4762 18.614 19.8213 17.7319 19.8213 16.8121C19.8213 15.8923 19.4762 15.0101 18.8619 14.3597C18.2477 13.7093 17.4145 13.3439 16.5458 13.3439Z" stroke="#171717" stroke-linecap="round"/>
</svg>
