<svg width="32" height="32" viewBox="0 0 32 32" fill="none" xmlns="http://www.w3.org/2000/svg">
<g clip-path="url(#clip0_3486_28313)">
<path d="M8.20312 27.1867L14.0388 18.168L25.1796 21.8816V30.9003H22.527L21.9965 25.0647L18.8134 30.3698L8.20312 27.1867Z" fill="white"/>
<path d="M22.5276 14.9826L19.875 14.4521C22.5276 9.14644 24.3313 0.234626 27.3022 0.659037C30.2731 1.08345 25.5338 10.0311 22.5276 14.9826Z" fill="#BEF0A3"/>
<path d="M18.2812 16.046C18.2812 15.1972 19.3423 14.6313 19.8728 14.4545C20.0496 14.2776 20.7216 14.1362 21.9948 14.985C23.2681 15.8338 22.879 17.107 22.5254 17.6375C21.1107 17.4607 18.2812 16.8948 18.2812 16.046Z" fill="#BEF0A3"/>
<path d="M25.1791 21.8829L13.5078 18.1693C14.0383 15.5167 19.3435 16.0472 23.0571 17.6388C26.0279 18.912 25.7096 20.9987 25.1791 21.8829Z" fill="#FFA271"/>
<path d="M25.5041 22.0246L13.321 18.0626C13.8313 16.2657 16.7501 16.1077 18.3613 16.2305L22.4222 17.5498C25.6208 18.9608 25.8604 21.2609 25.5041 22.0246Z" stroke="#171717" stroke-linecap="round" stroke-linejoin="round"/>
<path d="M28.3065 2.51598L22.624 15.3494L19.9017 14.3252L25.4664 1.28144C25.8214 0.449448 26.8109 0.0975497 27.6114 0.518602C28.3325 0.897851 28.6364 1.77101 28.3065 2.51598Z" stroke="#171717" stroke-linecap="round" stroke-linejoin="round"/>
<path d="M13.3676 18.4935L7.67452 26.654L18.507 30.1642L22.2803 24.5399L22.0918 31.0985L25.1106 30.784L25.0744 22.069" stroke="#171717" stroke-linecap="round" stroke-linejoin="round"/>
<path d="M18.3184 15.8016C18.4172 15.3553 18.8736 14.4359 19.9086 14.3281" stroke="#171717" stroke-linecap="round" stroke-linejoin="round"/>
<path d="M22.6344 15.3496C22.838 15.9096 23.0819 17.1339 22.4278 17.5508" stroke="#171717" stroke-linecap="round" stroke-linejoin="round"/>
<path d="M14.8868 28.7969L17.8875 24.1249" stroke="#171717" stroke-linecap="round" stroke-linejoin="round"/>
<path d="M10.8185 27.4774L14.9782 21.3768" stroke="#171717" stroke-linecap="round" stroke-linejoin="round"/>
<path d="M3.30469 15.8468L3.80469 12.5391L6.62651 11.5391C11.4985 12.4006 10.502 15.8468 9.3947 17.4621L5.80469 18.0391L3.30469 15.8468Z" fill="#91E2F4"/>
<path d="M9.30377 6.53906L7.96875 5.03906L8.30469 3.03906L10.6371 2.53906L11.3038 5.20573L9.30377 6.53906Z" fill="#FFEB78"/>
<path d="M6.30469 8.53906H3.30469L2.30469 10.5391L3.80469 12.5391L6.80469 11.0391L6.30469 8.53906Z" fill="#FFEB78"/>
<circle cx="6.89052" cy="14.7457" r="3.45942" transform="rotate(17.1043 6.89052 14.7457)" stroke="#171717"/>
<path d="M6.80056 11.0999C7.17517 9.88256 6.49197 8.59198 5.27459 8.21737C4.0572 7.84275 2.76663 8.52595 2.39201 9.74334C2.01739 10.9607 2.70059 12.2513 3.91798 12.6259" stroke="#171717"/>
<circle cx="9.59655" cy="4.28496" r="1.83439" transform="rotate(17.1043 9.59655 4.28496)" stroke="#171717"/>
</g>
<defs>
<clipPath id="clip0_3486_28313">
<rect width="32" height="32" fill="white"/>
</clipPath>
</defs>
</svg>
