<svg width="32" height="32" viewBox="0 0 32 32" fill="none" xmlns="http://www.w3.org/2000/svg">
<g clip-path="url(#clip0_3486_28313)">
<path d="M8.20703 27.1828L14.0427 18.1641L25.1835 21.8777V30.8964H22.5309L22.0004 25.0607L18.8173 30.3659L8.20703 27.1828Z" fill="white"/>
<path d="M22.5315 14.9826L19.8789 14.4521C22.5315 9.14644 24.3352 0.234626 27.3061 0.659037C30.277 1.08345 25.5377 10.0311 22.5315 14.9826Z" fill="#BEF0A3"/>
<path d="M18.2852 16.0421C18.2852 15.1933 19.3462 14.6274 19.8767 14.4506C20.0535 14.2737 20.7255 14.1322 21.9988 14.9811C23.272 15.8299 22.8829 17.1031 22.5293 17.6336C21.1146 17.4568 18.2852 16.8909 18.2852 16.0421Z" fill="#BEF0A3"/>
<path d="M25.183 21.879L13.5117 18.1654C14.0422 15.5128 19.3474 16.0433 23.061 17.6349C26.0319 18.9081 25.7135 20.9948 25.183 21.879Z" fill="#FFA271"/>
<path d="M25.508 22.0246L13.3249 18.0626C13.8352 16.2657 16.754 16.1077 18.3652 16.2305L22.4261 17.5498C25.6247 18.9608 25.8643 21.2609 25.508 22.0246Z" stroke="#171717" stroke-linecap="round" stroke-linejoin="round"/>
<path d="M28.3104 2.51207L22.6279 15.3455L19.9056 14.3213L25.4703 1.27753C25.8253 0.445541 26.8148 0.0936435 27.6154 0.514696C28.3364 0.893944 28.6403 1.7671 28.3104 2.51207Z" stroke="#171717" stroke-linecap="round" stroke-linejoin="round"/>
<path d="M13.3715 18.4896L7.67842 26.6501L18.5109 30.1603L22.2842 24.5359L22.0957 31.0946L25.1145 30.7801L25.0783 22.0651" stroke="#171717" stroke-linecap="round" stroke-linejoin="round"/>
<path d="M18.3223 15.7977C18.4211 15.3514 18.8775 14.432 19.9125 14.3242" stroke="#171717" stroke-linecap="round" stroke-linejoin="round"/>
<path d="M22.6383 15.3457C22.8419 15.9057 23.0858 17.13 22.4317 17.5469" stroke="#171717" stroke-linecap="round" stroke-linejoin="round"/>
<path d="M14.8907 28.793L17.8914 24.121" stroke="#171717" stroke-linecap="round" stroke-linejoin="round"/>
<path d="M10.8224 27.4774L14.9821 21.3768" stroke="#171717" stroke-linecap="round" stroke-linejoin="round"/>
<path d="M3.30469 15.8546L3.80469 12.5469L6.62651 11.5469C11.4985 12.4084 10.502 15.8546 9.3947 17.47L5.80469 18.0469L3.30469 15.8546Z" fill="#91E2F4"/>
<path d="M9.30377 6.54688L7.96875 5.04688L8.30469 3.04688L10.6371 2.54688L11.3038 5.21354L9.30377 6.54688Z" fill="#FFEB78"/>
<path d="M6.30469 8.54688H3.30469L2.30469 10.5469L3.80469 12.5469L6.80469 11.0469L6.30469 8.54688Z" fill="#FFEB78"/>
<circle cx="6.89052" cy="14.7536" r="3.45942" transform="rotate(17.1043 6.89052 14.7536)" stroke="#171717"/>
<path d="M6.80056 11.1078C7.17517 9.89037 6.49197 8.5998 5.27459 8.22518C4.0572 7.85056 2.76663 8.53376 2.39201 9.75115C2.01739 10.9685 2.70059 12.2591 3.91798 12.6337" stroke="#171717"/>
<circle cx="9.59655" cy="4.29277" r="1.83439" transform="rotate(17.1043 9.59655 4.29277)" stroke="#171717"/>
</g>
<defs>
<clipPath id="clip0_3486_28313">
<rect width="32" height="32" fill="white"/>
</clipPath>
</defs>
</svg>
