<svg width="24" height="24" viewBox="0 0 24 24" fill="none" xmlns="http://www.w3.org/2000/svg">
<path d="M20.0893 12.5447L21.48 13.7831C21.7369 13.9975 21.9085 14.2966 21.9638 14.6265C22.0191 14.9564 21.9544 15.2952 21.7816 15.5816L20.1047 18.4461C19.9746 18.6654 19.7888 18.8464 19.5662 18.9707C19.3411 19.0953 19.0882 19.1614 18.8309 19.163C18.6712 19.164 18.5124 19.1401 18.3601 19.0923L16.5801 18.5046C16.2684 18.7046 15.9443 18.8836 15.6079 19.0415L15.234 20.8461C15.1648 21.178 14.98 21.4746 14.7125 21.683C14.4416 21.8951 14.1057 22.007 13.7617 21.9999H10.2895C9.94554 22.007 9.60967 21.8951 9.33876 21.683C9.07181 21.4744 8.88755 21.1778 8.81877 20.8461L8.4434 19.0415C8.1114 18.8814 7.7893 18.7016 7.4788 18.503L5.69269 19.0923C5.54039 19.1401 5.38157 19.164 5.22193 19.163C4.9651 19.1612 4.71282 19.0951 4.4881 18.9707C4.2657 18.8468 4.07996 18.6664 3.94965 18.4477L2.21276 15.5816C2.03219 15.2926 1.9632 14.9477 2.01871 14.6116C2.07422 14.2754 2.25042 13.971 2.51429 13.7555L3.90349 12.0001V11.4555L2.51275 10.2171C2.25593 10.0028 2.08433 9.70357 2.02902 9.37368C1.97371 9.04379 2.03835 8.705 2.21122 8.41865L3.94811 5.55409C4.07821 5.33481 4.26397 5.15383 4.48656 5.02949C4.71128 4.90514 4.96356 4.83902 5.22039 4.83718C5.37859 4.8272 5.53738 4.84173 5.69115 4.88026L7.44188 5.49563C7.75469 5.29563 8.07879 5.11666 8.41417 4.95872L8.78954 3.15414C8.85832 2.82241 9.04258 2.52584 9.30953 2.31724C9.58044 2.10516 9.91631 1.9932 10.2603 2.00032H13.7033C14.0473 1.9932 14.3831 2.10516 14.654 2.31724C14.9233 2.528 15.1079 2.82492 15.174 3.15414L15.5494 4.95872C15.8827 5.11769 16.2043 5.29717 16.514 5.49717L18.3016 4.90949C18.5001 4.84495 18.7097 4.82229 18.9173 4.84294C19.1249 4.8636 19.326 4.92712 19.5078 5.02949C19.7308 5.15564 19.9155 5.33717 20.0462 5.55255L21.7816 8.41865C21.9646 8.70513 22.0371 9.04842 21.9856 9.38444C21.934 9.72047 21.762 10.0263 21.5016 10.2448L20.0893 11.4478V12.5447Z" stroke="#464646" stroke-width="1.2"/>
<path d="M15.8445 11.9984C15.8445 13.0185 15.4393 13.9967 14.718 14.718C13.9967 15.4393 13.0185 15.8445 11.9984 15.8445C10.9784 15.8445 10.0001 15.4393 9.27883 14.718C8.55755 13.9967 8.15234 13.0185 8.15234 11.9984C8.15234 10.9784 8.55755 10.0001 9.27883 9.27883C10.0001 8.55755 10.9784 8.15234 11.9984 8.15234C13.0185 8.15234 13.9967 8.55755 14.718 9.27883C15.4393 10.0001 15.8445 10.9784 15.8445 11.9984Z" stroke="#464646" stroke-width="1.2"/>
</svg>
