<svg width="164" height="164" viewBox="0 0 164 164" fill="none" xmlns="http://www.w3.org/2000/svg">
<g clip-path="url(#clip0_5581_24362)">
<path d="M97.1022 152.113C120.87 152.212 140.208 134.231 140.3 111.963C140.392 89.695 121.205 71.5544 97.4367 71.4558C73.6687 71.3572 54.3313 89.3381 54.239 111.606C54.1466 133.874 73.3342 152.015 97.1022 152.113Z" fill="#E4E4E4"/>
<path d="M60.1083 74.3658C55.1826 76.0045 49.0254 82.1497 46.5625 85.0174C74.612 91.9818 130.547 105.009 129.89 101.404C129.233 97.799 124.417 90.07 122.091 86.6561C103.482 81.8765 65.0341 72.7271 60.1083 74.3658Z" fill="white"/>
<path d="M162.177 155.179L113.781 129.402" stroke="#464646" stroke-width="1.6" stroke-linecap="round" stroke-linejoin="round"/>
<path d="M113.783 8.82031V129.405H1.82031" stroke="#464646" stroke-width="1.6" stroke-linecap="round" stroke-linejoin="round"/>
<path d="M89.5234 68.5355C89.5234 68.5355 90.2951 61.0384 96.0172 60.2436C101.748 59.4488 103.373 66.8066 98.6279 67.0524" stroke="#464646" stroke-width="1.6" stroke-linecap="round" stroke-linejoin="round"/>
<path d="M122.992 87.8052C121.547 85.765 119.905 83.7986 118.091 81.996C116.276 80.1934 114.372 78.5875 112.27 77.0962C110.168 75.605 107.968 74.5071 105.653 73.3682C103.338 72.2293 101.154 71.1068 98.683 70.3202C96.2119 69.5336 93.7737 69.3861 91.2041 68.9601C88.7494 68.7224 86.3686 68.3947 84.0453 68.4193C81.5742 68.4439 79.2017 68.8371 76.8948 69.1321C74.4401 69.4435 72.1086 69.8859 69.8591 70.4759C67.4701 71.1068 65.2289 71.9015 63.0944 72.811C60.8204 73.7779 58.7351 74.9004 56.7812 76.154" fill="white"/>
<path d="M56.7812 76.154C58.7351 74.9004 60.8204 73.7779 63.0944 72.811C65.2289 71.9015 67.4701 71.1068 69.8591 70.4759C72.1086 69.8859 74.4401 69.4435 76.8948 69.1321C79.2017 68.8371 81.5742 68.4439 84.0453 68.4193C86.3686 68.3947 88.7494 68.7224 91.2041 68.9601C93.7737 69.3861 96.2119 69.5336 98.683 70.3202C101.154 71.1068 103.338 72.2293 105.653 73.3682C107.968 74.5071 110.168 75.605 112.27 77.0962C114.372 78.5875 116.276 80.1934 118.091 81.996C119.905 83.7986 121.547 85.765 122.992 87.8052C124.794 90.3779 128.998 97.9234 129.398 101.523" stroke="#464646" stroke-width="1.6" stroke-linecap="round" stroke-linejoin="round"/>
<path d="M126.932 94.6395C126.521 93.7382 126.078 92.8451 125.602 91.9766L126.932 94.6395Z" fill="white"/>
<path d="M47.0459 84.1445C45.4779 86.029 44.0412 88.0856 42.8262 90.2323C41.6112 92.379 40.5603 94.6159 39.7148 96.9592C38.8692 99.3026 38.4915 101.695 38.0154 104.153C37.5146 106.718 36.7757 109.217 36.6362 111.683C36.4884 114.297 37.2437 116.829 37.531 119.287C37.8183 121.745 38.0072 124.416 38.8199 126.776C39.6327 129.135 41.0858 131.282 42.4896 133.429C43.8934 135.575 45.4204 137.419 47.3497 139.197C49.1394 140.844 51.1589 142.278 53.4658 143.63C55.5429 144.851 57.8005 145.899 60.3208 146.842C62.5785 147.694 64.9511 148.48 67.5699 149.095C69.9261 149.644 72.3807 150.225 75.0407 150.578C77.5117 150.75 79.8597 151.274 82.1173 151.34C84.613 151.405 86.9774 150.807 89.2186 150.733C91.7308 150.652 94.128 151.069 96.3446 150.824C98.8567 150.545 101.188 150.045 103.356 149.545C105.818 148.98 108.125 148.333 110.186 147.489C112.501 146.538 114.406 145.088 116.253 143.785C118.24 142.392 119.898 140.787 121.408 138.992C122.919 137.198 124.348 135.371 125.456 133.207C126.49 131.184 127.032 128.889 127.771 126.53C128.444 124.375 129.495 122.212 129.971 119.778C130.439 117.378 130.981 115.182 131.145 113.068C131.326 110.757 130.776 108.545 130.455 106.3C130.16 104.194 129.736 102.82 128.898 100.525" fill="white"/>
<path d="M47.0459 84.1445C45.4779 86.029 44.0412 88.0856 42.8262 90.2323C41.6112 92.379 40.5603 94.6159 39.7148 96.9592C38.8692 99.3026 38.4915 101.695 38.0154 104.153C37.5146 106.718 36.7757 109.217 36.6362 111.683C36.4884 114.297 37.2437 116.829 37.531 119.287C37.8183 121.745 38.0072 124.416 38.8199 126.776C39.6327 129.135 41.0858 131.282 42.4896 133.429C43.8934 135.575 45.4204 137.419 47.3497 139.197C49.1394 140.844 51.1589 142.278 53.4658 143.63C55.5429 144.851 57.8005 145.899 60.3208 146.842C62.5785 147.694 64.9511 148.48 67.5699 149.095C69.9261 149.644 72.3807 150.225 75.0407 150.578C77.5117 150.75 79.8597 151.274 82.1173 151.34C84.613 151.405 86.9774 150.807 89.2186 150.733C91.7308 150.652 94.128 151.069 96.3446 150.824C98.8567 150.545 101.188 150.045 103.356 149.545C105.818 148.98 108.125 148.333 110.186 147.489C112.501 146.538 114.406 145.088 116.253 143.785C118.24 142.392 119.898 140.787 121.408 138.992C122.919 137.198 124.348 135.371 125.456 133.207C126.49 131.184 127.032 128.889 127.771 126.53C128.444 124.375 129.495 122.212 129.971 119.778C130.439 117.378 130.981 115.182 131.145 113.068C131.326 110.757 130.776 108.545 130.455 106.3C130.16 104.194 129.856 101.99 129.019 99.6959" stroke="#464646" stroke-width="1.6" stroke-linecap="round" stroke-linejoin="round"/>
<path d="M74.5862 82.9795C74.0526 82.7337 73.4779 82.3814 72.8129 82.0864C72.2465 81.8406 71.6307 81.5948 70.9822 81.3162C70.4075 81.0622 69.8 80.7836 69.1761 80.505C68.5932 80.2429 67.9364 80.0872 67.3125 79.8086" stroke="#464646" stroke-width="1.6" stroke-linecap="round" stroke-linejoin="round"/>
<path d="M53.9412 79.218C53.5635 78.9558 53.1695 78.5461 52.6523 78.1692C52.2418 77.866 51.7656 77.5629 51.2812 77.2188" stroke="#464646" stroke-width="1.6" stroke-linecap="round" stroke-linejoin="round"/>
<path d="M51.2293 82.0199C50.8598 81.7577 50.1949 81.2661 49.3821 80.9138C48.7171 80.627 47.9701 80.414 47.2969 80.332" stroke="#464646" stroke-width="1.6" stroke-linecap="round" stroke-linejoin="round"/>
<path d="M72.7456 100.922C72.7456 100.922 70.0447 102.331 70.9395 104.511C71.9904 107.051 78.4103 107.108 81.8911 105.314C81.8911 105.314 88.8693 109.509 93.2368 105.945C93.2368 105.945 95.4698 104.224 93.557 102.389" stroke="#464646" stroke-width="1.6" stroke-linecap="round" stroke-linejoin="round"/>
<path d="M109.848 96.9062C108.929 97.2176 109.118 97.1439 108.075 97.7174C107.582 97.9878 107.065 98.3975 106.474 98.8235C105.981 99.1759 105.407 99.5036 104.898 99.9788C104.446 100.405 104.019 100.905 103.592 101.429C103.198 101.913 102.854 102.47 102.509 103.051C102.189 103.592 101.942 104.182 101.688 104.805C101.45 105.387 101.245 105.993 101.08 106.648C100.933 107.255 100.801 107.886 100.736 108.557C100.67 109.172 100.571 109.819 100.588 110.499C100.604 111.122 100.637 111.778 100.719 112.449C100.801 113.064 101.047 113.687 101.195 114.342" stroke="#464646" stroke-width="1.6" stroke-linecap="round" stroke-linejoin="round"/>
<path d="M103.051 95.4587C102.624 95.0408 102.23 94.5492 101.746 94.1395C101.261 93.7299 100.769 93.3857 100.268 93.017C99.7672 92.6483 99.2665 92.2796 98.7575 91.9437C98.2485 91.6077 97.6327 91.3783 97.1073 91.0834C96.5409 90.7638 96.0155 90.4197 95.49 90.1739C94.8661 89.8871 94.275 89.6905 93.7578 89.543" stroke="#464646" stroke-width="1.6" stroke-linecap="round" stroke-linejoin="round"/>
<path d="M74.0483 88.6094C73.5229 88.6421 72.8743 88.634 72.1683 88.7651C71.5936 88.8716 70.9779 89.0354 70.3293 89.2075C69.7382 89.355 69.1225 89.5189 68.5068 89.7155C67.8911 89.9122 67.3575 90.2317 66.7664 90.4611C66.1753 90.6905 65.576 90.879 65.0095 91.1494C64.443 91.4198 63.8848 91.7475 63.3594 92.0589" stroke="#464646" stroke-width="1.6" stroke-linecap="round" stroke-linejoin="round"/>
<path opacity="0.61" d="M53.6237 139.792C61.726 139.792 68.2942 133.236 68.2942 125.15C68.2942 117.063 61.726 110.508 53.6237 110.508C45.5214 110.508 38.9531 117.063 38.9531 125.15C38.9531 133.236 45.5214 139.792 53.6237 139.792Z" fill="url(#paint0_radial_5581_24362)"/>
<path opacity="0.61" d="M119.324 123.752C126.239 123.752 131.844 118.158 131.844 111.257C131.844 104.356 126.239 98.7617 119.324 98.7617C112.41 98.7617 106.805 104.356 106.805 111.257C106.805 118.158 112.41 123.752 119.324 123.752Z" fill="url(#paint1_radial_5581_24362)"/>
<path d="M58.0234 93.0078C58.7295 93.6551 58.6145 93.4503 59.3534 94.3761C59.6982 94.8022 60.1169 95.302 60.5109 95.9001C60.8311 96.3917 61.1841 96.9407 61.5043 97.5388C61.7916 98.0714 61.9558 98.7023 62.2021 99.3168C62.432 99.8822 62.6783 100.472 62.8589 101.103C63.0313 101.693 63.2694 102.299 63.3925 102.947C63.5074 103.553 63.5239 104.2 63.5731 104.856C63.6224 105.47 63.647 106.109 63.6224 106.765C63.5978 107.387 63.5321 108.018 63.4418 108.674C63.3515 109.288 63.2612 109.919 63.097 110.558C62.941 111.157 62.6619 111.738 62.4402 112.361" stroke="#464646" stroke-width="1.6" stroke-linecap="round" stroke-linejoin="round"/>
<path d="M115.35 120.415C115.268 119.964 115.285 119.391 115.186 118.76C115.104 118.252 114.989 117.703 114.891 117.121" stroke="#464646" stroke-width="1.6" stroke-linecap="round" stroke-linejoin="round"/>
<path d="M112.1 120.373C112.026 119.931 111.919 119.119 111.632 118.3C111.394 117.62 111.049 116.932 110.68 116.383" stroke="#464646" stroke-width="1.6" stroke-linecap="round" stroke-linejoin="round"/>
<path d="M105.866 131.256C99.9145 144.718 84.2177 142.58 83.3393 134.255C82.5758 127.029 90.769 124.398 90.769 124.398" fill="white"/>
<path d="M105.866 131.256C99.9145 144.718 84.2177 142.58 83.3393 134.255C82.5758 127.029 90.769 124.398 90.769 124.398" stroke="#464646" stroke-width="1.6" stroke-linecap="round" stroke-linejoin="round"/>
<path d="M111.789 83.5859L111.97 100.178L117.035 99.4568L116.313 84.7576L111.789 83.5859Z" fill="white"/>
<path d="M97.3298 104.223C97.4625 98.7668 90.5701 94.1745 81.9353 93.9654C73.3005 93.7563 66.1931 98.0095 66.0605 103.465C65.9278 108.921 72.8202 113.513 81.455 113.722C90.0898 113.931 97.1972 109.678 97.3298 104.223Z" stroke="#ECECEC" stroke-width="3" stroke-linecap="round" stroke-linejoin="round"/>
<path d="M67.8772 123.07C67.8772 123.07 76.1854 125.291 75.7831 132.55C75.3151 140.908 59.7415 143.816 53.1328 130.658" stroke="#464646" stroke-width="1.6" stroke-linecap="round" stroke-linejoin="round"/>
</g>
<defs>
<radialGradient id="paint0_radial_5581_24362" cx="0" cy="0" r="1" gradientUnits="userSpaceOnUse" gradientTransform="translate(53.6237 125.15) scale(14.6706 14.6419)">
<stop stop-color="#BFBFBF"/>
<stop offset="0.11" stop-color="#BFBFBF" stop-opacity="0.93"/>
<stop offset="0.33" stop-color="#BFBFBF" stop-opacity="0.75"/>
<stop offset="0.61" stop-color="#BFBFBF" stop-opacity="0.45"/>
<stop offset="0.96" stop-color="#BFBFBF" stop-opacity="0.04"/>
<stop offset="1" stop-color="#BFBFBF" stop-opacity="0"/>
</radialGradient>
<radialGradient id="paint1_radial_5581_24362" cx="0" cy="0" r="1" gradientUnits="userSpaceOnUse" gradientTransform="translate(119.324 111.257) scale(12.5196 12.4952)">
<stop stop-color="#BFBFBF"/>
<stop offset="0.11" stop-color="#BFBFBF" stop-opacity="0.93"/>
<stop offset="0.33" stop-color="#BFBFBF" stop-opacity="0.75"/>
<stop offset="0.61" stop-color="#BFBFBF" stop-opacity="0.45"/>
<stop offset="0.96" stop-color="#BFBFBF" stop-opacity="0.04"/>
<stop offset="1" stop-color="#BFBFBF" stop-opacity="0"/>
</radialGradient>
<clipPath id="clip0_5581_24362">
<rect width="162" height="148" fill="white" transform="translate(1 8)"/>
</clipPath>
</defs>
</svg>
