<svg width="65" height="125" viewBox="0 0 65 125" fill="none" xmlns="http://www.w3.org/2000/svg">
<path d="M64.2798 120.948C64.7875 120.73 65.0226 120.143 64.8051 119.635L61.26 111.363C61.0425 110.855 60.4546 110.62 59.9469 110.837C59.4393 111.055 59.2041 111.643 59.4217 112.15L62.5729 119.504L55.2197 122.655C54.712 122.872 54.4769 123.46 54.6944 123.968C54.912 124.476 55.4998 124.711 56.0075 124.493L64.2798 120.948ZM1.38678 0.082657L0.390252 -0.000598969C-0.899451 15.4364 0.701328 39.9625 9.69035 63.4757C18.6853 87.0043 35.1129 109.596 63.5145 120.957L63.8859 120.029L64.2574 119.1C36.519 108.004 20.4178 85.9355 11.5585 62.7615C2.69326 39.5721 1.11443 15.3537 2.38331 0.165913L1.38678 0.082657Z" fill="#C6C6C6"/>
</svg>
