<svg width="50" height="50" viewBox="0 0 50 50" fill="none" xmlns="http://www.w3.org/2000/svg">
<path d="M45.1142 8.24651L43.3328 6.31234C42.8839 5.84727 42.2731 5.5731 41.6273 5.54677C40.9815 5.52045 40.3504 5.74399 39.865 6.17097L5.03678 38.2737C4.55809 38.715 4.27423 39.3284 4.24764 39.979C4.22105 40.6296 4.45391 41.2641 4.895 41.7429L6.6764 43.6771C7.11755 44.1558 7.73071 44.4396 8.38103 44.4661C9.03134 44.4926 9.66556 44.2596 10.1442 43.8185L44.9725 11.7157C45.4512 11.2745 45.735 10.6611 45.7616 10.0105C45.7882 9.35987 45.5553 8.72536 45.1142 8.24651Z" fill="#ECECEC" stroke="#171717" stroke-width="1.4"/>
<path d="M8.12901 27.3908C8.06506 27.3213 7.98806 27.2651 7.9024 27.2255C7.81675 27.1858 7.72411 27.1634 7.62979 27.1595C7.53547 27.1557 7.44132 27.1704 7.35271 27.203C7.2641 27.2355 7.18277 27.2852 7.11336 27.3493L3.90392 30.3072C3.42523 30.7485 3.14137 31.3619 3.11478 32.0125C3.08819 32.6631 3.32105 33.2976 3.76214 33.7764L14.4991 45.4323C14.9402 45.911 15.5534 46.1948 16.2037 46.2213C16.854 46.2478 17.4882 46.0149 17.9669 45.5737L21.1764 42.6153C21.2458 42.5513 21.302 42.4743 21.3416 42.3886C21.3813 42.3029 21.4037 42.2103 21.4076 42.1159C21.4114 42.0216 21.3967 41.9274 21.3641 41.8388C21.3316 41.7501 21.2819 41.6688 21.2179 41.5994L8.12901 27.3908Z" fill="#DCC3FF" stroke="#171717" stroke-width="1.4"/>
<path d="M46.2241 16.2041L35.4871 4.54818C35.0382 4.08312 34.4274 3.80895 33.7816 3.78262C33.1358 3.75629 32.5047 3.97984 32.0193 4.40681L28.8099 7.36519C28.7404 7.42916 28.6843 7.50619 28.6446 7.59187C28.6049 7.67756 28.5825 7.77022 28.5787 7.86457C28.5748 7.95891 28.5896 8.0531 28.6221 8.14173C28.6547 8.23037 28.7044 8.31172 28.7683 8.38115L41.8572 22.5898C41.9211 22.6592 41.9981 22.7154 42.0838 22.7551C42.1695 22.7948 42.2621 22.8172 42.3564 22.821C42.4507 22.8249 42.5449 22.8101 42.6335 22.7775C42.7221 22.745 42.8034 22.6953 42.8728 22.6313L46.0823 19.6733C46.561 19.232 46.8448 18.6186 46.8714 17.968C46.898 17.3174 46.6652 16.6829 46.2241 16.2041Z" fill="#DCC3FF" stroke="#171717" stroke-width="1.4"/>
<path d="M12.4715 21.6116C12.0225 21.1466 11.4118 20.8725 10.766 20.8461C10.1203 20.8197 9.4892 21.0431 9.00375 21.4698L6.32285 23.941C5.84416 24.3822 5.5603 24.9956 5.53371 25.6462C5.50712 26.2968 5.73998 26.9313 6.18106 27.4102L21.0513 43.553C21.4925 44.0317 22.1056 44.3155 22.7559 44.342C23.4062 44.3685 24.0405 44.1355 24.5191 43.6944L27.2 41.2236C27.6787 40.7823 27.9626 40.1689 27.9891 39.5183C28.0157 38.8677 27.7829 38.2332 27.3418 37.7544L12.4715 21.6116Z" fill="white" stroke="#171717" stroke-width="1.4"/>
<path d="M43.7754 22.5806L28.9051 6.43783C28.4562 5.97277 27.8453 5.69859 27.1996 5.67227C26.5538 5.64594 25.9227 5.86949 25.4373 6.29646L22.7564 8.76724C22.2777 9.2085 21.9939 9.82189 21.9673 10.4725C21.9407 11.1231 22.1736 11.7576 22.6147 12.2364L37.4849 28.3793C37.9261 28.8579 38.5392 29.1417 39.1894 29.1682C39.8397 29.1948 40.474 28.962 40.9527 28.521L43.6336 26.0498C44.1123 25.6086 44.3961 24.9952 44.4227 24.3446C44.4493 23.694 44.2165 23.0595 43.7754 22.5806Z" fill="white" stroke="#171717" stroke-width="1.4"/>
</svg>
