<svg width="24" height="24" viewBox="0 0 24 24" fill="none" xmlns="http://www.w3.org/2000/svg">
<path d="M14.8933 16.7077L12.116 21.2546C11.9623 21.5055 11.6572 21.6198 11.3767 21.5309C11.0964 21.4419 10.9124 21.1731 10.9314 20.8796L11.3396 14.6481H6.13939C5.90441 14.6481 5.68866 14.5189 5.57689 14.3122C5.46548 14.1055 5.47561 13.8534 5.60424 13.6569L8.07201 9.88641L14.8933 16.7077Z" fill="white" fill-opacity="0.6"/>
<path d="M12.3923 3.28875C12.5558 3.03968 12.8706 2.93649 13.1501 3.03973C13.4296 3.14355 13.6007 3.42766 13.5622 3.72332L12.7517 9.91277H17.906C18.1372 9.9128 18.3512 10.0375 18.4646 10.2389C18.5775 10.4406 18.5722 10.6881 18.4519 10.8854L16.073 14.777L9.30248 8.00652L12.3923 3.28875Z" fill="white" fill-opacity="0.6"/>
<rect x="4.60156" y="4.15234" width="22" height="1" rx="0.5" transform="rotate(45 4.60156 4.15234)" fill="white" fill-opacity="0.6"/>
</svg>
