<svg width="32" height="32" viewBox="0 0 32 32" fill="none" xmlns="http://www.w3.org/2000/svg">
<g clip-path="url(#clip0_3486_28343)">
<path d="M5.26607 11.6169L3.86719 9.56994L6.2777 8.58203L8.30094 10.403L5.26607 11.6169Z" fill="#DCC3FF"/>
<path d="M0.828125 19.6889L3.35718 17.6657L28.142 14.125L31.1768 17.1599L22.0722 23.2296H20.5548L20.049 24.2412L11.4502 30.8168L0.828125 19.6889Z" fill="#91E2F4"/>
<path d="M6.18327 12.6285L3.23828 9.39133L6.36303 8.58203L9.30802 11.8192" stroke="#464646" stroke-linecap="round" stroke-linejoin="round"/>
<path d="M11.4502 28.2866L0.828125 17.1587L1.83975 15.6413L0.828125 13.618L5.38043 11.089H10.4385L11.956 1.98438L17.0141 6.03087L19.5432 5.01924L30.1652 15.6413C29.9966 15.8099 29.0524 16.3494 26.6245 17.1587C24.1966 17.968 21.3978 21.2052 21.0606 22.7227L20.049 23.2285C16.4071 22.8238 12.799 26.6005 11.4502 28.2866Z" fill="white"/>
<path d="M19.5927 21.6414C15.1784 16.3442 11.7289 12.3764 10.4414 11.0889L11.9588 0.972656L19.0409 8.10623L21.2481 10.0537L19.5927 21.6414ZM19.5927 21.6414C21.0635 18.6761 22.4621 15.682 27.3178 16.1235C27.8696 16.1235 29.1939 16.0131 30.0768 15.5717L20.5576 5.01915C20.0058 5.20308 17.827 5.74974 17.3855 6.19117" stroke="#464646" stroke-linecap="round" stroke-linejoin="round"/>
<path d="M30.0732 16.125L31.1768 17.2286L21.7963 23.2983C21.2445 22.9305 20.1409 22.6362 20.1409 24.4019L11.3122 31.0235L0.828125 19.4358L1.93171 18.3322L11.3122 28.2645C12.2319 26.793 17.0141 22.2165 20.049 23.7339" stroke="#464646" stroke-linecap="round" stroke-linejoin="round"/>
<path d="M19.5891 21.6421C17.382 21.2743 12.6365 21.5318 11.3122 25.5047L0.828125 13.9169C2.11565 12.4454 5.79428 10.2749 10.2086 11.1578" stroke="#464646" stroke-linecap="round" stroke-linejoin="round"/>
<path d="M1.93171 18.3332L0.828125 17.2296C0.828125 16.6778 1.49028 15.5742 1.93171 15.5742" stroke="#464646" stroke-linecap="round" stroke-linejoin="round"/>
<path d="M21.5659 22.7246C22.0743 19.1825 26.4515 16.3598 28.6924 16.3469" stroke="#464646" stroke-linecap="round" stroke-linejoin="round"/>
</g>
<defs>
<clipPath id="clip0_3486_28343">
<rect width="32" height="32" fill="white"/>
</clipPath>
</defs>
</svg>
