<svg width="92" height="80" viewBox="0 0 92 80" fill="none" xmlns="http://www.w3.org/2000/svg">
<path d="M18.959 34.8855C18.959 34.8855 13.9964 30.2788 15.1725 27.2272C15.5303 26.3129 16.2782 25.6132 17.1581 25.2134L18.7038 24.5137C18.7038 24.5137 17.4338 21.9442 19.9621 20.8006C22.4904 19.6599 23.6372 26.4746 23.6372 26.4746C23.6372 26.4746 26.1244 25.2633 26.9427 27.0714C27.761 28.8794 23.7809 31.6458 23.7809 31.6458L18.9619 34.8738V34.8855H18.959Z" fill="white" stroke="#171717" stroke-linecap="round" stroke-linejoin="round"/>
<path d="M28.9184 54.3946L19.9345 34.3711C19.741 33.9419 19.9345 33.4333 20.3628 33.2393L22.146 32.4308C22.5772 32.2368 23.0817 32.4308 23.2752 32.86L32.2591 52.8835C32.4526 53.3127 32.2591 53.8213 31.8308 54.0153L30.0476 54.8238C29.6164 55.0178 29.1119 54.8238 28.9184 54.3946Z" fill="#CDDCE4" stroke="#171717" stroke-linecap="round" stroke-linejoin="round"/>
<path d="M18.7758 36.3356L18.1306 34.8951C17.9956 34.5982 18.1306 34.2483 18.4268 34.1131L24.0288 31.576C24.328 31.4408 24.677 31.576 24.812 31.8729L25.4572 33.3135C25.5921 33.6104 25.4572 33.9602 25.161 34.0955L19.5589 36.6326C19.2627 36.7678 18.9107 36.6326 18.7758 36.3356Z" fill="#CDDCE4" stroke="#171717" stroke-linecap="round" stroke-linejoin="round"/>
<path d="M14.2963 59.1105C14.2963 59.1105 9.05792 63.0882 6.34489 61.433C5.52658 60.9274 4.99277 60.0954 4.76986 59.1811L4.37097 57.5759C4.37097 57.5759 1.699 58.3579 1.04494 55.7238C0.390877 53.0926 7.0928 53.1632 7.0928 53.1632C7.0928 53.1632 6.35662 50.5614 8.22788 50.091C10.0991 49.6177 12.0555 53.9246 12.0555 53.9246L14.308 59.1076H14.2992L14.2963 59.1105Z" fill="white" stroke="#171717" stroke-linecap="round" stroke-linejoin="round"/>
<path d="M25.3634 55.2132L13.168 58.2971L12.2969 54.8222L24.4923 51.7383" fill="#CDDCE4"/>
<path d="M25.3634 55.2132L13.168 58.2971L12.2969 54.8222L24.4923 51.7383" stroke="#171717" stroke-linecap="round" stroke-linejoin="round"/>
<path d="M15.6236 59.5235L14.1805 59.888C13.8638 59.9674 13.5411 59.7763 13.4619 59.4588L12.0101 53.6584C11.9309 53.3409 12.1216 53.0205 12.4383 52.9411L13.8814 52.5765C14.1981 52.4972 14.5208 52.6883 14.5999 53.0058L16.0518 58.8061C16.131 59.1236 15.9403 59.4441 15.6236 59.5235Z" fill="#CDDCE4" stroke="#171717" stroke-linecap="round" stroke-linejoin="round"/>
<path d="M13.3373 36.9766C13.3373 36.9766 9.92032 39.352 10.545 45.8814" stroke="#171717" stroke-linecap="round" stroke-linejoin="round"/>
<path d="M9.84152 31.1445C9.84152 31.1445 4.2864 36.5833 6.68853 46.6994" stroke="#171717" stroke-linecap="round" stroke-linejoin="round"/>
<path d="M76.7296 69.3763C76.7296 67.9299 68.3999 66.7539 58.1226 66.7539C47.8454 66.7539 39.5156 67.9269 39.5156 69.3763C39.5156 70.8256 47.8454 71.9986 58.1226 71.9986C68.3999 71.9986 76.7296 70.8256 76.7296 69.3763Z" fill="#E8E8E8"/>
<path d="M39.0927 50.75C39.0927 50.75 36.5586 55.0539 31.7954 53.4047C26.6949 50.944 26.6626 43.6678 35.3913 41.7422" fill="#F9F9F9"/>
<path d="M39.4365 50.5742C39.4365 50.5742 36.9024 54.8781 32.1392 53.2289C27.0387 50.7682 27.0064 43.492 35.735 41.5664" stroke="#171717" stroke-linecap="round" stroke-linejoin="round"/>
<path d="M56.5215 23.68C43.015 24.7002 34.4067 36.3567 35.3247 48.7277C36.2427 61.0987 47.262 69.4479 59.8534 68.4866C72.4449 67.5252 81.8451 57.6179 80.9271 45.2469C80.0091 32.8759 70.4533 23.1097 56.5215 23.68Z" fill="#F9F9F9"/>
<path d="M56.1778 23.8558C42.6713 24.8759 34.0629 36.5325 34.9809 48.9035C35.899 61.2745 46.9183 69.6237 59.5097 68.6624C72.1011 67.701 81.5014 57.7937 80.5834 45.4227C79.6653 33.0517 70.1096 23.2855 56.1778 23.8558Z" stroke="#171717" stroke-linecap="round" stroke-linejoin="round"/>
<path d="M58.0821 23.6081C58.0821 23.6081 56.906 21.0681 59.0882 19.4864C61.2703 17.9048 63.5493 20.5889 61.6487 21.7295" stroke="#171717" stroke-linecap="round" stroke-linejoin="round"/>
<path d="M56.2426 63.9446C66.4126 63.9446 74.6571 55.6856 74.6571 45.4977C74.6571 35.3097 66.4126 27.0508 56.2426 27.0508C46.0726 27.0508 37.8281 35.3097 37.8281 45.4977C37.8281 55.6856 46.0726 63.9446 56.2426 63.9446Z" fill="#E2E2E2"/>
<path d="M67.0409 37.539C66.8063 37.4891 66.601 37.4067 66.4045 37.3597C66.1698 37.3038 65.9557 37.2597 65.7621 37.2068C65.5304 37.1451 65.3222 37.0775 65.1257 37.0187C64.9028 36.9511 64.6857 36.9275 64.4804 36.8599C64.2751 36.7923 64.0786 36.7041 63.8586 36.6365C63.6621 36.5748 63.4539 36.5218 63.2222 36.4572C63.0286 36.4013 62.8174 36.3543 62.5828 36.2925C62.3862 36.2426 62.1721 36.1896 61.9375 36.1367" stroke="#171717" stroke-linecap="round" stroke-linejoin="round"/>
<path d="M49.2992 36.2344C49.0528 36.3255 48.8181 36.3814 48.6187 36.4607C48.3723 36.5607 48.1611 36.6636 47.9646 36.7518C47.7271 36.8576 47.513 36.9546 47.3135 37.0517C47.0965 37.1575 46.9087 37.2986 46.6888 37.4044C46.4893 37.4985 46.2694 37.5779 46.0288 37.6808C45.8323 37.766 45.6182 37.866 45.3719 37.963C45.1695 38.0424 44.9495 38.1335 44.7031 38.2217" stroke="#171717" stroke-linecap="round" stroke-linejoin="round"/>
<path d="M50.4914 42.9253C50.4914 42.9253 49.5548 43.7302 50.023 44.7892C50.7889 46.5218 53.3698 46.0232 55.0476 45.1012C55.0476 45.1012 58.7327 47.0807 60.8185 45.2758C60.8185 45.2758 61.8714 44.1997 61.0415 43.1486" stroke="#171717" stroke-linecap="round" stroke-linejoin="round"/>
<path d="M78.3753 41.168C78.3753 41.168 87.5438 43.4493 85.7694 50.7872C85.0742 53.5772 82.9273 55.7674 80.358 56.3877C78.8269 56.7552 77.073 56.5758 75.7326 54.7237C73.2044 51.2311 77.2842 47.7886 77.2842 47.7886" fill="#F9F9F9"/>
<path d="M78.3753 41.168C78.3753 41.168 87.5438 43.4493 85.7694 50.7872C85.0742 53.5772 82.9273 55.7674 80.358 56.3877C78.8269 56.7552 77.073 56.5758 75.7326 54.7237C73.2044 51.2311 77.2842 47.7886 77.2842 47.7886" stroke="#171717" stroke-linecap="round" stroke-linejoin="round"/>
<path opacity="0.35" d="M48.3293 43.3983C48.1412 41.1525 45.9727 39.5033 43.4858 39.7147C40.9989 39.9262 39.1354 41.9182 39.3235 44.164C39.5116 46.4099 41.6801 48.0591 44.167 47.8476C46.6538 47.6362 48.5174 45.6442 48.3293 43.3983Z" fill="#CBA19D"/>
<path opacity="0.35" d="M73.2355 43.3983C73.0474 41.1525 70.8789 39.5033 68.392 39.7147C65.9051 39.9262 64.0416 41.9182 64.2297 44.164C64.4178 46.4099 66.5863 48.0591 69.0732 47.8476C71.5601 47.6362 73.4236 45.6442 73.2355 43.3983Z" fill="#CBA19D"/>
</svg>
