<svg width="57" height="56" viewBox="0 0 57 56" fill="none" xmlns="http://www.w3.org/2000/svg">
<path d="M24.7806 29.3267C25.8558 29.2723 26.6834 28.3566 26.6291 27.2813C26.5747 26.206 25.6589 25.3784 24.5837 25.4328C23.5084 25.4872 22.6808 26.4029 22.7352 27.4782C22.7895 28.5535 23.7053 29.3811 24.7806 29.3267Z" fill="#171717"/>
<path d="M24.476 14.9012C22.8313 12.8438 23.7423 9.7676 24.0147 9.16693C24.9342 7.39969 25.8011 7.21435 26.7345 7.22656C27.6669 7.23783 28.631 7.77305 28.7922 8.59078" stroke="#464646" stroke-linecap="round"/>
<path d="M26.9196 10.5168C26.5149 9.95502 25.5774 9.23282 23.8809 9.72957" stroke="#464646" stroke-linecap="round"/>
<path d="M35.3012 32.2466L39.1335 26.0779L41.6163 28.6676L42.4639 31.5934L41.6163 33.541L39.7898 34.6086L37.0445 34.151L35.3012 32.2466Z" fill="white"/>
<path d="M39.3252 26.2222C41.3081 27.5946 43.1973 30.4298 41.9186 32.9662C40.3203 36.1367 35.8051 33.5782 35.2535 32.3553" stroke="#464646" stroke-linecap="round"/>
<ellipse cx="22.9178" cy="44.9417" rx="17.0819" ry="3.6604" fill="#C6C6C6"/>
<path d="M6.17578 27.9223C6.17578 19.684 12.6571 12.9098 20.9443 12.1094C22.9349 12.1233 27.2757 12.3596 28.7141 13.1929C34.7367 15.5453 38.9925 21.2457 38.9925 27.9223C38.9925 36.6975 31.6522 43.8134 22.5841 43.8134C13.5161 43.8134 6.17578 36.6975 6.17578 27.9223Z" fill="white" stroke="#464646" stroke-linecap="round"/>
<path d="M32.5535 23.8614C32.7983 26.1207 29.7906 28.2997 25.8355 28.7284C21.8805 29.157 18.4758 27.6729 18.2309 25.4136C17.9861 23.1543 21.0051 21.2798 24.9602 20.8512C28.9152 20.4226 32.3086 21.6021 32.5535 23.8614Z" fill="#C6C6C6"/>
<path d="M18.2442 26.8912C18.9172 26.8571 19.4351 26.284 19.4011 25.611C19.3671 24.938 18.7939 24.42 18.1209 24.454C17.4479 24.488 16.9299 25.0612 16.964 25.7342C16.998 26.4072 17.5712 26.9252 18.2442 26.8912Z" fill="#464646"/>
<path d="M32.8027 24.5904C33.4757 24.5564 33.9937 23.9832 33.9597 23.3102C33.9257 22.6372 33.3525 22.1192 32.6795 22.1532C32.0065 22.1873 31.4885 22.7604 31.5226 23.4334C31.5566 24.1064 32.1297 24.6244 32.8027 24.5904Z" fill="#464646"/>
<path d="M19.9819 33.96C19.9819 33.96 26.3593 28.5508 33.2343 31.7558" stroke="#464646" stroke-miterlimit="10" stroke-linecap="round"/>
<path d="M13.5953 34.8464L9.05742 28.7524L6.25607 31.395L5.01769 33.2304L5.01755 35.5676L6.25607 37.5009L8.66079 38.1109L12.1687 36.7383L13.5953 34.8464Z" fill="white"/>
<path d="M7.90953 29.4828C6.06344 30.971 3.98851 33.7995 5.5464 36.3943C7.49376 39.6379 12.7693 36.8834 13.3959 35.6047" stroke="#464646" stroke-linecap="round"/>
<path d="M55.7097 20.3976L42.25 28.6016" stroke="#171717" stroke-linecap="round"/>
</svg>
