<svg width="32" height="32" viewBox="0 0 32 32" fill="none" xmlns="http://www.w3.org/2000/svg">
<path d="M4.08926 19.5746V2.42188H26.9596V19.5746L30.2948 27.6745H1.23047L4.08926 19.5746Z" fill="#91E2F4"/>
<path d="M5.03906 25.7686L6.46846 21.0039H19.8095L20.2859 25.7686H5.03906Z" fill="#FF96AD"/>
<path d="M5.03906 25.7686L6.46846 21.0039H19.8095L20.2859 25.7686H5.03906Z" fill="#FF96AD"/>
<path d="M5.03906 25.7686L6.46846 21.0039H19.8095L20.2859 25.7686H5.03906Z" fill="#FFEB78"/>
<path d="M5.03906 25.7686L6.46846 21.0039H19.8095L20.2859 25.7686H5.03906Z" fill="#FFEB78"/>
<path d="M23.1464 25.7686L22.5508 21.0039H25.0522L26.9581 25.7686H23.1464Z" fill="#FF96AD"/>
<path d="M23.1464 25.7686L22.5508 21.0039H25.0522L26.9581 25.7686H23.1464Z" fill="#FF96AD"/>
<path d="M23.1464 25.7686L22.5508 21.0039H25.0522L26.9581 25.7686H23.1464Z" fill="#FFEB78"/>
<path d="M23.1464 25.7686L22.5508 21.0039H25.0522L26.9581 25.7686H23.1464Z" fill="#FFEB78"/>
<rect x="4.08594" y="2.58203" width="22.8703" height="17.1528" stroke="#464646" stroke-linejoin="round"/>
<path d="M30.2871 27.6758V29.5816H1.69922V27.6758H30.2871Z" fill="#FF96AD"/>
<path d="M26.4831 19.0998L30.2948 26.8965M4.56573 19.0998L1.4687 27.1997M1.4687 27.1997V29.582H30.2948V26.8965M1.4687 27.1997C1.35925 27.4186 1.51843 27.6762 1.76317 27.6762H29.8576C30.2578 27.6762 30.5035 27.238 30.2948 26.8965" stroke="#464646" stroke-linejoin="round"/>
<path d="M5.03906 25.7695H20.2859L19.8095 21.0966H6.46846L5.03906 25.7695Z" stroke="#464646" stroke-linejoin="round"/>
<path d="M23.3468 25.7695H26.96L25.0541 21.0049H22.1953L23.3468 25.7695Z" stroke="#464646" stroke-linejoin="round"/>
<rect x="5.98828" y="4.48828" width="19.0586" height="13.341" fill="white" stroke="#464646" stroke-linejoin="round"/>
<path d="M6.46484 22.9102L19.3294 22.9102" stroke="#464646" stroke-linecap="round" stroke-linejoin="round"/>
<path d="M22.6719 22.9102L25.5307 22.9102" stroke="#464646" stroke-linecap="round" stroke-linejoin="round"/>
<path d="M13.138 21.3242L12.6641 25.2941" stroke="#464646" stroke-linecap="round" stroke-linejoin="round"/>
<path d="M9.96331 21.3242L8.85156 25.2941" stroke="#464646" stroke-linecap="round" stroke-linejoin="round"/>
<path d="M16.3125 21.3242V25.2941" stroke="#464646" stroke-linecap="round" stroke-linejoin="round"/>
<path d="M10.8448 9.61703C11.3705 9.59045 11.775 9.14281 11.7484 8.61719C11.7218 8.09157 11.2742 7.68702 10.7486 7.7136C10.223 7.74017 9.81842 8.18781 9.845 8.71343C9.87157 9.23905 10.3192 9.6436 10.8448 9.61703Z" fill="#464646"/>
<path d="M20.3761 9.61703C20.9017 9.59045 21.3063 9.14281 21.2797 8.61719C21.2531 8.09157 20.8055 7.68702 20.2798 7.7136C19.7542 7.74017 19.3497 8.18781 19.3762 8.71343C19.4028 9.23905 19.8505 9.6436 20.3761 9.61703Z" fill="#464646"/>
<path d="M19.468 11.9724C19.468 11.9724 20.1785 15.0144 15.6526 15.2803C11.1267 15.5461 11.1267 12.0913 11.1267 12.0913" stroke="#464646" stroke-miterlimit="10" stroke-linecap="round"/>
</svg>
