<svg width="32" height="32" viewBox="0 0 32 32" fill="none" xmlns="http://www.w3.org/2000/svg">
<path d="M4 19V1H28V19L31 28.0011H1L4 19Z" fill="#91E2F4"/>
<path d="M4 26L5.5 20.7679L19.5 20.5L20 26H4Z" fill="#FF96AD"/>
<path d="M4 26L5.5 20.7679L19.5 20.5L20 26H4Z" fill="#FF96AD"/>
<path d="M4 26L5.5 20.7679L19.5 20.5L20 26H4Z" fill="#FFEB78"/>
<path d="M4 26L5.5 20.7679L19.5 20.5L20 26H4Z" fill="#FFEB78"/>
<path d="M23 26L22 21L25.0522 21.0039L27 26H23Z" fill="#FF96AD"/>
<path d="M23 26L22 21L25.0522 21.0039L27 26H23Z" fill="#FF96AD"/>
<path d="M23 26L22 21L25.0522 21.0039L27 26H23Z" fill="#FFEB78"/>
<path d="M23 26L22 21L25.0522 21.0039L27 26H23Z" fill="#FFEB78"/>
<rect x="4" y="1" width="24" height="18" stroke="#171717" stroke-linejoin="round"/>
<path d="M30.5 27.7328V30.5H1V27.6758L30.5 27.7328Z" fill="#FF96AD"/>
<path d="M27.5161 19L30.5161 27.1818M4.3871 19L1.24194 27.5M1.24194 27.5V30H30.5161V27.1818M1.24194 27.5C1.13002 27.7313 1.29851 28 1.55546 28H30.0494C30.4693 28 30.7299 27.5432 30.5161 27.1818" stroke="#171717" stroke-linejoin="round"/>
<path d="M4 26.0039H20L19.5312 21.0039H5.5L4 26.0039Z" stroke="#171717" stroke-linejoin="round"/>
<path d="M23.2083 26.0039H27L25.5 21.0039H22L23.2083 26.0039Z" stroke="#171717" stroke-linejoin="round"/>
<rect x="6" y="3" width="20" height="14" fill="white" stroke="#171717" stroke-linejoin="round"/>
<path d="M5.5 23L19.5 23" stroke="#171717" stroke-linecap="round" stroke-linejoin="round"/>
<path d="M23 23.0039L25.5 23.0039" stroke="#171717" stroke-linecap="round" stroke-linejoin="round"/>
<path d="M13 21.0039L12 26.0039" stroke="#171717" stroke-linecap="round" stroke-linejoin="round"/>
<path d="M9.34079 21L8 26.0039" stroke="#171717" stroke-linecap="round" stroke-linejoin="round"/>
<path d="M16 21.0039V26.0039" stroke="#171717" stroke-linecap="round" stroke-linejoin="round"/>
<path d="M10.5 8.16406C10.7761 8.16406 11 7.9402 11 7.66406C11 7.38792 10.7761 7.16406 10.5 7.16406C10.2239 7.16406 10 7.38792 10 7.66406C10 7.9402 10.2239 8.16406 10.5 8.16406Z" fill="#171717" stroke="#171717"/>
<path d="M20.9844 8.16406C21.2605 8.16406 21.4844 7.9402 21.4844 7.66406C21.4844 7.38792 21.2605 7.16406 20.9844 7.16406C20.7082 7.16406 20.4844 7.38792 20.4844 7.66406C20.4844 7.9402 20.7082 8.16406 20.9844 8.16406Z" fill="#171717" stroke="#171717"/>
<path d="M12.4089 10.6832C12.4089 10.6832 11.5188 11.4482 11.932 12.4674C12.4132 13.6566 14.6749 13.4788 15.8198 12.5082C15.8198 12.5082 18.4562 14.3053 19.838 12.4525C19.838 12.4525 20.5482 11.5537 19.7935 10.7348" stroke="#171717" stroke-linecap="round" stroke-linejoin="round"/>
</svg>
