<svg width="32" height="32" viewBox="0 0 32 32" fill="none" xmlns="http://www.w3.org/2000/svg">
<path d="M28.8719 5.27653L27.7318 4.03866C27.4444 3.74102 27.0535 3.56555 26.6402 3.5487C26.2269 3.53185 25.823 3.67492 25.5124 3.94818L3.22231 24.4939C2.91594 24.7763 2.73427 25.1689 2.71725 25.5853C2.70024 26.0017 2.84927 26.4077 3.13157 26.7142L4.27167 27.9521C4.554 28.2584 4.94642 28.4401 5.36263 28.457C5.77883 28.474 6.18473 28.3249 6.49107 28.0426L28.7811 7.49682C29.0875 7.21442 29.2692 6.82185 29.2862 6.40547C29.3032 5.98908 29.1542 5.583 28.8719 5.27653Z" fill="#ECECEC" stroke="#464646"/>
<path d="M5.20257 17.5302C5.16164 17.4858 5.11236 17.4498 5.05754 17.4245C5.00272 17.3991 4.94343 17.3847 4.88307 17.3822C4.8227 17.3798 4.76245 17.3892 4.70573 17.4101C4.64902 17.4309 4.59697 17.4627 4.55256 17.5037L2.49851 19.3968C2.19215 19.6792 2.01048 20.0718 1.99346 20.4881C1.97644 20.9045 2.12547 21.3106 2.40777 21.6171L9.27941 29.0768C9.56175 29.3832 9.95417 29.5648 10.3704 29.5818C10.7866 29.5987 11.1925 29.4497 11.4988 29.1673L13.5529 27.274C13.5973 27.233 13.6333 27.1837 13.6587 27.1289C13.6841 27.074 13.6984 27.0147 13.7009 26.9544C13.7033 26.894 13.6939 26.8337 13.673 26.777C13.6522 26.7202 13.6204 26.6682 13.5795 26.6237L5.20257 17.5302Z" fill="#DCC3FF" stroke="#464646"/>
<path d="M29.5833 10.3703L22.7116 2.91053C22.4243 2.61289 22.0334 2.43742 21.62 2.42057C21.2067 2.40372 20.8028 2.54678 20.4922 2.82005L18.4382 4.71341C18.3937 4.75435 18.3578 4.80364 18.3324 4.85848C18.307 4.91332 18.2927 4.97263 18.2902 5.03301C18.2877 5.09339 18.2972 5.15367 18.318 5.2104C18.3388 5.26712 18.3706 5.31919 18.4116 5.36362L26.7885 14.4571C26.8294 14.5016 26.8787 14.5375 26.9335 14.5629C26.9883 14.5883 27.0476 14.6027 27.108 14.6051C27.1683 14.6076 27.2286 14.5982 27.2853 14.5773C27.342 14.5565 27.3941 14.5247 27.4385 14.4837L29.4925 12.5906C29.7989 12.3082 29.9806 11.9156 29.9976 11.4992C30.0146 11.0828 29.8656 10.6767 29.5833 10.3703Z" fill="#DCC3FF" stroke="#464646"/>
<path d="M7.98116 13.8284C7.6938 13.5309 7.30291 13.3554 6.88964 13.3385C6.47637 13.3216 6.07246 13.4646 5.76177 13.7377L4.046 15.3193C3.73964 15.6017 3.55797 15.9942 3.54095 16.4106C3.52393 16.827 3.67296 17.2331 3.95526 17.5395L13.4722 27.8709C13.7546 28.1773 14.147 28.3589 14.5632 28.3759C14.9794 28.3929 15.3853 28.2438 15.6916 27.9614L17.4074 26.3801C17.7138 26.0977 17.8954 25.7051 17.9124 25.2888C17.9295 24.8724 17.7804 24.4663 17.4981 24.1598L7.98116 13.8284Z" fill="white" stroke="#464646"/>
<path d="M28.0138 14.449L18.4968 4.11756C18.2094 3.81992 17.8185 3.64445 17.4052 3.6276C16.9919 3.61075 16.588 3.75382 16.2774 4.02708L14.5616 5.60837C14.2553 5.89078 14.0736 6.28335 14.0566 6.69973C14.0396 7.11612 14.1886 7.5222 14.4709 7.82867L23.9879 18.1601C24.2702 18.4664 24.6626 18.648 25.0788 18.665C25.4949 18.682 25.9008 18.533 26.2072 18.2508L27.923 16.6692C28.2294 16.3868 28.411 15.9943 28.4281 15.5779C28.4451 15.1615 28.2961 14.7554 28.0138 14.449Z" fill="white" stroke="#464646"/>
</svg>
