<svg width="32" height="32" viewBox="0 0 32 32" fill="none" xmlns="http://www.w3.org/2000/svg">
<path d="M27.9573 5.19778L26.8128 4.05298C26.5248 3.77823 26.1422 3.62496 25.7442 3.625C25.3462 3.62504 24.9636 3.77839 24.6757 4.05319L4.0559 24.6728C3.7725 24.9562 3.61328 25.3406 3.61328 25.7414C3.61328 26.1422 3.7725 26.5266 4.0559 26.81L5.20049 27.9548C5.48393 28.2382 5.86829 28.3973 6.26904 28.3973C6.6698 28.3972 7.05412 28.238 7.33751 27.9546L27.9573 7.33502C28.2407 7.0516 28.4 6.6672 28.4 6.2664C28.4 5.86559 28.2407 5.4812 27.9573 5.19778Z" fill="#ECECEC" stroke="#171717"/>
<path d="M5.6874 17.907C5.64631 17.8659 5.59752 17.8333 5.54383 17.811C5.49013 17.7888 5.43258 17.7773 5.37445 17.7773C5.31633 17.7773 5.25878 17.7888 5.20508 17.811C5.15138 17.8333 5.1026 17.8659 5.06151 17.907L3.16137 19.8069C2.87796 20.0904 2.71875 20.4748 2.71875 20.8756C2.71875 21.2764 2.87796 21.6608 3.16137 21.9442L7.00721 26.6297L10.06 28.843C10.3434 29.1263 10.7278 29.2855 11.1286 29.2854C11.5293 29.2854 11.9136 29.1262 12.197 28.8428L14.0972 26.9426C14.1383 26.9016 14.1709 26.8528 14.1932 26.7991C14.2154 26.7454 14.2269 26.6878 14.2269 26.6297C14.2269 26.5716 14.2154 26.514 14.1932 26.4603C14.1709 26.4066 14.1383 26.3578 14.0972 26.3168L5.6874 17.907Z" fill="white" stroke="#171717"/>
<path d="M28.8389 10.0651L21.9403 3.16626C21.6524 2.89151 21.2697 2.73824 20.8717 2.73828C20.4738 2.73832 20.0911 2.89167 19.8033 3.16647L17.9031 5.06664C17.862 5.10773 17.8294 5.15651 17.8071 5.21021C17.7849 5.26391 17.7734 5.32146 17.7734 5.37958C17.7734 5.43771 17.7849 5.49526 17.8071 5.54896C17.8294 5.60265 17.862 5.65144 17.9031 5.69253L26.3129 14.1023C26.354 14.1434 26.4028 14.176 26.4565 14.1983C26.5101 14.2205 26.5677 14.232 26.6258 14.232C26.6839 14.232 26.7415 14.2205 26.7952 14.1983C26.8489 14.176 26.8977 14.1434 26.9388 14.1023L28.8389 12.2023C29.1223 11.9189 29.2815 11.5345 29.2815 11.1337C29.2815 10.7329 29.1223 10.3485 28.8389 10.0651Z" fill="white" stroke="#171717"/>
<path d="M8.21763 14.2365C7.9297 13.9618 7.54705 13.8086 7.14912 13.8086C6.75118 13.8086 6.36854 13.9618 6.08061 14.2365L4.4934 15.8237C4.21 16.1071 4.05078 16.4915 4.05078 16.8923C4.05078 17.2931 4.21 17.6775 4.4934 17.961L8.81368 22.9096L14.0478 27.5155C14.3312 27.7988 14.7156 27.958 15.1163 27.9579C15.5171 27.9579 15.9014 27.7987 16.1848 27.5153L17.772 25.9283C18.0554 25.6449 18.2146 25.2605 18.2146 24.8597C18.2146 24.4589 18.0554 24.0745 17.772 23.7911L8.21763 14.2365Z" fill="white" stroke="#171717"/>
<path d="M27.5024 13.6839L17.9481 4.49438C17.6602 4.21964 17.2775 4.06637 16.8795 4.06641C16.4816 4.06645 16.0989 4.2198 15.8111 4.4946L14.2239 6.08159C13.9405 6.36501 13.7812 6.7494 13.7812 7.15021C13.7812 7.55101 13.9405 7.9354 14.2239 8.21882L22.2011 17.3392C22.4845 17.6225 24.446 18.2158 24.8467 18.2158C25.2475 18.2158 25.6318 18.0567 25.9152 17.7734L27.5024 16.1862C27.7859 15.9028 27.9451 15.5184 27.9451 15.1176C27.9451 14.7168 27.7859 13.9673 27.5024 13.6839Z" fill="white" stroke="#171717"/>
</svg>
