<svg width="52" height="52" viewBox="0 0 52 52" fill="none" xmlns="http://www.w3.org/2000/svg">
<g clip-path="url(#clip0_3486_33595)">
<mask id="path-1-outside-1_3486_33595" maskUnits="userSpaceOnUse" x="3.75391" y="6.07422" width="43" height="43" fill="black">
<rect fill="white" x="3.75391" y="6.07422" width="43" height="43"/>
<path fill-rule="evenodd" clip-rule="evenodd" d="M38.4863 8.08496C39.3585 8.17665 40.2275 8.755 40.4248 9.7627L40.4258 9.76172C40.4916 10.0932 40.4728 10.707 40.2188 11.2529C40.085 11.5403 39.8717 11.8394 39.5401 12.0557C39.2019 12.2761 38.7899 12.3786 38.3223 12.3486C37.9452 12.3242 37.6594 11.9982 37.6836 11.6211C37.7081 11.2443 38.0333 10.9585 38.4102 10.9824C38.6195 10.9958 38.7305 10.9483 38.792 10.9082C38.8598 10.8639 38.9239 10.7909 38.9776 10.6758C39.0322 10.5583 39.0655 10.4174 39.0801 10.2812C39.0871 10.2153 39.09 10.1561 39.0889 10.1084C39.0883 10.0849 39.0864 10.0653 39.085 10.0508C39.0836 10.0372 39.0822 10.0292 39.082 10.0283V10.0254C39.0298 9.75936 38.7902 9.52328 38.4317 9.45898L38.2695 9.44238C37.7241 9.42684 37.2414 9.65116 36.7959 10.0674C36.3414 10.4921 35.9562 11.0916 35.6416 11.7363C35.5635 11.8965 35.4903 12.057 35.4229 12.2158C41.8016 15.7489 45.742 22.8961 44.8233 30.583C43.6118 40.7179 34.4133 47.9517 24.2783 46.7402C18.704 46.0739 14.008 42.9914 11.1113 38.666C10.6468 38.5751 10.247 38.4437 9.95998 38.3311C9.80748 38.2712 9.68354 38.2157 9.5967 38.1748C9.55363 38.1545 9.51888 38.1375 9.49416 38.125L9.46095 38.1084C9.45145 38.104 9.44036 38.0987 9.42775 38.0928C9.38633 38.0732 9.32711 38.0457 9.25588 38.0088C9.11363 37.9352 8.91692 37.8256 8.68849 37.6807C8.23385 37.3922 7.64016 36.9504 7.10549 36.3457C6.56972 35.7397 6.07956 34.9546 5.86623 33.9834C5.65129 33.0043 5.72683 31.8827 6.25002 30.6348H6.25197C6.63638 29.7213 7.22935 28.8967 7.99025 28.2432C7.99645 27.5666 8.03896 26.8836 8.12111 26.1963C9.33254 16.0615 18.5303 8.82783 28.6651 10.0391C30.6327 10.2743 32.4909 10.811 34.1992 11.5967C34.265 11.4448 34.3351 11.2907 34.4102 11.1367C34.7625 10.4146 35.2368 9.65106 35.8613 9.06738C36.4554 8.51236 37.211 8.0996 38.126 8.07422H38.3115L38.4863 8.08496Z"/>
</mask>
<path fill-rule="evenodd" clip-rule="evenodd" d="M38.4863 8.08496C39.3585 8.17665 40.2275 8.755 40.4248 9.7627L40.4258 9.76172C40.4916 10.0932 40.4728 10.707 40.2188 11.2529C40.085 11.5403 39.8717 11.8394 39.5401 12.0557C39.2019 12.2761 38.7899 12.3786 38.3223 12.3486C37.9452 12.3242 37.6594 11.9982 37.6836 11.6211C37.7081 11.2443 38.0333 10.9585 38.4102 10.9824C38.6195 10.9958 38.7305 10.9483 38.792 10.9082C38.8598 10.8639 38.9239 10.7909 38.9776 10.6758C39.0322 10.5583 39.0655 10.4174 39.0801 10.2812C39.0871 10.2153 39.09 10.1561 39.0889 10.1084C39.0883 10.0849 39.0864 10.0653 39.085 10.0508C39.0836 10.0372 39.0822 10.0292 39.082 10.0283V10.0254C39.0298 9.75936 38.7902 9.52328 38.4317 9.45898L38.2695 9.44238C37.7241 9.42684 37.2414 9.65116 36.7959 10.0674C36.3414 10.4921 35.9562 11.0916 35.6416 11.7363C35.5635 11.8965 35.4903 12.057 35.4229 12.2158C41.8016 15.7489 45.742 22.8961 44.8233 30.583C43.6118 40.7179 34.4133 47.9517 24.2783 46.7402C18.704 46.0739 14.008 42.9914 11.1113 38.666C10.6468 38.5751 10.247 38.4437 9.95998 38.3311C9.80748 38.2712 9.68354 38.2157 9.5967 38.1748C9.55363 38.1545 9.51888 38.1375 9.49416 38.125L9.46095 38.1084C9.45145 38.104 9.44036 38.0987 9.42775 38.0928C9.38633 38.0732 9.32711 38.0457 9.25588 38.0088C9.11363 37.9352 8.91692 37.8256 8.68849 37.6807C8.23385 37.3922 7.64016 36.9504 7.10549 36.3457C6.56972 35.7397 6.07956 34.9546 5.86623 33.9834C5.65129 33.0043 5.72683 31.8827 6.25002 30.6348H6.25197C6.63638 29.7213 7.22935 28.8967 7.99025 28.2432C7.99645 27.5666 8.03896 26.8836 8.12111 26.1963C9.33254 16.0615 18.5303 8.82783 28.6651 10.0391C30.6327 10.2743 32.4909 10.811 34.1992 11.5967C34.265 11.4448 34.3351 11.2907 34.4102 11.1367C34.7625 10.4146 35.2368 9.65106 35.8613 9.06738C36.4554 8.51236 37.211 8.0996 38.126 8.07422H38.3115L38.4863 8.08496Z" fill="white"/>
<path d="M38.4863 8.08496L38.6301 6.7175C38.6103 6.71542 38.5905 6.71377 38.5707 6.71255L38.4863 8.08496ZM40.4248 9.7627L39.0754 10.0269C39.1731 10.5255 39.5377 10.9297 40.0237 11.0779C40.5097 11.2261 41.0378 11.0942 41.3971 10.735L40.4248 9.7627ZM40.4258 9.76172L41.7745 9.49422C41.6758 8.99643 41.3109 8.59349 40.8253 8.44604C40.3397 8.29859 39.8124 8.4306 39.4535 8.78945L40.4258 9.76172ZM40.2188 11.2529L41.4653 11.8333L41.4654 11.8331L40.2188 11.2529ZM39.5401 12.0557L40.291 13.2075L40.2913 13.2073L39.5401 12.0557ZM38.3223 12.3486L38.2333 13.7208L38.2343 13.7208L38.3223 12.3486ZM37.6836 11.6211L36.3115 11.5319L36.3114 11.533L37.6836 11.6211ZM38.4102 10.9824L38.4979 9.61022L38.4974 9.61019L38.4102 10.9824ZM38.792 10.9082L39.5431 12.06L39.5441 12.0593L38.792 10.9082ZM38.9776 10.6758L40.2238 11.2567L40.2242 11.2559L38.9776 10.6758ZM39.0801 10.2812L40.4473 10.4275L40.4473 10.4271L39.0801 10.2812ZM39.0889 10.1084L40.4635 10.0752L40.4635 10.0745L39.0889 10.1084ZM39.085 10.0508L40.4534 9.91662L40.4533 9.91558L39.085 10.0508ZM39.082 10.0283H37.707C37.707 10.1093 37.7142 10.1901 37.7284 10.2698L39.082 10.0283ZM39.082 10.0254H40.457C40.457 9.93639 40.4484 9.84759 40.4312 9.76026L39.082 10.0254ZM38.4317 9.45898L38.6744 8.10557C38.6403 8.09947 38.6061 8.09466 38.5717 8.09114L38.4317 9.45898ZM38.2695 9.44238L38.4096 8.07454C38.3761 8.0711 38.3424 8.0689 38.3087 8.06794L38.2695 9.44238ZM36.7959 10.0674L35.8572 9.06264L35.8571 9.06275L36.7959 10.0674ZM35.6416 11.7363L34.4059 11.1334L34.4058 11.1335L35.6416 11.7363ZM35.4229 12.2158L34.1571 11.6787C33.8822 12.3266 34.1409 13.0776 34.7566 13.4186L35.4229 12.2158ZM44.8233 30.583L46.1885 30.7462V30.7462L44.8233 30.583ZM24.2783 46.7402L24.1151 48.1055H24.1151L24.2783 46.7402ZM11.1113 38.666L12.2538 37.9009C12.0504 37.5971 11.7342 37.3868 11.3753 37.3166L11.1113 38.666ZM9.95998 38.3311L9.45756 39.611L9.45771 39.611L9.95998 38.3311ZM9.5967 38.1748L9.01094 39.4188L9.01112 39.4189L9.5967 38.1748ZM9.49416 38.125L10.1138 36.8975L10.1091 36.8952L9.49416 38.125ZM9.46095 38.1084L10.0759 36.8786C10.063 36.8721 10.05 36.8659 10.037 36.8599L9.46095 38.1084ZM9.42775 38.0928L8.83973 39.3357L8.83984 39.3357L9.42775 38.0928ZM9.25588 38.0088L8.62385 39.2299L8.62397 39.23L9.25588 38.0088ZM8.68849 37.6807L7.95175 38.8416L7.9518 38.8417L8.68849 37.6807ZM7.10549 36.3457L6.07531 37.2564L6.07538 37.2565L7.10549 36.3457ZM5.86623 33.9834L4.5232 34.2782L4.52325 34.2784L5.86623 33.9834ZM6.25002 30.6348V29.2598C5.69603 29.2598 5.19615 29.5922 4.98196 30.1031L6.25002 30.6348ZM6.25197 30.6348V32.0098C6.80529 32.0098 7.30471 31.6781 7.51933 31.1681L6.25197 30.6348ZM7.99025 28.2432L8.88612 29.2863C9.18693 29.0279 9.36156 28.6523 9.36519 28.2558L7.99025 28.2432ZM8.12111 26.1963L6.75583 26.0331L6.75583 26.0331L8.12111 26.1963ZM28.6651 10.0391L28.8283 8.67378L28.8282 8.67378L28.6651 10.0391ZM34.1992 11.5967L33.6247 12.8459C33.9609 13.0005 34.3453 13.0131 34.6909 12.8808C35.0365 12.7485 35.3142 12.4824 35.4611 12.1428L34.1992 11.5967ZM34.4102 11.1367L33.1744 10.5338L33.1743 10.5339L34.4102 11.1367ZM35.8613 9.06738L34.9227 8.06263L34.9225 8.06278L35.8613 9.06738ZM38.126 8.07422V6.69922C38.1133 6.69922 38.1006 6.6994 38.0879 6.69975L38.126 8.07422ZM38.3115 8.07422L38.3959 6.70181C38.3678 6.70008 38.3397 6.69922 38.3115 6.69922V8.07422ZM38.4863 8.08496L38.3426 9.45242C38.5362 9.47278 38.7175 9.54778 38.8473 9.65214C38.9658 9.74732 39.044 9.86614 39.0754 10.0269L40.4248 9.7627L41.7742 9.49848C41.434 7.76099 39.9511 6.85638 38.6301 6.7175L38.4863 8.08496ZM40.4248 9.7627L41.3971 10.735L41.3981 10.734L40.4258 9.76172L39.4535 8.78945L39.4525 8.79042L40.4248 9.7627ZM40.4258 9.76172L39.0771 10.0292C39.0763 10.0255 39.081 10.0494 39.0826 10.1008C39.0841 10.1497 39.0825 10.2112 39.0751 10.2803C39.0597 10.4234 39.0238 10.5617 38.9721 10.6728L40.2188 11.2529L41.4654 11.8331C41.853 11.0002 41.8921 10.0868 41.7745 9.49422L40.4258 9.76172ZM40.2188 11.2529L38.9722 10.6726C38.9182 10.7886 38.8546 10.8611 38.7888 10.904L39.5401 12.0557L40.2913 13.2073C40.8887 12.8176 41.2517 12.292 41.4653 11.8333L40.2188 11.2529ZM39.5401 12.0557L38.7891 10.9039C38.7291 10.943 38.6191 10.9898 38.4103 10.9765L38.3223 12.3486L38.2343 13.7208C38.9608 13.7674 39.6748 13.6093 40.291 13.2075L39.5401 12.0557ZM38.3223 12.3486L38.4113 10.9765C38.7935 11.0013 39.0801 11.3306 39.0558 11.7092L37.6836 11.6211L36.3114 11.533C36.2387 12.6658 37.097 13.6471 38.2333 13.7207L38.3223 12.3486ZM37.6836 11.6211L39.0557 11.7103C39.031 12.0908 38.7028 12.3788 38.323 12.3547L38.4102 10.9824L38.4974 9.61019C37.3638 9.53816 36.3852 10.3977 36.3115 11.5319L37.6836 11.6211ZM38.4102 10.9824L38.3224 12.3546C38.7986 12.3851 39.2096 12.2774 39.5431 12.06L38.792 10.9082L38.0409 9.75645C38.1285 9.69933 38.2266 9.65524 38.3268 9.63049C38.4207 9.60731 38.4834 9.60929 38.4979 9.61022L38.4102 10.9824ZM38.792 10.9082L39.5441 12.0593C39.8703 11.8461 40.0863 11.5518 40.2238 11.2567L38.9776 10.6758L37.7313 10.0949C37.7615 10.03 37.8493 9.8817 38.0399 9.75714L38.792 10.9082ZM38.9776 10.6758L40.2242 11.2559C40.3591 10.9659 40.4214 10.6693 40.4473 10.4275L39.0801 10.2812L37.7129 10.135C37.7119 10.1442 37.7107 10.149 37.7111 10.1474C37.7114 10.1462 37.7126 10.1415 37.7154 10.1335C37.7181 10.1257 37.723 10.1128 37.7309 10.0956L38.9776 10.6758ZM39.0801 10.2812L40.4473 10.4271C40.4588 10.3199 40.4665 10.1986 40.4635 10.0752L39.0889 10.1084L37.7143 10.1416C37.7141 10.1329 37.7141 10.1268 37.7142 10.1235C37.7142 10.1201 37.7143 10.1185 37.7143 10.1188C37.7143 10.1197 37.7139 10.1253 37.7129 10.1354L39.0801 10.2812ZM39.0889 10.1084L40.4635 10.0745C40.4616 9.99694 40.4552 9.93432 40.4534 9.91662L39.085 10.0508L37.7165 10.1849C37.7176 10.1963 37.7151 10.1729 37.7143 10.1423L39.0889 10.1084ZM39.085 10.0508L40.4533 9.91558C40.4505 9.88754 40.4474 9.86219 40.4442 9.83982C40.4426 9.82861 40.441 9.81819 40.4394 9.8086C40.4386 9.8038 40.4379 9.79933 40.4371 9.7952C40.4368 9.79314 40.4365 9.79127 40.4362 9.78963C40.4359 9.78802 40.4356 9.78665 40.4357 9.78683L39.082 10.0283L37.7284 10.2698C37.7285 10.2701 37.7283 10.2689 37.728 10.2675C37.7278 10.2661 37.7275 10.2645 37.7272 10.2628C37.7266 10.2593 37.726 10.2557 37.7254 10.252C37.7242 10.2445 37.723 10.2371 37.722 10.2297C37.7198 10.215 37.7181 10.2004 37.7166 10.186L39.085 10.0508ZM39.082 10.0283H40.457V10.0254H39.082H37.707V10.0283H39.082ZM39.082 10.0254L40.4312 9.76026C40.2517 8.84666 39.4931 8.25239 38.6744 8.10557L38.4317 9.45898L38.189 10.8124C38.0873 10.7942 37.8078 10.6721 37.7329 10.2905L39.082 10.0254ZM38.4317 9.45898L38.5717 8.09114L38.4096 8.07454L38.2695 9.44238L38.1295 10.8102L38.2916 10.8268L38.4317 9.45898ZM38.2695 9.44238L38.3087 8.06794C37.3116 8.03953 36.4936 8.46816 35.8572 9.06264L36.7959 10.0674L37.7346 11.0721C37.9893 10.8342 38.1366 10.8142 38.2304 10.8168L38.2695 9.44238ZM36.7959 10.0674L35.8571 9.06275C35.231 9.64785 34.7575 10.4127 34.4059 11.1334L35.6416 11.7363L36.8774 12.3393C37.1549 11.7705 37.4518 11.3364 37.7347 11.072L36.7959 10.0674ZM35.6416 11.7363L34.4058 11.1335C34.3175 11.3146 34.2342 11.4971 34.1571 11.6787L35.4229 12.2158L36.6886 12.753C36.7463 12.617 36.8095 12.4784 36.8774 12.3392L35.6416 11.7363ZM35.4229 12.2158L34.7566 13.4186C40.6634 16.6903 44.3081 23.3071 43.458 30.4198L44.8233 30.583L46.1885 30.7462C47.1759 22.485 42.9398 14.8075 36.0891 11.013L35.4229 12.2158ZM44.8233 30.583L43.458 30.4198C42.3367 39.8007 33.8225 46.4963 24.4415 45.375L24.2783 46.7402L24.1151 48.1055C35.004 49.4071 44.887 41.6352 46.1885 30.7462L44.8233 30.583ZM24.2783 46.7402L24.4415 45.375C19.2824 44.7582 14.9368 41.9073 12.2538 37.9009L11.1113 38.666L9.96886 39.4311C13.0792 44.0756 18.1257 47.3895 24.1151 48.1055L24.2783 46.7402ZM11.1113 38.666L11.3753 37.3166C11.0068 37.2445 10.6874 37.1394 10.4622 37.0511L9.95998 38.3311L9.45771 39.611C9.80667 39.748 10.2868 39.9058 10.8473 40.0154L11.1113 38.666ZM9.95998 38.3311L10.4624 37.0511C10.3429 37.0042 10.247 36.9612 10.1823 36.9307L9.5967 38.1748L9.01112 39.4189C9.12006 39.4702 9.27205 39.5382 9.45756 39.611L9.95998 38.3311ZM9.5967 38.1748L10.1825 36.9308C10.1496 36.9154 10.1263 36.9038 10.1138 36.8976L9.49416 38.125L8.87447 39.3524C8.91149 39.3711 8.95762 39.3937 9.01094 39.4188L9.5967 38.1748ZM9.49416 38.125L10.1091 36.8952L10.0759 36.8786L9.46095 38.1084L8.84604 39.3382L8.87924 39.3548L9.49416 38.125ZM9.46095 38.1084L10.037 36.8599C10.0375 36.8601 10.0365 36.8597 10.0323 36.8577C10.0303 36.8567 10.0281 36.8557 10.0252 36.8543C10.0226 36.8531 10.0191 36.8514 10.0157 36.8498L9.42775 38.0928L8.83984 39.3357C8.84738 39.3393 8.86763 39.3489 8.88494 39.3569L9.46095 38.1084ZM9.42775 38.0928L10.0158 36.8499C9.96756 36.827 9.93272 36.8108 9.88778 36.7876L9.25588 38.0088L8.62397 39.23C8.7215 39.2805 8.80509 39.3193 8.83973 39.3357L9.42775 38.0928ZM9.25588 38.0088L9.8879 36.7877C9.77922 36.7314 9.6176 36.6418 9.42518 36.5197L8.68849 37.6807L7.9518 38.8417C8.21624 39.0095 8.44805 39.1389 8.62385 39.2299L9.25588 38.0088ZM8.68849 37.6807L9.42523 36.5197C9.04334 36.2774 8.56026 35.9152 8.13559 35.4349L7.10549 36.3457L6.07538 37.2565C6.72005 37.9856 7.42437 38.507 7.95175 38.8416L8.68849 37.6807ZM7.10549 36.3457L8.13566 35.435C7.71172 34.9554 7.36002 34.3749 7.20921 33.6884L5.86623 33.9834L4.52325 34.2784C4.7991 35.5342 5.42773 36.5239 6.07531 37.2564L7.10549 36.3457ZM5.86623 33.9834L7.20925 33.6886C7.05987 33.0081 7.09535 32.1747 7.51808 31.1664L6.25002 30.6348L4.98196 30.1031C4.3583 31.5906 4.24272 33.0004 4.5232 34.2782L5.86623 33.9834ZM6.25002 30.6348V32.0098H6.25197V30.6348V29.2598H6.25002V30.6348ZM6.25197 30.6348L7.51933 31.1681C7.82295 30.4466 8.29049 29.7978 8.88612 29.2863L7.99025 28.2432L7.09438 27.2001C6.16821 27.9955 5.44981 28.996 4.98461 30.1014L6.25197 30.6348ZM7.99025 28.2432L9.36519 28.2558C9.37094 27.6284 9.41035 26.9957 9.48639 26.3595L8.12111 26.1963L6.75583 26.0331C6.66756 26.7716 6.62196 27.5049 6.61531 28.2306L7.99025 28.2432ZM8.12111 26.1963L9.48639 26.3595C10.6077 16.9787 19.1211 10.2832 28.5019 11.4043L28.6651 10.0391L28.8282 8.67378C17.9394 7.37243 8.05739 15.1442 6.75583 26.0331L8.12111 26.1963ZM28.6651 10.0391L28.5019 11.4043C30.3252 11.6223 32.0448 12.1193 33.6247 12.8459L34.1992 11.5967L34.7737 10.3475C32.937 9.50277 30.9401 8.92622 28.8283 8.67378L28.6651 10.0391ZM34.1992 11.5967L35.4611 12.1428C35.5201 12.0067 35.5815 11.8718 35.646 11.7395L34.4102 11.1367L33.1743 10.5339C33.0887 10.7096 33.0099 10.8829 32.9373 11.0506L34.1992 11.5967ZM34.4102 11.1367L35.646 11.7396C35.9605 11.0949 36.3464 10.496 36.8002 10.072L35.8613 9.06738L34.9225 8.06278C34.1271 8.80609 33.5645 9.73418 33.1744 10.5338L34.4102 11.1367ZM35.8613 9.06738L36.8 10.0721C37.2191 9.68062 37.6692 9.46242 38.1641 9.44869L38.126 8.07422L38.0879 6.69975C36.7529 6.73678 35.6918 7.3441 34.9227 8.06263L35.8613 9.06738ZM38.126 8.07422V9.44922H38.3115V8.07422V6.69922H38.126V8.07422ZM38.3115 8.07422L38.2272 9.44663L38.402 9.45737L38.4863 8.08496L38.5707 6.71255L38.3959 6.70181L38.3115 8.07422Z" fill="white" mask="url(#path-1-outside-1_3486_33595)"/>
<path d="M34.0867 14.1893C34.0867 14.1893 35.2102 8.67448 38.2997 8.76474C38.9877 8.78582 39.6283 9.21162 39.7628 9.90203C39.843 10.3059 39.7299 11.7591 38.3753 11.6721" stroke="#464646" stroke-width="1.375" stroke-linecap="round" stroke-linejoin="round"/>
<path d="M24.3491 46.072C34.1086 47.2386 42.966 40.2726 44.1326 30.513C45.2992 20.7534 38.3332 11.896 28.5736 10.7295C18.814 9.56288 9.95665 16.5289 8.79007 26.2885C7.6235 36.048 14.5895 44.9054 24.3491 46.072Z" fill="white" stroke="#464646" stroke-width="1.375" stroke-linecap="round" stroke-linejoin="round"/>
<path d="M35.145 28.7599C34.6581 31.0696 30.9495 31.2549 26.5962 30.3901C22.2428 29.5253 19.0608 27.9136 19.3891 25.628C19.7173 23.3423 23.5846 23.133 27.938 23.9978C32.2913 24.8626 35.626 26.5011 35.145 28.7599Z" fill="#C6C6C6"/>
<path d="M17.631 21.5817C17.631 21.5817 18.2735 21.4187 19.1896 21.5629C20.2114 21.7237 21.468 22.1314 22.157 22.3296C24.1851 22.9154 24.9612 20.844 24.5171 19.9368" stroke="#464646" stroke-width="1.375" stroke-linecap="round" stroke-linejoin="round"/>
<path d="M34.6203 29.4202C35.371 29.5099 36.0524 28.9741 36.1421 28.2234C36.2318 27.4726 35.696 26.7913 34.9453 26.7015C34.1945 26.6118 33.5132 27.1477 33.4235 27.8984C33.3337 28.6491 33.8696 29.3305 34.6203 29.4202Z" fill="#464646"/>
<path d="M19.8312 26.2718C20.582 26.3615 21.2633 25.8257 21.353 25.0749C21.4428 24.3242 20.9069 23.6428 20.1562 23.5531C19.4055 23.4634 18.7241 23.9992 18.6344 24.75C18.5447 25.5007 19.0805 26.182 19.8312 26.2718Z" fill="#464646"/>
<path d="M33.2206 34.0765C33.2206 34.0765 25.4458 33.3763 19.7109 31.4727" stroke="#464646" stroke-width="1.375" stroke-linecap="round" stroke-linejoin="round"/>
<path d="M19.6211 29.0078C19.6211 29.0078 19.3176 31.1265 19.053 32.9738" stroke="#464646" stroke-width="1.375" stroke-linecap="round" stroke-linejoin="round"/>
<path d="M33.5391 31.7188C33.5391 31.7188 33.3567 32.992 32.971 35.6847" stroke="#464646" stroke-width="1.375" stroke-linecap="round" stroke-linejoin="round"/>
<path d="M13.6588 34.5535C13.6588 34.5535 17.481 32.6031 15.4232 28.9905C14.5368 27.4365 12.7951 27.3369 11.4979 27.4715C9.30932 27.6895 7.65036 29.1021 6.8889 30.9116C4.99529 35.4275 9.77996 37.5108 9.77996 37.5108C9.77996 37.5108 12.3842 38.9081 14.2989 37.4084" fill="white"/>
<path d="M13.6588 34.5535C13.6588 34.5535 17.481 32.6031 15.4232 28.9905C14.5368 27.4365 12.7951 27.3369 11.4979 27.4715C9.30932 27.6895 7.65036 29.1021 6.8889 30.9116C4.99529 35.4275 9.77996 37.5108 9.77996 37.5108C9.77996 37.5108 12.3842 38.9081 14.2989 37.4084" stroke="#464646" stroke-width="1.375" stroke-linecap="round" stroke-linejoin="round"/>
</g>
<defs>
<clipPath id="clip0_3486_33595">
<rect width="44" height="44" fill="white" transform="translate(4 4)"/>
</clipPath>
</defs>
</svg>
