<svg width="52" height="52" viewBox="0 0 52 52" fill="none" xmlns="http://www.w3.org/2000/svg">
<mask id="path-1-outside-1_3486_33595" maskUnits="userSpaceOnUse" x="2.9375" y="4.26562" width="45" height="44" fill="black">
<rect fill="white" x="2.9375" y="4.26562" width="45" height="44"/>
<path fill-rule="evenodd" clip-rule="evenodd" d="M38.9928 6.27734C39.9 6.37289 40.8042 6.97418 41.0094 8.02246L41.0104 8.02148C41.0788 8.36643 41.0589 9.00527 40.7946 9.57324C40.6553 9.87218 40.4335 10.1832 40.0885 10.4082C39.7367 10.6376 39.3085 10.7451 38.8219 10.7139C38.4295 10.6886 38.1327 10.3485 38.1578 9.95605C38.1833 9.56382 38.5214 9.26583 38.9137 9.29102C39.1311 9.30491 39.2461 9.25651 39.3102 9.21484C39.3807 9.16882 39.4468 9.09221 39.5026 8.97266C39.5595 8.8504 39.5948 8.70418 39.61 8.5625C39.6174 8.49365 39.62 8.43164 39.6188 8.38184C39.6182 8.35727 39.6164 8.3364 39.6149 8.32129C39.6135 8.30742 39.6121 8.29972 39.6119 8.29883L39.6129 8.2959C39.5586 8.01891 39.3086 7.77287 38.9352 7.70605L38.7672 7.68945C38.1996 7.67319 37.6976 7.90672 37.234 8.33984C36.7611 8.78175 36.3601 9.40536 36.0328 10.0762C35.9515 10.2429 35.8754 10.41 35.8053 10.5752C42.4416 14.2512 46.5406 21.6871 45.5846 29.6846C44.324 40.2288 34.7548 47.7552 24.2106 46.4951C18.411 45.8019 13.5251 42.5939 10.5114 38.0938C10.028 37.9992 9.61182 37.8633 9.31312 37.7461C9.15465 37.6839 9.02651 37.6255 8.93617 37.583C8.89125 37.5619 8.85453 37.5443 8.82875 37.5312C8.8166 37.5251 8.80606 37.5205 8.79847 37.5166L8.79359 37.5146C8.78374 37.5101 8.77247 37.5042 8.75941 37.498C8.71631 37.4777 8.65483 37.4485 8.5807 37.4102C8.43268 37.3335 8.22756 37.2202 7.98988 37.0693C7.51692 36.7692 6.89961 36.3097 6.34339 35.6807C5.78587 35.05 5.27625 34.2323 5.05433 33.2217C4.83074 32.2029 4.90934 31.0366 5.45375 29.7383H5.45472C5.85463 28.788 6.47178 27.9299 7.26332 27.25C7.26975 26.546 7.31455 25.8353 7.40004 25.1201C8.66043 14.5756 18.2296 7.04937 28.7741 8.30957C30.8212 8.55427 32.7544 9.11323 34.5319 9.93066C34.6003 9.77258 34.6735 9.61236 34.7516 9.45215C35.1182 8.70073 35.6115 7.90613 36.2614 7.29883C36.8795 6.72137 37.6658 6.29203 38.6178 6.26562H38.8102L38.9928 6.27734Z"/>
</mask>
<path fill-rule="evenodd" clip-rule="evenodd" d="M38.9928 6.27734C39.9 6.37289 40.8042 6.97418 41.0094 8.02246L41.0104 8.02148C41.0788 8.36643 41.0589 9.00527 40.7946 9.57324C40.6553 9.87218 40.4335 10.1832 40.0885 10.4082C39.7367 10.6376 39.3085 10.7451 38.8219 10.7139C38.4295 10.6886 38.1327 10.3485 38.1578 9.95605C38.1833 9.56382 38.5214 9.26583 38.9137 9.29102C39.1311 9.30491 39.2461 9.25651 39.3102 9.21484C39.3807 9.16882 39.4468 9.09221 39.5026 8.97266C39.5595 8.8504 39.5948 8.70418 39.61 8.5625C39.6174 8.49365 39.62 8.43164 39.6188 8.38184C39.6182 8.35727 39.6164 8.3364 39.6149 8.32129C39.6135 8.30742 39.6121 8.29972 39.6119 8.29883L39.6129 8.2959C39.5586 8.01891 39.3086 7.77287 38.9352 7.70605L38.7672 7.68945C38.1996 7.67319 37.6976 7.90672 37.234 8.33984C36.7611 8.78175 36.3601 9.40536 36.0328 10.0762C35.9515 10.2429 35.8754 10.41 35.8053 10.5752C42.4416 14.2512 46.5406 21.6871 45.5846 29.6846C44.324 40.2288 34.7548 47.7552 24.2106 46.4951C18.411 45.8019 13.5251 42.5939 10.5114 38.0938C10.028 37.9992 9.61182 37.8633 9.31312 37.7461C9.15465 37.6839 9.02651 37.6255 8.93617 37.583C8.89125 37.5619 8.85453 37.5443 8.82875 37.5312C8.8166 37.5251 8.80606 37.5205 8.79847 37.5166L8.79359 37.5146C8.78374 37.5101 8.77247 37.5042 8.75941 37.498C8.71631 37.4777 8.65483 37.4485 8.5807 37.4102C8.43268 37.3335 8.22756 37.2202 7.98988 37.0693C7.51692 36.7692 6.89961 36.3097 6.34339 35.6807C5.78587 35.05 5.27625 34.2323 5.05433 33.2217C4.83074 32.2029 4.90934 31.0366 5.45375 29.7383H5.45472C5.85463 28.788 6.47178 27.9299 7.26332 27.25C7.26975 26.546 7.31455 25.8353 7.40004 25.1201C8.66043 14.5756 18.2296 7.04937 28.7741 8.30957C30.8212 8.55427 32.7544 9.11323 34.5319 9.93066C34.6003 9.77258 34.6735 9.61236 34.7516 9.45215C35.1182 8.70073 35.6115 7.90613 36.2614 7.29883C36.8795 6.72137 37.6658 6.29203 38.6178 6.26562H38.8102L38.9928 6.27734Z" fill="white"/>
<path d="M38.9928 6.27734L39.1368 4.90991C39.1182 4.90795 39.0995 4.90637 39.0809 4.90517L38.9928 6.27734ZM41.0094 8.02246L39.66 8.28666C39.7577 8.78528 40.1223 9.18943 40.6083 9.33765C41.0943 9.48587 41.6224 9.35401 41.9817 8.99473L41.0094 8.02246ZM41.0104 8.02148L42.3591 7.75406C42.2604 7.25625 41.8955 6.85328 41.4099 6.70581C40.9243 6.55835 40.397 6.69035 40.0381 7.04921L41.0104 8.02148ZM40.7946 9.57324L42.041 10.1538L42.0412 10.1534L40.7946 9.57324ZM40.0885 10.4082L40.8395 11.56L40.8396 11.5599L40.0885 10.4082ZM38.8219 10.7139L38.7334 12.086L38.7339 12.086L38.8219 10.7139ZM38.1578 9.95605L36.7857 9.86694L36.7857 9.86798L38.1578 9.95605ZM38.9137 9.29102L38.8256 10.6632L38.826 10.6632L38.9137 9.29102ZM39.3102 9.21484L40.0599 10.3675L40.0621 10.366L39.3102 9.21484ZM39.5026 8.97266L40.7486 9.55411L40.7491 9.55301L39.5026 8.97266ZM39.61 8.5625L40.9772 8.70884L40.9772 8.70873L39.61 8.5625ZM39.6188 8.38184L40.9934 8.3485L40.9934 8.3476L39.6188 8.38184ZM39.6149 8.32129L40.9833 8.18661L40.9831 8.1845L39.6149 8.32129ZM39.6119 8.29883L38.3075 7.86401C38.2349 8.08181 38.218 8.31431 38.2583 8.54031L39.6119 8.29883ZM39.6129 8.2959L40.9174 8.73071C40.9925 8.50538 41.0079 8.26444 40.9622 8.03136L39.6129 8.2959ZM38.9352 7.70605L39.1774 6.35256C39.142 6.34621 39.1063 6.34126 39.0704 6.33772L38.9352 7.70605ZM38.7672 7.68945L38.9025 6.32112C38.8706 6.31797 38.8386 6.31593 38.8066 6.31502L38.7672 7.68945ZM37.234 8.33984L36.2953 7.3351L36.2952 7.33521L37.234 8.33984ZM36.0328 10.0762L34.7971 9.47324L34.797 9.47335L36.0328 10.0762ZM35.8053 10.5752L34.5396 10.0381C34.2646 10.686 34.5233 11.4369 35.139 11.778L35.8053 10.5752ZM45.5846 29.6846L46.9499 29.8478L46.9499 29.8478L45.5846 29.6846ZM24.2106 46.4951L24.0474 47.8604L24.0474 47.8604L24.2106 46.4951ZM10.5114 38.0938L11.6538 37.3286C11.4503 37.0248 11.1342 36.8145 10.7753 36.7443L10.5114 38.0938ZM9.31312 37.7461L8.81071 39.026L8.81086 39.0261L9.31312 37.7461ZM8.93617 37.583L8.35049 38.827L8.35065 38.8271L8.93617 37.583ZM8.82875 37.5312L8.20877 38.7585L8.20911 38.7587L8.82875 37.5312ZM8.79847 37.5166L9.42911 36.2948C9.39002 36.2746 9.34998 36.2563 9.30913 36.2399L8.79847 37.5166ZM8.79359 37.5146L8.21689 38.7629C8.23865 38.7729 8.26067 38.7824 8.28293 38.7913L8.79359 37.5146ZM8.75941 37.498L8.17138 38.741L8.1715 38.741L8.75941 37.498ZM8.5807 37.4102L7.94866 38.6313L7.94879 38.6314L8.5807 37.4102ZM7.98988 37.0693L7.25313 38.2303L7.25316 38.2303L7.98988 37.0693ZM6.34339 35.6807L5.31324 36.5914L5.31333 36.5915L6.34339 35.6807ZM5.05433 33.2217L3.7113 33.5164L3.71133 33.5166L5.05433 33.2217ZM5.45375 29.7383V28.3633C4.89978 28.3633 4.39992 28.6957 4.1857 29.2066L5.45375 29.7383ZM5.45472 29.7383V31.1133C6.00805 31.1133 6.50746 30.7816 6.72208 30.2716L5.45472 29.7383ZM7.26332 27.25L8.15924 28.293C8.46003 28.0347 8.63464 27.6591 8.63826 27.2626L7.26332 27.25ZM7.40004 25.1201L6.03475 24.9569L6.03475 24.9569L7.40004 25.1201ZM28.7741 8.30957L28.9373 6.94429L28.9372 6.94429L28.7741 8.30957ZM34.5319 9.93066L33.9574 11.1799C34.2936 11.3345 34.6779 11.3471 35.0235 11.2148C35.3691 11.0824 35.6468 10.8164 35.7938 10.4768L34.5319 9.93066ZM34.7516 9.45215L33.5158 8.84928L33.5158 8.84937L34.7516 9.45215ZM36.2614 7.29883L35.3227 6.29408L35.3226 6.29419L36.2614 7.29883ZM38.6178 6.26562V4.89062C38.6051 4.89062 38.5924 4.8908 38.5797 4.89115L38.6178 6.26562ZM38.8102 6.26562L38.8982 4.89345C38.8689 4.89157 38.8396 4.89062 38.8102 4.89062V6.26562ZM38.9928 6.27734L38.8488 7.64478C39.3078 7.69313 39.5977 7.96856 39.66 8.28666L41.0094 8.02246L42.3588 7.75826C42.0106 5.97981 40.4922 5.05266 39.1368 4.90991L38.9928 6.27734ZM41.0094 8.02246L41.9817 8.99473L41.9827 8.99376L41.0104 8.02148L40.0381 7.04921L40.0371 7.05019L41.0094 8.02246ZM41.0104 8.02148L39.6616 8.28891C39.6615 8.28826 39.6666 8.31616 39.6683 8.37205C39.67 8.42549 39.6682 8.49209 39.6601 8.56662C39.6436 8.72054 39.6048 8.87084 39.5479 8.99312L40.7946 9.57324L42.0412 10.1534C42.4387 9.29907 42.4794 8.36069 42.3591 7.75406L41.0104 8.02148ZM40.7946 9.57324L39.5481 8.99266C39.4886 9.12054 39.4164 9.20499 39.3374 9.25648L40.0885 10.4082L40.8396 11.5599C41.4506 11.1615 41.8221 10.6238 42.041 10.1538L40.7946 9.57324ZM40.0885 10.4082L39.3375 9.2564C39.2623 9.30547 39.1355 9.35616 38.9099 9.34169L38.8219 10.7139L38.7339 12.086C39.4814 12.134 40.2112 11.9697 40.8395 11.56L40.0885 10.4082ZM38.8219 10.7139L38.9104 9.34172C39.2813 9.36564 39.5531 9.68453 39.53 10.0441L38.1578 9.95605L36.7857 9.86798C36.7122 11.0125 37.5777 12.0115 38.7334 12.086L38.8219 10.7139ZM38.1578 9.95605L39.53 10.0452C39.5064 10.4079 39.1931 10.6868 38.8256 10.6632L38.9137 9.29102L39.0018 7.91884C37.8496 7.84489 36.8603 8.71971 36.7857 9.86694L38.1578 9.95605ZM38.9137 9.29102L38.826 10.6632C39.3041 10.6938 39.72 10.5886 40.0599 10.3675L39.3102 9.21484L38.5604 8.06223C38.6493 8.00445 38.7469 7.96148 38.8441 7.93781C38.9348 7.91571 38.9931 7.91828 39.0014 7.91881L38.9137 9.29102ZM39.3102 9.21484L40.0621 10.366C40.3968 10.1474 40.6126 9.8455 40.7486 9.55411L39.5026 8.97266L38.2566 8.3912C38.281 8.33891 38.3645 8.19024 38.5583 8.06365L39.3102 9.21484ZM39.5026 8.97266L40.7491 9.55301C40.8846 9.26201 40.9501 8.96162 40.9772 8.70884L39.61 8.5625L38.2428 8.41616C38.2423 8.42044 38.2418 8.42447 38.2411 8.4279C38.2405 8.43135 38.2401 8.43315 38.2401 8.43313C38.2401 8.43305 38.2403 8.43228 38.2407 8.43083C38.2412 8.42939 38.2419 8.42708 38.243 8.42393C38.2451 8.41792 38.2492 8.40712 38.2561 8.3923L39.5026 8.97266ZM39.61 8.5625L40.9772 8.70873C40.9897 8.59148 40.9963 8.46858 40.9934 8.3485L39.6188 8.38184L38.2442 8.41517C38.244 8.40878 38.2441 8.40448 38.2441 8.40239C38.2441 8.40024 38.2442 8.39958 38.2441 8.40038C38.244 8.4022 38.2437 8.40769 38.2428 8.41627L39.61 8.5625ZM39.6188 8.38184L40.9934 8.3476C40.9916 8.27564 40.9863 8.21767 40.9833 8.18661L39.6149 8.32129L38.2465 8.45597C38.2465 8.45604 38.2464 8.45478 38.2462 8.45273C38.246 8.45066 38.2458 8.44778 38.2455 8.44427C38.245 8.43729 38.2445 8.42771 38.2442 8.41608L39.6188 8.38184ZM39.6149 8.32129L40.9831 8.1845C40.9804 8.15755 40.9773 8.13286 40.9741 8.11053C40.9725 8.09935 40.9709 8.08888 40.9693 8.07914C40.9685 8.07426 40.9677 8.06971 40.967 8.06552C40.9667 8.06342 40.9663 8.06154 40.966 8.05991C40.9658 8.05837 40.9655 8.05694 40.9656 8.05734L39.6119 8.29883L38.2583 8.54031C38.2584 8.54082 38.2582 8.53956 38.258 8.53824C38.2577 8.53683 38.2574 8.53522 38.2571 8.53345C38.2565 8.5299 38.2559 8.5262 38.2553 8.52239C38.254 8.51478 38.2529 8.50726 38.2518 8.49986C38.2497 8.48507 38.248 8.47116 38.2467 8.45808L39.6149 8.32129ZM39.6119 8.29883L40.9164 8.73364L40.9174 8.73071L39.6129 8.2959L38.3085 7.86109L38.3075 7.86401L39.6119 8.29883ZM39.6129 8.2959L40.9622 8.03136C40.7807 7.10538 40.0102 6.5016 39.1774 6.35256L38.9352 7.70605L38.693 9.05955C38.6069 9.04414 38.3365 8.93245 38.2636 8.56044L39.6129 8.2959ZM38.9352 7.70605L39.0704 6.33772L38.9025 6.32112L38.7672 7.68945L38.632 9.05779L38.7999 9.07439L38.9352 7.70605ZM38.7672 7.68945L38.8066 6.31502C37.7869 6.2858 36.9494 6.72401 36.2953 7.3351L37.234 8.33984L38.1727 9.34459C38.4458 9.08944 38.6124 9.06058 38.7278 9.06389L38.7672 7.68945ZM37.234 8.33984L36.2952 7.33521C35.6509 7.93732 35.1616 8.72613 34.7971 9.47324L36.0328 10.0762L37.2686 10.6791C37.5587 10.0846 37.8714 9.62618 38.1728 9.34448L37.234 8.33984ZM36.0328 10.0762L34.797 9.47335C34.7053 9.66146 34.6192 9.85046 34.5396 10.0381L35.8053 10.5752L37.0711 11.1123C37.1317 10.9695 37.1978 10.8243 37.2687 10.679L36.0328 10.0762ZM35.8053 10.5752L35.139 11.778C41.3033 15.1926 45.1066 22.098 44.2193 29.5214L45.5846 29.6846L46.9499 29.8478C47.9745 21.2761 43.5799 13.3099 36.4716 9.3724L35.8053 10.5752ZM45.5846 29.6846L44.2193 29.5213C43.0489 39.3116 34.1639 46.2998 24.3737 45.1298L24.2106 46.4951L24.0474 47.8604C35.3457 49.2106 45.5992 41.1459 46.9499 29.8478L45.5846 29.6846ZM24.2106 46.4951L24.3738 45.1298C18.9895 44.4862 14.454 41.5099 11.6538 37.3286L10.5114 38.0938L9.3689 38.8589C12.5962 43.6779 17.8326 47.1175 24.0474 47.8604L24.2106 46.4951ZM10.5114 38.0938L10.7753 36.7443C10.3862 36.6682 10.0502 36.5583 9.81538 36.4661L9.31312 37.7461L8.81086 39.0261C9.17342 39.1683 9.6697 39.3302 10.2474 39.4432L10.5114 38.0938ZM9.31312 37.7461L9.81554 36.4662C9.69478 36.4188 9.59603 36.3739 9.52168 36.3389L8.93617 37.583L8.35065 38.8271C8.45698 38.8772 8.61453 38.949 8.81071 39.026L9.31312 37.7461ZM8.93617 37.583L9.52184 36.339C9.47784 36.3183 9.45592 36.3076 9.44838 36.3038L8.82875 37.5312L8.20911 38.7587C8.25314 38.7809 8.30466 38.8055 8.35049 38.827L8.93617 37.583ZM8.82875 37.5312L9.44873 36.304C9.43599 36.2975 9.42491 36.2921 9.41635 36.288C9.40814 36.284 9.40109 36.2807 9.39834 36.2794C9.39736 36.279 9.39717 36.2789 9.3966 36.2786C9.39621 36.2784 9.39611 36.2784 9.39617 36.2784C9.39619 36.2784 9.39759 36.2791 9.39969 36.2801C9.40181 36.2811 9.40546 36.2829 9.41013 36.2852C9.41477 36.2875 9.42128 36.2907 9.42911 36.2948L8.79847 37.5166L8.16783 38.7385C8.18644 38.7481 8.20181 38.7555 8.2097 38.7593C8.21728 38.7629 8.22488 38.7665 8.22547 38.7668C8.23041 38.7691 8.22103 38.7647 8.20877 38.7585L8.82875 37.5312ZM8.79847 37.5166L9.30913 36.2399L9.30425 36.238L8.79359 37.5146L8.28293 38.7913L8.28781 38.7933L8.79847 37.5166ZM8.79359 37.5146L9.37029 36.2664C9.37899 36.2705 9.38528 36.2735 9.38745 36.2746C9.38936 36.2755 9.39042 36.276 9.3872 36.2744C9.38513 36.2734 9.3793 36.2705 9.37304 36.2675C9.36636 36.2642 9.35755 36.2599 9.34732 36.2551L8.75941 37.498L8.1715 38.741C8.16535 38.7381 8.16063 38.7357 8.1682 38.7395C8.17067 38.7407 8.17721 38.7439 8.18441 38.7475C8.19187 38.7511 8.20326 38.7566 8.21689 38.7629L8.79359 37.5146ZM8.75941 37.498L9.34744 36.2551C9.30677 36.2359 9.26378 36.2154 9.21261 36.189L8.5807 37.4102L7.94879 38.6314C8.04588 38.6816 8.12585 38.7194 8.17138 38.741L8.75941 37.498ZM8.5807 37.4102L9.21274 36.189C9.09547 36.1283 8.92583 36.0348 8.7266 35.9084L7.98988 37.0693L7.25316 38.2303C7.52929 38.4055 7.7699 38.5388 7.94866 38.6313L8.5807 37.4102ZM7.98988 37.0693L8.72663 35.9084C8.32662 35.6545 7.81981 35.2746 7.37346 34.7698L6.34339 35.6807L5.31333 36.5915C5.9794 37.3448 6.70723 37.8839 7.25313 38.2303L7.98988 37.0693ZM6.34339 35.6807L7.37355 34.7699C6.92842 34.2664 6.55688 33.6534 6.39734 32.9268L5.05433 33.2217L3.71133 33.5166C3.99562 34.8113 4.64332 35.8336 5.31324 36.5914L6.34339 35.6807ZM5.05433 33.2217L6.39737 32.9269C6.23933 32.2068 6.27784 31.3287 6.72179 30.27L5.45375 29.7383L4.1857 29.2066C3.54084 30.7445 3.42216 32.199 3.7113 33.5164L5.05433 33.2217ZM5.45375 29.7383V31.1133H5.45472V29.7383V28.3633H5.45375V29.7383ZM5.45472 29.7383L6.72208 30.2716C7.04117 29.5133 7.53287 28.8311 8.15924 28.293L7.26332 27.25L6.36739 26.207C5.41069 27.0287 4.66809 28.0626 4.18737 29.205L5.45472 29.7383ZM7.26332 27.25L8.63826 27.2626C8.64424 26.6085 8.68586 25.9481 8.76532 25.2833L7.40004 25.1201L6.03475 24.9569C5.94324 25.7226 5.89526 26.4835 5.88837 27.2374L7.26332 27.25ZM7.40004 25.1201L8.76532 25.2833C9.93559 15.4928 18.8205 8.50477 28.6109 9.67485L28.7741 8.30957L28.9372 6.94429C17.6387 5.59397 7.38527 13.6585 6.03475 24.9569L7.40004 25.1201ZM28.7741 8.30957L28.6109 9.67485C30.5135 9.90228 32.3081 10.4214 33.9574 11.1799L34.5319 9.93066L35.1064 8.68144C33.2008 7.80506 31.129 7.20627 28.9373 6.94429L28.7741 8.30957ZM34.5319 9.93066L35.7938 10.4768C35.8548 10.3358 35.9193 10.1946 35.9874 10.0549L34.7516 9.45215L33.5158 8.84937C33.4276 9.03014 33.3458 9.2094 33.27 9.38457L34.5319 9.93066ZM34.7516 9.45215L35.9874 10.055C36.3163 9.38078 36.7213 8.75097 37.2002 8.30347L36.2614 7.29883L35.3226 6.29419C34.5017 7.0613 33.92 8.02067 33.5158 8.84928L34.7516 9.45215ZM36.2614 7.29883L37.2 8.30358C37.6429 7.8898 38.1238 7.65486 38.6559 7.6401L38.6178 6.26562L38.5797 4.89115C37.2079 4.9292 36.116 5.55294 35.3227 6.29408L36.2614 7.29883ZM38.6178 6.26562V7.64062H38.8102V6.26562V4.89062H38.6178V6.26562ZM38.8102 6.26562L38.7221 7.6378L38.9048 7.64952L38.9928 6.27734L39.0809 4.90517L38.8982 4.89345L38.8102 6.26562Z" fill="white" mask="url(#path-1-outside-1_3486_33595)"/>
<path d="M34.4139 12.6251C34.4139 12.6251 35.5829 6.88736 38.7972 6.98127C39.513 7.0032 40.1795 7.44621 40.3195 8.16453C40.4029 8.58473 40.2852 10.0966 38.8758 10.0062" stroke="#171717" stroke-width="1.375" stroke-linecap="round" stroke-linejoin="round"/>
<path d="M24.2832 45.7968C34.4373 47.0106 43.6527 39.763 44.8664 29.609C46.0801 19.4549 38.8325 10.2395 28.6785 9.02577C18.5245 7.81205 9.30905 15.0596 8.09532 25.2137C6.88159 35.3677 14.1292 44.5831 24.2832 45.7968Z" fill="white" stroke="#171717" stroke-width="1.375" stroke-linecap="round" stroke-linejoin="round"/>
<path d="M35.515 27.7846C35.0083 30.1877 31.1498 30.3804 26.6205 29.4807C22.0913 28.581 18.7807 26.9041 19.1222 24.5261C19.4636 22.1481 23.4873 21.9303 28.0166 22.83C32.5459 23.7297 36.0153 25.4345 35.515 27.7846Z" fill="#C6C6C6"/>
<path d="M17.295 20.3207C17.295 20.3207 17.9635 20.1511 18.9166 20.3011C19.9797 20.4684 21.2871 20.8926 22.004 21.0988C24.114 21.7083 24.9215 19.5531 24.4595 18.6093" stroke="#171717" stroke-width="1.375" stroke-linecap="round" stroke-linejoin="round"/>
<path d="M34.9707 28.4742C35.7518 28.5675 36.4607 28.01 36.554 27.2289C36.6474 26.4479 36.0899 25.739 35.3088 25.6456C34.5277 25.5522 33.8188 26.1098 33.7255 26.8908C33.6321 27.6719 34.1896 28.3808 34.9707 28.4742Z" fill="#171717"/>
<path d="M19.584 25.2007C20.3651 25.2941 21.0739 24.7366 21.1673 23.9555C21.2607 23.1744 20.7032 22.4655 19.9221 22.3722C19.141 22.2788 18.4321 22.8363 18.3388 23.6174C18.2454 24.3985 18.8029 25.1074 19.584 25.2007Z" fill="#171717"/>
<path d="M13.1601 33.8133C13.1601 33.8133 17.1367 31.784 14.9958 28.0254C14.0736 26.4086 12.2614 26.305 10.9118 26.445C8.63479 26.6719 6.90877 28.1416 6.11654 30.0242C4.14639 34.7226 9.12444 36.8901 9.12444 36.8901C9.12444 36.8901 11.8339 38.3438 13.826 36.7835" fill="white"/>
<path d="M13.1601 33.8133C13.1601 33.8133 17.1367 31.784 14.9958 28.0254C14.0736 26.4086 12.2614 26.305 10.9118 26.445C8.63479 26.6719 6.90877 28.1416 6.11654 30.0242C4.14639 34.7226 9.12444 36.8901 9.12444 36.8901C9.12444 36.8901 11.8339 38.3438 13.826 36.7835" stroke="#171717" stroke-width="1.375" stroke-linecap="round" stroke-linejoin="round"/>
<path d="M33.88 32.2481C30.9523 30.7662 25.3181 32.6412 22.0834 32.5453C20.523 32.499 18.7076 31.5503 19.3765 29.6883" stroke="#181818" stroke-width="1.38" stroke-linecap="round" stroke-linejoin="round"/>
</svg>
