<svg width="76" height="76" viewBox="0 0 76 76" fill="none" xmlns="http://www.w3.org/2000/svg">
<path d="M66.9766 67.0137C69.1857 67.0137 70.9766 68.8045 70.9766 71.0137C70.9764 73.2226 69.1856 75.0137 66.9766 75.0137C64.7677 75.0134 62.9768 73.2225 62.9766 71.0137C62.9766 68.8047 64.7676 67.0139 66.9766 67.0137ZM37 1C54.6731 1 69 15.3269 69 33C69 40.4467 66.4563 47.2993 62.1904 52.7363C64.119 54.387 65.3428 56.8376 65.3428 59.5752C65.3426 64.5456 61.3132 68.5752 56.3428 68.5752C52.6021 68.5752 49.3945 66.2928 48.0361 63.0449C44.5959 64.309 40.8787 65 37 65C19.3269 65 5 50.6731 5 33C5 15.3269 19.3269 1 37 1Z" fill="white"/>
<path d="M66.9766 67.0137V66.3137H66.9765L66.9766 67.0137ZM70.9766 71.0137L71.6766 71.0137V71.0137H70.9766ZM66.9766 75.0137L66.9765 75.7137H66.9766V75.0137ZM62.9766 71.0137H62.2766V71.0137L62.9766 71.0137ZM62.1904 52.7363L61.6397 52.3042L61.2257 52.832L61.7353 53.2681L62.1904 52.7363ZM65.3428 59.5752L66.0428 59.5752V59.5752H65.3428ZM56.3428 68.5752V69.2752V69.2752V68.5752ZM48.0361 63.0449L48.6819 62.7748L48.4235 62.1568L47.7947 62.3879L48.0361 63.0449ZM66.9766 67.0137V67.7137C68.7991 67.7137 70.2766 69.1911 70.2766 71.0137H70.9766H71.6766C71.6766 68.4179 69.5723 66.3137 66.9766 66.3137V67.0137ZM70.9766 71.0137L70.2766 71.0136C70.2764 72.8361 68.7989 74.3137 66.9766 74.3137V75.0137V75.7137C69.5722 75.7137 71.6763 73.6092 71.6766 71.0137L70.9766 71.0137ZM66.9766 75.0137L66.9766 74.3137C65.1543 74.3135 63.6767 72.8359 63.6766 71.0136L62.9766 71.0137L62.2766 71.0137C62.2768 73.6091 64.3811 75.7134 66.9765 75.7137L66.9766 75.0137ZM62.9766 71.0137H63.6766C63.6766 69.1914 65.1542 67.7139 66.9766 67.7137L66.9766 67.0137L66.9765 66.3137C64.3811 66.3139 62.2766 68.418 62.2766 71.0137H62.9766ZM37 1V1.7C54.2865 1.7 68.3 15.7135 68.3 33H69H69.7C69.7 14.9403 55.0597 0.3 37 0.3V1ZM69 33H68.3C68.3 40.2845 65.8123 46.986 61.6397 52.3042L62.1904 52.7363L62.7412 53.1684C67.1002 47.6125 69.7 40.6089 69.7 33H69ZM62.1904 52.7363L61.7353 53.2681C63.5154 54.7918 64.6428 57.0511 64.6428 59.5752H65.3428H66.0428C66.0428 56.6241 64.7226 53.9823 62.6456 52.2045L62.1904 52.7363ZM65.3428 59.5752L64.6428 59.5752C64.6426 64.159 60.9266 67.8752 56.3428 67.8752V68.5752V69.2752C61.6999 69.2752 66.0426 64.9322 66.0428 59.5752L65.3428 59.5752ZM56.3428 68.5752V67.8752C52.8942 67.8752 49.9352 65.7715 48.6819 62.7748L48.0361 63.0449L47.3903 63.315C48.8538 66.8141 52.31 69.2752 56.3428 69.2752V68.5752ZM48.0361 63.0449L47.7947 62.3879C44.4305 63.624 40.795 64.3 37 64.3V65V65.7C40.9624 65.7 44.7612 64.994 48.2776 63.702L48.0361 63.0449ZM37 65V64.3C19.7135 64.3 5.7 50.2865 5.7 33H5H4.3C4.3 51.0597 18.9403 65.7 37 65.7V65ZM5 33H5.7C5.7 15.7135 19.7135 1.7 37 1.7V1V0.3C18.9403 0.3 4.3 14.9403 4.3 33H5Z" fill="#171717"/>
</svg>
