<svg width="164" height="164" viewBox="0 0 164 164" fill="none" xmlns="http://www.w3.org/2000/svg">
<path d="M125.21 80.9258C142.871 84.8282 141.296 104.293 130.722 107.385C121.541 110.066 117.57 100.823 117.57 100.823" fill="#FAFAFA"/>
<path d="M125.21 81.2305C142.871 85.1329 141.296 104.598 130.722 107.69C121.541 110.37 117.57 101.127 117.57 101.127" stroke="#464646" stroke-width="1.6" stroke-linecap="round" stroke-linejoin="round"/>
<path d="M37.3597 81.4395C35.502 106.258 54.5161 126.135 79.9917 128.066C105.467 129.99 127.752 113.246 129.61 88.4207C131.468 63.6018 114.056 40.2142 86.7291 38.1685C58.5411 37.0275 39.2173 56.6206 37.3597 81.4395Z" fill="#FAFAFA"/>
<path d="M37.3597 81.7403C35.502 106.559 54.5161 126.436 79.9917 128.367C105.467 130.291 127.752 113.547 129.61 88.7214C131.468 63.9026 114.056 40.515 86.7291 38.4693C58.5411 37.3283 39.2173 56.9214 37.3597 81.7403Z" stroke="#464646" stroke-width="1.6" stroke-linecap="round" stroke-linejoin="round"/>
<path d="M76.3495 34.5275C72.5063 32.2185 77.1168 26.7834 81.5321 29.9837C85.9474 33.1839 83.5648 38.3219 83.5648 38.3219" stroke="#464646" stroke-width="1.6" stroke-linecap="round" stroke-linejoin="round"/>
<path d="M83.4966 152.5C99.6166 152.5 112.681 150.124 112.681 147.193C112.681 144.263 99.6166 141.887 83.4966 141.887C67.3767 141.887 54.3125 144.263 54.3125 147.193C54.3125 150.124 67.3767 152.5 83.4966 152.5Z" fill="#E4E4E4"/>
<path d="M86.6214 122.917C107.921 122.917 125.188 105.642 125.188 84.3315C125.188 63.0214 107.921 45.7461 86.6214 45.7461C65.3216 45.7461 48.0547 63.0214 48.0547 84.3315C48.0547 105.642 65.3216 122.917 86.6214 122.917Z" fill="#E8E8E8"/>
<path d="M75.7489 63.6797C75.2037 63.808 74.6922 63.8485 74.2412 63.9633C73.6893 64.105 73.2114 64.2671 72.7739 64.3954C72.2422 64.5506 71.7576 64.6924 71.3066 64.841C70.8153 64.9962 70.3845 65.2528 69.8865 65.4081C69.4355 65.5499 68.9442 65.6512 68.4057 65.7997C67.9615 65.9212 67.4836 66.0765 66.9317 66.2115C66.4808 66.3196 65.9894 66.4546 65.4375 66.5761" stroke="#464646" stroke-width="1.6" stroke-linecap="round" stroke-linejoin="round"/>
<path d="M110.484 66.5162C109.873 66.3583 109.358 66.1369 108.872 66.001C108.259 65.8229 107.725 65.6848 107.25 65.5273C106.67 65.3326 106.164 65.1375 105.666 64.9484C105.167 64.7593 104.618 64.6701 104.044 64.468C103.568 64.3039 103.066 64.0812 102.46 63.8958C101.979 63.7524 101.439 63.6216 100.828 63.457" stroke="#464646" stroke-width="1.6" stroke-linecap="round" stroke-linejoin="round"/>
<path opacity="0.6" d="M62 89C67.5229 89 72 84.5229 72 79C72 73.4772 67.5229 69 62 69C56.4772 69 52 73.4772 52 79C52 84.5229 56.4772 89 62 89Z" fill="#DEBFBF"/>
<path opacity="0.6" d="M113 89C118.523 89 123 84.5229 123 79C123 73.4772 118.523 69 113 69C107.477 69 103 73.4772 103 79C103 84.5229 107.477 89 113 89Z" fill="#DEBFBF"/>
<path d="M77.9694 78.4552C77.9694 78.4552 76.2127 79.6097 77.2492 81.7094C78.4607 84.1603 84.7875 83.7754 88.0923 81.7634C88.0923 81.7634 95.2537 85.4498 99.3123 81.6217C99.3123 81.6217 101.399 79.7582 99.3796 78.0703" stroke="#464646" stroke-width="1.6" stroke-linecap="round" stroke-linejoin="round"/>
<path d="M45.0193 100.473C45.0193 100.473 40.1194 108.825 32.5676 105.476C23.6696 100.723 25.5677 84.5527 41.8693 79.9414" fill="#F9F9F9"/>
<path d="M55.6916 106.213L67.8943 116.523L52.1449 118.729L55.6916 106.213Z" fill="#464646" stroke="#464646" stroke-width="1.6" stroke-linecap="round" stroke-linejoin="round"/>
<path d="M55.6369 106.202L63.9629 113.234L62.7574 117.222L52.0903 118.718L55.6369 106.202Z" fill="#E8E8E8" stroke="#464646" stroke-width="1.6" stroke-linecap="round" stroke-linejoin="round"/>
<path d="M55.6906 106.214L21.2578 96.3984L17.7108 108.912L52.1437 118.727L55.6906 106.214Z" fill="#949494" stroke="#464646" stroke-width="1.6" stroke-linecap="round" stroke-linejoin="round"/>
<path d="M54.4797 110.542L20.0469 100.727L18.7209 105.405L53.1537 115.22L54.4797 110.542Z" fill="#949494" stroke="#464646" stroke-width="1.6" stroke-linecap="round" stroke-linejoin="round"/>
<path d="M45.826 100.709C45.826 100.709 41.3801 109.615 33.403 106.705C23.953 102.445 24.787 85.7208 41.1784 79.8672" fill="#FAFAFA"/>
<path d="M45.8339 100.776C45.8339 100.776 41.3879 109.681 33.4109 106.771C23.9608 102.511 24.7948 85.7872 41.1862 79.9336" stroke="#464646" stroke-width="1.6" stroke-linecap="round" stroke-linejoin="round"/>
</svg>
