<svg width="32" height="32" viewBox="0 0 32 32" fill="none" xmlns="http://www.w3.org/2000/svg">
<path d="M22.3555 1.5C23.4255 1.50003 24.4852 1.71129 25.4736 2.12109C26.3386 2.47975 27.1342 2.98442 27.8262 3.6123L28.1162 3.88867C28.8733 4.64474 29.474 5.54291 29.8838 6.53125C30.2936 7.51966 30.5049 8.57943 30.5049 9.64941C30.5049 10.7195 30.2936 11.7791 29.8838 12.7676C29.5252 13.6325 29.0204 14.4281 28.3926 15.1201L28.1162 15.4102L15.4121 28.1143C13.8843 29.6421 11.8121 30.5009 9.65137 30.501C7.49059 30.501 5.41853 29.6422 3.89062 28.1143C2.36272 26.5864 1.50391 24.5143 1.50391 22.3535C1.50396 20.1928 2.36277 18.1206 3.89062 16.5928L16.5947 3.88867C17.3509 3.13151 18.2488 2.53092 19.2373 2.12109C20.2258 1.71128 21.2854 1.5 22.3555 1.5Z" fill="white" stroke="#171717"/>
<path d="M22.3477 1.51953C24.5051 1.52299 26.5731 2.38169 28.0986 3.90723C29.6242 5.43277 30.4828 7.50077 30.4863 9.6582C30.4897 11.8152 29.6382 13.8857 28.1182 15.416L22.1182 21.416L10.5898 9.8877L16.5889 3.88867C18.1193 2.36805 20.1902 1.51611 22.3477 1.51953Z" fill="#ECECEC" stroke="#171717"/>
</svg>
