<svg width="24" height="24" viewBox="0 0 24 24" fill="none" xmlns="http://www.w3.org/2000/svg">
<path d="M9.04867 19.5929C9.23011 20.282 9.63996 20.8924 10.2138 21.3281C10.7876 21.7638 11.4928 22.0002 12.2186 22C12.9444 22.0002 13.6496 21.7638 14.2234 21.3281C14.7972 20.8924 15.2071 20.282 15.3885 19.5929M12 3C10.0469 3 8.17371 3.7608 6.79263 5.11504C5.41156 6.46928 4.63567 8.30603 4.63567 10.2212V14.0741L3.05807 17.9479C3.00866 18.0696 2.99036 18.2012 3.00478 18.3314C3.0192 18.4616 3.0659 18.5863 3.14079 18.6948C3.21569 18.8032 3.3165 18.892 3.43445 18.9534C3.55239 19.0148 3.68387 19.047 3.81741 19.0471H20.1826C20.3161 19.047 20.4476 19.0148 20.5656 18.9534C20.6835 18.892 20.7843 18.8032 20.8592 18.6948C20.9341 18.5863 20.9808 18.4616 20.9952 18.3314C21.0096 18.2012 20.9913 18.0696 20.9419 17.9479L19.3643 14.0725V10.2212C19.3643 8.30603 18.5884 6.46928 17.2074 5.11504C15.8263 3.7608 13.9531 3 12 3Z" stroke="#464646" stroke-width="1.2" stroke-linecap="round"/>
<circle cx="20" cy="2" r="2" fill="#464646"/>
</svg>
