<svg width="52" height="52" viewBox="0 0 52 52" fill="none" xmlns="http://www.w3.org/2000/svg">
<mask id="path-1-outside-1_3486_33400" maskUnits="userSpaceOnUse" x="1.92969" y="4.71875" width="49" height="44" fill="black">
<rect fill="white" x="1.92969" y="4.71875" width="49" height="44"/>
<path fill-rule="evenodd" clip-rule="evenodd" d="M20.2375 7.82587C20.7391 7.04108 21.7466 6.47269 22.7961 6.82587L22.7971 6.82489C22.7983 6.82539 22.7997 6.82644 22.801 6.82684C22.8024 6.82722 22.8046 6.82738 22.8058 6.82782L22.8049 6.8288C23.1366 6.93984 23.6653 7.26336 24.0129 7.75946C24.1976 8.02333 24.3507 8.36363 24.3683 8.76532C24.3861 9.17429 24.2616 9.58661 23.9933 9.97919C23.7792 10.2924 23.3507 10.3727 23.0373 10.1589C22.7241 9.94468 22.6437 9.51719 22.8576 9.2038C22.981 9.02331 22.9975 8.89984 22.9943 8.82587C22.9908 8.74491 22.9597 8.65268 22.8869 8.54852C22.8124 8.44213 22.7066 8.34168 22.5939 8.26044C22.5392 8.22099 22.4866 8.1897 22.4435 8.16669C22.4224 8.15543 22.4045 8.14636 22.3908 8.14032C22.3794 8.1353 22.3724 8.13233 22.3703 8.13153L22.3615 8.1286C22.061 8.02598 21.6533 8.16413 21.3967 8.56415C21.0956 9.0387 21.0443 9.5771 21.1789 10.1765C21.2578 10.5275 21.399 10.8878 21.5812 11.2448C28.0175 8.99122 34.9594 10.412 39.8918 14.5065C39.9721 14.3949 40.0588 14.283 40.1525 14.1725C40.6044 13.6399 41.2252 13.1279 42.0578 12.8278C42.8946 12.5264 43.9002 12.4554 45.0891 12.736C47.6568 13.3426 49.0561 16.0082 48.9396 18.5065C48.8801 19.7825 48.4312 21.0755 47.506 22.1188C47.0383 22.6462 46.4576 23.0987 45.7629 23.4518C48.3567 32.3245 43.8052 41.9045 34.9308 45.5534L34.9299 45.5544C26.2295 49.1234 16.3546 45.7766 11.6867 38.0378C9.13897 38.433 7.04088 37.8405 5.65155 36.6481C3.80334 35.0616 3.33834 32.4979 4.77069 30.3063C5.89506 28.5861 7.5619 27.8179 9.10077 27.5036C9.53211 20.8212 13.6703 14.6149 20.2951 11.7477C20.0981 11.3439 19.9357 10.9168 19.8371 10.4782C19.6444 9.62051 19.6917 8.68632 20.2365 7.82782L20.2375 7.82587Z"/>
</mask>
<path fill-rule="evenodd" clip-rule="evenodd" d="M20.2375 7.82587C20.7391 7.04108 21.7466 6.47269 22.7961 6.82587L22.7971 6.82489C22.7983 6.82539 22.7997 6.82644 22.801 6.82684C22.8024 6.82722 22.8046 6.82738 22.8058 6.82782L22.8049 6.8288C23.1366 6.93984 23.6653 7.26336 24.0129 7.75946C24.1976 8.02333 24.3507 8.36363 24.3683 8.76532C24.3861 9.17429 24.2616 9.58661 23.9933 9.97919C23.7792 10.2924 23.3507 10.3727 23.0373 10.1589C22.7241 9.94468 22.6437 9.51719 22.8576 9.2038C22.981 9.02331 22.9975 8.89984 22.9943 8.82587C22.9908 8.74491 22.9597 8.65268 22.8869 8.54852C22.8124 8.44213 22.7066 8.34168 22.5939 8.26044C22.5392 8.22099 22.4866 8.1897 22.4435 8.16669C22.4224 8.15543 22.4045 8.14636 22.3908 8.14032C22.3794 8.1353 22.3724 8.13233 22.3703 8.13153L22.3615 8.1286C22.061 8.02598 21.6533 8.16413 21.3967 8.56415C21.0956 9.0387 21.0443 9.5771 21.1789 10.1765C21.2578 10.5275 21.399 10.8878 21.5812 11.2448C28.0175 8.99122 34.9594 10.412 39.8918 14.5065C39.9721 14.3949 40.0588 14.283 40.1525 14.1725C40.6044 13.6399 41.2252 13.1279 42.0578 12.8278C42.8946 12.5264 43.9002 12.4554 45.0891 12.736C47.6568 13.3426 49.0561 16.0082 48.9396 18.5065C48.8801 19.7825 48.4312 21.0755 47.506 22.1188C47.0383 22.6462 46.4576 23.0987 45.7629 23.4518C48.3567 32.3245 43.8052 41.9045 34.9308 45.5534L34.9299 45.5544C26.2295 49.1234 16.3546 45.7766 11.6867 38.0378C9.13897 38.433 7.04088 37.8405 5.65155 36.6481C3.80334 35.0616 3.33834 32.4979 4.77069 30.3063C5.89506 28.5861 7.5619 27.8179 9.10077 27.5036C9.53211 20.8212 13.6703 14.6149 20.2951 11.7477C20.0981 11.3439 19.9357 10.9168 19.8371 10.4782C19.6444 9.62051 19.6917 8.68632 20.2365 7.82782L20.2375 7.82587Z" fill="#171717"/>
<path d="M20.2375 7.82587L19.0789 7.08539C19.053 7.12597 19.0292 7.16788 19.0076 7.21095L20.2375 7.82587ZM22.7961 6.82587L22.3575 8.12905C22.8525 8.29562 23.3991 8.16742 23.7684 7.79814L22.7961 6.82587ZM22.7971 6.82489L23.329 5.55696C22.8141 5.34093 22.2196 5.45777 21.8248 5.85262L22.7971 6.82489ZM22.801 6.82684L22.3693 8.13233C22.394 8.1405 22.419 8.14797 22.4441 8.15472L22.801 6.82684ZM22.8058 6.82782L23.7781 7.80009C24.1138 7.46439 24.2526 6.97925 24.1452 6.5168C24.0378 6.05434 23.6995 5.68001 23.2502 5.52659L22.8058 6.82782ZM22.8049 6.8288L21.8326 5.85653C21.4958 6.19328 21.3573 6.68031 21.4665 7.14388C21.5756 7.60745 21.9168 7.98154 22.3685 8.1327L22.8049 6.8288ZM24.0129 7.75946L25.1394 6.97101L25.139 6.97053L24.0129 7.75946ZM24.3683 8.76532L25.742 8.70556L25.742 8.70487L24.3683 8.76532ZM23.9933 9.97919L25.1283 10.7554L25.1287 10.7548L23.9933 9.97919ZM23.0373 10.1589L22.2611 11.2939L22.2622 11.2946L23.0373 10.1589ZM22.8576 9.2038L21.7224 8.42794L21.7219 8.42871L22.8576 9.2038ZM22.9943 8.82587L24.3681 8.76748L24.368 8.76571L22.9943 8.82587ZM22.8869 8.54852L24.0137 7.76056L24.0132 7.7598L22.8869 8.54852ZM22.5939 8.26044L23.398 7.14508L23.3976 7.14476L22.5939 8.26044ZM22.4435 8.16669L23.0915 6.95393L23.0907 6.95352L22.4435 8.16669ZM22.3908 8.14032L22.9467 6.88272L22.9448 6.88185L22.3908 8.14032ZM22.3703 8.13153L22.8615 6.84725C22.8428 6.84012 22.824 6.8334 22.8051 6.82709L22.3703 8.13153ZM22.3615 8.1286L21.9172 9.42987L21.9267 9.43304L22.3615 8.1286ZM21.3967 8.56415L20.2393 7.82172L20.2357 7.82749L21.3967 8.56415ZM21.1789 10.1765L19.8373 10.4778L19.8374 10.478L21.1789 10.1765ZM21.5812 11.2448L20.3565 11.8698C20.6691 12.4825 21.3864 12.7699 22.0356 12.5426L21.5812 11.2448ZM39.8918 14.5065L39.0135 15.5645C39.3068 15.8079 39.6879 15.9187 40.0659 15.8705C40.444 15.8222 40.7851 15.6192 41.0077 15.3098L39.8918 14.5065ZM40.1525 14.1725L39.104 13.2831L39.1038 13.2832L40.1525 14.1725ZM42.0578 12.8278L41.5918 11.5342L41.5916 11.5343L42.0578 12.8278ZM45.0891 12.736L45.4052 11.3979L45.405 11.3978L45.0891 12.736ZM48.9396 18.5065L50.3131 18.5706L50.3131 18.5706L48.9396 18.5065ZM47.506 22.1188L48.5347 23.0312L48.5348 23.0311L47.506 22.1188ZM45.7629 23.4518L45.1399 22.2261C44.5502 22.5258 44.2575 23.2028 44.4431 23.8377L45.7629 23.4518ZM34.9308 45.5534L34.408 44.2817C34.2398 44.3508 34.0871 44.4526 33.9586 44.5811L34.9308 45.5534ZM34.9299 45.5544L35.4517 46.8265C35.6202 46.7574 35.7733 46.6555 35.9021 46.5267L34.9299 45.5544ZM11.6867 38.0378L12.8641 37.3276C12.5759 36.8497 12.0274 36.5935 11.4759 36.679L11.6867 38.0378ZM5.65155 36.6481L4.75594 37.6915L4.75605 37.6915L5.65155 36.6481ZM4.77069 30.3063L3.61973 29.5541L3.61971 29.5541L4.77069 30.3063ZM9.10077 27.5036L9.37589 28.8508C9.98358 28.7267 10.433 28.2111 10.4729 27.5922L9.10077 27.5036ZM20.2951 11.7477L20.8412 13.0096C21.1858 12.8605 21.4545 12.5769 21.5847 12.2247C21.715 11.8726 21.6955 11.4824 21.5309 11.1449L20.2951 11.7477ZM19.8371 10.4782L18.4955 10.7796L18.4956 10.7798L19.8371 10.4782ZM20.2365 7.82782L21.3975 8.56454C21.4225 8.52514 21.4455 8.48448 21.4663 8.44274L20.2365 7.82782ZM20.2375 7.82587L21.3961 8.56634C21.5099 8.38824 21.6827 8.23793 21.8649 8.15778C22.0314 8.08456 22.1914 8.07313 22.3575 8.12905L22.7961 6.82587L23.2347 5.52269C21.4283 4.91476 19.8213 5.92382 19.0789 7.08539L20.2375 7.82587ZM22.7961 6.82587L23.7684 7.79814L23.7693 7.79716L22.7971 6.82489L21.8248 5.85262L21.8238 5.8536L22.7961 6.82587ZM22.7971 6.82489L22.2651 8.09282C22.2341 8.07983 22.2087 8.06781 22.1906 8.05889C22.1723 8.0499 22.1576 8.04216 22.1482 8.03714C22.1389 8.03216 22.1318 8.02817 22.1294 8.02687C22.1282 8.0262 22.1272 8.0256 22.1275 8.0258C22.1276 8.02582 22.1279 8.02602 22.1283 8.02626C22.1288 8.02651 22.1295 8.02689 22.1303 8.02736C22.1341 8.02949 22.1593 8.04357 22.1919 8.05965C22.2094 8.06829 22.2329 8.07943 22.2611 8.09147C22.2892 8.10341 22.3257 8.11793 22.3693 8.13233L22.801 6.82684L23.2326 5.52136C23.2759 5.53566 23.3121 5.55005 23.3398 5.56186C23.3677 5.57376 23.3909 5.58475 23.4081 5.59322C23.4401 5.60898 23.4645 5.62269 23.4677 5.62445C23.469 5.62521 23.4702 5.62583 23.47 5.62572C23.47 5.62572 23.47 5.62572 23.4699 5.62572C23.4699 5.62571 23.4699 5.62571 23.4699 5.6257C23.4699 5.62568 23.4698 5.62566 23.4698 5.62563C23.4697 5.62558 23.4695 5.62549 23.4693 5.62538C23.469 5.62516 23.4683 5.62481 23.4675 5.62437C23.4649 5.62289 23.4574 5.61872 23.4478 5.61356C23.4381 5.60837 23.4231 5.60046 23.4045 5.59131C23.386 5.58224 23.3603 5.57008 23.329 5.55696L22.7971 6.82489ZM22.801 6.82684L22.4441 8.15472C22.4752 8.1631 22.5014 8.16895 22.5195 8.17275C22.538 8.17663 22.5532 8.17941 22.563 8.18114C22.5728 8.18286 22.5805 8.18412 22.5836 8.18461C22.5852 8.18488 22.5866 8.1851 22.5867 8.18512C22.5872 8.1852 22.5863 8.18505 22.5853 8.1849C22.5834 8.18459 22.577 8.18356 22.5688 8.18213C22.5605 8.1807 22.5475 8.17835 22.5314 8.1751C22.5156 8.1719 22.4933 8.16708 22.4667 8.16032C22.4406 8.15369 22.4042 8.14363 22.3615 8.12905L22.8058 6.82782L23.2502 5.52659C23.2071 5.5119 23.1704 5.50175 23.1439 5.49502C23.117 5.48816 23.0942 5.48326 23.078 5.47997C23.048 5.47389 23.0238 5.47008 23.0216 5.46972C23.0204 5.46953 23.0192 5.46934 23.0195 5.46939C23.0195 5.46939 23.0198 5.46944 23.0202 5.4695C23.0206 5.46956 23.0212 5.46966 23.022 5.46979C23.0246 5.47021 23.0319 5.4714 23.0413 5.47305C23.0506 5.4747 23.0654 5.47741 23.0835 5.4812C23.1013 5.48492 23.127 5.49069 23.1578 5.49896L22.801 6.82684ZM22.8058 6.82782L21.8336 5.85555L21.8326 5.85653L22.8049 6.8288L23.7771 7.80107L23.7781 7.80009L22.8058 6.82782ZM22.8049 6.8288L22.3685 8.1327C22.3675 8.13238 22.3742 8.13461 22.3882 8.14073C22.402 8.14672 22.4203 8.15537 22.4425 8.16709C22.4874 8.19083 22.5411 8.22339 22.5979 8.26445C22.7156 8.34944 22.8172 8.44918 22.8867 8.54839L24.0129 7.75946L25.139 6.97053C24.6054 6.20885 23.8224 5.71938 23.2413 5.5249L22.8049 6.8288ZM24.0129 7.75946L22.8864 8.54791C22.9604 8.65366 22.9912 8.7462 22.9947 8.82577L24.3683 8.76532L25.742 8.70487C25.7102 7.98106 25.4347 7.39301 25.1394 6.97101L24.0129 7.75946ZM24.3683 8.76532L22.9946 8.82509C22.9979 8.89948 22.9812 9.02328 22.858 9.20353L23.9933 9.97919L25.1287 10.7548C25.542 10.1499 25.7744 9.4491 25.742 8.70556L24.3683 8.76532ZM23.9933 9.97919L22.8584 9.20296C23.0732 8.88895 23.4998 8.80982 23.8123 9.02313L23.0373 10.1589L22.2622 11.2946C23.2016 11.9356 24.4851 11.6958 25.1283 10.7554L23.9933 9.97919ZM23.0373 10.1589L23.8135 9.02389C24.127 9.2383 24.207 9.66578 23.9933 9.97889L22.8576 9.2038L21.7219 8.42871C21.0804 9.36859 21.3212 10.6511 22.2611 11.2939L23.0373 10.1589ZM22.8576 9.2038L23.9928 9.97965C24.2634 9.5837 24.3853 9.1719 24.3681 8.76748L22.9943 8.82587L21.6206 8.88426C21.6159 8.77571 21.6292 8.66871 21.6584 8.57304C21.6858 8.48361 21.7177 8.43485 21.7224 8.42794L22.8576 9.2038ZM22.9943 8.82587L24.368 8.76571C24.3505 8.36685 24.2001 8.02703 24.0137 7.76056L22.8869 8.54852L21.7601 9.33649C21.7194 9.27833 21.631 9.12297 21.6206 8.88603L22.9943 8.82587ZM22.8869 8.54852L24.0132 7.7598C23.8304 7.49882 23.604 7.29356 23.398 7.14508L22.5939 8.26044L21.7898 9.3758C21.7948 9.37939 21.7969 9.38158 21.7952 9.37984C21.7939 9.37865 21.7904 9.37513 21.785 9.36886C21.7796 9.36268 21.7711 9.35227 21.7606 9.33725L22.8869 8.54852ZM22.5939 8.26044L23.3976 7.14476C23.2856 7.06407 23.1797 7.00104 23.0915 6.95393L22.4435 8.16669L21.7956 9.37945C21.7939 9.37855 21.7933 9.37815 21.7931 9.37805C21.7929 9.37795 21.792 9.3774 21.7903 9.37612L22.5939 8.26044ZM22.4435 8.16669L23.0907 6.95352C23.0612 6.93777 23.0076 6.90962 22.9467 6.88272L22.3908 8.14032L21.8349 9.39792C21.8242 9.39319 21.8158 9.38928 21.8103 9.38666C21.8047 9.38399 21.8006 9.38196 21.7983 9.38079C21.794 9.37862 21.793 9.37806 21.7964 9.37985L22.4435 8.16669ZM22.3908 8.14032L22.9448 6.88185C22.9422 6.88074 22.9017 6.86264 22.8615 6.84725L22.3703 8.13153L21.8791 9.41581C21.868 9.41155 21.8594 9.40809 21.8556 9.40657C21.8511 9.40473 21.8475 9.40325 21.8453 9.40233C21.8409 9.40051 21.8379 9.39922 21.8368 9.39878C21.8346 9.39781 21.8344 9.39774 21.8368 9.39879L22.3908 8.14032ZM22.3703 8.13153L22.8051 6.82709L22.7963 6.82416L22.3615 8.1286L21.9267 9.43304L21.9355 9.43597L22.3703 8.13153ZM22.3615 8.1286L22.8058 6.82737C21.7789 6.4767 20.759 7.01159 20.2393 7.82173L21.3967 8.56415L22.554 9.30657C22.5475 9.31666 22.3431 9.57526 21.9172 9.42983L22.3615 8.1286ZM21.3967 8.56415L20.2357 7.82749C19.6911 8.68576 19.6447 9.61998 19.8373 10.4778L21.1789 10.1765L22.5205 9.87514C22.4439 9.53421 22.5001 9.39163 22.5577 9.30081L21.3967 8.56415ZM21.1789 10.1765L19.8374 10.478C19.948 10.9701 20.1373 11.4403 20.3565 11.8698L21.5812 11.2448L22.806 10.6198C22.6608 10.3352 22.5676 10.085 22.5204 9.87487L21.1789 10.1765ZM21.5812 11.2448L22.0356 12.5426C28.0058 10.4521 34.4439 11.771 39.0135 15.5645L39.8918 14.5065L40.77 13.4486C35.475 9.05293 28.0291 7.53029 21.1268 9.94707L21.5812 11.2448ZM39.8918 14.5065L41.0077 15.3098C41.0686 15.2252 41.133 15.1423 41.2012 15.0619L40.1525 14.1725L39.1038 13.2832C38.9846 13.4238 38.8756 13.5646 38.7758 13.7032L39.8918 14.5065ZM40.1525 14.1725L41.2011 15.062C41.5326 14.6712 41.9637 14.3233 42.524 14.1214L42.0578 12.8278L41.5916 11.5343C40.4868 11.9324 39.6761 12.6086 39.104 13.2831L40.1525 14.1725ZM42.0578 12.8278L42.5238 14.1214C43.0807 13.9208 43.8119 13.8473 44.7731 14.0742L45.0891 12.736L45.405 11.3978C43.9885 11.0634 42.7085 11.1319 41.5918 11.5342L42.0578 12.8278ZM45.0891 12.736L44.7729 14.0742C46.5008 14.4824 47.6623 16.381 47.5661 18.4425L48.9396 18.5065L50.3131 18.5706C50.45 15.6353 48.8127 12.2029 45.4052 11.3979L45.0891 12.736ZM48.9396 18.5065L47.5661 18.4424C47.5194 19.4438 47.1694 20.426 46.4773 21.2066L47.506 22.1188L48.5348 23.0311C49.693 21.725 50.2408 20.1213 50.3131 18.5706L48.9396 18.5065ZM47.506 22.1188L46.4773 21.2065C46.1272 21.6013 45.6853 21.9489 45.1399 22.2261L45.7629 23.4518L46.3859 24.6776C47.23 24.2486 47.9494 23.6912 48.5347 23.0312L47.506 22.1188ZM45.7629 23.4518L44.4431 23.8377C46.8369 32.0261 42.6408 40.8966 34.408 44.2817L34.9308 45.5534L35.4537 46.8251C44.9696 42.9124 49.8765 32.6228 47.0826 23.066L45.7629 23.4518ZM34.9308 45.5534L33.9586 44.5811L33.9576 44.5821L34.9299 45.5544L35.9021 46.5267L35.9031 46.5257L34.9308 45.5534ZM34.9299 45.5544L34.408 44.2823C26.3297 47.5961 17.1786 44.4806 12.8641 37.3276L11.6867 38.0378L10.5093 38.748C15.5305 47.0725 26.1293 50.6507 35.4517 46.8265L34.9299 45.5544ZM11.6867 38.0378L11.4759 36.679C9.24504 37.0251 7.57474 36.4867 6.54705 35.6047L5.65155 36.6481L4.75605 37.6915C6.50702 39.1943 9.0329 39.8409 11.8975 39.3965L11.6867 38.0378ZM5.65155 36.6481L6.54716 35.6048C5.20647 34.4539 4.87851 32.6547 5.92167 31.0586L4.77069 30.3063L3.61971 29.5541C1.79817 32.3411 2.40021 35.6692 4.75594 37.6915L5.65155 36.6481ZM4.77069 30.3063L5.92165 31.0586C6.78508 29.7376 8.07247 29.117 9.37589 28.8508L9.10077 27.5036L8.82565 26.1564C7.05133 26.5188 5.00503 27.4346 3.61973 29.5541L4.77069 30.3063ZM9.10077 27.5036L10.4729 27.5922C10.8715 21.4165 14.6979 15.6684 20.8412 13.0096L20.2951 11.7477L19.749 10.4859C12.6426 13.5614 8.19267 20.2259 7.72862 27.415L9.10077 27.5036ZM20.2951 11.7477L21.5309 11.1449C21.3696 10.8141 21.2488 10.4887 21.1786 10.1766L19.8371 10.4782L18.4956 10.7798C18.6226 11.3448 18.8267 11.8737 19.0593 12.3505L20.2951 11.7477ZM19.8371 10.4782L21.1787 10.1768C21.0438 9.57658 21.0967 9.03858 21.3975 8.56454L20.2365 7.82782L19.0755 7.0911C18.2868 8.33405 18.245 9.66444 18.4955 10.7796L19.8371 10.4782ZM20.2365 7.82782L21.4663 8.44274L21.4673 8.44079L20.2375 7.82587L19.0076 7.21095L19.0067 7.2129L20.2365 7.82782Z" fill="white" mask="url(#path-1-outside-1_3486_33400)"/>
<path d="M23.4135 14.6346C23.4135 14.6346 19.1291 10.8621 20.8214 8.19573C21.2011 7.60136 21.9111 7.2464 22.588 7.47754C22.9925 7.60962 24.2142 8.44338 23.43 9.59083" stroke="#171717" stroke-width="1.375" stroke-linecap="round" stroke-linejoin="round"/>
<path d="M13.3291 28.222C13.3291 28.222 7.82298 26.893 5.34647 30.682C2.86996 34.4711 6.93144 39.4076 14.039 36.6917" fill="white"/>
<path d="M13.3291 28.222C13.3291 28.222 7.82298 26.893 5.34647 30.682C2.86996 34.4711 6.93144 39.4076 14.039 36.6917" stroke="#171717" stroke-width="1.375" stroke-linecap="round" stroke-linejoin="round"/>
<path d="M11.1324 35.424C14.938 44.4468 25.4797 48.6899 34.6758 44.9173C43.8719 41.1365 48.2388 30.7599 44.4332 21.7372C40.6276 12.7144 30.086 8.46311 20.8899 12.2439C11.6938 16.0247 7.32684 26.4013 11.1324 35.424Z" fill="white" stroke="#171717" stroke-width="1.375" stroke-linecap="round" stroke-linejoin="round"/>
<path d="M16.8973 35.942C18.9886 34.8382 19.7892 32.248 18.6854 30.1566C17.5816 28.0653 14.9914 27.2647 12.9 28.3685C10.8087 29.4724 10.0081 32.0626 11.1119 34.1539C12.2157 36.2453 14.8059 37.0458 16.8973 35.942Z" fill="#FDE0DF"/>
<path d="M38.3895 28.3873C40.4808 27.2835 41.2814 24.6933 40.1776 22.6019C39.0738 20.5106 36.4836 19.71 34.3922 20.8139C32.3008 21.9177 31.5003 24.5079 32.6041 26.5992C33.7079 28.6906 36.2981 29.4911 38.3895 28.3873Z" fill="#FDE0DF"/>
<path d="M11.1324 35.4279C14.938 44.4507 25.4797 48.6938 34.6758 44.9212C43.8719 41.1404 48.2388 30.7638 44.4332 21.7411C40.6276 12.7184 30.086 8.46701 20.8899 12.2478C11.6938 16.0286 7.32684 26.4052 11.1324 35.4279Z" stroke="#171717" stroke-width="1.375" stroke-linecap="round" stroke-linejoin="round"/>
<path d="M39.6406 16.583C39.6406 16.583 40.623 12.3812 44.9238 13.3966C49.2247 14.4119 50.0337 22.5349 43.2646 23.4925" fill="white"/>
<path d="M39.6406 16.583C39.6406 16.583 40.623 12.3812 44.9238 13.3966C49.2247 14.4119 50.0337 22.5349 43.2646 23.4925" stroke="#171717" stroke-width="1.375" stroke-linecap="round" stroke-linejoin="round"/>
<path d="M19.3659 23.1987C19.1171 23.0463 18.9164 22.8837 18.7232 22.7786C18.4655 22.6384 18.2484 22.546 18.0523 22.45C17.8256 22.3396 17.6112 22.2379 17.3786 22.1306C17.1825 22.0347 16.9509 21.9728 16.7052 21.8264C16.512 21.7213 16.3085 21.5679 16.0625 21.4062" stroke="#181818" stroke-width="1.38" stroke-linecap="round" stroke-linejoin="round"/>
<path d="M20.4857 30.1859C20.4857 30.1859 19.3406 31.4754 20.2498 32.4326C21.3132 33.5542 24.7118 32.2816 26.2017 30.639C26.2017 30.639 30.7269 31.4301 32.3245 28.6732C32.3245 28.6732 33.1637 27.3144 31.7831 26.74" stroke="#181818" stroke-width="1.38" stroke-linecap="round" stroke-linejoin="round"/>
<path d="M29.694 17.1977C29.5565 17.4991 29.394 17.7346 29.2852 17.9592C29.1363 18.2579 29.0156 18.4976 28.8841 18.7167C28.7248 18.9769 28.5778 19.2041 28.4226 19.4533C28.291 19.6724 28.2004 19.9315 28.0479 20.2232C27.9277 20.4451 27.7766 20.6833 27.639 20.9848" stroke="#181818" stroke-width="1.38" stroke-linecap="round" stroke-linejoin="round"/>
<path d="M15.6024 26.3765C15.9031 26.4244 15.9091 26.4595 16.2066 26.5015C16.5073 26.5494 16.5059 26.5349 16.8066 26.5829C17.1073 26.6308 17.1058 26.6162 17.4111 26.6847C17.6841 26.7396 17.6862 26.7079 17.9589 26.7859C18.2365 26.8614 18.2331 26.8785 18.5107 26.9539C18.7883 27.0294 18.7994 26.9317 19.0645 27.0902C18.9384 27.1951 18.8197 27.3496 18.6754 27.4793C18.5506 27.5987 18.421 27.7207 18.2847 27.8539C18.16 27.9733 18.0272 28.0893 17.891 28.2224C17.7662 28.3418 17.6286 28.4604 17.4972 28.591C17.3725 28.7104 17.2316 28.823 17.0971 28.9476C16.9626 29.0721 16.8523 29.2069 16.7097 29.3281" stroke="#181818" stroke-width="1.38" stroke-linecap="round" stroke-linejoin="round"/>
<path d="M34.4129 23.3053C34.169 23.3216 33.9311 23.2915 33.6932 23.3047C33.4612 23.3148 33.2113 23.3343 32.9758 23.3376C32.7247 23.3404 32.4892 23.3437 32.2596 23.3438C32.0085 23.3467 31.7669 23.3964 31.5469 23.4001C31.2958 23.4029 31.0556 23.3828 30.8296 23.3896C30.5725 23.3956 30.3179 23.3917 30.099 23.4121C30.2517 23.1068 30.3293 23.1523 30.5631 22.8992C30.7969 22.6461 30.7969 22.6461 31.0342 22.3998C31.1901 22.2311 31.3515 22.0681 31.5185 21.9108C31.7918 21.6455 31.8121 21.6694 32.0925 21.4176C32.3729 21.1659 32.3861 21.1762 32.6725 20.9213C32.9589 20.6664 32.9362 20.6524 33.2226 20.3975" stroke="#181818" stroke-width="1.38" stroke-linecap="round" stroke-linejoin="round"/>
</svg>
