<svg width="52" height="52" viewBox="0 0 52 52" fill="none" xmlns="http://www.w3.org/2000/svg">
<mask id="path-1-outside-1_3486_33400" maskUnits="userSpaceOnUse" x="1.91797" y="4.15234" width="48" height="43" fill="black">
<rect fill="white" x="1.91797" y="4.15234" width="48" height="43"/>
<path fill-rule="evenodd" clip-rule="evenodd" d="M19.8643 7.24189C20.3573 6.47059 21.3489 5.91023 22.3828 6.25752L22.3838 6.25654C22.385 6.25691 22.3865 6.25803 22.3877 6.25849C22.3892 6.25899 22.3911 6.25903 22.3926 6.25947L22.3916 6.26044C22.7188 6.36961 23.2388 6.68801 23.5811 7.17646C23.7631 7.43639 23.9143 7.77192 23.9317 8.16865C23.9493 8.57245 23.8256 8.97855 23.5615 9.36494C23.3473 9.67779 22.9197 9.75839 22.6065 9.54462C22.2932 9.33038 22.2127 8.90197 22.4268 8.58857C22.5459 8.4142 22.5606 8.29676 22.5576 8.22822C22.5542 8.15259 22.5252 8.06562 22.4551 7.96552C22.3834 7.86313 22.2812 7.76592 22.1719 7.6872C22.1189 7.64909 22.0688 7.6185 22.0274 7.59638C22.007 7.58551 21.9896 7.57769 21.9766 7.57197C21.9639 7.5664 21.9571 7.56416 21.9571 7.56416L21.9483 7.56123C21.6628 7.46406 21.2715 7.59361 21.0235 7.98017C20.7317 8.43994 20.6815 8.96238 20.8125 9.5456C20.8884 9.88314 21.0248 10.2291 21.1992 10.5729C27.4889 8.37606 34.27 9.76429 39.0928 13.7614C39.1688 13.6565 39.2498 13.5509 39.3379 13.447C39.7811 12.9244 40.3906 12.4222 41.208 12.1276C42.0294 11.8317 43.0156 11.7618 44.1807 12.0368C46.7005 12.6322 48.0712 15.2473 47.9571 17.695C47.8986 18.9456 47.4589 20.2131 46.5518 21.236C46.0957 21.7503 45.5304 22.1924 44.8545 22.5378C47.3849 31.2174 42.9304 40.5851 34.25 44.154H34.249C25.7389 47.645 16.0812 44.3744 11.5108 36.8083C9.02021 37.1923 6.96733 36.6119 5.60647 35.444C3.79345 33.8879 3.33823 31.3729 4.74319 29.2233C5.84268 27.5414 7.47074 26.7894 8.97463 26.4802C9.39938 19.9486 13.4413 13.883 19.9131 11.0759C19.7234 10.6845 19.5661 10.2711 19.4707 9.84638C19.2818 9.00496 19.328 8.08742 19.8633 7.24384L19.8643 7.24189Z"/>
</mask>
<path fill-rule="evenodd" clip-rule="evenodd" d="M19.8643 7.24189C20.3573 6.47059 21.3489 5.91023 22.3828 6.25752L22.3838 6.25654C22.385 6.25691 22.3865 6.25803 22.3877 6.25849C22.3892 6.25899 22.3911 6.25903 22.3926 6.25947L22.3916 6.26044C22.7188 6.36961 23.2388 6.68801 23.5811 7.17646C23.7631 7.43639 23.9143 7.77192 23.9317 8.16865C23.9493 8.57245 23.8256 8.97855 23.5615 9.36494C23.3473 9.67779 22.9197 9.75839 22.6065 9.54462C22.2932 9.33038 22.2127 8.90197 22.4268 8.58857C22.5459 8.4142 22.5606 8.29676 22.5576 8.22822C22.5542 8.15259 22.5252 8.06562 22.4551 7.96552C22.3834 7.86313 22.2812 7.76592 22.1719 7.6872C22.1189 7.64909 22.0688 7.6185 22.0274 7.59638C22.007 7.58551 21.9896 7.57769 21.9766 7.57197C21.9639 7.5664 21.9571 7.56416 21.9571 7.56416L21.9483 7.56123C21.6628 7.46406 21.2715 7.59361 21.0235 7.98017C20.7317 8.43994 20.6815 8.96238 20.8125 9.5456C20.8884 9.88314 21.0248 10.2291 21.1992 10.5729C27.4889 8.37606 34.27 9.76429 39.0928 13.7614C39.1688 13.6565 39.2498 13.5509 39.3379 13.447C39.7811 12.9244 40.3906 12.4222 41.208 12.1276C42.0294 11.8317 43.0156 11.7618 44.1807 12.0368C46.7005 12.6322 48.0712 15.2473 47.9571 17.695C47.8986 18.9456 47.4589 20.2131 46.5518 21.236C46.0957 21.7503 45.5304 22.1924 44.8545 22.5378C47.3849 31.2174 42.9304 40.5851 34.25 44.154H34.249C25.7389 47.645 16.0812 44.3744 11.5108 36.8083C9.02021 37.1923 6.96733 36.6119 5.60647 35.444C3.79345 33.8879 3.33823 31.3729 4.74319 29.2233C5.84268 27.5414 7.47074 26.7894 8.97463 26.4802C9.39938 19.9486 13.4413 13.883 19.9131 11.0759C19.7234 10.6845 19.5661 10.2711 19.4707 9.84638C19.2818 9.00496 19.328 8.08742 19.8633 7.24384L19.8643 7.24189Z" fill="#464646"/>
<path d="M19.8643 7.24189L18.7057 6.5014C18.6798 6.54198 18.656 6.58389 18.6344 6.62697L19.8643 7.24189ZM22.3828 6.25752L21.945 7.56096C22.4398 7.72714 22.986 7.59886 23.3551 7.22979L22.3828 6.25752ZM22.3838 6.25654L22.8106 4.94946C22.3184 4.78874 21.7777 4.91815 21.4115 5.28427L22.3838 6.25654ZM22.3877 6.25849L21.8797 7.53622C21.9018 7.545 21.9242 7.55322 21.9467 7.56085L22.3877 6.25849ZM22.3926 6.25947L23.3649 7.23174C23.7081 6.8885 23.8449 6.3897 23.7249 5.91937C23.6048 5.44903 23.2456 5.07685 22.7799 4.94013L22.3926 6.25947ZM22.3916 6.26044L21.4194 5.28817C21.0824 5.62508 20.944 6.1124 21.0534 6.57613C21.1627 7.03987 21.5044 7.41392 21.9564 7.56474L22.3916 6.26044ZM23.5811 7.17646L24.7074 6.38774L24.7072 6.38744L23.5811 7.17646ZM23.9317 8.16865L25.3054 8.10871L25.3053 8.10851L23.9317 8.16865ZM23.5615 9.36494L24.696 10.142L24.6967 10.1408L23.5615 9.36494ZM22.6065 9.54462L21.8303 10.6796L21.8314 10.6804L22.6065 9.54462ZM22.4268 8.58857L21.2915 7.81289L21.2913 7.81311L22.4268 8.58857ZM22.5576 8.22822L23.9313 8.16831L23.9313 8.16654L22.5576 8.22822ZM22.4551 7.96552L23.5814 7.17681L23.5813 7.17663L22.4551 7.96552ZM22.1719 7.6872L22.9756 6.57157L22.975 6.57113L22.1719 7.6872ZM22.0274 7.59638L22.6749 6.38338L22.6742 6.38302L22.0274 7.59638ZM21.9766 7.57197L22.5312 6.31378L22.5299 6.31323L21.9766 7.57197ZM21.9571 7.56416L22.7865 6.46754C22.6672 6.37725 22.5339 6.30705 22.3919 6.25972L21.9571 7.56416ZM21.9483 7.56123L21.5052 8.86291L21.5135 8.86567L21.9483 7.56123ZM21.0235 7.98017L19.8662 7.23764L19.8624 7.24351L21.0235 7.98017ZM20.8125 9.5456L19.471 9.84697L19.471 9.84709L20.8125 9.5456ZM21.1992 10.5729L19.9731 11.1951C20.2847 11.8092 21.0025 12.0981 21.6527 11.871L21.1992 10.5729ZM39.0928 13.7614L38.2154 14.8201C38.5081 15.0627 38.8882 15.1733 39.2654 15.1255C39.6426 15.0778 39.9832 14.876 40.2063 14.5681L39.0928 13.7614ZM39.3379 13.447L38.2892 12.5576L38.2892 12.5577L39.3379 13.447ZM41.208 12.1276L40.742 10.834L40.7419 10.8341L41.208 12.1276ZM44.1807 12.0368L44.4969 10.6987L44.4966 10.6986L44.1807 12.0368ZM47.9571 17.695L49.3306 17.7592L49.3306 17.7591L47.9571 17.695ZM46.5518 21.236L47.5805 22.1484L47.5806 22.1483L46.5518 21.236ZM44.8545 22.5378L44.2288 21.3134C43.6412 21.6137 43.3498 22.2891 43.5345 22.9226L44.8545 22.5378ZM34.25 44.154V45.529C34.4294 45.529 34.607 45.4939 34.7729 45.4257L34.25 44.154ZM34.249 44.154V42.779C34.0701 42.779 33.8928 42.8139 33.7272 42.8819L34.249 44.154ZM11.5108 36.8083L12.6877 36.0974C12.3996 35.6203 11.852 35.3644 11.3012 35.4494L11.5108 36.8083ZM5.60647 35.444L4.71093 36.4874L4.71099 36.4875L5.60647 35.444ZM4.74319 29.2233L3.59228 28.471L3.59222 28.4711L4.74319 29.2233ZM8.97463 26.4802L9.25156 27.827C9.85818 27.7023 10.3065 27.1874 10.3467 26.5694L8.97463 26.4802ZM19.9131 11.0759L20.4603 12.3373C20.804 12.1882 21.072 11.9053 21.2023 11.554C21.3326 11.2026 21.3139 10.8134 21.1504 10.4762L19.9131 11.0759ZM19.4707 9.84638L18.1291 10.1477L18.1292 10.1478L19.4707 9.84638ZM19.8633 7.24384L21.0243 7.98057C21.0493 7.94116 21.0723 7.90051 21.0931 7.85876L19.8633 7.24384ZM19.8643 7.24189L21.0229 7.98239C21.1324 7.81103 21.2991 7.66598 21.4745 7.58875C21.6342 7.51847 21.7866 7.50773 21.945 7.56096L22.3828 6.25752L22.8206 4.95407C21.03 4.35265 19.4394 5.35341 18.7057 6.5014L19.8643 7.24189ZM22.3828 6.25752L23.3551 7.22979L23.3561 7.22881L22.3838 6.25654L21.4115 5.28427L21.4106 5.28524L22.3828 6.25752ZM22.3838 6.25654L21.957 7.56362C21.9075 7.54746 21.8672 7.53115 21.8387 7.51883C21.8096 7.50629 21.786 7.49486 21.7695 7.48663C21.7529 7.4783 21.7396 7.47122 21.7314 7.46681C21.7234 7.46245 21.7172 7.45898 21.7158 7.45821C21.7114 7.45577 21.7174 7.45914 21.7194 7.46022C21.7233 7.46237 21.732 7.46719 21.7431 7.4731C21.7543 7.47898 21.7713 7.48783 21.7924 7.49795C21.8132 7.50791 21.843 7.52163 21.8797 7.53622L22.3877 6.25849L22.8957 4.98077C22.9321 4.99524 22.9617 5.00882 22.9821 5.01862C23.0029 5.0286 23.0196 5.03728 23.0304 5.04298C23.0412 5.04872 23.0496 5.05335 23.0532 5.05531C23.0548 5.0562 23.0605 5.05939 23.0557 5.05675C23.054 5.05579 23.0475 5.05213 23.039 5.04759C23.0306 5.04299 23.0169 5.03573 22.9999 5.02724C22.9832 5.01885 22.9592 5.00727 22.9299 4.99459C22.9011 4.98214 22.8604 4.96571 22.8106 4.94946L22.3838 6.25654ZM22.3877 6.25849L21.9467 7.56085C21.9869 7.57445 22.0224 7.58442 22.0512 7.59169C22.08 7.59897 22.1047 7.60424 22.1235 7.60794C22.1423 7.61163 22.1577 7.61426 22.1677 7.61589C22.1774 7.61748 22.1851 7.61862 22.1866 7.61885C22.191 7.61951 22.1851 7.61863 22.1814 7.61806C22.1761 7.61725 22.1652 7.61553 22.1513 7.61308C22.1374 7.61061 22.1176 7.60688 22.094 7.60164C22.0705 7.59641 22.0402 7.58904 22.0053 7.5788L22.3926 6.25947L22.7799 4.94013C22.7446 4.92979 22.714 4.92232 22.69 4.917C22.666 4.91167 22.6458 4.90786 22.6315 4.90532C22.6172 4.9028 22.6059 4.90102 22.6002 4.90014C22.5972 4.89968 22.5949 4.89933 22.5939 4.89919C22.5937 4.89915 22.5934 4.89911 22.5933 4.89909C22.5932 4.89907 22.5931 4.89906 22.5931 4.89906C22.593 4.89904 22.5933 4.89909 22.5937 4.89915C22.5948 4.89932 22.6021 4.9004 22.6113 4.90191C22.6209 4.90348 22.6359 4.90604 22.6543 4.90965C22.6727 4.91327 22.697 4.91844 22.7254 4.92563C22.7538 4.9328 22.7889 4.94265 22.8287 4.95614L22.3877 6.25849ZM22.3926 6.25947L21.4203 5.2872L21.4194 5.28817L22.3916 6.26044L23.3639 7.23272L23.3649 7.23174L22.3926 6.25947ZM22.3916 6.26044L21.9564 7.56474C21.9558 7.56456 21.9805 7.57317 22.0256 7.59697C22.0688 7.61979 22.1207 7.65121 22.1757 7.69098C22.2898 7.77336 22.388 7.86989 22.455 7.96548L23.5811 7.17646L24.7072 6.38744C24.1791 5.63376 23.4046 5.14893 22.8269 4.95615L22.3916 6.26044ZM23.5811 7.17646L22.4548 7.96518C22.5261 8.06702 22.5547 8.15459 22.558 8.22879L23.9317 8.16865L25.3053 8.10851C25.2739 7.38926 25.0001 6.80576 24.7074 6.38774L23.5811 7.17646ZM23.9317 8.16865L22.558 8.22858C22.5609 8.29616 22.5462 8.4137 22.4263 8.58908L23.5615 9.36494L24.6967 10.1408C25.105 9.5434 25.3376 8.84874 25.3054 8.10871L23.9317 8.16865ZM23.5615 9.36494L22.4271 8.58792C22.6409 8.27583 23.0675 8.19456 23.3815 8.40889L22.6065 9.54462L21.8314 10.6804C22.772 11.3222 24.0536 11.0797 24.6959 10.142L23.5615 9.36494ZM22.6065 9.54462L23.3827 8.40967C23.6962 8.62412 23.7761 9.05091 23.5622 9.36403L22.4268 8.58857L21.2913 7.81311C20.6494 8.75302 20.8902 10.0366 21.8303 10.6796L22.6065 9.54462ZM22.4268 8.58857L23.5621 9.36425C23.829 8.97368 23.9487 8.56735 23.9313 8.16831L22.5576 8.22822L21.1839 8.28813C21.1791 8.17796 21.1923 8.06783 21.2227 7.96796C21.2511 7.87487 21.2847 7.82276 21.2915 7.81289L22.4268 8.58857ZM22.5576 8.22822L23.9313 8.16654C23.9136 7.77226 23.7643 7.43798 23.5814 7.17681L22.4551 7.96552L21.3288 8.75423C21.2861 8.69326 21.1949 8.53293 21.184 8.2899L22.5576 8.22822ZM22.4551 7.96552L23.5813 7.17663C23.4014 6.91989 23.1786 6.71782 22.9756 6.57157L22.1719 7.6872L21.3682 8.80284C21.3712 8.80499 21.3714 8.80564 21.368 8.8023C21.366 8.80031 21.3616 8.79595 21.3555 8.78882C21.3494 8.78177 21.3401 8.77044 21.3289 8.75441L22.4551 7.96552ZM22.1719 7.6872L22.975 6.57113C22.8733 6.49795 22.7713 6.43484 22.6749 6.38338L22.0274 7.59638L21.3799 8.80938C21.3721 8.80521 21.3682 8.80284 21.3677 8.80248C21.3669 8.80201 21.3675 8.80234 21.3688 8.80327L22.1719 7.6872ZM22.0274 7.59638L22.6742 6.38302C22.6086 6.34805 22.5546 6.32408 22.5312 6.31378L21.9766 7.57197L21.422 8.83015C21.4246 8.8313 21.4054 8.82297 21.3806 8.80975L22.0274 7.59638ZM21.9766 7.57197L22.5299 6.31323C22.502 6.30094 22.4758 6.29027 22.4515 6.28101C22.4393 6.27638 22.4278 6.27216 22.4169 6.26832C22.4115 6.26639 22.4065 6.26467 22.402 6.26315C22.3998 6.26239 22.3981 6.26181 22.3975 6.2616C22.3964 6.26122 22.3984 6.26192 22.4003 6.26255C22.4007 6.26268 22.4054 6.26428 22.4112 6.26633C22.4132 6.26701 22.4222 6.27018 22.4338 6.27444C22.4382 6.27608 22.4535 6.28172 22.4728 6.28953C22.4837 6.29399 22.5125 6.30634 22.5304 6.31439C22.5654 6.33104 22.6956 6.40434 22.7865 6.46754L21.9571 7.56416L21.1276 8.66077C21.2185 8.72397 21.3487 8.79727 21.3837 8.81392C21.4016 8.82197 21.4305 8.83432 21.4414 8.83878C21.4607 8.84659 21.4759 8.85223 21.4804 8.85388C21.4919 8.85813 21.501 8.86131 21.5029 8.86199C21.5088 8.86404 21.5135 8.86564 21.5139 8.86577C21.5158 8.86642 21.5179 8.86713 21.5168 8.86677C21.5163 8.8666 21.5147 8.86607 21.5127 8.86538C21.5087 8.86401 21.5044 8.86251 21.4998 8.86087C21.4906 8.85764 21.4816 8.85433 21.4727 8.85095C21.455 8.8442 21.4385 8.83743 21.4232 8.8307L21.9766 7.57197ZM21.9571 7.56416L22.3919 6.25972L22.3831 6.25679L21.9483 7.56123L21.5135 8.86567L21.5222 8.8686L21.9571 7.56416ZM21.9483 7.56123L22.3913 6.25956C21.3828 5.91629 20.3791 6.43827 19.8662 7.23765L21.0235 7.98017L22.1807 8.72269C22.1639 8.74896 21.9428 9.01184 21.5052 8.86289L21.9483 7.56123ZM21.0235 7.98017L19.8624 7.24351C19.3272 8.08702 19.2819 9.00529 19.471 9.84697L20.8125 9.5456L22.1541 9.24423C22.0811 8.91946 22.1362 8.79287 22.1845 8.71683L21.0235 7.98017ZM20.8125 9.5456L19.471 9.84709C19.5788 10.327 19.7637 10.7826 19.9731 11.1951L21.1992 10.5729L22.4254 9.95078C22.2858 9.67561 22.1979 9.43929 22.1541 9.24411L20.8125 9.5456ZM21.1992 10.5729L21.6527 11.871C27.4767 9.83677 33.7549 11.1232 38.2154 14.8201L39.0928 13.7614L39.9702 12.7028C34.7852 8.40541 27.501 6.91535 20.7458 9.27485L21.1992 10.5729ZM39.0928 13.7614L40.2063 14.5681C40.2675 14.4836 40.3267 14.4069 40.3866 14.3363L39.3379 13.447L38.2892 12.5577C38.1729 12.6948 38.0701 12.8295 37.9793 12.9547L39.0928 13.7614ZM39.3379 13.447L40.3866 14.3363C40.709 13.9561 41.1285 13.6178 41.6742 13.4212L41.208 12.1276L40.7419 10.8341C39.6526 11.2266 38.8532 11.8926 38.2892 12.5576L39.3379 13.447ZM41.208 12.1276L41.6741 13.4212C42.2159 13.226 42.9278 13.1538 43.8648 13.375L44.1807 12.0368L44.4966 10.6986C43.1034 10.3697 41.8428 10.4374 40.742 10.834L41.208 12.1276ZM44.1807 12.0368L43.8645 13.375C45.5443 13.7719 46.6773 15.6198 46.5835 17.631L47.9571 17.695L49.3306 17.7591C49.4651 14.8748 47.8568 11.4925 44.4969 10.6987L44.1807 12.0368ZM47.9571 17.695L46.5836 17.6308C46.5379 18.607 46.197 19.5637 45.523 20.3238L46.5518 21.236L47.5806 22.1483C48.7208 20.8625 49.2593 19.2842 49.3306 17.7592L47.9571 17.695ZM46.5518 21.236L45.5231 20.3237C45.1834 20.7067 44.7558 21.0441 44.2288 21.3134L44.8545 22.5378L45.4803 23.7622C46.305 23.3407 47.0079 22.794 47.5805 22.1484L46.5518 21.236ZM44.8545 22.5378L43.5345 22.9226C45.8655 30.9182 41.7663 39.577 33.7272 42.8823L34.25 44.154L34.7729 45.4257C44.0944 41.5932 48.9044 31.5165 46.1746 22.1529L44.8545 22.5378ZM34.25 44.154V42.779H34.249V44.154V45.529H34.25V44.154ZM34.249 44.154L33.7272 42.8819C25.8389 46.1178 16.9047 43.0783 12.6877 36.0974L11.5108 36.8083L10.3338 37.5192C15.2577 45.6705 25.6389 49.1723 34.7709 45.4261L34.249 44.154ZM11.5108 36.8083L11.3012 35.4494C9.12757 35.7845 7.50181 35.2587 6.50195 34.4006L5.60647 35.444L4.71099 36.4875C6.43285 37.9652 8.91285 38.6002 11.7203 38.1672L11.5108 36.8083ZM5.60647 35.444L6.50201 34.4007C5.19697 33.2805 4.87814 31.5301 5.89415 29.9756L4.74319 29.2233L3.59222 28.4711C1.79832 31.2157 2.38992 34.4953 4.71093 36.4874L5.60647 35.444ZM4.74319 29.2233L5.8941 29.9757C6.73314 28.6922 7.98269 28.0879 9.25156 27.827L8.97463 26.4802L8.69771 25.1333C6.95878 25.4909 4.95222 26.3906 3.59228 28.471L4.74319 29.2233ZM8.97463 26.4802L10.3467 26.5694C10.7386 20.5437 14.4694 14.9358 20.4603 12.3373L19.9131 11.0759L19.366 9.81442C12.4132 12.8301 8.06017 19.3536 7.60253 26.3909L8.97463 26.4802ZM19.9131 11.0759L21.1504 10.4762C20.995 10.1555 20.8793 9.84316 20.8123 9.54501L19.4707 9.84638L18.1292 10.1478C18.253 10.699 18.4518 11.2134 18.6758 11.6756L19.9131 11.0759ZM19.4707 9.84638L20.8123 9.54511C20.6812 8.96108 20.7329 8.43971 21.0243 7.98057L19.8633 7.24384L18.7023 6.50712C17.9231 7.73513 17.8824 9.04884 18.1291 10.1477L19.4707 9.84638ZM19.8633 7.24384L21.0931 7.85876L21.0941 7.85681L19.8643 7.24189L18.6344 6.62697L18.6335 6.62892L19.8633 7.24384Z" fill="white" mask="url(#path-1-outside-1_3486_33400)"/>
<path d="M22.9838 13.9154C22.9838 13.9154 18.7947 10.2267 20.4493 7.61959C20.8206 7.03843 21.5148 6.69136 22.1767 6.91736C22.5722 7.04651 23.7668 7.86174 23 8.98369" stroke="#464646" stroke-width="1.375" stroke-linecap="round" stroke-linejoin="round"/>
<path d="M13.1199 27.1975C13.1199 27.1975 7.73611 25.8979 5.31464 29.6028C2.89316 33.3077 6.86438 38.1345 13.814 35.4789" fill="white"/>
<path d="M13.1199 27.1975C13.1199 27.1975 7.73611 25.8979 5.31464 29.6028C2.89316 33.3077 6.86438 38.1345 13.814 35.4789" stroke="#464646" stroke-width="1.375" stroke-linecap="round" stroke-linejoin="round"/>
<path d="M10.973 34.2415C14.694 43.0638 25.0014 47.2126 33.9931 43.5238C42.9849 39.8271 47.2547 29.6811 43.5337 20.8588C39.8127 12.0366 29.5053 7.87972 20.5136 11.5765C11.5218 15.2733 7.25196 25.4193 10.973 34.2415Z" fill="white" stroke="#464646" stroke-width="1.375" stroke-linecap="round" stroke-linejoin="round"/>
<path d="M20.931 30.4327L20.93 26.9665L25.3524 26.8794L31.1909 23.815L32.6462 26.8794L30.4345 31.9071L26.0113 33.3816L20.931 30.4327Z" fill="#FFA271"/>
<path d="M38.8477 15.8173C38.8477 15.8173 39.8082 11.7088 44.0135 12.7016C48.2188 13.6944 49.0098 21.6369 42.3911 22.5732" fill="white"/>
<path d="M38.8477 15.8173C38.8477 15.8173 39.8082 11.7088 44.0135 12.7016C48.2188 13.6944 49.0098 21.6369 42.3911 22.5732" stroke="#464646" stroke-width="1.375" stroke-linecap="round" stroke-linejoin="round"/>
<path d="M18.6907 28.5263C20.6096 27.9415 21.8238 26.3474 21.4027 24.9658C20.9816 23.5842 19.0847 22.9383 17.1658 23.5231C15.247 24.1079 14.0328 25.702 14.4538 27.0836C14.8749 28.4652 16.7718 29.1111 18.6907 28.5263Z" fill="#FFD5DE"/>
<path d="M32.4991 24.3968C34.4762 24.0577 35.8812 22.6289 35.6371 21.2053C35.393 19.7818 33.5923 18.9026 31.6151 19.2416C29.638 19.5806 28.233 21.0095 28.4771 22.433C28.7212 23.8566 30.5219 24.7358 32.4991 24.3968Z" fill="#FFD5DE"/>
<path d="M20.1858 26.9783C26.011 28.2173 28.3754 26.0797 31.1693 23.0753Z" stroke="#464646" stroke-width="1.375" stroke-linecap="round" stroke-linejoin="round"/>
<path d="M31.9087 28.2241C28.9598 27.4868 25.2738 28.2241 23.0621 31.9101L20.1133 27.4868H25.2738L31.1715 23.8008L31.9087 28.2241Z" fill="#464646"/>
<path d="M20.3178 21.5076C18.4533 20.418 16.3224 20.8296 14.7969 22.5004" stroke="#464646" stroke-width="1.375" stroke-linecap="round" stroke-linejoin="round"/>
<path d="M27.2773 19.3346C28.0441 17.2683 29.9733 16.2755 32.2333 16.7033" stroke="#464646" stroke-width="1.375" stroke-linecap="round" stroke-linejoin="round"/>
</svg>
