<svg width="24" height="24" viewBox="0 0 24 24" fill="none" xmlns="http://www.w3.org/2000/svg">
<path d="M8.7702 13.491H5.1335C4.65167 13.4939 4.1905 13.6985 3.85075 14.0603C3.51101 14.4221 3.3203 14.9116 3.32031 15.4217V19.2724C3.32031 19.7815 3.51134 20.2699 3.85138 20.6299C4.19142 20.9899 4.65261 21.1922 5.1335 21.1922H8.7702C9.25195 21.1922 9.71412 20.9903 10.0556 20.6305C10.3972 20.2708 10.5903 19.7825 10.5928 19.2724V15.4217C10.5928 14.9099 10.4008 14.4191 10.059 14.0572C9.71715 13.6953 9.25358 13.492 8.7702 13.492M8.7702 2.80859H5.1335C4.89539 2.80859 4.65961 2.85825 4.43962 2.95473C4.21964 3.05121 4.01975 3.19263 3.85138 3.3709C3.68301 3.54918 3.54945 3.76082 3.45833 3.99375C3.36721 4.22667 3.32031 4.47632 3.32031 4.72844V8.57906C3.32031 9.08916 3.51104 9.5785 3.85081 9.94012C4.19058 10.3017 4.65175 10.5062 5.1335 10.5088H8.7702C9.25358 10.5088 9.71715 10.3055 10.059 9.94362C10.4008 9.58172 10.5928 9.09087 10.5928 8.57906V4.72844C10.5903 4.21835 10.3972 3.73005 10.0556 3.3703C9.71412 3.01054 9.25195 2.80859 8.7702 2.80859ZM18.8694 2.80859H15.2327C14.751 2.80859 14.2888 3.01054 13.9473 3.3703C13.6058 3.73005 13.4126 4.21835 13.4102 4.72844V8.57906C13.4104 9.09079 13.6025 9.58149 13.9443 9.94333C14.286 10.3052 14.7494 10.5086 15.2327 10.5088H18.8694C19.3512 10.5062 19.8123 10.3017 20.1521 9.94012C20.4919 9.5785 20.6826 9.08916 20.6826 8.57906V4.72844C20.6826 4.21926 20.4916 3.73094 20.1515 3.3709C19.8115 3.01086 19.3503 2.80859 18.8694 2.80859ZM17.0459 13.491C16.0814 13.491 15.1564 13.8967 14.4744 14.6188C13.7924 15.3409 13.4092 16.3203 13.4092 17.3416C13.4092 18.3628 13.7924 19.3423 14.4744 20.0644C15.1564 20.7865 16.0814 21.1922 17.0459 21.1922C18.0104 21.1922 18.9354 20.7865 19.6175 20.0644C20.2995 19.3423 20.6826 18.3628 20.6826 17.3416C20.6826 16.3203 20.2995 15.3409 19.6175 14.6188C18.9354 13.8967 18.0104 13.491 17.0459 13.491Z" stroke="#171717" stroke-linecap="round"/>
</svg>
