<svg width="52" height="52" viewBox="0 0 52 52" fill="none" xmlns="http://www.w3.org/2000/svg">
<mask id="path-1-outside-1_3486_33564" maskUnits="userSpaceOnUse" x="4.51953" y="2.96875" width="42" height="46" fill="black">
<rect fill="white" x="4.51953" y="2.96875" width="42" height="46"/>
<path fill-rule="evenodd" clip-rule="evenodd" d="M21.4034 4.97006C21.8129 4.95394 22.202 5.08743 22.5255 5.31284L22.6603 5.4144L22.9083 5.64584C23.4459 6.20854 23.7141 6.94404 23.837 7.66733C23.9327 8.23005 23.9454 8.82244 23.9142 9.39487C24.1704 9.37238 24.4285 9.35438 24.6876 9.34213H24.6886C35.0627 8.86122 43.7877 16.8523 44.2101 27.2093C44.2154 27.2405 44.2235 27.2716 44.2247 27.304C44.6052 37.7021 36.4696 46.5256 26.0695 47.0169C15.6621 47.5083 6.91313 39.4565 6.53235 29.054C6.17975 19.4161 13.1435 11.1322 22.4454 9.58139C22.4935 8.99799 22.4931 8.42106 22.4064 7.91049C22.2975 7.27001 22.0719 6.81217 21.7374 6.53549L21.6544 6.47592C21.5745 6.42958 21.5065 6.41773 21.462 6.41928C21.4162 6.42109 21.3494 6.43708 21.2716 6.53256L21.2706 6.53354C21.2707 6.53358 21.257 6.55139 21.2345 6.59018C21.2119 6.62909 21.1867 6.68157 21.1603 6.74252C21.1065 6.86658 21.061 7.01126 21.0411 7.15561C21.0024 7.43715 21.0601 7.63311 21.253 7.78061C21.5714 8.02379 21.6329 8.47986 21.3898 8.79819C21.1465 9.11616 20.6904 9.17695 20.3722 8.93393C19.631 8.36761 19.519 7.56591 19.6027 6.95737C19.6818 6.38275 19.9436 5.86555 20.1495 5.61459C20.4774 5.2134 20.9234 4.98913 21.4034 4.97006Z"/>
</mask>
<path fill-rule="evenodd" clip-rule="evenodd" d="M21.4034 4.97006C21.8129 4.95394 22.202 5.08743 22.5255 5.31284L22.6603 5.4144L22.9083 5.64584C23.4459 6.20854 23.7141 6.94404 23.837 7.66733C23.9327 8.23005 23.9454 8.82244 23.9142 9.39487C24.1704 9.37238 24.4285 9.35438 24.6876 9.34213H24.6886C35.0627 8.86122 43.7877 16.8523 44.2101 27.2093C44.2154 27.2405 44.2235 27.2716 44.2247 27.304C44.6052 37.7021 36.4696 46.5256 26.0695 47.0169C15.6621 47.5083 6.91313 39.4565 6.53235 29.054C6.17975 19.4161 13.1435 11.1322 22.4454 9.58139C22.4935 8.99799 22.4931 8.42106 22.4064 7.91049C22.2975 7.27001 22.0719 6.81217 21.7374 6.53549L21.6544 6.47592C21.5745 6.42958 21.5065 6.41773 21.462 6.41928C21.4162 6.42109 21.3494 6.43708 21.2716 6.53256L21.2706 6.53354C21.2707 6.53358 21.257 6.55139 21.2345 6.59018C21.2119 6.62909 21.1867 6.68157 21.1603 6.74252C21.1065 6.86658 21.061 7.01126 21.0411 7.15561C21.0024 7.43715 21.0601 7.63311 21.253 7.78061C21.5714 8.02379 21.6329 8.47986 21.3898 8.79819C21.1465 9.11616 20.6904 9.17695 20.3722 8.93393C19.631 8.36761 19.519 7.56591 19.6027 6.95737C19.6818 6.38275 19.9436 5.86555 20.1495 5.61459C20.4774 5.2134 20.9234 4.98913 21.4034 4.97006Z" fill="white"/>
<path d="M21.4034 4.97006L21.3493 3.59613L21.3489 3.59615L21.4034 4.97006ZM22.5255 5.31284L23.3531 4.21475C23.3394 4.20445 23.3255 4.19441 23.3115 4.18463L22.5255 5.31284ZM22.6603 5.4144L23.5983 4.40907C23.5631 4.37624 23.5263 4.34527 23.4878 4.31631L22.6603 5.4144ZM22.9083 5.64584L23.9025 4.696C23.8843 4.67697 23.8656 4.65847 23.8464 4.64051L22.9083 5.64584ZM23.837 7.66733L25.1926 7.43697L25.1926 7.43691L23.837 7.66733ZM23.9142 9.39487L22.5412 9.32C22.5195 9.71803 22.6716 10.1059 22.9581 10.3831C23.2446 10.6602 23.6373 10.7994 24.0344 10.7646L23.9142 9.39487ZM24.6876 9.34213V7.96713C24.666 7.96713 24.6443 7.96764 24.6227 7.96866L24.6876 9.34213ZM24.6886 9.34213V10.7171C24.7098 10.7171 24.7311 10.7166 24.7523 10.7157L24.6886 9.34213ZM44.2101 27.2093L42.8362 27.2653C42.8386 27.324 42.8448 27.3825 42.8546 27.4404L44.2101 27.2093ZM44.2247 27.304L45.5988 27.2538L45.5987 27.2518L44.2247 27.304ZM26.0695 47.0169L26.1343 48.3904H26.1343L26.0695 47.0169ZM6.53235 29.054L5.15827 29.1043L5.15827 29.1043L6.53235 29.054ZM22.4454 9.58139L22.6716 10.9377C23.2927 10.8341 23.7641 10.3218 23.8158 9.69418L22.4454 9.58139ZM22.4064 7.91049L23.762 7.68022L23.7619 7.67998L22.4064 7.91049ZM21.7374 6.53549L22.6139 5.47603C22.5896 5.45597 22.5647 5.43674 22.5391 5.41839L21.7374 6.53549ZM21.6544 6.47592L22.4561 5.35882C22.42 5.33288 22.3826 5.30871 22.3441 5.28639L21.6544 6.47592ZM21.462 6.41928L21.4142 5.0451L21.4079 5.04535L21.462 6.41928ZM21.2716 6.53256L22.2439 7.50483C22.2768 7.47196 22.3079 7.43743 22.3373 7.40139L21.2716 6.53256ZM21.2706 6.53354L20.2984 5.56127C19.9952 5.86437 19.8508 6.2915 19.9078 6.71636C19.9648 7.14121 20.2167 7.51518 20.589 7.72768L21.2706 6.53354ZM21.2345 6.59018L20.0452 5.90015L20.045 5.90046L21.2345 6.59018ZM21.1603 6.74252L19.8988 6.1955L19.8987 6.19578L21.1603 6.74252ZM21.0411 7.15561L19.679 6.96791L19.679 6.96825L21.0411 7.15561ZM21.253 7.78061L20.418 8.87298L20.4183 8.87327L21.253 7.78061ZM21.3898 8.79819L22.4819 9.6336L22.4824 9.63287L21.3898 8.79819ZM20.3722 8.93393L19.5374 10.0265L19.5376 10.0267L20.3722 8.93393ZM19.6027 6.95737L18.2405 6.76966L18.2405 6.77L19.6027 6.95737ZM20.1495 5.61459L21.2125 6.4868L21.2142 6.48474L20.1495 5.61459ZM21.4034 4.97006L21.4576 6.344C21.5288 6.34119 21.6278 6.36323 21.7395 6.44104L22.5255 5.31284L23.3115 4.18463C22.7761 3.81163 22.0969 3.56668 21.3493 3.59613L21.4034 4.97006ZM22.5255 5.31284L21.698 6.41092L21.8327 6.51249L22.6603 5.4144L23.4878 4.31631L23.3531 4.21475L22.5255 5.31284ZM22.6603 5.4144L21.7222 6.41973L21.9703 6.65118L22.9083 5.64584L23.8464 4.64051L23.5983 4.40907L22.6603 5.4144ZM22.9083 5.64584L21.9141 6.59569C22.1949 6.88961 22.3849 7.32968 22.4815 7.89775L23.837 7.66733L25.1926 7.43691C25.0433 6.55839 24.6969 5.52746 23.9025 4.696L22.9083 5.64584ZM23.837 7.66733L22.4815 7.89768C22.5548 8.32923 22.5688 8.8134 22.5412 9.32L23.9142 9.39487L25.2871 9.46974C25.3219 8.83148 25.3105 8.13088 25.1926 7.43697L23.837 7.66733ZM23.9142 9.39487L24.0344 10.7646C24.2743 10.7436 24.5138 10.7269 24.7525 10.7156L24.6876 9.34213L24.6227 7.96866C24.3432 7.98187 24.0665 8.00122 23.794 8.02513L23.9142 9.39487ZM24.6876 9.34213V10.7171H24.6886V9.34213V7.96713H24.6876V9.34213ZM24.6886 9.34213L24.7523 10.7157C34.3663 10.27 42.445 17.6716 42.8362 27.2653L44.2101 27.2093L45.5839 27.1533C45.1305 16.033 35.7591 7.45246 24.6249 7.96861L24.6886 9.34213ZM44.2101 27.2093L42.8546 27.4404C42.859 27.4661 42.8634 27.4882 42.865 27.4965C42.8675 27.5093 42.8666 27.505 42.8659 27.5008C42.8647 27.4944 42.8617 27.4773 42.8587 27.4539C42.8557 27.4301 42.8523 27.3967 42.8507 27.3563L44.2247 27.304L45.5987 27.2518C45.5945 27.1416 45.5795 27.0532 45.572 27.0116C45.5684 26.9917 45.5644 26.9718 45.5639 26.969C45.5625 26.9616 45.5638 26.9681 45.5655 26.9782L44.2101 27.2093ZM44.2247 27.304L42.8506 27.3543C43.2035 36.9967 35.6543 45.1876 26.0046 45.6435L26.0695 47.0169L26.1343 48.3904C37.2849 47.8636 46.007 38.4075 45.5988 27.2538L44.2247 27.304ZM26.0695 47.0169L26.0046 45.6435C16.3617 46.0987 8.25923 38.6418 7.90643 29.0037L6.53235 29.054L5.15827 29.1043C5.56703 40.2712 14.9625 48.9178 26.1343 48.3904L26.0695 47.0169ZM6.53235 29.054L7.90643 29.0038C7.57953 20.0683 14.0398 12.3768 22.6716 10.9377L22.4454 9.58139L22.2193 8.22511C12.2472 9.88769 4.77997 18.764 5.15827 29.1043L6.53235 29.054ZM22.4454 9.58139L23.8158 9.69418C23.869 9.04805 23.875 8.34588 23.762 7.68022L22.4064 7.91049L21.0508 8.14076C21.1112 8.49625 21.1179 8.94792 21.0751 9.4686L22.4454 9.58139ZM22.4064 7.91049L23.7619 7.67998C23.6229 6.86227 23.2976 6.04167 22.6139 5.47603L21.7374 6.53549L20.861 7.59496C20.8461 7.58266 20.9721 7.67774 21.0508 8.141L22.4064 7.91049ZM21.7374 6.53549L22.5391 5.41839L22.4561 5.35882L21.6544 6.47592L20.8527 7.59303L20.9357 7.6526L21.7374 6.53549ZM21.6544 6.47592L22.3441 5.28639C22.0606 5.12201 21.7391 5.0338 21.4142 5.04511L21.462 6.41928L21.5099 7.79345C21.2738 7.80167 21.0884 7.73715 20.9647 7.66545L21.6544 6.47592ZM21.462 6.41928L21.4079 5.04535C21.2355 5.05214 21.006 5.08924 20.7613 5.21228C20.5254 5.33083 20.3435 5.49494 20.2059 5.66374L21.2716 6.53256L22.3373 7.40139C22.2776 7.47471 22.1679 7.58308 21.9964 7.66931C21.8159 7.76002 21.6427 7.78823 21.5161 7.79322L21.462 6.41928ZM21.2716 6.53256L20.2993 5.56029L20.2984 5.56127L21.2706 6.53354L22.2429 7.50581L22.2439 7.50483L21.2716 6.53256ZM21.2706 6.53354L20.589 7.72768C20.3263 7.53297 20.001 7.06135 19.9266 6.82365C19.9023 6.66906 19.9007 6.41506 19.9126 6.31801C19.9393 6.14982 19.9922 6.02644 20.0045 5.99727C20.0402 5.91295 20.077 5.85091 20.0835 5.83969C20.1063 5.80067 20.1263 5.77117 20.1293 5.76668C20.1409 5.74942 20.1506 5.73593 20.1512 5.73511C20.155 5.72973 20.159 5.72433 20.157 5.72707C20.1559 5.7285 20.1526 5.73313 20.1483 5.73913C20.1397 5.75124 20.1296 5.76568 20.1184 5.78241C20.0962 5.81569 20.0715 5.8548 20.0452 5.90015L21.2345 6.59018L22.4238 7.28021C22.42 7.28677 22.4134 7.29758 22.4036 7.31225C22.3987 7.31967 22.3934 7.32723 22.3881 7.33477C22.3868 7.33657 22.3856 7.33817 22.3846 7.33953C22.3837 7.34084 22.383 7.34186 22.3831 7.34172C22.3831 7.34172 22.3832 7.34149 22.3834 7.34127C22.3836 7.34104 22.3839 7.34057 22.3843 7.34C22.3848 7.3393 22.387 7.33626 22.3898 7.3324C22.3905 7.33144 22.4002 7.31785 22.4119 7.30051C22.4149 7.29598 22.4349 7.26645 22.4577 7.22742C22.4643 7.21619 22.501 7.15414 22.5367 7.06982C22.5491 7.04064 22.6019 6.91726 22.6286 6.74907C22.6405 6.65202 22.6389 6.39802 22.6147 6.24343C22.5403 6.00573 22.215 5.53411 21.9523 5.3394L21.2706 6.53354ZM21.2345 6.59018L20.045 5.90046C19.9834 6.00664 19.9338 6.11482 19.8988 6.1955L21.1603 6.74252L22.4218 7.28955C22.4253 7.28141 22.4283 7.27469 22.4308 7.26932C22.4332 7.26392 22.4349 7.26042 22.4358 7.25863C22.4367 7.25677 22.4363 7.25754 22.4347 7.26055C22.4332 7.26343 22.4296 7.27015 22.424 7.2799L21.2345 6.59018ZM21.1603 6.74252L19.8987 6.19578C19.8061 6.40928 19.7193 6.6754 19.679 6.96791L21.0411 7.15561L22.4033 7.34331C22.4025 7.34854 22.4028 7.344 22.4068 7.33069C22.4106 7.31779 22.4159 7.30316 22.4219 7.28927L21.1603 6.74252ZM21.0411 7.15561L19.679 6.96825C19.6425 7.233 19.6331 7.57954 19.7539 7.94739C19.8831 8.34108 20.1252 8.64918 20.418 8.87298L21.253 7.78061L22.0881 6.68824C22.1879 6.76454 22.3047 6.90091 22.3666 7.08936C22.42 7.25197 22.401 7.35976 22.4033 7.34297L21.0411 7.15561ZM21.253 7.78061L20.4183 8.87327C20.1346 8.65654 20.0782 8.25006 20.2971 7.96351L21.3898 8.79819L22.4824 9.63287C23.1877 8.70965 23.0081 7.39103 22.0878 6.68795L21.253 7.78061ZM21.3898 8.79819L20.2977 7.96278C20.5159 7.6775 20.9222 7.62385 21.2068 7.84118L20.3722 8.93393L19.5376 10.0267C20.4586 10.7301 21.7772 10.5548 22.4819 9.6336L21.3898 8.79819ZM20.3722 8.93393L21.207 7.84133C21.0736 7.73946 21.0186 7.6398 20.9887 7.54563C20.9535 7.43467 20.9442 7.29478 20.9648 7.14473L19.6027 6.95737L18.2405 6.77C18.1152 7.68093 18.2721 9.05979 19.5374 10.0265L20.3722 8.93393ZM19.6027 6.95737L20.9648 7.14508C20.9847 7.00057 21.0304 6.84891 21.0896 6.71283C21.1184 6.64648 21.1475 6.59077 21.1725 6.54826C21.1988 6.5037 21.2143 6.48466 21.2125 6.4868L20.1495 5.61459L19.0866 4.74239C18.7173 5.19238 18.3539 5.94731 18.2405 6.76966L19.6027 6.95737ZM20.1495 5.61459L21.2142 6.48474C21.3057 6.37281 21.3908 6.34665 21.458 6.34398L21.4034 4.97006L21.3489 3.59615C20.456 3.63162 19.6492 4.05398 19.0849 4.74445L20.1495 5.61459Z" fill="white" mask="url(#path-1-outside-1_3486_33564)"/>
<path d="M22.4931 12.9486C22.4931 12.9486 24.2847 7.69439 22.2031 5.97619C21.739 5.59437 21.1203 5.57777 20.7143 6.0758C20.4759 6.36631 19.883 7.64459 20.8174 8.35843" stroke="#464646" stroke-width="1.375" stroke-linecap="round" stroke-linejoin="round"/>
<path d="M43.5042 27.3239C43.8701 37.3234 36.0446 45.8125 26.0402 46.285C16.0359 46.7576 7.62824 39.0195 7.26233 29.02C6.89642 19.0205 14.7219 10.5315 24.7263 10.0589C34.7306 9.5948 43.1383 17.3244 43.4958 27.3239H43.5042Z" fill="white" stroke="#464646" stroke-width="1.375" stroke-linecap="round" stroke-linejoin="round"/>
<path d="M17.0574 30.2114C19.501 30.0878 21.3971 28.2445 21.2925 26.0943C21.1878 23.9441 19.1221 22.3012 16.6784 22.4247C14.2348 22.5483 12.3387 24.3915 12.4434 26.5418C12.5481 28.692 14.6138 30.3349 17.0574 30.2114Z" fill="#FFD5DE"/>
<path d="M34.5018 28.2995C36.9828 28.174 38.9078 26.3026 38.8015 24.1196C38.6953 21.9365 36.598 20.2685 34.1171 20.394C31.6362 20.5194 29.7111 22.3908 29.8174 24.5738C29.9236 26.7569 32.0209 28.4249 34.5018 28.2995Z" fill="#FFD5DE"/>
<path d="M27.5458 25.119C27.5458 25.119 25.6432 27.1096 23.0643 25.8369C21.156 25.1011 18.8957 27.6045 21.4532 30.3054C24.0107 33.0062 28.3904 31.75 29.9703 28.9684C30.8775 27.3712 30.4083 25.3254 29.5636 24.7511C28.6642 24.141 27.5458 25.119 27.5458 25.119Z" fill="#FFA271" stroke="#464646" stroke-width="1.375" stroke-linecap="round" stroke-linejoin="round"/>
<path d="M29.7262 29.0498C29.7262 29.0498 25.1302 25.7907 21.8474 30.3534L20.3086 27.3681L21.8577 26.0246L25.7868 26.4426L29.1939 24.5508L30.4632 26.3133L29.7262 29.0498Z" fill="#464646"/>
<path d="M14.9456 17.8531C15.838 17.7418 16.6861 18.1354 17.2516 18.8198C17.6138 18.0156 18.3294 17.4253 19.2306 17.3141C19.3278 17.3055 19.4162 17.297 19.5133 17.297C21.2804 17.2799 22.4201 19.4957 21.3245 21.0613L18.7447 24.1583C18.3825 24.5946 17.7198 24.6801 17.2516 24.3465L13.9207 21.9852C12.4365 20.7362 12.9577 18.3065 14.6806 17.8958C14.7689 17.8787 14.8573 17.8616 14.9456 17.8445V17.8531Z" fill="#FF96AD" stroke="#464646" stroke-width="1.375" stroke-linecap="round" stroke-linejoin="round"/>
<path d="M30.5907 16.4038C31.3344 16.2926 32.0412 16.6862 32.5124 17.3706C32.8142 16.5664 33.4106 15.9761 34.1616 15.8649C34.2426 15.8563 34.3162 15.8478 34.3972 15.8478C35.8697 15.8306 36.8195 18.0464 35.9065 19.612L33.7566 22.709C33.4548 23.1453 32.9026 23.2309 32.5124 22.8972L29.7367 20.536C28.4998 19.2869 28.9342 16.8573 30.3699 16.4466C30.4435 16.4295 30.5171 16.4124 30.5907 16.3953V16.4038Z" fill="#FF96AD" stroke="#464646" stroke-width="1.375" stroke-linecap="round" stroke-linejoin="round"/>
<path d="M21.5485 40.5111C21.5485 40.5111 25.6628 39.4533 24.427 35.8499C23.1765 32.2041 15.1033 32.0137 14.5039 37.8103" fill="white"/>
<path d="M21.5485 40.5111C21.5485 40.5111 25.6628 39.4533 24.427 35.8499C23.1765 32.2041 15.1033 32.0137 14.5039 37.8103" stroke="#464646" stroke-width="1.375" stroke-linecap="round" stroke-linejoin="round"/>
<path d="M33.4972 39.0563C33.4972 39.0563 29.1912 39.2436 29.0147 35.6705C28.8383 32.0489 36.432 29.6344 39.1663 34.6784" fill="white"/>
<path d="M33.4972 39.0563C33.4972 39.0563 29.1912 39.2436 29.0147 35.6705C28.8383 32.0489 36.432 29.6344 39.1663 34.6784" stroke="#464646" stroke-width="1.375" stroke-linecap="round" stroke-linejoin="round"/>
</svg>
