<svg width="52" height="52" viewBox="0 0 52 52" fill="none" xmlns="http://www.w3.org/2000/svg">
<mask id="path-1-outside-1_3486_33564" maskUnits="userSpaceOnUse" x="4.71094" y="2.64844" width="42" height="47" fill="black">
<rect fill="white" x="4.71094" y="2.64844" width="42" height="47"/>
<path fill-rule="evenodd" clip-rule="evenodd" d="M21.8187 4.64976C22.2341 4.63345 22.629 4.76875 22.9573 4.99742L23.0941 5.10093L23.346 5.33629C23.8916 5.90745 24.1646 6.65391 24.2894 7.38804C24.3864 7.95933 24.3992 8.56083 24.3675 9.14195C24.6274 9.11915 24.8888 9.10066 25.1517 9.08824H25.1536C35.6843 8.60012 44.5413 16.7116 44.97 27.225C44.9754 27.2566 44.9825 27.2887 44.9837 27.3216C45.3697 37.8764 37.1128 46.8325 26.556 47.3314C15.9912 47.8304 7.11036 39.6568 6.72394 29.097C6.36608 19.3137 13.4341 10.9057 22.8763 9.3314C22.9251 8.73902 22.9243 8.15354 22.8362 7.63511C22.7257 6.9848 22.4971 6.51953 22.1575 6.23863L22.0726 6.17808C21.9914 6.13113 21.9223 6.11978 21.8773 6.12144C21.8308 6.12331 21.7637 6.13914 21.6849 6.2357L21.6829 6.23765C21.6811 6.24031 21.6689 6.25888 21.6478 6.29527C21.6249 6.33468 21.5984 6.3869 21.5716 6.44859C21.517 6.57456 21.4707 6.72193 21.4505 6.86851C21.4112 7.15441 21.4703 7.35353 21.6663 7.50328C21.9892 7.75019 22.0508 8.21248 21.804 8.53551C21.5571 8.85829 21.0948 8.91994 20.7718 8.6732C20.0194 8.09833 19.9056 7.28506 19.9905 6.66734C20.0709 6.08391 20.3371 5.55876 20.5462 5.30406C20.8791 4.89695 21.3315 4.66909 21.8187 4.64976Z"/>
</mask>
<path fill-rule="evenodd" clip-rule="evenodd" d="M21.8187 4.64976C22.2341 4.63345 22.629 4.76875 22.9573 4.99742L23.0941 5.10093L23.346 5.33629C23.8916 5.90745 24.1646 6.65391 24.2894 7.38804C24.3864 7.95933 24.3992 8.56083 24.3675 9.14195C24.6274 9.11915 24.8888 9.10066 25.1517 9.08824H25.1536C35.6843 8.60012 44.5413 16.7116 44.97 27.225C44.9754 27.2566 44.9825 27.2887 44.9837 27.3216C45.3697 37.8764 37.1128 46.8325 26.556 47.3314C15.9912 47.8304 7.11036 39.6568 6.72394 29.097C6.36608 19.3137 13.4341 10.9057 22.8763 9.3314C22.9251 8.73902 22.9243 8.15354 22.8362 7.63511C22.7257 6.9848 22.4971 6.51953 22.1575 6.23863L22.0726 6.17808C21.9914 6.13113 21.9223 6.11978 21.8773 6.12144C21.8308 6.12331 21.7637 6.13914 21.6849 6.2357L21.6829 6.23765C21.6811 6.24031 21.6689 6.25888 21.6478 6.29527C21.6249 6.33468 21.5984 6.3869 21.5716 6.44859C21.517 6.57456 21.4707 6.72193 21.4505 6.86851C21.4112 7.15441 21.4703 7.35353 21.6663 7.50328C21.9892 7.75019 22.0508 8.21248 21.804 8.53551C21.5571 8.85829 21.0948 8.91994 20.7718 8.6732C20.0194 8.09833 19.9056 7.28506 19.9905 6.66734C20.0709 6.08391 20.3371 5.55876 20.5462 5.30406C20.8791 4.89695 21.3315 4.66909 21.8187 4.64976Z" fill="white"/>
<path d="M21.8187 4.64976L21.7647 3.27582L21.7642 3.27584L21.8187 4.64976ZM22.9573 4.99742L23.7873 3.90119C23.7728 3.8902 23.7581 3.8795 23.7432 3.8691L22.9573 4.99742ZM23.0941 5.10093L24.0327 4.09612C23.9981 4.0638 23.9618 4.03329 23.9241 4.0047L23.0941 5.10093ZM23.346 5.33629L24.3403 4.38653C24.3223 4.36766 24.3037 4.3493 24.2846 4.33147L23.346 5.33629ZM24.2894 7.38804L25.6449 7.15773L25.6449 7.15763L24.2894 7.38804ZM24.3675 9.14195L22.9945 9.06703C22.9728 9.46507 23.1249 9.85294 23.4114 10.1301C23.6979 10.4073 24.0906 10.5465 24.4877 10.5117L24.3675 9.14195ZM25.1517 9.08824V7.71324C25.13 7.71324 25.1084 7.71375 25.0868 7.71477L25.1517 9.08824ZM25.1536 9.08824V10.4632C25.1749 10.4632 25.1961 10.4627 25.2173 10.4618L25.1536 9.08824ZM44.97 27.225L43.5962 27.281C43.5986 27.3398 43.6048 27.3984 43.6147 27.4564L44.97 27.225ZM44.9837 27.3216L46.3578 27.2714L46.3577 27.2703L44.9837 27.3216ZM26.556 47.3314L26.6208 48.7049H26.6209L26.556 47.3314ZM6.72394 29.097L5.34986 29.1473L5.34986 29.1473L6.72394 29.097ZM22.8763 9.3314L23.1024 10.6877C23.7236 10.5841 24.195 10.0718 24.2466 9.44426L22.8763 9.3314ZM22.8362 7.63511L24.1918 7.40484L24.1918 7.4047L22.8362 7.63511ZM22.1575 6.23863L23.034 5.17917C23.0086 5.15814 22.9824 5.13803 22.9555 5.11888L22.1575 6.23863ZM22.0726 6.17808L22.8706 5.05833C22.8352 5.03311 22.7986 5.00958 22.761 4.98782L22.0726 6.17808ZM21.8773 6.12144L21.8267 4.74737L21.8221 4.74755L21.8773 6.12144ZM21.6849 6.2357L22.6572 7.20797C22.6898 7.1753 22.7208 7.14099 22.7501 7.10519L21.6849 6.2357ZM21.6829 6.23765L20.7107 5.26538C20.6506 5.32546 20.5962 5.39098 20.5482 5.4611L21.6829 6.23765ZM21.6478 6.29527L20.4584 5.6054L20.4582 5.60559L21.6478 6.29527ZM21.5716 6.44859L20.3102 5.90129L20.31 5.90176L21.5716 6.44859ZM21.4505 6.86851L20.0884 6.68085L20.0883 6.68116L21.4505 6.86851ZM21.6663 7.50328L22.5017 6.4111L22.501 6.41061L21.6663 7.50328ZM21.804 8.53551L22.8961 9.37093L22.8967 9.37019L21.804 8.53551ZM20.7718 8.6732L19.937 9.76579L19.9371 9.76587L20.7718 8.6732ZM19.9905 6.66734L18.6284 6.47966L18.6284 6.47998L19.9905 6.66734ZM20.5462 5.30406L21.609 6.17643L21.6107 6.17439L20.5462 5.30406ZM21.8187 4.64976L21.8726 6.0237C21.9504 6.02065 22.0553 6.04481 22.1715 6.12574L22.9573 4.99742L23.7432 3.8691C23.2027 3.49269 22.5178 3.24625 21.7647 3.27582L21.8187 4.64976ZM22.9573 4.99742L22.1273 6.09365L22.2641 6.19716L23.0941 5.10093L23.9241 4.0047L23.7873 3.90119L22.9573 4.99742ZM23.0941 5.10093L22.1555 6.10575L22.4074 6.3411L23.346 5.33629L24.2846 4.33147L24.0327 4.09612L23.0941 5.10093ZM23.346 5.33629L22.3517 6.28604C22.6412 6.58903 22.8356 7.04067 22.9338 7.61846L24.2894 7.38804L25.6449 7.15763C25.4936 6.26716 25.142 5.22588 24.3403 4.38653L23.346 5.33629ZM24.2894 7.38804L22.9338 7.61835C23.0085 8.05828 23.0227 8.55149 22.9945 9.06703L24.3675 9.14195L25.7405 9.21687C25.7757 8.57018 25.7643 7.86038 25.6449 7.15773L24.2894 7.38804ZM24.3675 9.14195L24.4877 10.5117C24.7322 10.4902 24.9749 10.4731 25.2166 10.4617L25.1517 9.08824L25.0868 7.71477C24.8027 7.7282 24.5227 7.74805 24.2473 7.77221L24.3675 9.14195ZM25.1517 9.08824V10.4632H25.1536V9.08824V7.71324H25.1517V9.08824ZM25.1536 9.08824L25.2173 10.4618C34.9879 10.0089 43.1986 17.5309 43.5962 27.281L44.97 27.225L46.3439 27.1689C45.8841 15.8923 36.3806 7.19137 25.09 7.71471L25.1536 9.08824ZM44.97 27.225L43.6147 27.4564C43.6174 27.4726 43.6206 27.4897 43.6211 27.4929C43.6224 27.4998 43.6218 27.4969 43.6209 27.4911C43.6191 27.48 43.612 27.4351 43.6097 27.373L44.9837 27.3216L46.3577 27.2703C46.3542 27.1753 46.343 27.0978 46.336 27.0545C46.3325 27.0327 46.3291 27.0137 46.3274 27.0046C46.3251 26.9919 46.3254 26.9932 46.3254 26.9935L44.97 27.225ZM44.9837 27.3216L43.6096 27.3719C43.968 37.1711 36.2974 45.4945 26.4911 45.9579L26.556 47.3314L26.6209 48.7049C37.9282 48.1705 46.7714 38.5816 46.3578 27.2714L44.9837 27.3216ZM26.556 47.3314L26.4911 45.9579C16.6909 46.4208 8.45647 38.8422 8.09802 29.0467L6.72394 29.097L5.34986 29.1473C5.76424 40.4714 15.2916 49.24 26.6208 48.7049L26.556 47.3314ZM6.72394 29.097L8.09802 29.0468C7.76585 19.9659 14.3304 12.1503 23.1024 10.6877L22.8763 9.3314L22.6502 7.97513C12.5377 9.66121 4.9663 18.6616 5.34986 29.1473L6.72394 29.097ZM22.8763 9.3314L24.2466 9.44426C24.3007 8.78831 24.3062 8.07784 24.1918 7.40484L22.8362 7.63511L21.4807 7.86539C21.5425 8.22924 21.5495 8.68974 21.5059 9.21855L22.8763 9.3314ZM22.8362 7.63511L24.1918 7.4047C24.0513 6.57835 23.7235 5.74959 23.034 5.17917L22.1575 6.23863L21.2811 7.29809C21.2707 7.28946 21.4001 7.39126 21.4807 7.86553L22.8362 7.63511ZM22.1575 6.23863L22.9555 5.11888L22.8706 5.05833L22.0726 6.17808L21.2746 7.29784L21.3596 7.35838L22.1575 6.23863ZM22.0726 6.17808L22.761 4.98782C22.4689 4.81889 22.1452 4.73564 21.8267 4.74737L21.8773 6.12144L21.9279 7.49551C21.6993 7.50393 21.5139 7.44338 21.3842 7.36834L22.0726 6.17808ZM21.8773 6.12144L21.8221 4.74755C21.6529 4.75434 21.4232 4.79039 21.1769 4.91392C20.9398 5.03277 20.7574 5.19748 20.6197 5.36621L21.6849 6.2357L22.7501 7.10519C22.6911 7.17737 22.5817 7.28587 22.4095 7.37221C22.228 7.46321 22.0551 7.49041 21.9324 7.49534L21.8773 6.12144ZM21.6849 6.2357L20.7126 5.26343L20.7107 5.26538L21.6829 6.23765L22.6552 7.20993L22.6572 7.20797L21.6849 6.2357ZM21.6829 6.23765L20.5482 5.4611C20.521 5.50088 20.4902 5.55056 20.4584 5.6054L21.6478 6.29527L22.8372 6.98515C22.8409 6.9788 22.8419 6.97718 22.8402 6.98003C22.8393 6.98142 22.8375 6.98424 22.8348 6.98841C22.8335 6.99048 22.8317 6.99324 22.8295 6.99663C22.8283 6.99833 22.8269 7.00048 22.8252 7.00301C22.8237 7.00523 22.8211 7.0092 22.8176 7.0142L21.6829 6.23765ZM21.6478 6.29527L20.4582 5.60559C20.4052 5.69705 20.3552 5.79762 20.3102 5.90129L21.5716 6.44859L22.833 6.99589C22.8368 6.98718 22.8396 6.9812 22.8411 6.97829C22.8427 6.97504 22.8417 6.97738 22.8373 6.98495L21.6478 6.29527ZM21.5716 6.44859L20.31 5.90176C20.2165 6.11739 20.129 6.38622 20.0884 6.68085L21.4505 6.86851L22.8126 7.05617C22.8121 7.06037 22.8126 7.05459 22.8169 7.03996C22.8211 7.02575 22.8269 7.01003 22.8332 6.99542L21.5716 6.44859ZM21.4505 6.86851L20.0883 6.68116C20.0515 6.94915 20.0425 7.29794 20.1643 7.66749C20.2945 8.06248 20.5377 8.37144 20.8316 8.59595L21.6663 7.50328L22.501 6.41061C22.5989 6.48538 22.7145 6.6199 22.776 6.80641C22.8291 6.96749 22.8102 7.07377 22.8127 7.05587L21.4505 6.86851ZM21.6663 7.50328L20.831 8.59545C20.5505 8.38092 20.4976 7.98063 20.7113 7.70082L21.804 8.53551L22.8967 9.37019C23.6039 8.44434 23.4278 7.11946 22.5017 6.4111L21.6663 7.50328ZM21.804 8.53551L20.7119 7.70008C20.9264 7.41974 21.3266 7.36671 21.6065 7.58053L20.7718 8.6732L19.9371 9.76587C20.863 10.4732 22.1878 10.2968 22.8961 9.37093L21.804 8.53551ZM20.7718 8.6732L21.6066 7.58061C21.4674 7.4743 21.4092 7.36946 21.3777 7.27025C21.3409 7.15427 21.3315 7.00929 21.3527 6.85471L19.9905 6.66734L18.6284 6.47998C18.5018 7.40052 18.6608 8.79071 19.937 9.76579L20.7718 8.6732ZM19.9905 6.66734L21.3527 6.85502C21.3731 6.70644 21.4201 6.55076 21.4809 6.41114C21.5105 6.34302 21.5405 6.28567 21.5664 6.2417C21.5936 6.19568 21.6099 6.17533 21.609 6.17642L20.5462 5.30406L19.4834 4.4317C19.1113 4.88499 18.743 5.6478 18.6284 6.47966L19.9905 6.66734ZM20.5462 5.30406L21.6107 6.17439C21.7076 6.05585 21.7995 6.02661 21.8732 6.02368L21.8187 4.64976L21.7642 3.27584C20.8634 3.31158 20.0505 3.73805 19.4817 4.43373L20.5462 5.30406Z" fill="white" mask="url(#path-1-outside-1_3486_33564)"/>
<path d="M22.9245 12.7495C22.9245 12.7495 24.7432 7.41598 22.6301 5.67184C22.1591 5.28425 21.531 5.2674 21.1189 5.77295C20.8768 6.06785 20.275 7.36542 21.2236 8.09004" stroke="#171717" stroke-width="1.375" stroke-linecap="round" stroke-linejoin="round"/>
<path d="M44.2546 27.3426C44.626 37.4931 36.6824 46.1103 26.527 46.59C16.3716 47.0697 7.83707 39.2148 7.46564 29.0644C7.0942 18.9139 15.0378 10.2967 25.1932 9.81703C35.3486 9.34591 43.8831 17.1922 44.2461 27.3426H44.2546Z" fill="white" stroke="#171717" stroke-width="1.375" stroke-linecap="round" stroke-linejoin="round"/>
<path d="M16.9564 31.0996C19.0321 30.0041 19.8267 27.4332 18.7311 25.3574C17.6356 23.2817 15.0647 22.4871 12.9889 23.5827C10.9132 24.6783 10.1186 27.2491 11.2142 29.3249C12.3098 31.4006 14.8806 32.1952 16.9564 31.0996Z" fill="#FDE0DF"/>
<path d="M38.2767 30.084C40.3525 28.9884 41.147 26.4176 40.0515 24.3418C38.9559 22.2661 36.385 21.4715 34.3093 22.5671C32.2335 23.6626 31.4389 26.2335 32.5345 28.3093C33.6301 30.385 36.201 31.1796 38.2767 30.084Z" fill="#FDE0DF"/>
<path d="M14.2555 18.7404C15.1613 18.6275 16.0223 19.0269 16.5962 19.7217C16.9639 18.9054 17.6904 18.3061 18.6052 18.1932C18.7038 18.1846 18.7935 18.1759 18.8922 18.1759C20.6858 18.1585 21.8428 20.4078 20.7307 21.997L18.1119 25.1407C17.7442 25.5836 17.0716 25.6705 16.5962 25.3318L13.2151 22.9349C11.7084 21.667 12.2376 19.2006 13.9864 18.7838C14.0761 18.7664 14.1658 18.749 14.2555 18.7317V18.7404Z" fill="#FF8295" stroke="#171717" stroke-width="1.375" stroke-linecap="round" stroke-linejoin="round"/>
<path d="M31.6617 17.0221C32.5729 17.0777 33.3457 17.6288 33.782 18.4173C34.2936 17.6825 35.1179 17.2272 36.0379 17.2845C36.1364 17.2941 36.2262 17.3021 36.3231 17.3202C38.0894 17.6331 38.8128 20.0568 37.4273 21.4143L34.2749 24.0227C33.832 24.3904 33.1549 24.352 32.75 23.9316L29.8675 20.9536C28.6198 19.4302 29.5936 17.1033 31.3893 17.0153C31.4806 17.0147 31.572 17.0141 31.6633 17.0135L31.6617 17.0221Z" fill="#FF8295" stroke="#171717" stroke-width="1.375" stroke-linecap="round" stroke-linejoin="round"/>
<path d="M19.94 40.7339C19.94 40.7339 24.1164 39.6601 22.862 36.0023C21.5925 32.3015 13.3975 32.1082 12.7891 37.9923" fill="white"/>
<path d="M19.94 40.7339C19.94 40.7339 24.1164 39.6601 22.862 36.0023C21.5925 32.3015 13.3975 32.1082 12.7891 37.9923" stroke="#171717" stroke-width="1.375" stroke-linecap="round" stroke-linejoin="round"/>
<path d="M36.1284 39.2506C36.1284 39.2506 31.7574 39.4408 31.5783 35.8137C31.3992 32.1374 37.1453 29.5503 40.6982 33.6112" fill="white"/>
<path d="M36.1284 39.2506C36.1284 39.2506 31.7574 39.4408 31.5783 35.8137C31.3992 32.1374 37.1453 29.5503 40.6982 33.6112" stroke="#171717" stroke-width="1.375" stroke-linecap="round" stroke-linejoin="round"/>
<path d="M22.9416 28.7049L22.582 29.5521L23.1182 31.9766L24.468 30.6658L26.581 30.5486L28.0758 30.069L30.0249 30.9003L29.7726 28.3052L27.6028 28.172L25.8872 27.8789L24.2787 28.7688L22.9416 28.7102V28.7049Z" fill="#BC6159"/>
<path d="M23.2305 32.3804L24.0757 30.8991L26.3274 30.622L28.1566 30.0625L30.0299 31.1016L28.9009 33.7393L26.7122 34.4373L24.246 33.8458L23.2368 32.3858L23.2305 32.3804Z" fill="#F38F7F"/>
<path d="M31.8047 26C31.8047 26 32.6719 26.5585 32.1925 27.4804C31.6312 28.5568 28.1936 28.5781 26.3329 27.8214C26.3329 27.8214 22.5989 29.5958 20.2588 28.0878C20.2588 28.0878 19.0604 27.3578 20.0885 26.5852" stroke="#181818" stroke-width="1.38" stroke-linecap="round" stroke-linejoin="round"/>
<path d="M29.8488 28.6992C29.8488 28.6992 31.1103 34.0545 26.9284 34.4222C23.0871 34.7579 22.305 30.6069 22.6646 28.987" stroke="#181818" stroke-width="1.38" stroke-linecap="round" stroke-linejoin="round"/>
<path d="M23.2305 32.2565C23.2305 32.2565 23.672 30.0717 26.1887 30.6366C26.1887 30.6366 27.8034 29.2618 29.7019 30.7964" stroke="#181818" stroke-width="1.38" stroke-linecap="round" stroke-linejoin="round"/>
</svg>
