<svg width="56" height="56" viewBox="0 0 56 56" fill="none" xmlns="http://www.w3.org/2000/svg">
<path d="M26.9646 53.2535C39.1083 53.2535 48.9527 43.4091 48.9527 31.2654C48.9527 19.1217 39.1083 9.27734 26.9646 9.27734C14.821 9.27734 4.97656 19.1217 4.97656 31.2654C4.97656 43.4091 14.821 53.2535 26.9646 53.2535Z" fill="white"/>
<path d="M26.9648 8.77539C39.3844 8.77551 49.4529 18.8442 49.4531 31.2637C49.453 43.6833 39.3845 53.7518 26.9648 53.752C14.5452 53.7518 4.47668 43.6833 4.47656 31.2637C4.47683 18.8441 14.5453 8.7755 26.9648 8.77539ZM26.9648 9.77539C15.0976 9.7755 5.47683 19.3964 5.47656 31.2637C5.47668 43.131 15.0975 52.7518 26.9648 52.752C38.8322 52.7518 48.453 43.131 48.4531 31.2637C48.4529 19.3964 38.8321 9.77551 26.9648 9.77539ZM34.5586 37.8877C34.717 37.6617 35.0297 37.6064 35.2559 37.7646C35.4815 37.923 35.5369 38.2359 35.3789 38.4619C33.5995 41.005 30.4889 42.6746 26.9688 42.6748C23.4485 42.6748 20.3381 41.005 18.5586 38.4619C18.4003 38.2357 18.4555 37.923 18.6816 37.7646C18.9078 37.6066 19.2207 37.6616 19.3789 37.8877C20.9645 40.1537 23.7629 41.6748 26.9688 41.6748C30.1745 41.6746 32.9731 40.1537 34.5586 37.8877ZM16.5479 26.8867C17.652 26.8872 18.5478 27.7825 18.5479 28.8867C18.5479 29.991 17.652 30.8863 16.5479 30.8867C15.4433 30.8867 14.5479 29.9913 14.5479 28.8867C14.5479 27.7822 15.4433 26.8867 16.5479 26.8867ZM37.3896 26.8867C38.494 26.8869 39.3896 27.7824 39.3896 28.8867C39.3896 29.9911 38.494 30.8865 37.3896 30.8867C36.2852 30.8866 35.3896 29.9912 35.3896 28.8867C35.3897 27.7823 36.2852 26.8868 37.3896 26.8867ZM48.9209 2.70703C49.197 2.70709 49.4208 2.93097 49.4209 3.20703V8.44043H54.6543C54.9303 8.44054 55.1543 8.66435 55.1543 8.94043C55.154 9.21629 54.9302 9.44032 54.6543 9.44043H49.4209V14.6729C49.4209 14.9489 49.197 15.1728 48.9209 15.1729C48.645 15.1726 48.4209 14.9488 48.4209 14.6729V9.44043H43.1885C42.9125 9.44043 42.6887 9.21636 42.6885 8.94043C42.6885 8.66429 42.9123 8.44043 43.1885 8.44043H48.4209V3.20703C48.421 2.93108 48.645 2.70727 48.9209 2.70703Z" fill="#171717"/>
<path d="M30.2552 5.37304C32.0158 3.65747 30.9319 1.42366 28.5307 1.79789C26.9439 2.04359 24.8606 4.60112 27.9452 9.2122" stroke="#171717" stroke-linecap="round"/>
</svg>
