<svg width="53" height="52" viewBox="0 0 53 52" fill="none" xmlns="http://www.w3.org/2000/svg">
<path d="M51.365 33.2812C51.4634 33.7537 51.5329 34.2394 51.5744 34.7101C51.573 34.7527 51.5995 34.8105 51.6124 34.8535L51.5849 34.8242C52.0649 40.5994 48.1356 45.9605 42.2076 47.2034C35.7639 48.5575 29.3965 44.5243 28.0108 38.1792C26.6108 31.8336 30.7109 25.5964 37.1687 24.2428C39.2022 23.8114 41.218 23.9198 43.0912 24.4786L39.9517 13.0421C39.7485 12.296 38.9806 11.8585 38.2354 12.0333L20.9432 16.3754C20.1687 16.5776 19.7019 17.373 19.9184 18.148C20.8511 21.3782 23.1193 29.4444 24.2404 35.1835C24.3663 35.6854 24.4632 36.2005 24.5171 36.7284C24.5162 36.7568 24.5152 36.7853 24.5285 36.8141C24.6367 37.8558 24.6304 38.9222 24.4242 40.0105C23.3198 46.4023 17.1487 50.7375 10.656 49.6724C4.14908 48.6069 -0.232877 42.5622 0.871576 36.1703C1.97603 29.7785 8.14716 25.4433 14.6398 26.5084C15.3611 26.6315 16.0663 26.8109 16.7266 27.06L12.1934 11.1837C12.0044 10.438 12.4272 9.68388 13.1596 9.46602L41.3414 2.26525C42.1027 2.03411 42.9127 2.48717 43.1154 3.24749L51.365 33.2812Z" fill="white"/>
<path d="M21.1794 42.8637C23.1468 42.8637 24.7417 41.2689 24.7417 39.3015C24.7417 37.3341 23.1468 35.7393 21.1794 35.7393C19.2121 35.7393 17.6172 37.3341 17.6172 39.3015C17.6172 41.2689 19.2121 42.8637 21.1794 42.8637Z" fill="#FDE0DF"/>
<path d="M4.26146 42.0298C6.22884 42.0298 7.8237 40.4349 7.8237 38.4675C7.8237 36.5001 6.22884 34.9053 4.26146 34.9053C2.29409 34.9053 0.699219 36.5001 0.699219 38.4675C0.699219 40.4349 2.29409 42.0298 4.26146 42.0298Z" fill="#FDE0DF"/>
<path d="M5.31617 33.1471L9.39373 35.7378L4.47165 36.3868" stroke="#171717" stroke-width="1.4" stroke-linecap="round" stroke-linejoin="round"/>
<path d="M19.9198 34.1636L15.4635 36.2156L20.3244 37.444" stroke="#171717" stroke-width="1.4" stroke-linecap="round" stroke-linejoin="round"/>
<path d="M7.82521 39.3584C7.82521 39.3584 6.59924 40.1365 7.00994 41.3369C7.48807 42.7375 10.3998 42.7671 11.9751 41.7816C11.9751 41.7816 15.1382 44.0936 17.1181 42.1298C17.1181 42.1298 18.1295 41.1813 17.2591 40.1735" stroke="#171717" stroke-width="1.4" stroke-linecap="round" stroke-linejoin="round"/>
<path d="M47.8904 40.2485C49.8577 40.2485 51.4526 38.6536 51.4526 36.6863C51.4526 34.7189 49.8577 33.124 47.8904 33.124C45.923 33.124 44.3281 34.7189 44.3281 36.6863C44.3281 38.6536 45.923 40.2485 47.8904 40.2485Z" fill="#FDE0DF"/>
<path d="M31.8552 42.0298C33.8226 42.0298 35.4175 40.4349 35.4175 38.4675C35.4175 36.5001 33.8226 34.9053 31.8552 34.9053C29.8878 34.9053 28.293 36.5001 28.293 38.4675C28.293 40.4349 29.8878 42.0298 31.8552 42.0298Z" fill="#FDE0DF"/>
<path d="M32.5092 31.9048L36.8515 33.7389L32.2021 35.0853" stroke="#171717" stroke-width="1.4" stroke-linecap="round" stroke-linejoin="round"/>
<path d="M46.9736 30.5334L42.9939 33.133L47.8787 33.5659" stroke="#171717" stroke-width="1.4" stroke-linecap="round" stroke-linejoin="round"/>
<path d="M38.4577 41.3723L37.9922 38.9661L40.2936 37.6517L42.5276 38.2544L42.5036 40.2827L41.9063 42.2707L40.6128 42.8348L39.1128 42.4437L38.4617 41.3761L38.4577 41.3723Z" fill="#F38F7F"/>
<path d="M43.9243 35.8345C43.9243 35.8345 44.5557 36.3956 44.2544 37.3715C43.9016 38.511 41.4857 38.6231 40.1481 37.8809C40.1481 37.8809 37.5919 39.8328 35.8882 38.318C35.8882 38.318 35.0173 37.5863 35.7101 36.752" stroke="#181818" stroke-width="1.4" stroke-linecap="round" stroke-linejoin="round"/>
<path d="M42.3285 38.4946C42.3285 38.4946 43.2509 42.4593 40.7496 42.8173C38.4521 43.1447 37.8547 40.0676 38.0209 38.8534" stroke="#181818" stroke-width="1.4" stroke-linecap="round" stroke-linejoin="round"/>
<path d="M51.365 33.2812C51.4634 33.7537 51.5329 34.2394 51.5744 34.7101C51.573 34.7527 51.5995 34.8105 51.6124 34.8535L51.5849 34.8242C52.0649 40.5994 48.1356 45.9605 42.2076 47.2034C35.7639 48.5575 29.3965 44.5243 28.0108 38.1792C26.6108 31.8336 30.7109 25.5964 37.1687 24.2428C39.2022 23.8114 41.218 23.9198 43.0912 24.4786L39.9517 13.0421C39.7485 12.296 38.9806 11.8585 38.2354 12.0333L20.9432 16.3754C20.1687 16.5776 19.7019 17.373 19.9184 18.148C20.8511 21.3782 23.1193 29.4444 24.2404 35.1835C24.3663 35.6854 24.4632 36.2005 24.5171 36.7284C24.5162 36.7568 24.5152 36.7853 24.5285 36.8141C24.6367 37.8558 24.6304 38.9222 24.4242 40.0105C23.3198 46.4023 17.1487 50.7375 10.656 49.6724C4.14908 48.6069 -0.232877 42.5622 0.871576 36.1703C1.97603 29.7785 8.14716 25.4433 14.6398 26.5084C15.3611 26.6315 16.0663 26.8109 16.7266 27.06L12.1934 11.1837C12.0044 10.438 12.4272 9.68388 13.1596 9.46602L41.3414 2.26525C42.1027 2.03411 42.9127 2.48717 43.1154 3.24749L51.365 33.2812Z" stroke="#171717" stroke-width="1.4" stroke-linecap="round" stroke-linejoin="round"/>
</svg>
