<svg width="50" height="51" viewBox="0 0 50 51" fill="none" xmlns="http://www.w3.org/2000/svg">
<path d="M12.8203 42.6474L21.9385 28.5557L39.346 34.3582V48.4499H35.2014L34.3725 39.3317L29.3989 47.621L12.8203 42.6474Z" fill="white"/>
<path d="M35.1993 23.579L31.0547 22.75C35.1993 14.46 38.0177 0.535304 42.6597 1.19845C47.3017 1.86159 39.8966 15.8423 35.1993 23.579Z" fill="#BEF0A3"/>
<path d="M28.5664 25.2403C28.5664 23.914 30.2243 23.0299 31.0532 22.7535C31.3295 22.4772 32.3795 22.2562 34.3689 23.5825C36.3583 24.9088 35.7505 26.8982 35.1978 27.7271C32.9874 27.4508 28.5664 26.5666 28.5664 25.2403Z" fill="#BEF0A3"/>
<path d="M39.3458 34.36L21.1094 28.5575C21.9383 24.4129 30.2276 25.2418 36.0301 27.7286C40.6721 29.718 40.1747 32.9785 39.3458 34.36Z" fill="#FFA271"/>
<path d="M39.8533 34.5813L20.8173 28.3908C21.6146 25.5831 26.1752 25.3363 28.6928 25.5281L35.0379 27.5895C40.0357 29.7943 40.4101 33.3881 39.8533 34.5813Z" stroke="#171717" stroke-width="1.4" stroke-linecap="round" stroke-linejoin="round"/>
<path d="M44.2292 4.09991L35.3502 24.1521L31.0966 22.5518L39.7915 2.17095C40.3461 0.870964 41.8922 0.321122 43.1431 0.979018C44.2698 1.57159 44.7446 2.9359 44.2292 4.09991Z" stroke="#171717" stroke-width="1.4" stroke-linecap="round" stroke-linejoin="round"/>
<path d="M20.8875 29.0643L11.9922 41.815L28.9179 47.2998L34.8137 38.5117L34.5192 48.7597L39.236 48.2682L39.1795 34.6511" stroke="#171717" stroke-width="1.4" stroke-linecap="round" stroke-linejoin="round"/>
<path d="M28.6247 24.8584C28.7791 24.1612 29.4922 22.7246 31.1094 22.5561" stroke="#171717" stroke-width="1.4" stroke-linecap="round" stroke-linejoin="round"/>
<path d="M35.3691 24.1524C35.6874 25.0275 36.0683 26.9404 35.0464 27.5918" stroke="#171717" stroke-width="1.4" stroke-linecap="round" stroke-linejoin="round"/>
<path d="M23.2607 45.1631L27.9493 37.8631" stroke="#171717" stroke-width="1.4" stroke-linecap="round" stroke-linejoin="round"/>
<path d="M16.9049 43.1016L23.4044 33.5695" stroke="#171717" stroke-width="1.4" stroke-linecap="round" stroke-linejoin="round"/>
<path d="M5.16406 24.928L5.94531 19.7598L10.3544 18.1973C17.9669 19.5434 16.4098 24.928 14.6797 27.4521L9.07031 28.3535L5.16406 24.928Z" fill="#91E2F4"/>
<path d="M14.5391 10.3848L12.4531 8.04102L12.978 4.91602L16.6224 4.13477L17.6641 8.30143L14.5391 10.3848Z" fill="#FFEB78"/>
<path d="M9.85156 13.5098H5.16406L3.60156 16.6348L5.94531 19.7598L10.6328 17.416L9.85156 13.5098Z" fill="#FFEB78"/>
<circle cx="10.7679" cy="23.2082" r="5.40534" transform="rotate(17.1043 10.7679 23.2082)" stroke="#171717" stroke-width="1.4"/>
<path d="M10.6293 17.5111C11.2146 15.609 10.1471 13.5925 8.24496 13.0071C6.34279 12.4218 4.32627 13.4893 3.74093 15.3914C3.15559 17.2936 4.22309 19.3101 6.12526 19.8955" stroke="#171717" stroke-width="1.4"/>
<circle cx="14.998" cy="6.8637" r="2.86623" transform="rotate(17.1043 14.998 6.8637)" stroke="#171717" stroke-width="1.4"/>
</svg>
